0
SECTION
2
HEADER
9
$INSUNITS
70
4
9
$ACADVER
1
AC1014
9
$HANDSEED
5
FFFF
0
ENDSEC
0
SECTION
2
TABLES
0
TABLE
2
VPORT
5
8
100
AcDbSymbolTable
0
ENDTAB
0
TABLE
2
LTYPE
5
5
100
AcDbSymbolTable
0
LTYPE
5
14
100
AcDbSymbolTableRecord
100
AcDbLinetypeTableRecord
2
BYBLOCK
70
0
0
LTYPE
5
15
100
AcDbSymbolTableRecord
100
AcDbLinetypeTableRecord
2
BYLAYER
70
0
0
ENDTAB
0
TABLE
2
LAYER
5
2
100
AcDbSymbolTable
70
2
0
LAYER
5
50
100
AcDbSymbolTableRecord
100
AcDbLayerTableRecord
2
0
70
0
6
CONTINUOUS
0
ENDTAB
0
TABLE
2
STYLE
5
3
100
AcDbSymbolTable
70
1
0
STYLE
5
11
100
AcDbSymbolTableRecord
100
AcDbTextStyleTableRecord
2
STANDARD
70
0
0
ENDTAB
0
TABLE
2
VIEW
5
6
100
AcDbSymbolTable
70
0
0
ENDTAB
0
TABLE
2
UCS
5
7
100
AcDbSymbolTable
70
0
0
ENDTAB
0
TABLE
2
APPID
5
9
100
AcDbSymbolTable
70
2
0
APPID
5
12
100
AcDbSymbolTableRecord
100
AcDbRegAppTableRecord
2
ACAD
70
0
0
ENDTAB
0
TABLE
2
DIMSTYLE
5
A
100
AcDbSymbolTable
70
1
0
ENDTAB
0
TABLE
2
BLOCK_RECORD
5
1
100
AcDbSymbolTable
70
1
0
BLOCK_RECORD
5
1F
100
AcDbSymbolTableRecord
100
AcDbBlockTableRecord
2
*MODEL_SPACE
0
BLOCK_RECORD
5
1B
100
AcDbSymbolTableRecord
100
AcDbBlockTableRecord
2
*PAPER_SPACE
0
ENDTAB
0
ENDSEC
0
SECTION
2
BLOCKS
0
BLOCK
5
20
100
AcDbEntity
100
AcDbBlockBegin
2
*MODEL_SPACE
0
ENDBLK
5
21
100
AcDbEntity
100
AcDbBlockEnd
0
BLOCK
5
1C
100
AcDbEntity
100
AcDbBlockBegin
2
*PAPER_SPACE
0
ENDBLK
5
1D
100
AcDbEntity
100
AcDbBlockEnd
0
ENDSEC
0
SECTION
2
ENTITIES
0
LWPOLYLINE
5
100
100
AcDbEntity
8
0
100
AcDbPolyline
90
38
70
1
43
0.0
10
6.022130064405216
20
0.030973089213681138
42
-0.08198547333112817
10
11.542550852462812
20
5.5669414308035279
10
13.603368826187188
20
7.0481543494179233
42
-0.054815007158006995
10
28.834636336264534
20
15.641615448271423
10
30.617070994646763
20
16.403969417718571
42
0.095185172496155879
10
32.805964812153483
20
17.882133529482299
10
34.366031589734803
20
19.437083518252123
42
-0.04016062432762512
10
53.935355304776849
20
36.03676962488548
10
69.809715108861383
20
47.446465724930405
42
-0.12428492273648599
10
88.025486370844249
20
54.63556826750461
10
90.829850144474435
20
54.99819909745505
42
0.25630411023588556
10
92.384070919826968
20
56.132361761152879
10
94.195116552896948
20
59.993398530609745
42
-0.26014562607717712
10
95.777936039445251
20
61.131050036566357
10
99.917727456599167
20
61.605839988226279
42
0.27600348716267026
10
101.54760905219236
20
62.852069170944191
10
107.00165250831711
20
76.530638074810483
42
0.25603697936174019
10
106.76791683401574
20
78.438655700913813
10
106.24030742685427
20
79.172720963051503
10
105.71269801969281
20
79.906786225189194
42
0.25603697936175213
10
103.97869751303156
20
80.736488503033883
10
89.275152801329739
20
79.926790911274807
42
0.27600348716267414
10
87.574418257363618
20
78.779139743684482
10
85.804883447103052
20
75.006601469390247
42
-0.26014562607717712
10
84.222063960554749
20
73.86894996343365
10
79.98515880085732
20
73.38302210058896
42
0.25630411023588351
10
78.414761682529758
20
72.271365653204199
10
77.177187543023209
20
69.728853617531442
42
-0.1242849229292617
10
64.55699066236977
20
54.754604057585951
10
48.68263082175632
20
43.344907931285867
42
-0.040160624137490122
10
26.711250889564013
20
30.087213291469403
10
24.740150101834033
20
29.104136604709371
42
0.095185172496156184
10
22.641399289096071
20
27.500556138484736
10
21.350677976201389
20
26.054079253576596
42
-0.054815007158008557
10
8.3506443928139227
20
14.356292691502279
10
0
20
8.35426703416727
10
0
20
0
10
6.0000000000000009
20
0
0
LWPOLYLINE
5
101
100
AcDbEntity
8
0
100
AcDbPolyline
90
8
70
1
43
0.0
10
95.363815248494404
20
72.682238727460643
10
95.244713564120147
20
74.876642373643151
42
-0.41421356237308726
10
96.189048483246012
20
75.929368150148889
10
100.61887218098624
20
76.169797692270592
42
-0.54748400815484943
10
101.60224335647808
20
74.801629100281957
10
99.962401105103552
20
70.67948624147742
42
-0.41421356237309748
10
98.663587114128845
20
70.119948738848393
10
96.62159945578027
20
70.93227809123681
42
-0.29242046409560613
0
CIRCLE
5
102
100
AcDbEntity
8
0
100
AcDbCircle
10
10.000016395170812
20
10.000011803910589
30
0
40
1.4999999999999991
210
0
220
0
230
1
0
CIRCLE
5
103
100
AcDbEntity
8
0
100
AcDbCircle
10
27.864354564710506
20
22.84000486326725
30
0
40
1.4999999999999991
210
0
220
0
230
1
0
CIRCLE
5
104
100
AcDbEntity
8
0
100
AcDbCircle
10
82.105003336818001
20
68.791908544884336
30
0
40
1.5000000000000049
210
0
220
0
230
1
0
CIRCLE
5
105
100
AcDbEntity
8
0
100
AcDbCircle
10
88.708091455115664
20
59.605003336818001
30
0
40
1.5000000000000033
210
0
220
0
230
1
0
CIRCLE
5
106
100
AcDbEntity
8
0
100
AcDbCircle
10
97.894996663181999
20
66.208091455115678
30
0
40
1.5000000000000062
210
0
220
0
230
1
0
CIRCLE
5
107
100
AcDbEntity
8
0
100
AcDbCircle
10
90
20
67.5
30
0
40
4.0000000000000036
210
0
220
0
230
1
0
CIRCLE
5
108
100
AcDbEntity
8
0
100
AcDbCircle
10
91.291908544884336
20
75.394996663181999
30
0
40
1.4999999999999973
210
0
220
0
230
1
0
ENDSEC
0
SECTION
2
OBJECTS
0
DICTIONARY
5
C
100
AcDbDictionary
3
ACAD_GROUP
350
D
3
ACAD_MLINESTYLE
350
17
0
DICTIONARY
5
D
100
AcDbDictionary
0
DICTIONARY
5
1A
330
C
100
AcDbDictionary
0
DICTIONARY
5
17
100
AcDbDictionary
0
ENDSEC
0
EOF
