0
SECTION
2
HEADER
9
$INSUNITS
70
4
9
$ACADVER
1
AC1014
9
$HANDSEED
5
FFFF
0
ENDSEC
0
SECTION
2
TABLES
0
TABLE
2
VPORT
5
8
100
AcDbSymbolTable
0
ENDTAB
0
TABLE
2
LTYPE
5
5
100
AcDbSymbolTable
0
LTYPE
5
14
100
AcDbSymbolTableRecord
100
AcDbLinetypeTableRecord
2
BYBLOCK
70
0
0
LTYPE
5
15
100
AcDbSymbolTableRecord
100
AcDbLinetypeTableRecord
2
BYLAYER
70
0
0
ENDTAB
0
TABLE
2
LAYER
5
2
100
AcDbSymbolTable
70
2
0
LAYER
5
50
100
AcDbSymbolTableRecord
100
AcDbLayerTableRecord
2
0
70
0
6
CONTINUOUS
0
ENDTAB
0
TABLE
2
STYLE
5
3
100
AcDbSymbolTable
70
1
0
STYLE
5
11
100
AcDbSymbolTableRecord
100
AcDbTextStyleTableRecord
2
STANDARD
70
0
0
ENDTAB
0
TABLE
2
VIEW
5
6
100
AcDbSymbolTable
70
0
0
ENDTAB
0
TABLE
2
UCS
5
7
100
AcDbSymbolTable
70
0
0
ENDTAB
0
TABLE
2
APPID
5
9
100
AcDbSymbolTable
70
2
0
APPID
5
12
100
AcDbSymbolTableRecord
100
AcDbRegAppTableRecord
2
ACAD
70
0
0
ENDTAB
0
TABLE
2
DIMSTYLE
5
A
100
AcDbSymbolTable
70
1
0
ENDTAB
0
TABLE
2
BLOCK_RECORD
5
1
100
AcDbSymbolTable
70
1
0
BLOCK_RECORD
5
1F
100
AcDbSymbolTableRecord
100
AcDbBlockTableRecord
2
*MODEL_SPACE
0
BLOCK_RECORD
5
1B
100
AcDbSymbolTableRecord
100
AcDbBlockTableRecord
2
*PAPER_SPACE
0
ENDTAB
0
ENDSEC
0
SECTION
2
BLOCKS
0
BLOCK
5
20
100
AcDbEntity
100
AcDbBlockBegin
2
*MODEL_SPACE
0
ENDBLK
5
21
100
AcDbEntity
100
AcDbBlockEnd
0
BLOCK
5
1C
100
AcDbEntity
100
AcDbBlockBegin
2
*PAPER_SPACE
0
ENDBLK
5
1D
100
AcDbEntity
100
AcDbBlockEnd
0
ENDSEC
0
SECTION
2
ENTITIES
0
LINE
5
100
100
AcDbEntity
8
0
100
AcDbLine
10
57.949623952224357
20
49.992554594816554
30
0
11
70.52577578779362
21
59.059082662319994
31
0
0
ARC
5
101
100
AcDbEntity
8
0
100
AcDbCircle
10
-59.010691122970115
20
212.22783034428016
30
0
40
199.99999999998317
210
0
220
0
230
1
100
AcDbArc
50
302.19008502196039
51
305.7889734591833
0
LWPOLYLINE
5
102
100
AcDbEntity
8
0
100
AcDbPolyline
90
8
70
1
43
0.0
10
101.23521407522961
20
79.378685210462422
10
101.35888770134464
20
77.19011051197279
42
0.29199139416113656
10
102.61762524768892
20
75.444119721882302
10
104.6549626022026
20
74.635163060145061
42
0.41421356237309848
10
105.95341516325479
20
75.195538779370125
10
107.58958998155987
20
79.31620461168923
42
0.54799792710582407
10
106.60375709632783
20
80.683650226688499
10
102.17720252422194
20
80.433511149641504
42
0.41421356237309231
0
LINE
5
103
100
AcDbEntity
8
0
100
AcDbLine
10
98.403846751402213
20
60.643187033226766
30
0
11
100.20589240739626
21
64.499430835600748
31
0
0
ARC
5
104
100
AcDbEntity
8
0
100
AcDbCircle
10
105.69544372964245
20
68.106734228142031
30
0
40
1.9999999999999813
210
0
220
0
230
1
100
AcDbArc
50
276.62491074528219
51
338.34367356677086
0
CIRCLE
5
105
100
AcDbEntity
8
0
100
AcDbCircle
10
97.280569275954619
20
79.896843811542325
30
0
40
1.5000000000000036
210
0
220
0
230
1
0
LINE
5
106
100
AcDbEntity
8
0
100
AcDbLine
10
91.794107607654368
20
79.500569143522526
30
0
11
93.55822287987111
21
83.275644743039749
31
0
0
LINE
5
107
100
AcDbEntity
8
0
100
AcDbLine
10
112.22352758247304
20
83.696031497082103
30
0
11
112.75219063107653
21
82.962724687728866
31
0
0
CIRCLE
5
108
100
AcDbEntity
8
0
100
AcDbCircle
10
94.719430739096012
20
64.103156167580963
30
0
40
1.5000000000000036
210
0
220
0
230
1
0
ARC
5
109
100
AcDbEntity
8
0
100
AcDbCircle
10
96.591924604069931
20
61.489909025386467
30
0
40
2.0000000000000293
210
0
220
0
230
1
100
AcDbArc
50
277.09192360679702
51
334.95303617308383
0
LINE
5
110
100
AcDbEntity
8
0
100
AcDbLine
10
85.984822985096159
20
77.869574838103006
30
0
11
90.212923525897423
21
78.360645735744271
31
0
0
ARC
5
111
100
AcDbEntity
8
0
100
AcDbCircle
10
110.07251177637474
20
83.259735155683217
30
0
40
2.0000000000000333
210
0
220
-0
230
1
100
AcDbArc
50
35.78897345918346
51
93.234273351595263
0
CIRCLE
5
112
100
AcDbEntity
8
0
100
AcDbCircle
10
88.103156185544634
20
73.280569257990948
30
0
40
1.5000000000000036
210
0
220
0
230
1
0
LINE
5
113
100
AcDbEntity
8
0
100
AcDbLine
10
94.125628796252286
20
59.167649413370938
30
0
11
96.838847797564526
21
59.505210323690278
31
0
0
ARC
5
114
100
AcDbEntity
8
0
100
AcDbCircle
10
99.064092666143807
20
19.473675379447236
30
0
40
40.000000000000412
210
0
220
0
230
1
100
AcDbArc
50
97.091923606796485
51
125.78897345918327
0
ARC
5
115
100
AcDbEntity
8
0
100
AcDbCircle
10
95.370145027203407
20
82.428922750880034
30
0
40
2.0000000000000586
210
0
220
0
230
1
100
AcDbArc
50
93.234273351597295
51
154.95303617308369
0
ARC
5
116
100
AcDbEntity
8
0
100
AcDbCircle
10
89.982185460322086
20
80.347291135682212
30
0
40
2.0000000000000204
210
0
220
0
230
1
100
AcDbArc
50
276.62491074528288
51
334.95303617308423
0
LINE
5
117
100
AcDbEntity
8
0
100
AcDbLine
10
83.232922330751478
20
74.27688741390466
30
0
11
84.4106005727715
21
76.744391958080612
31
0
0
LINE
5
118
100
AcDbEntity
8
0
100
AcDbLine
10
107.55427200991969
20
67.368657386314936
30
0
11
112.98866615385901
21
81.055044695149718
31
0
0
ARC
5
119
100
AcDbEntity
8
0
100
AcDbCircle
10
180.05619289079274
20
-119.3810732877073
30
0
40
200.00000000008862
210
0
220
0
230
1
100
AcDbArc
50
125.78897345918469
51
129.38786189640587
0
ARC
5
120
100
AcDbEntity
8
0
100
AcDbCircle
10
86.215561050671454
20
75.882929438165021
30
0
40
2.0000000000000431
210
0
220
0
230
1
100
AcDbArc
50
96.624910745281568
51
154.48602331156977
0
LINE
5
121
100
AcDbEntity
8
0
100
AcDbLine
10
47.535275917282817
20
42.970756910256114
30
0
11
26.05876215217425
21
29.45146414847531
31
0
0
LINE
5
122
100
AcDbEntity
8
0
100
AcDbLine
10
112.22352758247304
20
83.696031497082103
30
0
11
111.69486453386953
21
84.429338306435284
31
0
0
LINE
5
123
100
AcDbEntity
8
0
100
AcDbLine
10
101.78707648915321
20
65.639354243379017
30
0
11
105.92618179521776
21
66.120088828204118
31
0
0
ARC
5
124
100
AcDbEntity
8
0
100
AcDbCircle
10
111.12983787358182
20
81.793121536976855
30
0
40
1.9999999999999376
210
-0
220
0
230
1
100
AcDbArc
50
-21.656326433230735
51
35.788973459183559
0
ARC
5
125
100
AcDbEntity
8
0
100
AcDbCircle
10
102.01781455472855
20
63.652708843441054
30
0
40
2.0000000000000293
210
0
220
0
230
1
100
AcDbArc
50
96.624910745282847
51
154.95303617308406
0
LINE
5
126
100
AcDbEntity
8
0
100
AcDbLine
10
95.257307537016572
20
84.425737139051492
30
0
11
109.95967428618798
21
85.256549543854675
31
0
0
CIRCLE
5
127
100
AcDbEntity
8
0
100
AcDbCircle
10
103.896843829506
20
70.719430721132341
30
0
40
1.5000000000000036
210
0
220
0
230
1
0
CIRCLE
5
128
100
AcDbEntity
8
0
100
AcDbCircle
10
96.000000007525315
20
71.999999989561644
30
0
40
4.0000000000000036
210
0
220
0
230
1
0
LINE
5
129
100
AcDbEntity
8
0
100
AcDbLine
10
63.095877815532631
20
42.854202461839002
30
0
11
75.672029651102704
21
51.920730529343047
31
0
0
LINE
5
130
100
AcDbEntity
8
0
100
AcDbLine
10
53.142833800562045
20
35.192531459253296
30
0
11
33.529460588348257
21
19.088882446685567
31
0
0
CIRCLE
5
131
100
AcDbEntity
8
0
100
AcDbCircle
10
10.000016395170812
20
10.000011803910589
30
0
40
1.4999999999999991
210
0
220
0
230
1
0
ARC
5
132
100
AcDbEntity
8
0
100
AcDbCircle
10
47.13371277275202
20
91.506137812215997
30
0
40
40.000000000000867
210
-0
220
0
230
1
100
AcDbArc
50
305.78897345918369
51
334.48602331157065
0
CIRCLE
5
133
100
AcDbEntity
8
0
100
AcDbCircle
10
29.468233097462651
20
24.035237798586095
30
0
40
1.4999999999999991
210
0
220
0
230
1
0
LINE
5
134
100
AcDbEntity
8
0
100
AcDbLine
10
22.975068984037158
20
26.544962511333633
30
0
11
24.887702452420541
21
28.504996070554512
31
0
0
LINE
5
135
100
AcDbEntity
8
0
100
AcDbLine
10
29.797413293713213
20
17.08171072694492
30
0
11
32.261423254142514
21
18.276931732682101
31
0
0
LINE
5
136
100
AcDbEntity
8
0
100
AcDbLine
10
7.4268894635163152
20
13.569187870399087
30
0
11
10.408060544503499
21
15.718404231110785
31
0
0
LINE
5
137
100
AcDbEntity
8
0
100
AcDbLine
10
12.57314332682531
20
6.4308357374220906
30
0
11
15.554314407812875
21
8.5800520981340522
31
0
0
ARC
5
138
100
AcDbEntity
8
0
100
AcDbCircle
10
-45.732890691599373
20
93.591336590865779
30
0
40
96.000000000007589
210
0
220
0
230
1
100
AcDbArc
50
305.78897345918352
51
315.70124529890273
0
ARC
5
139
100
AcDbEntity
8
0
100
AcDbCircle
10
71.695265643907717
20
-69.292880261609895
30
0
40
95.999999999993918
210
0
220
-0
230
1
100
AcDbArc
50
115.87670161946299
51
125.78897345918352
0
ARC
5
140
100
AcDbEntity
8
0
100
AcDbCircle
10
29.468233097462651
20
24.035237798586095
30
0
40
6.4000000000000012
210
0
220
0
230
1
100
AcDbArc
50
122.1900850219606
51
135.70124529890319
0
ARC
5
141
100
AcDbEntity
8
0
100
AcDbCircle
10
29.468233097462651
20
24.035237798586095
30
0
40
6.4000000000000012
210
0
220
0
230
1
100
AcDbArc
50
295.87670161946352
51
309.38786189640609
0
ARC
5
142
100
AcDbEntity
8
0
100
AcDbCircle
10
10.000016395170812
20
10.000011803910589
30
0
40
4.3999999999999986
210
0
220
0
230
1
100
AcDbArc
50
125.78897345918331
51
305.78897345918335
0
ENDSEC
0
SECTION
2
OBJECTS
0
DICTIONARY
5
C
100
AcDbDictionary
3
ACAD_GROUP
350
D
3
ACAD_MLINESTYLE
350
17
0
DICTIONARY
5
D
100
AcDbDictionary
0
DICTIONARY
5
1A
330
C
100
AcDbDictionary
0
DICTIONARY
5
17
100
AcDbDictionary
0
ENDSEC
0
EOF
