0
SECTION
2
HEADER
9
$INSUNITS
70
4
9
$ACADVER
1
AC1014
9
$HANDSEED
5
FFFF
0
ENDSEC
0
SECTION
2
TABLES
0
TABLE
2
VPORT
5
8
100
AcDbSymbolTable
0
ENDTAB
0
TABLE
2
LTYPE
5
5
100
AcDbSymbolTable
0
LTYPE
5
14
100
AcDbSymbolTableRecord
100
AcDbLinetypeTableRecord
2
BYBLOCK
70
0
0
LTYPE
5
15
100
AcDbSymbolTableRecord
100
AcDbLinetypeTableRecord
2
BYLAYER
70
0
0
ENDTAB
0
TABLE
2
LAYER
5
2
100
AcDbSymbolTable
70
2
0
LAYER
5
50
100
AcDbSymbolTableRecord
100
AcDbLayerTableRecord
2
0
70
0
6
CONTINUOUS
0
ENDTAB
0
TABLE
2
STYLE
5
3
100
AcDbSymbolTable
70
1
0
STYLE
5
11
100
AcDbSymbolTableRecord
100
AcDbTextStyleTableRecord
2
STANDARD
70
0
0
ENDTAB
0
TABLE
2
VIEW
5
6
100
AcDbSymbolTable
70
0
0
ENDTAB
0
TABLE
2
UCS
5
7
100
AcDbSymbolTable
70
0
0
ENDTAB
0
TABLE
2
APPID
5
9
100
AcDbSymbolTable
70
2
0
APPID
5
12
100
AcDbSymbolTableRecord
100
AcDbRegAppTableRecord
2
ACAD
70
0
0
ENDTAB
0
TABLE
2
DIMSTYLE
5
A
100
AcDbSymbolTable
70
1
0
ENDTAB
0
TABLE
2
BLOCK_RECORD
5
1
100
AcDbSymbolTable
70
1
0
BLOCK_RECORD
5
1F
100
AcDbSymbolTableRecord
100
AcDbBlockTableRecord
2
*MODEL_SPACE
0
BLOCK_RECORD
5
1B
100
AcDbSymbolTableRecord
100
AcDbBlockTableRecord
2
*PAPER_SPACE
0
ENDTAB
0
ENDSEC
0
SECTION
2
BLOCKS
0
BLOCK
5
20
100
AcDbEntity
100
AcDbBlockBegin
2
*MODEL_SPACE
0
ENDBLK
5
21
100
AcDbEntity
100
AcDbBlockEnd
0
BLOCK
5
1C
100
AcDbEntity
100
AcDbBlockBegin
2
*PAPER_SPACE
0
ENDBLK
5
1D
100
AcDbEntity
100
AcDbBlockEnd
0
ENDSEC
0
SECTION
2
ENTITIES
0
LINE
5
100
100
AcDbEntity
8
0
100
AcDbLine
10
95.533401769992736
20
81.821593637956141
30
0
11
95.7163117641865
21
83.311675575380448
31
0
0
LINE
5
101
100
AcDbEntity
8
0
100
AcDbLine
10
26.397932426365813
20
20.625207008517986
30
0
11
18.517795006735444
21
14.468630504669333
31
0
0
LINE
5
102
100
AcDbEntity
8
0
100
AcDbLine
10
20.623302095257298
20
14.210096367302077
30
0
11
26.139398288998557
21
18.519699919996132
31
0
0
ELLIPSE
5
103
100
AcDbEntity
8
0
100
AcDbEllipse
10
104.01641153339652
20
81.269411743658793
30
0
11
3.1520008427492288
21
2.4626998776359699
31
0.0
40
0.74999999999999944
41
0
42
6.2831853071795862
0
CIRCLE
5
104
100
AcDbEntity
8
0
100
AcDbCircle
10
93.403531670457696
20
64.450188598486477
30
0
40
1.5000000000000013
0
ARC
5
105
100
AcDbEntity
8
0
100
AcDbCircle
10
91.539378236796139
20
44.868803209246416
30
0
40
15.999999999999627
100
AcDbArc
50
91.719305115460855
51
127.99935943603863
0
LINE
5
106
100
AcDbEntity
8
0
100
AcDbLine
10
81.081437323811429
20
73.636461531213399
30
0
11
81.803236308855389
21
76.207080136920297
31
0
0
LINE
5
107
100
AcDbEntity
8
0
100
AcDbLine
10
85.12108472818035
20
79.630327627201027
30
0
11
84.988783210112416
21
79.584674429060712
31
0
0
CIRCLE
5
108
100
AcDbEntity
8
0
100
AcDbCircle
10
103.99047887339918
20
72.721618276730155
30
0
40
1.5000000000000036
0
CIRCLE
5
109
100
AcDbEntity
8
0
100
AcDbCircle
10
95.7163117641865
20
83.311675575380448
30
0
40
1.5000000000000036
0
ARC
5
110
100
AcDbEntity
8
0
100
AcDbCircle
10
81.206745637498273
20
90.9739579756897
30
0
40
11.999999999999796
100
AcDbArc
50
289.03798483202365
51
326.96544141845021
0
LINE
5
111
100
AcDbEntity
8
0
100
AcDbLine
10
91.059329726039806
20
60.861600132464972
30
0
11
93.735435736361481
21
60.941927589322532
31
0
0
CIRCLE
5
112
100
AcDbEntity
8
0
100
AcDbCircle
10
85.132101992214047
20
75.037135801427937
30
0
40
1.5000000000000036
0
CIRCLE
5
113
100
AcDbEntity
8
0
100
AcDbCircle
10
10
20
10
30
0
40
1.4999999999999993
0
LINE
5
114
100
AcDbEntity
8
0
100
AcDbLine
10
97.853939183585112
20
63.332067904716268
30
0
11
97.777073993138259
21
63.213866356205919
31
0
0
ARC
5
115
100
AcDbEntity
8
0
100
AcDbCircle
10
25.215911813421258
20
19.701720532940687
30
0
40
1.5000000000000027
100
AcDbArc
50
-52.000278108576254
51
127.99972189142365
0
LINE
5
116
100
AcDbEntity
8
0
100
AcDbLine
10
106.35802208958702
20
88.666189691682135
30
0
11
94.723107279767774
21
86.755499072711785
31
0
0
LINE
5
117
100
AcDbEntity
8
0
100
AcDbLine
10
107.09167922467424
20
70.926075891751012
30
0
11
111.75968914855807
21
81.752637252958294
31
0
0
ARC
5
118
100
AcDbEntity
8
0
100
AcDbCircle
10
107.16828192730225
20
83.732278566075394
30
0
40
5.0000000000000044
100
AcDbArc
50
-23.323880005961833
51
99.326019867794429
0
LINE
5
119
100
AcDbEntity
8
0
100
AcDbLine
10
82.741269411126183
20
64.644275384079023
30
0
11
85.819708873931475
21
60.70432481664254
31
0
0
ARC
5
120
100
AcDbEntity
8
0
100
AcDbCircle
10
93.585420576750224
20
65.939676627828462
30
0
40
5.0000000000000107
100
AcDbArc
50
259.38515450758075
51
326.96426144817315
0
ARC
5
121
100
AcDbEntity
8
0
100
AcDbCircle
10
86.620921219676035
20
74.854331786320216
30
0
40
5.0040000000000191
100
AcDbArc
50
109.0362718920538
51
176.61537883418623
0
CIRCLE
5
122
100
AcDbEntity
8
0
100
AcDbCircle
10
93.585420576750224
20
65.939676627828462
30
0
40
1.5000000000000036
0
LINE
5
123
100
AcDbEntity
8
0
100
AcDbLine
10
103.99978307771224
20
68.13385822834455
30
0
11
104.13118285860944
21
68.179197812045956
31
0
0
ARC
5
124
100
AcDbEntity
8
0
100
AcDbCircle
10
102.50027973070253
20
72.905735126759922
30
0
40
5.0000000000000089
100
AcDbArc
50
289.0371181785622
51
336.67589634808894
0
ARC
5
125
100
AcDbEntity
8
0
100
AcDbCircle
10
65.677169023825599
20
77.961795985570205
30
0
40
15.999999999999822
100
AcDbArc
50
307.99935942983961
51
344.31589274708659
0
LINE
5
126
100
AcDbEntity
8
0
100
AcDbLine
10
86.620921219676035
20
74.854331786320216
30
0
11
85.132101992214047
21
75.037135801427937
31
0
0
CIRCLE
5
127
100
AcDbEntity
8
0
100
AcDbCircle
10
94.561121106164592
20
73.87959376681377
30
0
40
4.0000000000000036
0
LINE
5
128
100
AcDbEntity
8
0
100
AcDbLine
10
82.741269411126183
20
64.644275384079023
30
0
11
79.662829948320876
21
68.584225951515506
31
0
0
LINE
5
129
100
AcDbEntity
8
0
100
AcDbLine
10
10
20
10
30
0
11
11.182022437521425
21
10.923484140197278
31
0
0
LINE
5
130
100
AcDbEntity
8
0
100
AcDbLine
10
11.031663987450758
20
8.6198824583157787
30
0
11
94.561121106164592
21
73.87959376681377
31
0
0
CIRCLE
5
131
100
AcDbEntity
8
0
100
AcDbCircle
10
31.520021749124595
20
24.626981736020831
30
0
40
1.4999999999999991
0
CIRCLE
5
132
100
AcDbEntity
8
0
100
AcDbCircle
10
102.50027973070253
20
72.905735126759922
30
0
40
1.5000000000000036
0
ARC
5
133
100
AcDbEntity
8
0
100
AcDbCircle
10
95.533401769992736
20
81.821593637956141
30
0
40
5.0000000000000258
100
AcDbArc
50
99.326422275469028
51
146.96520044489344
0
CIRCLE
5
134
100
AcDbEntity
8
0
100
AcDbCircle
10
86.620921219676035
20
74.854331786320216
30
0
40
1.5000000000000036
0
ARC
5
135
100
AcDbEntity
8
0
100
AcDbCircle
10
107.91393296594487
20
56.790162593656831
30
0
40
11.999999999999361
100
AcDbArc
50
109.03702918816974
51
146.96448551060107
0
CIRCLE
5
136
100
AcDbEntity
8
0
100
AcDbCircle
10
86.620921219676035
20
74.854331786320216
30
0
40
1.5000000000000036
0
LINE
5
137
100
AcDbEntity
8
0
100
AcDbLine
10
24.292425337843959
20
20.883741145885246
30
0
11
18.7763291441027
21
16.574137593191189
31
0
0
LINE
5
138
100
AcDbEntity
8
0
100
AcDbLine
10
91.266848561901128
20
84.432220503854225
30
0
11
91.341703681995824
21
84.547335213946695
31
0
0
CIRCLE
5
139
100
AcDbEntity
8
0
100
AcDbCircle
10
94.561121106168443
20
73.87959376680881
30
0
40
4.0000000000000036
0
CIRCLE
5
140
100
AcDbEntity
8
0
100
AcDbCircle
10
95.533401769992736
20
81.821593637956141
30
0
40
1.5000000000000036
0
ARC
5
141
100
AcDbEntity
8
0
100
AcDbCircle
10
19.699815619680002
20
15.392116980246634
30
0
40
1.5000000000000027
100
AcDbArc
50
127.99972189142385
51
307.99972189142358
0
LINE
5
142
100
AcDbEntity
8
0
100
AcDbLine
10
11.031663987450758
20
8.6198824583157787
30
0
11
12.607699260680057
21
9.8511877890365316
31
0
0
ARC
5
143
100
AcDbEntity
8
0
100
AcDbCircle
10
10.925428352505316
20
12.004445981185278
30
-1.5012826067922832e-15
40
7.7325199689796236
100
AcDbArc
50
141.11831324222575
51
307.9993594360385
0
ARC
5
144
100
AcDbEntity
8
0
100
AcDbCircle
10
-2.2204460492503131e-15
20
59.642894830671374
30
4.7100915943518795e-15
40
41.999999999999957
100
AcDbArc
50
280.04054498834853
51
307.99881802387864
0
LINE
5
145
100
AcDbEntity
8
0
100
AcDbLine
10
25.857099199063313
20
26.545909756350831
30
-7.4187274621582168e-16
11
75.527611668320617
21
65.353513798550892
31
0
0
LINE
5
146
100
AcDbEntity
8
0
100
AcDbLine
10
15.685974881405
20
5.9110838700967028
30
-1.5012826067922832e-15
11
81.688935590937106
21
57.477085395199829
31
0
0
ARC
5
147
100
AcDbEntity
8
0
100
AcDbCircle
10
8.0198712409506925
20
14.347402060655433
30
-2.1054888094463786e-15
40
3.9999999999999791
100
AcDbArc
50
100.04054498834839
51
141.11831324222587
0
ENDSEC
0
SECTION
2
OBJECTS
0
DICTIONARY
5
C
100
AcDbDictionary
3
ACAD_GROUP
350
D
3
ACAD_MLINESTYLE
350
17
0
DICTIONARY
5
D
100
AcDbDictionary
0
DICTIONARY
5
1A
330
C
100
AcDbDictionary
0
DICTIONARY
5
17
100
AcDbDictionary
0
ENDSEC
0
EOF
