0
SECTION
2
HEADER
9
$INSUNITS
70
4
9
$ACADVER
1
AC1014
9
$HANDSEED
5
FFFF
0
ENDSEC
0
SECTION
2
TABLES
0
TABLE
2
VPORT
5
8
100
AcDbSymbolTable
0
ENDTAB
0
TABLE
2
LTYPE
5
5
100
AcDbSymbolTable
0
LTYPE
5
14
100
AcDbSymbolTableRecord
100
AcDbLinetypeTableRecord
2
BYBLOCK
70
0
0
LTYPE
5
15
100
AcDbSymbolTableRecord
100
AcDbLinetypeTableRecord
2
BYLAYER
70
0
0
ENDTAB
0
TABLE
2
LAYER
5
2
100
AcDbSymbolTable
70
2
0
LAYER
5
50
100
AcDbSymbolTableRecord
100
AcDbLayerTableRecord
2
0
70
0
6
CONTINUOUS
0
ENDTAB
0
TABLE
2
STYLE
5
3
100
AcDbSymbolTable
70
1
0
STYLE
5
11
100
AcDbSymbolTableRecord
100
AcDbTextStyleTableRecord
2
STANDARD
70
0
0
ENDTAB
0
TABLE
2
VIEW
5
6
100
AcDbSymbolTable
70
0
0
ENDTAB
0
TABLE
2
UCS
5
7
100
AcDbSymbolTable
70
0
0
ENDTAB
0
TABLE
2
APPID
5
9
100
AcDbSymbolTable
70
2
0
APPID
5
12
100
AcDbSymbolTableRecord
100
AcDbRegAppTableRecord
2
ACAD
70
0
0
ENDTAB
0
TABLE
2
DIMSTYLE
5
A
100
AcDbSymbolTable
70
1
0
ENDTAB
0
TABLE
2
BLOCK_RECORD
5
1
100
AcDbSymbolTable
70
1
0
BLOCK_RECORD
5
1F
100
AcDbSymbolTableRecord
100
AcDbBlockTableRecord
2
*MODEL_SPACE
0
BLOCK_RECORD
5
1B
100
AcDbSymbolTableRecord
100
AcDbBlockTableRecord
2
*PAPER_SPACE
0
ENDTAB
0
ENDSEC
0
SECTION
2
BLOCKS
0
BLOCK
5
20
100
AcDbEntity
100
AcDbBlockBegin
2
*MODEL_SPACE
0
ENDBLK
5
21
100
AcDbEntity
100
AcDbBlockEnd
0
BLOCK
5
1C
100
AcDbEntity
100
AcDbBlockBegin
2
*PAPER_SPACE
0
ENDBLK
5
1D
100
AcDbEntity
100
AcDbBlockEnd
0
ENDSEC
0
SECTION
2
ENTITIES
0
CIRCLE
5
100
100
AcDbEntity
8
0
100
AcDbCircle
10
29.468233097462651
20
24.035237798586095
30
0
40
1.4999999999999991
210
0
220
0
230
1
0
LINE
5
101
100
AcDbEntity
8
0
100
AcDbLine
10
75.999162357059745
20
52.649681392919504
30
0
11
58.095195881539624
21
39.742170678009579
31
0
0
LINE
5
102
100
AcDbEntity
8
0
100
AcDbLine
10
25.805768746980789
20
15.585889803359787
30
0
11
32.089743606385824
21
18.63823097520655
31
0
0
LINE
5
103
100
AcDbEntity
8
0
100
AcDbLine
10
71.320749754051576
20
59.139092422898614
30
0
11
53.416783278532947
21
46.231581707989804
31
0
0
ARC
5
104
100
AcDbEntity
8
0
100
AcDbCircle
10
10.000016395170812
20
10.000011803910589
30
0
40
4
210
0
220
0
230
1
100
AcDbArc
50
125.78897345918342
51
305.78897345918341
0
LINE
5
105
100
AcDbEntity
8
0
100
AcDbLine
10
12.339222696674906
20
6.7553062889210471
30
0
11
18.707377200317119
21
11.34630139619798
31
0
0
ARC
5
106
100
AcDbEntity
8
0
100
AcDbCircle
10
-14.041511020742142
20
56.772178606053807
30
0
40
48.000000000002984
210
0
220
0
230
1
100
AcDbArc
50
305.78897345918352
51
315.67051815164507
0
CIRCLE
5
107
100
AcDbEntity
8
0
100
AcDbCircle
10
96.000000007525315
20
71.999999989561644
30
0
40
4.0000000000000036
210
0
220
0
230
1
0
LINE
5
108
100
AcDbEntity
8
0
100
AcDbLine
10
85.936005586395211
20
77.863904962571596
30
0
11
90.212923525897423
21
78.360645735744271
31
0
0
CIRCLE
5
109
100
AcDbEntity
8
0
100
AcDbCircle
10
97.280569275954619
20
79.896843811542325
30
0
40
1.5000000000000036
210
0
220
0
230
1
0
LINE
5
110
100
AcDbEntity
8
0
100
AcDbLine
10
101.78707648915321
20
65.639354243379017
30
0
11
105.92618179521776
21
66.120088828204118
31
0
0
LINE
5
111
100
AcDbEntity
8
0
100
AcDbLine
10
91.794107607654368
20
79.500569143522526
30
0
11
93.55822287987111
21
83.275644743039749
31
0
0
LINE
5
112
100
AcDbEntity
8
0
100
AcDbLine
10
107.55427200991969
20
67.368657386314936
30
0
11
112.98866615385901
21
81.055044695149718
31
0
0
CIRCLE
5
113
100
AcDbEntity
8
0
100
AcDbCircle
10
103.896843829506
20
70.719430721132341
30
0
40
1.5000000000000036
210
0
220
0
230
1
0
LINE
5
114
100
AcDbEntity
8
0
100
AcDbLine
10
112.22352758247304
20
83.696031497082103
30
0
11
111.69486453386953
21
84.429338306435284
31
0
0
CIRCLE
5
115
100
AcDbEntity
8
0
100
AcDbCircle
10
88.103156185544634
20
73.280569257990948
30
0
40
1.5000000000000036
210
0
220
0
230
1
0
LINE
5
116
100
AcDbEntity
8
0
100
AcDbLine
10
98.383040438870864
20
60.598663070427953
30
0
11
100.20589240739626
21
64.499430835600748
31
0
0
LINE
5
117
100
AcDbEntity
8
0
100
AcDbLine
10
112.22352758247304
20
83.696031497082103
30
0
11
112.75219063107653
21
82.962724687728866
31
0
0
LINE
5
118
100
AcDbEntity
8
0
100
AcDbLine
10
7.6608100936667185
20
13.244717318900129
30
0
11
14.028964597308772
21
17.835712426176936
31
0
0
LINE
5
119
100
AcDbEntity
8
0
100
AcDbLine
10
20.294485731447974
20
23.230572695873004
30
0
11
25.176233503439136
21
28.227938537358416
31
0
0
CIRCLE
5
120
100
AcDbEntity
8
0
100
AcDbCircle
10
10.000016395170812
20
10.000011803910589
30
0
40
1.4999999999999991
210
0
220
0
230
1
0
LINE
5
121
100
AcDbEntity
8
0
100
AcDbLine
10
95.257307537016572
20
84.425737139051492
30
0
11
109.95967428618798
21
85.256549543854675
31
0
0
CIRCLE
5
122
100
AcDbEntity
8
0
100
AcDbCircle
10
94.719430739096012
20
64.103156167580963
30
0
40
1.5000000000000036
210
0
220
0
230
1
0
ARC
5
123
100
AcDbEntity
8
0
100
AcDbCircle
10
46.777852818365616
20
-27.590164783675775
30
0
40
47.999999999999041
210
0
220
0
230
1
100
AcDbArc
50
115.90742876672113
51
125.78897345918331
0
LINE
5
124
100
AcDbEntity
8
0
100
AcDbLine
10
39.389202549526885
20
36.988426743820035
30
0
11
26.380251067076699
21
29.179590719995502
31
0
0
LINE
5
125
100
AcDbEntity
8
0
100
AcDbLine
10
44.89279630081608
20
29.354409604932172
30
0
11
33.373114537140502
21
19.479812358294108
31
0
0
ARC
5
126
100
AcDbEntity
8
0
100
AcDbCircle
10
175.05551095672925
20
-122.49310507144806
30
0
40
199.99999999997544
210
0
220
0
230
1
100
AcDbArc
50
125.78897345918317
51
130.60296993124905
0
ARC
5
127
100
AcDbEntity
8
0
100
AcDbCircle
10
-63.543531796596923
20
208.46685745735005
30
0
40
199.99999999986153
210
0
220
0
230
1
100
AcDbArc
50
300.97497698711686
51
305.78897345918557
0
LINE
5
128
100
AcDbEntity
8
0
100
AcDbLine
10
84.395843337788961
20
76.806728269601024
30
0
11
80.941504368924029
21
70.225237231337005
31
0
0
LINE
5
129
100
AcDbEntity
8
0
100
AcDbLine
10
89.557486968199825
20
58.274035561373893
30
0
11
96.89332615409441
21
59.471510169564468
31
0
0
ARC
5
130
100
AcDbEntity
8
0
100
AcDbCircle
10
52.607099342019616
20
85.096736542814199
30
0
40
31.999999999998934
210
0
220
0
230
1
100
AcDbArc
50
305.78897345918301
51
332.30696878058296
0
ARC
5
131
100
AcDbEntity
8
0
100
AcDbCircle
10
94.712812769092167
20
26.692037273004004
30
0
40
31.999999999999137
210
0
220
0
230
1
100
AcDbArc
50
99.270978137783899
51
125.78897345918379
0
ARC
5
132
100
AcDbEntity
8
0
100
AcDbCircle
10
86.166743651970492
20
75.877259562633725
30
0
40
1.9999999999999349
210
0
220
-0
230
1
100
AcDbArc
50
96.624910745281554
51
152.3069687805837
0
ARC
5
133
100
AcDbEntity
8
0
100
AcDbCircle
10
95.370145027203407
20
82.428922750880034
30
0
40
2.0000000000000586
210
0
220
-0
230
1
100
AcDbArc
50
93.234273351597295
51
154.95303617308369
0
ARC
5
134
100
AcDbEntity
8
0
100
AcDbCircle
10
89.982185460322086
20
80.347291135682212
30
0
40
2.0000000000000204
210
0
220
0
230
1
100
AcDbArc
50
276.62491074528288
51
334.95303617308423
0
ARC
5
135
100
AcDbEntity
8
0
100
AcDbCircle
10
105.69544372964245
20
68.106734228142031
30
0
40
1.9999999999999813
210
0
220
0
230
1
100
AcDbArc
50
276.62491074528219
51
338.34367356677086
0
ARC
5
136
100
AcDbEntity
8
0
100
AcDbCircle
10
96.571118291538653
20
61.445385062587562
30
0
40
1.9999999999999223
210
0
220
0
230
1
100
AcDbArc
50
279.27097813778357
51
334.95303617308542
0
ARC
5
137
100
AcDbEntity
8
0
100
AcDbCircle
10
110.07251177637474
20
83.259735155683217
30
0
40
2.0000000000000333
210
0
220
-0
230
1
100
AcDbArc
50
35.78897345918346
51
93.234273351595263
0
ARC
5
138
100
AcDbEntity
8
0
100
AcDbCircle
10
111.12983787358182
20
81.793121536976855
30
0
40
1.9999999999999376
210
-0
220
0
230
1
100
AcDbArc
50
-21.656326433230735
51
35.788973459183559
0
ARC
5
139
100
AcDbEntity
8
0
100
AcDbCircle
10
102.01781455472855
20
63.652708843441054
30
0
40
2.0000000000000293
210
0
220
-0
230
1
100
AcDbArc
50
96.624910745282847
51
154.95303617308406
0
ARC
5
140
100
AcDbEntity
8
0
100
AcDbCircle
10
29.468233097462651
20
24.035237798586095
30
0
40
6.0000000000000018
210
0
220
0
230
1
100
AcDbArc
50
120.97497698711798
51
135.6705181516453
0
ARC
5
141
100
AcDbEntity
8
0
100
AcDbCircle
10
29.468233097462651
20
24.035237798586095
30
0
40
5.9999999999999982
210
0
220
0
230
1
100
AcDbArc
50
295.9074287667213
51
310.60296993124871
0
LWPOLYLINE
5
142
100
AcDbEntity
8
0
100
AcDbPolyline
90
8
70
1
43
0.0
10
105.95341516325479
20
75.195538779370125
10
107.58958998155987
20
79.31620461168923
42
0.54799792710582407
10
106.60375709632783
20
80.683650226688499
10
102.17720252422194
20
80.433511149641504
42
0.41421356237309231
10
101.23521407522961
20
79.378685210462422
10
101.35888770134464
20
77.19011051197279
42
0.29199139416113656
10
102.61762524768892
20
75.444119721882302
10
104.6549626022026
20
74.635163060145061
42
0.41421356237309848
0
ENDSEC
0
SECTION
2
OBJECTS
0
DICTIONARY
5
C
100
AcDbDictionary
3
ACAD_GROUP
350
D
3
ACAD_MLINESTYLE
350
17
0
DICTIONARY
5
D
100
AcDbDictionary
0
DICTIONARY
5
1A
330
C
100
AcDbDictionary
0
DICTIONARY
5
17
100
AcDbDictionary
0
ENDSEC
0
EOF
