0
SECTION
2
HEADER
9
$INSUNITS
70
4
9
$ACADVER
1
AC1014
9
$HANDSEED
5
FFFF
0
ENDSEC
0
SECTION
2
TABLES
0
TABLE
2
VPORT
5
8
100
AcDbSymbolTable
0
ENDTAB
0
TABLE
2
LTYPE
5
5
100
AcDbSymbolTable
0
LTYPE
5
14
100
AcDbSymbolTableRecord
100
AcDbLinetypeTableRecord
2
BYBLOCK
70
0
0
LTYPE
5
15
100
AcDbSymbolTableRecord
100
AcDbLinetypeTableRecord
2
BYLAYER
70
0
0
ENDTAB
0
TABLE
2
LAYER
5
2
100
AcDbSymbolTable
70
2
0
LAYER
5
50
100
AcDbSymbolTableRecord
100
AcDbLayerTableRecord
2
0
70
0
6
CONTINUOUS
0
ENDTAB
0
TABLE
2
STYLE
5
3
100
AcDbSymbolTable
70
1
0
STYLE
5
11
100
AcDbSymbolTableRecord
100
AcDbTextStyleTableRecord
2
STANDARD
70
0
0
ENDTAB
0
TABLE
2
VIEW
5
6
100
AcDbSymbolTable
70
0
0
ENDTAB
0
TABLE
2
UCS
5
7
100
AcDbSymbolTable
70
0
0
ENDTAB
0
TABLE
2
APPID
5
9
100
AcDbSymbolTable
70
2
0
APPID
5
12
100
AcDbSymbolTableRecord
100
AcDbRegAppTableRecord
2
ACAD
70
0
0
ENDTAB
0
TABLE
2
DIMSTYLE
5
A
100
AcDbSymbolTable
70
1
0
ENDTAB
0
TABLE
2
BLOCK_RECORD
5
1
100
AcDbSymbolTable
70
1
0
BLOCK_RECORD
5
1F
100
AcDbSymbolTableRecord
100
AcDbBlockTableRecord
2
*MODEL_SPACE
0
BLOCK_RECORD
5
1B
100
AcDbSymbolTableRecord
100
AcDbBlockTableRecord
2
*PAPER_SPACE
0
ENDTAB
0
ENDSEC
0
SECTION
2
BLOCKS
0
BLOCK
5
20
100
AcDbEntity
100
AcDbBlockBegin
2
*MODEL_SPACE
0
ENDBLK
5
21
100
AcDbEntity
100
AcDbBlockEnd
0
BLOCK
5
1C
100
AcDbEntity
100
AcDbBlockBegin
2
*PAPER_SPACE
0
ENDBLK
5
1D
100
AcDbEntity
100
AcDbBlockEnd
0
ENDSEC
0
SECTION
2
ENTITIES
0
LINE
5
100
100
AcDbEntity
8
0
100
AcDbLine
10
108.23444116262743
20
80.680878397500237
30
0
11
108.76241928751695
21
79.947078291721624
31
0
0
CIRCLE
5
101
100
AcDbEntity
8
0
100
AcDbCircle
10
90.712057956088017
20
61.104355296017694
30
0
40
1.5000000000000036
210
0
220
0
230
1
0
CIRCLE
5
102
100
AcDbEntity
8
0
100
AcDbCircle
10
10.000016395170812
20
10.000011803910589
30
0
40
1.4999999999999991
210
0
220
0
230
1
0
LINE
5
103
100
AcDbEntity
8
0
100
AcDbLine
10
0
20
0
30
0
11
0
21
8.3486475631376802
31
0
0
LINE
5
104
100
AcDbEntity
8
0
100
AcDbLine
10
92.836130772895572
20
56.498617580452347
30
0
11
90.031949541925997
21
56.134577923443686
31
0
0
LWPOLYLINE
5
105
100
AcDbEntity
8
0
100
AcDbPolyline
90
8
70
1
43
0.0
10
82.235545085972035
20
63.725481550674942
10
80.868559852251067
20
61.562003377550589
42
0.67478865786488362
10
81.410160145225845
20
60.809270766975445
10
83.895897324658335
20
61.417873354534677
42
0.24253816788395199
10
84.587152823258293
20
62.019278090201581
10
85.216516153579946
20
63.600009321201455
42
0.54799792710580109
10
84.724238322195504
20
64.284192069905245
10
83.025445507752792
20
64.189786562599068
42
0.24253816788393279
0
LINE
5
106
100
AcDbEntity
8
0
100
AcDbLine
10
28.831799676518905
20
15.6510769816684
30
0
11
30.613851135974777
21
16.414326336260487
31
0
0
LINE
5
107
100
AcDbEntity
8
0
100
AcDbLine
10
21.342611215307109
20
26.059779658966843
30
0
11
22.632605658044515
21
27.506904784359179
31
0
0
CIRCLE
5
108
100
AcDbEntity
8
0
100
AcDbCircle
10
27.857901674061001
20
22.848978041160848
30
0
40
1.4999999999999991
210
0
220
0
230
1
0
LINE
5
109
100
AcDbEntity
8
0
100
AcDbLine
10
81.982204515150727
20
74.877990039443517
30
0
11
86.218865016680411
21
75.366046403952765
31
0
0
LINE
5
110
100
AcDbEntity
8
0
100
AcDbLine
10
34.361287503516458
20
19.449323521488928
30
0
11
32.802002062442227
21
17.893589928246922
31
0
0
LINE
5
111
100
AcDbEntity
8
0
100
AcDbLine
10
71.819792272795837
20
48.936324925825126
30
0
11
53.922269200799931
21
36.058838813047572
31
0
0
LINE
5
112
100
AcDbEntity
8
0
100
AcDbLine
10
26.70115719202407
20
30.09560622321322
30
0
11
24.730550594114035
21
29.111539435890208
31
0
0
CIRCLE
5
113
100
AcDbEntity
8
0
100
AcDbCircle
10
84.104355296017701
20
70.287942043912011
30
0
40
1.5000000000000036
210
0
220
0
230
1
0
LINE
5
114
100
AcDbEntity
8
0
100
AcDbLine
10
79.176069412220173
20
71.222411324051663
30
0
11
80.412366075938991
21
73.765544786391999
31
0
0
LINE
5
115
100
AcDbEntity
8
0
100
AcDbLine
10
96.198887237015356
20
61.495507046877087
30
0
11
94.389781564359581
21
57.633560920204118
31
0
0
LWPOLYLINE
5
116
100
AcDbEntity
8
0
100
AcDbPolyline
90
8
70
1
43
0.0
10
97.363731397317608
20
74.185104632236516
10
97.242101311335048
20
76.373793851575243
42
-0.41421356237309243
10
98.185074247450714
20
77.427739790299498
10
102.61186044646352
20
77.673745655935861
42
-0.5479979271058254
10
103.59641610923236
20
76.305380158528322
10
101.95639451204511
20
72.186243829337798
42
-0.4142135623730917
10
100.65741929059298
20
71.6270807278608
10
98.620838152182429
20
72.437939311915954
42
-0.29199139416114472
0
LINE
5
117
100
AcDbEntity
8
0
100
AcDbLine
10
108.23444116262743
20
80.680878397500237
30
0
11
107.70646303773793
21
81.414678503278864
31
0
0
CIRCLE
5
118
100
AcDbEntity
8
0
100
AcDbCircle
10
99.895644703982327
20
67.712057956088003
30
0
40
1.5000000000000036
210
0
220
0
230
1
0
LINE
5
119
100
AcDbEntity
8
0
100
AcDbLine
10
66.56339699392062
20
56.241823449007398
30
0
11
48.665873973238064
21
43.36433737315042
31
0
0
LINE
5
120
100
AcDbEntity
8
0
100
AcDbLine
10
91.268909843647549
20
81.426425189781938
30
0
11
105.97204591886663
21
82.24350953836877
31
0
0
LINE
5
121
100
AcDbEntity
8
0
100
AcDbLine
10
87.801112762984673
20
76.50449295312292
30
0
11
89.568752078498562
21
80.277919741333903
31
0
0
CIRCLE
5
122
100
AcDbEntity
8
0
100
AcDbCircle
10
92.000000000000014
20
69
30
0
40
4.0000000000000036
210
0
220
0
230
1
0
LINE
5
123
100
AcDbEntity
8
0
100
AcDbLine
10
101.92068735009482
20
63.110823262166235
30
0
11
97.781134983319618
21
62.633953596047235
31
0
0
CIRCLE
5
124
100
AcDbEntity
8
0
100
AcDbCircle
10
93.287942043912011
20
76.895644703982313
30
0
40
1.5000000000000036
210
0
220
0
230
1
0
LINE
5
125
100
AcDbEntity
8
0
100
AcDbLine
10
108.99711349418332
20
78.039178331996439
30
0
11
103.54994265157069
21
64.357871117753135
31
0
0
ARC
5
126
100
AcDbEntity
8
0
100
AcDbCircle
10
106.08301892147524
20
80.246590663528963
30
0
40
1.9999999999998801
210
0
220
-0
230
1
100
AcDbArc
50
35.7354760148651
51
93.180775907281642
0
ARC
5
127
100
AcDbEntity
8
0
100
AcDbCircle
10
107.13897517125409
20
78.77899045197158
30
0
40
2.0000000000001008
210
-0
220
0
230
1
100
AcDbArc
50
-21.709823877544508
51
35.735476014865547
0
ARC
5
128
100
AcDbEntity
8
0
100
AcDbCircle
10
101.69180432864155
20
65.09768323772829
30
0
40
2.0000000000000089
210
-0
220
0
230
1
100
AcDbArc
50
276.57141330096658
51
338.29017612245406
0
ARC
5
129
100
AcDbEntity
8
0
100
AcDbCircle
10
92.578650796602034
20
58.481974346596068
30
0
40
2.0000000000000471
210
0
220
0
230
1
100
AcDbArc
50
277.39678712368533
51
334.89953872876708
0
ARC
5
130
100
AcDbEntity
8
0
100
AcDbCircle
10
98.01001800477286
20
60.647093620485236
30
0
40
1.999999999999954
210
0
220
0
230
1
100
AcDbArc
50
96.571413300965972
51
154.89953872876916
0
ARC
5
131
100
AcDbEntity
8
0
100
AcDbCircle
10
91.379882846256123
20
79.42950631494196
30
0
40
2.0000000000000329
210
0
220
0
230
1
100
AcDbArc
50
93.180775907280164
51
154.89953872876748
0
ARC
5
132
100
AcDbEntity
8
0
100
AcDbCircle
10
85.989981995227168
20
77.352906379514778
30
0
40
1.999999999999954
210
0
220
0
230
1
100
AcDbArc
50
276.57141330096596
51
334.89953872876896
0
ARC
5
133
100
AcDbEntity
8
0
100
AcDbCircle
10
82.211087536603998
20
72.891130063881462
30
0
40
2.0000000000000089
210
0
220
0
230
1
100
AcDbArc
50
96.571413300966611
51
154.07416490604922
0
ARC
5
134
100
AcDbEntity
8
0
100
AcDbCircle
10
43.201640198919193
20
88.710705774263147
30
0
40
40.000000000001251
210
0
220
0
230
1
100
AcDbArc
50
305.7354760148674
51
334.07416490604874
0
ARC
5
135
100
AcDbEntity
8
0
100
AcDbCircle
10
95.181549067796283
20
16.467442600570163
30
0
40
40.000000000000043
210
0
220
0
230
1
100
AcDbArc
50
97.396787123684803
51
125.73547601486692
0
ARC
5
136
100
AcDbEntity
8
0
100
AcDbCircle
10
-44.781153206760749
20
173.23986667416489
30
0
40
159.99999999999406
210
0
220
0
230
1
100
AcDbArc
50
296.5362825011365
51
305.73547601486717
0
ARC
5
137
100
AcDbEntity
8
0
100
AcDbCircle
10
147.36929638080579
20
-93.816690487976643
30
0
40
160.00000000000611
210
0
220
0
230
1
100
AcDbArc
50
125.73547601486719
51
134.93466948361379
0
LINE
5
138
100
AcDbEntity
8
0
100
AcDbLine
10
8.3484560508339278
20
14.355463502152332
30
0
11
0
21
8.3486475631376802
31
0
0
LINE
5
139
100
AcDbEntity
8
0
100
AcDbLine
10
11.568986360593673
20
5.5851353060699127
30
0
11
13.60485136553252
21
7.0499650047454221
31
0
0
ARC
5
140
100
AcDbEntity
8
0
100
AcDbCircle
10
27.857901674061001
20
22.848978041160848
30
0
40
7.0000000000000009
210
0
220
0
230
1
100
AcDbArc
50
116.53628250113661
51
138.28559064454871
0
ARC
5
141
100
AcDbEntity
8
0
100
AcDbCircle
10
27.857901674061001
20
22.848978041160848
30
0
40
6.9999999999999982
210
0
220
0
230
1
100
AcDbArc
50
293.18536144764556
51
314.93466948361385
0
ARC
5
142
100
AcDbEntity
8
0
100
AcDbCircle
10
-38.375057539167692
20
79.29322815266292
30
0
40
80.000000000001066
210
0
220
0
230
1
100
AcDbArc
50
305.73547601486712
51
318.28559064454856
0
ARC
5
143
100
AcDbEntity
8
0
100
AcDbCircle
10
60.328364955534397
20
-57.887799645765917
30
0
40
80.000000000001819
210
0
220
0
230
1
100
AcDbArc
50
113.18536144764569
51
125.73547601486692
0
LINE
5
144
100
AcDbEntity
8
0
100
AcDbLine
10
0
20
0
30
0
11
6.0000000000000009
21
0
31
0
0
LINE
5
145
100
AcDbEntity
8
0
100
AcDbLine
10
6.0000000000000009
20
0
30
0
11
6.5140919527851837
21
0.67297819326714192
31
0
0
ARC
5
146
100
AcDbEntity
8
0
100
AcDbCircle
10
25.586040437593631
20
-13.896194089082679
30
0
40
23.999999999999531
210
0
220
0
230
1
100
AcDbArc
50
125.73547601486686
51
142.62358021222758
0
ENDSEC
0
SECTION
2
OBJECTS
0
DICTIONARY
5
C
100
AcDbDictionary
3
ACAD_GROUP
350
D
3
ACAD_MLINESTYLE
350
17
0
DICTIONARY
5
D
100
AcDbDictionary
0
DICTIONARY
5
1A
330
C
100
AcDbDictionary
0
DICTIONARY
5
17
100
AcDbDictionary
0
ENDSEC
0
EOF
