0
SECTION
2
HEADER
9
$INSUNITS
70
4
9
$ACADVER
1
AC1014
9
$HANDSEED
5
FFFF
0
ENDSEC
0
SECTION
2
TABLES
0
TABLE
2
VPORT
5
8
100
AcDbSymbolTable
0
ENDTAB
0
TABLE
2
LTYPE
5
5
100
AcDbSymbolTable
0
LTYPE
5
14
100
AcDbSymbolTableRecord
100
AcDbLinetypeTableRecord
2
BYBLOCK
70
0
0
LTYPE
5
15
100
AcDbSymbolTableRecord
100
AcDbLinetypeTableRecord
2
BYLAYER
70
0
0
ENDTAB
0
TABLE
2
LAYER
5
2
100
AcDbSymbolTable
70
2
0
LAYER
5
50
100
AcDbSymbolTableRecord
100
AcDbLayerTableRecord
2
0
70
0
6
CONTINUOUS
0
ENDTAB
0
TABLE
2
STYLE
5
3
100
AcDbSymbolTable
70
1
0
STYLE
5
11
100
AcDbSymbolTableRecord
100
AcDbTextStyleTableRecord
2
STANDARD
70
0
0
ENDTAB
0
TABLE
2
VIEW
5
6
100
AcDbSymbolTable
70
0
0
ENDTAB
0
TABLE
2
UCS
5
7
100
AcDbSymbolTable
70
0
0
ENDTAB
0
TABLE
2
APPID
5
9
100
AcDbSymbolTable
70
2
0
APPID
5
12
100
AcDbSymbolTableRecord
100
AcDbRegAppTableRecord
2
ACAD
70
0
0
ENDTAB
0
TABLE
2
DIMSTYLE
5
A
100
AcDbSymbolTable
70
1
0
ENDTAB
0
TABLE
2
BLOCK_RECORD
5
1
100
AcDbSymbolTable
70
1
0
BLOCK_RECORD
5
1F
100
AcDbSymbolTableRecord
100
AcDbBlockTableRecord
2
*MODEL_SPACE
0
BLOCK_RECORD
5
1B
100
AcDbSymbolTableRecord
100
AcDbBlockTableRecord
2
*PAPER_SPACE
0
ENDTAB
0
ENDSEC
0
SECTION
2
BLOCKS
0
BLOCK
5
20
100
AcDbEntity
100
AcDbBlockBegin
2
*MODEL_SPACE
0
ENDBLK
5
21
100
AcDbEntity
100
AcDbBlockEnd
0
BLOCK
5
1C
100
AcDbEntity
100
AcDbBlockBegin
2
*PAPER_SPACE
0
ENDBLK
5
1D
100
AcDbEntity
100
AcDbBlockEnd
0
ENDSEC
0
SECTION
2
ENTITIES
0
ARC
5
100
100
AcDbEntity
8
0
100
AcDbCircle
10
97.086561452983915
20
79.97251793233508
30
0
40
5.0000000000000249
210
0
220
0
230
1
100
AcDbArc
50
98.226422275469162
51
145.86520044489365
0
CIRCLE
5
101
100
AcDbEntity
8
0
100
AcDbCircle
10
103.88099382232311
20
70.9245562674312
30
0
40
1.5000000000000033
210
-0
220
0
230
1
0
LINE
5
102
100
AcDbEntity
8
0
100
AcDbLine
10
88.041969756718373
20
73.177636894606792
30
0
11
86.556934270143543
21
73.388988742513163
31
0
0
CIRCLE
5
103
100
AcDbEntity
8
0
100
AcDbCircle
10
88.041969756718373
20
73.177636894606792
30
0
40
1.5000000000000033
210
-0
220
0
230
1
0
LINE
5
104
100
AcDbEntity
8
0
100
AcDbLine
10
82.480126726515408
20
72.066335001240276
30
0
11
83.25114199537046
21
74.622623178658728
31
0
0
ARC
5
105
100
AcDbEntity
8
0
100
AcDbCircle
10
88.041969756718373
20
73.177636894606792
30
0
40
5.0040000000000191
210
0
220
0
230
1
100
AcDbArc
50
107.93627189205374
51
175.51537883418612
0
CIRCLE
5
106
100
AcDbEntity
8
0
100
AcDbCircle
10
97.086561452983915
20
79.97251793233508
30
0
40
1.5000000000000033
210
-0
220
0
230
1
0
ELLIPSE
5
107
100
AcDbEntity
8
0
100
AcDbEllipse
10
105.55740742040639
20
79.25758570715854
30
0
11
3.1986975062499816
21
2.4017356772780416
31
0.0
40
0.74999999999999944
41
0
42
6.2831853071795862
0
ARC
5
108
100
AcDbEntity
8
0
100
AcDbCircle
10
82.938247536746644
20
89.398230756146603
30
0
40
11.999999999999796
210
-0
220
0
230
1
100
AcDbArc
50
287.93798483202369
51
325.86544141845025
0
LINE
5
109
100
AcDbEntity
8
0
100
AcDbLine
10
83.967025951289457
20
63.043941474123343
30
0
11
86.969261120941539
21
59.045618827549617
31
0
0
LINE
5
110
100
AcDbEntity
8
0
100
AcDbLine
10
86.634096571964051
20
77.981545602001489
30
0
11
86.500943010820521
21
77.938440667964684
31
0
0
ARC
5
111
100
AcDbEntity
8
0
100
AcDbCircle
10
108.98427161145428
20
54.708025342843271
30
0
40
11.999999999999361
210
0
220
0
230
1
100
AcDbArc
50
107.93702918816973
51
145.86448551060101
0
LINE
5
112
100
AcDbEntity
8
0
100
AcDbLine
10
83.967025951289457
20
63.043941474123343
30
0
11
80.964790781637404
21
67.042264120697055
31
0
0
LINE
5
113
100
AcDbEntity
8
0
100
AcDbLine
10
97.086561452983915
20
79.97251793233508
30
0
11
97.298043501247449
21
81.458813861642682
31
0
0
CIRCLE
5
114
100
AcDbEntity
8
0
100
AcDbCircle
10
105.36738376675815
20
70.711865335699116
30
0
40
1.5000000000000033
210
-0
220
0
230
1
0
ARC
5
115
100
AcDbEntity
8
0
100
AcDbCircle
10
92.38387490414739
20
43.103212491694322
30
0
40
15.999999999999627
210
0
220
0
230
1
100
AcDbArc
50
90.619305115460875
51
126.89935943603862
0
CIRCLE
5
116
100
AcDbEntity
8
0
100
AcDbCircle
10
94.834047062064002
20
64.130924023750353
30
0
40
1.5000000000000033
210
-0
220
0
230
1
0
CIRCLE
5
117
100
AcDbEntity
8
0
100
AcDbCircle
10
86.556934270143543
20
73.388988742513163
30
0
40
1.5000000000000033
210
-0
220
0
230
1
0
ARC
5
118
100
AcDbEntity
8
0
100
AcDbCircle
10
94.834047062064002
20
64.130924023750353
30
0
40
5.0000000000000098
210
0
220
0
230
1
100
AcDbArc
50
258.28515450758084
51
325.86426144817318
0
ARC
5
119
100
AcDbEntity
8
0
100
AcDbCircle
10
103.88099382232311
20
70.9245562674312
30
0
40
5.0000000000000089
210
-0
220
0
230
1
100
AcDbArc
50
287.93711817856206
51
335.57589634808892
0
LINE
5
120
100
AcDbEntity
8
0
100
AcDbLine
10
92.87091187781607
20
82.66457060080441
30
0
11
92.947963111035847
21
82.778227069794852
31
0
0
LINE
5
121
100
AcDbEntity
8
0
100
AcDbLine
10
105.28861299714664
20
66.124772138952864
30
0
11
105.42085896670355
21
66.167580827393465
31
0
0
CIRCLE
5
122
100
AcDbEntity
8
0
100
AcDbCircle
10
94.623597315043781
20
62.645202290798835
30
0
40
1.5000000000000011
210
-0
220
0
230
1
0
LINE
5
123
100
AcDbEntity
8
0
100
AcDbLine
10
99.051719614398252
20
61.441851211230613
30
0
11
98.972599421855165
21
61.325147060899006
31
0
0
LINE
5
124
100
AcDbEntity
8
0
100
AcDbLine
10
92.210935658256034
20
59.102277839933215
30
0
11
94.888090576404949
21
59.131216102425569
31
0
0
CIRCLE
5
125
100
AcDbEntity
8
0
100
AcDbCircle
10
97.298043501247449
20
81.458813861642682
30
0
40
1.5000000000000033
210
-0
220
0
230
1
0
ARC
5
126
100
AcDbEntity
8
0
100
AcDbCircle
10
108.75597770676583
20
81.659490802735476
30
0
40
5.0000000000000044
210
-0
220
0
230
1
100
AcDbArc
50
-24.423880005961866
51
98.226019867794534
0
CIRCLE
5
127
100
AcDbEntity
8
0
100
AcDbCircle
10
88.041969756718373
20
73.177636894606792
30
0
40
1.5000000000000033
210
-0
220
0
230
1
0
LINE
5
128
100
AcDbEntity
8
0
100
AcDbLine
10
108.04058566475604
20
86.608047584892191
30
0
11
96.371134655600628
21
84.921069689929013
31
0
0
CIRCLE
5
129
100
AcDbEntity
8
0
100
AcDbCircle
10
95.961993883631862
20
72.050646977539031
30
0
40
4.0000000000000027
210
-0
220
0
230
1
0
LINE
5
130
100
AcDbEntity
8
0
100
AcDbLine
10
108.43354278288828
20
68.857118732303093
30
0
11
113.30853473724558
21
79.592071037852293
31
0
0
CIRCLE
5
131
100
AcDbEntity
8
0
100
AcDbCircle
10
95.961993883635614
20
72.050646977533987
30
0
40
4.0000000000000027
210
-0
220
0
230
1
0
ARC
5
132
100
AcDbEntity
8
0
100
AcDbCircle
10
67.161732605499139
20
76.686594902285648
30
0
40
15.999999999414205
210
-0
220
0
230
1
100
AcDbArc
50
306.89984964185055
51
343.21589274708663
0
ARC
5
133
100
AcDbEntity
8
0
100
AcDbCircle
10
10.426239206496319
20
11.096102642788313
30
7.9377316575172962e-16
40
7.6124999999999954
210
0
220
0
230
1
100
AcDbArc
50
126.90538900854408
51
306.89937309604625
0
LINE
5
134
100
AcDbEntity
8
0
100
AcDbLine
10
14.996871563814636
20
5.0084531699429213
30
-1.5192065836620171e-15
11
82.777294346488304
21
55.898274429379299
31
0
0
ARC
5
135
100
AcDbEntity
8
0
100
AcDbCircle
10
0
20
58.773167024259941
30
2.6529559700509918e-14
40
42.000000000000043
210
8.5420747476239637e-17
220
-6.0677361439176944e-16
230
1
100
AcDbArc
50
278.01335934190564
51
306.89999999999992
0
LINE
5
136
100
AcDbEntity
8
0
100
AcDbLine
10
25.217649463687124
20
25.186411367802076
30
0
11
76.768422633236014
21
63.891615156610577
31
0
0
CIRCLE
5
137
100
AcDbEntity
8
0
100
AcDbCircle
10
31.986988054546192
20
24.017339479840608
30
0
40
1.4999999999999989
210
-0
220
0
230
1
0
LWPOLYLINE
5
138
100
AcDbEntity
8
0
100
AcDbPolyline
90
4
70
1
43
0.0
10
26.489941444620246
20
18.014467834133526
10
20.891730176834308
20
13.812083915304287
42
-0.99999999999999989
10
19.090708497336063
20
16.211317315783973
10
24.688919765122002
20
20.413701234613214
42
-0.99999999999999989
0
CIRCLE
5
139
100
AcDbEntity
8
0
100
AcDbCircle
10
10
20
10
30
0
40
1.4999999999999991
210
0
220
0
230
1
0
ENDSEC
0
SECTION
2
OBJECTS
0
DICTIONARY
5
C
100
AcDbDictionary
3
ACAD_GROUP
350
D
3
ACAD_MLINESTYLE
350
17
0
DICTIONARY
5
D
100
AcDbDictionary
0
DICTIONARY
5
1A
330
C
100
AcDbDictionary
0
DICTIONARY
5
17
100
AcDbDictionary
0
ENDSEC
0
EOF
