0
SECTION
2
HEADER
9
$INSUNITS
70
4
9
$ACADVER
1
AC1014
9
$HANDSEED
5
FFFF
0
ENDSEC
0
SECTION
2
TABLES
0
TABLE
2
VPORT
5
8
100
AcDbSymbolTable
0
ENDTAB
0
TABLE
2
LTYPE
5
5
100
AcDbSymbolTable
0
LTYPE
5
14
100
AcDbSymbolTableRecord
100
AcDbLinetypeTableRecord
2
BYBLOCK
70
0
0
LTYPE
5
15
100
AcDbSymbolTableRecord
100
AcDbLinetypeTableRecord
2
BYLAYER
70
0
0
ENDTAB
0
TABLE
2
LAYER
5
2
100
AcDbSymbolTable
70
2
0
LAYER
5
50
100
AcDbSymbolTableRecord
100
AcDbLayerTableRecord
2
0
70
0
6
CONTINUOUS
0
ENDTAB
0
TABLE
2
STYLE
5
3
100
AcDbSymbolTable
70
1
0
STYLE
5
11
100
AcDbSymbolTableRecord
100
AcDbTextStyleTableRecord
2
STANDARD
70
0
0
ENDTAB
0
TABLE
2
VIEW
5
6
100
AcDbSymbolTable
70
0
0
ENDTAB
0
TABLE
2
UCS
5
7
100
AcDbSymbolTable
70
0
0
ENDTAB
0
TABLE
2
APPID
5
9
100
AcDbSymbolTable
70
2
0
APPID
5
12
100
AcDbSymbolTableRecord
100
AcDbRegAppTableRecord
2
ACAD
70
0
0
ENDTAB
0
TABLE
2
DIMSTYLE
5
A
100
AcDbSymbolTable
70
1
0
ENDTAB
0
TABLE
2
BLOCK_RECORD
5
1
100
AcDbSymbolTable
70
1
0
BLOCK_RECORD
5
1F
100
AcDbSymbolTableRecord
100
AcDbBlockTableRecord
2
*MODEL_SPACE
0
BLOCK_RECORD
5
1B
100
AcDbSymbolTableRecord
100
AcDbBlockTableRecord
2
*PAPER_SPACE
0
ENDTAB
0
ENDSEC
0
SECTION
2
BLOCKS
0
BLOCK
5
20
100
AcDbEntity
100
AcDbBlockBegin
2
*MODEL_SPACE
0
ENDBLK
5
21
100
AcDbEntity
100
AcDbBlockEnd
0
BLOCK
5
1C
100
AcDbEntity
100
AcDbBlockBegin
2
*PAPER_SPACE
0
ENDBLK
5
1D
100
AcDbEntity
100
AcDbBlockEnd
0
ENDSEC
0
SECTION
2
ENTITIES
0
LINE
5
100
100
AcDbEntity
8
0
100
AcDbLine
10
28.834636336264346
20
15.641615448271342
30
0
11
30.617070994646763
21
16.403969417718571
31
0
0
LINE
5
101
100
AcDbEntity
8
0
100
AcDbLine
10
80.087234807808883
20
73.39472913061114
30
0
11
84.222063960554749
21
73.868949963433664
31
0
0
CIRCLE
5
102
100
AcDbEntity
8
0
100
AcDbCircle
10
97.894996663181999
20
66.208091455115678
30
0
40
1.5000000000000062
210
0
220
0
230
1
0
LINE
5
103
100
AcDbEntity
8
0
100
AcDbLine
10
34.366031590707671
20
19.437083519221812
30
0
11
32.805964812153483
21
17.882133529482299
31
0
0
CIRCLE
5
104
100
AcDbEntity
8
0
100
AcDbCircle
10
88.708091455115664
20
59.605003336818001
30
0
40
1.5000000000000033
210
0
220
0
230
1
0
LINE
5
105
100
AcDbEntity
8
0
100
AcDbLine
10
92.427702839745635
20
56.225382303568701
30
0
11
94.195116552896948
21
59.993398530609753
31
0
0
LINE
5
106
100
AcDbEntity
8
0
100
AcDbLine
10
106.24030742685427
20
79.172720963051503
30
0
11
105.71269801969281
21
79.906786225189194
31
0
0
LINE
5
107
100
AcDbEntity
8
0
100
AcDbLine
10
85.804883447103052
20
75.006601469390247
30
0
11
87.574418257363618
21
78.779139743684482
31
0
0
LWPOLYLINE
5
108
100
AcDbEntity
8
0
100
AcDbPolyline
90
8
70
1
43
0.0
10
96.621599455780313
20
70.932278091236782
10
98.663587114128845
20
70.119948738848393
42
0.41421356237309748
10
99.962401105103552
20
70.67948624147742
10
101.60224335647806
20
74.8016291002819
42
0.54748400815483556
10
100.61887218098622
20
76.169797692270592
10
96.189048483245969
20
75.929368150148889
42
0.41421356237308726
10
95.244713564120147
20
74.876642373643151
10
95.36381524849439
20
72.682238727460643
42
0.29242046409559574
0
LINE
5
109
100
AcDbEntity
8
0
100
AcDbLine
10
89.275152801329739
20
79.926790911274807
30
0
11
103.97869751303156
21
80.736488503033883
31
0
0
LINE
5
110
100
AcDbEntity
8
0
100
AcDbLine
10
21.350677976201236
20
26.054079253576425
30
0
11
22.641399289096071
21
27.500556138484736
31
0
0
CIRCLE
5
111
100
AcDbEntity
8
0
100
AcDbCircle
10
82.105003336818001
20
68.791908544884336
30
0
40
1.5000000000000049
210
0
220
0
230
1
0
CIRCLE
5
112
100
AcDbEntity
8
0
100
AcDbCircle
10
91.291908544884336
20
75.394996663181999
30
0
40
1.4999999999999973
210
0
220
0
230
1
0
CIRCLE
5
113
100
AcDbEntity
8
0
100
AcDbCircle
10
90
20
67.5
30
0
40
4.0000000000000036
210
0
220
0
230
1
0
CIRCLE
5
114
100
AcDbEntity
8
0
100
AcDbCircle
10
10.000016395170812
20
10.000011803910589
30
0
40
1.4999999999999991
210
0
220
0
230
1
0
LINE
5
115
100
AcDbEntity
8
0
100
AcDbLine
10
8.3506443928137841
20
14.356292691502182
30
0
11
0
21
8.35426703416727
31
0
0
LINE
5
116
100
AcDbEntity
8
0
100
AcDbLine
10
26.711250888334188
20
30.087213290856045
30
0
11
24.740150101834033
21
29.104136604709371
31
0
0
LINE
5
117
100
AcDbEntity
8
0
100
AcDbLine
10
0
20
8.35426703416727
30
0
11
0
21
0
31
0
0
CIRCLE
5
118
100
AcDbEntity
8
0
100
AcDbCircle
10
27.864354564710506
20
22.84000486326725
30
0
40
1.4999999999999991
210
0
220
0
230
1
0
LINE
5
119
100
AcDbEntity
8
0
100
AcDbLine
10
95.777936039445251
20
61.131050036566357
30
0
11
99.917727456599181
21
61.605839988226279
31
0
0
LINE
5
120
100
AcDbEntity
8
0
100
AcDbLine
10
106.24030742685427
20
79.172720963051503
30
0
11
106.76791683401574
21
78.438655700913827
31
0
0
LINE
5
121
100
AcDbEntity
8
0
100
AcDbLine
10
101.54760905219234
20
62.852069170944205
30
0
11
107.00165250831714
21
76.530638074810497
31
0
0
LINE
5
122
100
AcDbEntity
8
0
100
AcDbLine
10
77.833558949629307
20
70.567205732191354
30
0
11
78.454642337651308
21
72.141664663031207
31
0
0
LINE
5
123
100
AcDbEntity
8
0
100
AcDbLine
10
89.029322922279093
20
54.990490621645193
30
0
11
90.719625461119989
21
55.077340317335661
31
0
0
LINE
5
124
100
AcDbEntity
8
0
100
AcDbLine
10
53.935355303533953
20
36.036769624262547
30
0
11
71.995000259879873
21
49.017139426704134
31
0
0
LINE
5
125
100
AcDbEntity
8
0
100
AcDbLine
10
48.68263082274229
20
43.344907932264917
30
0
11
66.742275816269725
21
56.325277761430748
31
0
0
ARC
5
126
100
AcDbEntity
8
0
100
AcDbCircle
10
89.385122565305522
20
77.929816537124992
30
0
40
1.99999999999998
210
0
220
0
230
1
100
AcDbArc
50
93.151991293014973
51
154.87075411450348
0
ARC
5
127
100
AcDbEntity
8
0
100
AcDbCircle
10
104.0886672770074
20
78.739514128884096
30
0
40
1.9999999999999529
210
0
220
-0
230
1
100
AcDbArc
50
35.706691400602004
51
93.15199129301665
0
ARC
5
128
100
AcDbEntity
8
0
100
AcDbCircle
10
105.14388609133034
20
77.271383604608673
30
0
40
1.9999999999999751
210
-0
220
0
230
1
100
AcDbArc
50
-21.738608491810357
51
35.706691400603567
0
ARC
5
129
100
AcDbEntity
8
0
100
AcDbCircle
10
99.689842635205565
20
63.592814700742323
30
0
40
1.9999999999999509
210
0
220
0
230
1
100
AcDbArc
50
276.54262868670156
51
338.26139150819102
0
ARC
5
130
100
AcDbEntity
8
0
100
AcDbCircle
10
90.616998531803659
20
57.074705510128211
30
0
40
2.0000000000000284
210
0
220
0
230
1
100
AcDbArc
50
272.94133671311158
51
334.87075411450382
0
ARC
5
131
100
AcDbEntity
8
0
100
AcDbCircle
10
80.315119629202513
20
71.407754418095067
30
0
40
1.9999999999999882
210
0
220
0
230
1
100
AcDbArc
50
96.542628686701875
51
158.47204608809605
0
ARC
5
132
100
AcDbEntity
8
0
100
AcDbCircle
10
83.994179139161119
20
75.855924675949737
30
0
40
1.9999999999999882
210
0
220
0
230
1
100
AcDbArc
50
276.5426286867019
51
334.87075411450388
0
ARC
5
133
100
AcDbEntity
8
0
100
AcDbCircle
10
96.005820860838909
20
59.144075324050235
30
0
40
2.0000000000000364
210
0
220
0
230
1
100
AcDbArc
50
96.542628686702528
51
154.87075411450343
0
ARC
5
134
100
AcDbEntity
8
0
100
AcDbCircle
10
48.065922284809837
20
82.309769651170171
30
0
40
32.000000000000128
210
0
220
0
230
1
100
AcDbArc
50
305.70669137982605
51
338.47204608809517
0
ARC
5
135
100
AcDbEntity
8
0
100
AcDbCircle
10
90.671353791339982
20
23.032647536964106
30
0
40
32.000000000000746
210
0
220
0
230
1
100
AcDbArc
50
92.941336713110914
51
125.70669137982577
0
ARC
5
136
100
AcDbEntity
8
0
100
AcDbCircle
10
-38.340239459392635
20
79.317522398919905
30
0
40
80.000000000000767
210
0
220
0
230
1
100
AcDbArc
50
305.70669140060289
51
318.25680599905428
0
ARC
5
137
100
AcDbEntity
8
0
100
AcDbCircle
10
60.294252678394244
20
-57.913075358001258
30
0
40
80.000000000002302
210
0
220
0
230
1
100
AcDbArc
50
113.15657680215153
51
125.70669140060284
0
ARC
5
138
100
AcDbEntity
8
0
100
AcDbCircle
10
-44.69913683456042
20
173.26736738096886
30
0
40
160.0000000000081
210
0
220
0
230
1
100
AcDbArc
50
296.50749790936436
51
305.7066913798256
0
ARC
5
139
100
AcDbEntity
8
0
100
AcDbCircle
10
147.31712296083842
20
-93.885689824440732
30
0
40
160.00000000000855
210
0
220
0
230
1
100
AcDbArc
50
125.70669137982627
51
134.90588489184125
0
ARC
5
140
100
AcDbEntity
8
0
100
AcDbCircle
10
27.864354564710506
20
22.84000486326725
30
0
40
7.0000000000000009
210
0
220
0
230
1
100
AcDbArc
50
116.50749790936425
51
138.25680599905456
0
ARC
5
141
100
AcDbEntity
8
0
100
AcDbCircle
10
27.864354564710506
20
22.84000486326725
30
0
40
7
210
0
220
0
230
1
100
AcDbArc
50
293.15657680215128
51
314.90588489184148
0
LINE
5
142
100
AcDbEntity
8
0
100
AcDbLine
10
6.0000000000000009
20
0
30
0
11
6.0221300644052196
21
0.030973089213688354
31
0
0
ARC
5
143
100
AcDbEntity
8
0
100
AcDbCircle
10
25.549816008124964
20
-13.921427481421937
30
0
40
24.00000000000048
210
0
220
0
230
1
100
AcDbArc
50
125.70669140060309
51
144.45444775641113
0
LINE
5
144
100
AcDbEntity
8
0
100
AcDbLine
10
0
20
0
30
0
11
6.0000000000000009
21
0
31
0
0
LINE
5
145
100
AcDbEntity
8
0
100
AcDbLine
10
11.542550852462812
20
5.5669414308035279
30
0
11
13.603368826186939
21
7.0481543494177412
31
0
0
ENDSEC
0
SECTION
2
OBJECTS
0
DICTIONARY
5
C
100
AcDbDictionary
3
ACAD_GROUP
350
D
3
ACAD_MLINESTYLE
350
17
0
DICTIONARY
5
D
100
AcDbDictionary
0
DICTIONARY
5
1A
330
C
100
AcDbDictionary
0
DICTIONARY
5
17
100
AcDbDictionary
0
ENDSEC
0
EOF
