0
SECTION
2
HEADER
9
$INSUNITS
70
4
9
$ACADVER
1
AC1014
9
$HANDSEED
5
FFFF
0
ENDSEC
0
SECTION
2
TABLES
0
TABLE
2
VPORT
5
8
100
AcDbSymbolTable
0
ENDTAB
0
TABLE
2
LTYPE
5
5
100
AcDbSymbolTable
0
LTYPE
5
14
100
AcDbSymbolTableRecord
100
AcDbLinetypeTableRecord
2
BYBLOCK
70
0
0
LTYPE
5
15
100
AcDbSymbolTableRecord
100
AcDbLinetypeTableRecord
2
BYLAYER
70
0
0
ENDTAB
0
TABLE
2
LAYER
5
2
100
AcDbSymbolTable
70
2
0
LAYER
5
50
100
AcDbSymbolTableRecord
100
AcDbLayerTableRecord
2
0
70
0
6
CONTINUOUS
0
ENDTAB
0
TABLE
2
STYLE
5
3
100
AcDbSymbolTable
70
1
0
STYLE
5
11
100
AcDbSymbolTableRecord
100
AcDbTextStyleTableRecord
2
STANDARD
70
0
0
ENDTAB
0
TABLE
2
VIEW
5
6
100
AcDbSymbolTable
70
0
0
ENDTAB
0
TABLE
2
UCS
5
7
100
AcDbSymbolTable
70
0
0
ENDTAB
0
TABLE
2
APPID
5
9
100
AcDbSymbolTable
70
2
0
APPID
5
12
100
AcDbSymbolTableRecord
100
AcDbRegAppTableRecord
2
ACAD
70
0
0
ENDTAB
0
TABLE
2
DIMSTYLE
5
A
100
AcDbSymbolTable
70
1
0
ENDTAB
0
TABLE
2
BLOCK_RECORD
5
1
100
AcDbSymbolTable
70
1
0
BLOCK_RECORD
5
1F
100
AcDbSymbolTableRecord
100
AcDbBlockTableRecord
2
*MODEL_SPACE
0
BLOCK_RECORD
5
1B
100
AcDbSymbolTableRecord
100
AcDbBlockTableRecord
2
*PAPER_SPACE
0
ENDTAB
0
ENDSEC
0
SECTION
2
BLOCKS
0
BLOCK
5
20
100
AcDbEntity
100
AcDbBlockBegin
2
*MODEL_SPACE
0
ENDBLK
5
21
100
AcDbEntity
100
AcDbBlockEnd
0
BLOCK
5
1C
100
AcDbEntity
100
AcDbBlockBegin
2
*PAPER_SPACE
0
ENDBLK
5
1D
100
AcDbEntity
100
AcDbBlockEnd
0
ENDSEC
0
SECTION
2
ENTITIES
0
CIRCLE
5
100
100
AcDbEntity
8
0
100
AcDbCircle
10
10.000016395170812
20
10.000011803910589
30
0
40
1.4999999999999991
210
0
220
0
230
1
0
LINE
5
101
100
AcDbEntity
8
0
100
AcDbLine
10
89.275152801329725
20
79.926790911274821
30
0
11
103.97869751303156
21
80.736488503033868
31
0
0
LINE
5
102
100
AcDbEntity
8
0
100
AcDbLine
10
0
20
8.35426703416727
30
0
11
0
21
0
31
0
0
LINE
5
103
100
AcDbEntity
8
0
100
AcDbLine
10
80.087234807808898
20
73.394729130611125
30
0
11
84.222063960554749
21
73.86894996343365
31
0
0
CIRCLE
5
104
100
AcDbEntity
8
0
100
AcDbCircle
10
88.708091455115664
20
59.605003336818001
30
0
40
1.5000000000000033
210
0
220
0
230
1
0
CIRCLE
5
105
100
AcDbEntity
8
0
100
AcDbCircle
10
90
20
67.5
30
0
40
4.0000000000000036
210
0
220
0
230
1
0
ARC
5
106
100
AcDbEntity
8
0
100
AcDbCircle
10
90.671353791339556
20
23.032647536965367
30
0
40
31.999999999999464
210
0
220
0
230
1
100
AcDbArc
50
92.941336713110132
51
125.70669137982617
0
ARC
5
107
100
AcDbEntity
8
0
100
AcDbCircle
10
80.315119629202556
20
71.407754418094996
30
0
40
2.0000000000000431
210
0
220
0
230
1
100
AcDbArc
50
96.5426286867025
51
158.47204608809463
0
LINE
5
108
100
AcDbEntity
8
0
100
AcDbLine
10
95.777936039445265
20
61.13105003656635
30
0
11
99.917727456599167
21
61.605839988226279
31
0
0
LINE
5
109
100
AcDbEntity
8
0
100
AcDbLine
10
77.833558949629307
20
70.567205732191312
30
0
11
78.454642337651308
21
72.141664663031207
31
0
0
ARC
5
110
100
AcDbEntity
8
0
100
AcDbCircle
10
89.385122565305551
20
77.929816537124992
30
0
40
1.9999999999999909
210
0
220
0
230
1
100
AcDbArc
50
93.151991293016181
51
154.87075411450385
0
LINE
5
111
100
AcDbEntity
8
0
100
AcDbLine
10
89.029322922279164
20
54.990490621645201
30
0
11
90.719625461120017
21
55.077340317335668
31
0
0
ARC
5
112
100
AcDbEntity
8
0
100
AcDbCircle
10
104.0886672770074
20
78.739514128884096
30
0
40
1.9999999999999332
210
0
220
-0
230
1
100
AcDbArc
50
35.706691400601912
51
93.151991293016678
0
ARC
5
113
100
AcDbEntity
8
0
100
AcDbCircle
10
83.994179139161091
20
75.855924675949765
30
0
40
2.0000000000000275
210
0
220
0
230
1
100
AcDbArc
50
276.54262868670253
51
334.87075411450343
0
LWPOLYLINE
5
114
100
AcDbEntity
8
0
100
AcDbPolyline
90
8
70
1
43
0.0
10
96.621599455780313
20
70.932278091236782
42
-0.29242046409557387
10
95.36381524849439
20
72.682238727460614
10
95.244713564120147
20
74.876642373643151
42
-0.41421356237311319
10
96.189048483245969
20
75.929368150148889
10
100.61887218098622
20
76.169797692270592
42
-0.54748400815483289
10
101.60224335647806
20
74.801629100281914
10
99.962401105103567
20
70.67948624147742
42
-0.41421356237308193
10
98.663587114128831
20
70.119948738848407
0
CIRCLE
5
115
100
AcDbEntity
8
0
100
AcDbCircle
10
82.105003336818001
20
68.791908544884336
30
0
40
1.5000000000000049
210
0
220
0
230
1
0
LINE
5
116
100
AcDbEntity
8
0
100
AcDbLine
10
85.804883447103052
20
75.006601469390247
30
0
11
87.574418257363618
21
78.779139743684482
31
0
0
CIRCLE
5
117
100
AcDbEntity
8
0
100
AcDbCircle
10
97.894996663181999
20
66.208091455115678
30
0
40
1.5000000000000062
210
0
220
0
230
1
0
CIRCLE
5
118
100
AcDbEntity
8
0
100
AcDbCircle
10
91.291908544884336
20
75.394996663181999
30
0
40
1.4999999999999973
210
0
220
0
230
1
0
ARC
5
119
100
AcDbEntity
8
0
100
AcDbCircle
10
105.14388609133029
20
77.271383604608673
30
0
40
2.0000000000000111
210
-0
220
0
230
1
100
AcDbArc
50
-21.738608491810048
51
35.706691400602281
0
ARC
5
120
100
AcDbEntity
8
0
100
AcDbCircle
10
90.616998531803745
20
57.07470551012814
30
0
40
1.9999999999999449
210
0
220
0
230
1
100
AcDbArc
50
272.9413367131101
51
334.87075411450473
0
ARC
5
121
100
AcDbEntity
8
0
100
AcDbCircle
10
96.005820860838895
20
59.144075324050249
30
0
40
2.0000000000000147
210
0
220
0
230
1
100
AcDbArc
50
96.542628686701775
51
154.87075411450365
0
LINE
5
122
100
AcDbEntity
8
0
100
AcDbLine
10
101.54760905219236
20
62.852069170944198
30
0
11
107.00165250831711
21
76.530638074810497
31
0
0
ARC
5
123
100
AcDbEntity
8
0
100
AcDbCircle
10
99.689842635205522
20
63.592814700742402
30
0
40
2.0000000000000342
210
0
220
0
230
1
100
AcDbArc
50
276.54262868670213
51
338.26139150818938
0
LINE
5
124
100
AcDbEntity
8
0
100
AcDbLine
10
92.427702839745663
20
56.225382303568693
30
0
11
94.195116552896948
21
59.993398530609753
31
0
0
ARC
5
125
100
AcDbEntity
8
0
100
AcDbCircle
10
48.065922284809488
20
82.309769651170441
30
0
40
32.000000000000554
210
0
220
0
230
1
100
AcDbArc
50
305.70669137982622
51
338.472046088095
0
LINE
5
126
100
AcDbEntity
8
0
100
AcDbLine
10
106.24030742685427
20
79.172720963051503
30
0
11
105.71269801969279
21
79.90678622518918
31
0
0
LINE
5
127
100
AcDbEntity
8
0
100
AcDbLine
10
106.24030742685427
20
79.172720963051503
30
0
11
106.76791683401574
21
78.438655700913813
31
0
0
CIRCLE
5
128
100
AcDbEntity
8
0
100
AcDbCircle
10
26.240323822025083
20
21.672732766962099
30
0
40
1.4999999999999991
210
0
220
0
230
1
0
LINE
5
129
100
AcDbEntity
8
0
100
AcDbLine
10
18.379923270705824
20
24.479991861455215
30
0
11
19.786656809200235
21
26.400330686368562
31
0
0
LINE
5
130
100
AcDbEntity
8
0
100
AcDbLine
10
26.395756606436464
20
13.327528090003922
30
0
11
28.664315429248525
21
14.04880564977962
31
0
0
LINE
5
131
100
AcDbEntity
8
0
100
AcDbLine
10
7.672451505080284
20
13.868841553443723
30
0
11
0
21
8.35426703416727
31
0
0
LINE
5
132
100
AcDbEntity
8
0
100
AcDbLine
10
32.803468604046309
20
17.023767716055254
30
0
11
32.256888672890511
21
16.400072395258771
31
0
0
LINE
5
133
100
AcDbEntity
8
0
100
AcDbLine
10
23.925758545524687
20
29.375364334484484
30
0
11
23.160377613877078
21
29.056087787202873
31
0
0
LINE
5
134
100
AcDbEntity
8
0
100
AcDbLine
10
47.762891176820133
20
42.683845059150286
30
0
11
66.742275816269711
21
56.325277761430726
31
0
0
LINE
5
135
100
AcDbEntity
8
0
100
AcDbLine
10
53.015615613511855
20
35.37570671945106
30
0
11
71.995000259880001
21
49.017139426704226
31
0
0
ARC
5
136
100
AcDbEntity
8
0
100
AcDbCircle
10
-22.273434576692893
20
140.12568963809147
30
0
40
119.99999999999469
210
0
220
0
230
1
100
AcDbArc
50
292.64332283059747
51
305.70669138602466
0
ARC
5
137
100
AcDbEntity
8
0
100
AcDbCircle
10
123.05194136703054
20
-62.066137859497736
30
0
40
120.00000000000415
210
0
220
0
230
1
100
AcDbArc
50
125.70669138602476
51
138.77005994704737
0
ARC
5
138
100
AcDbEntity
8
0
100
AcDbCircle
10
-20.342078806243219
20
52.845579377893877
30
0
40
47.999999999999865
210
-0
220
0
230
1
100
AcDbArc
50
305.70669140060289
51
323.77556637144528
0
ARC
5
139
100
AcDbEntity
8
0
100
AcDbCircle
10
40.939706249777537
20
-32.416034613091867
30
0
40
48.000000000001009
210
0
220
0
230
1
100
AcDbArc
50
107.63781642976065
51
125.70669140060265
0
ARC
5
140
100
AcDbEntity
8
0
100
AcDbCircle
10
26.240323822025083
20
21.672732766962099
30
0
40
7.9999999999999973
210
0
220
0
230
1
100
AcDbArc
50
112.6433228305977
51
143.77556637144522
0
ARC
5
141
100
AcDbEntity
8
0
100
AcDbCircle
10
26.240323822025083
20
21.672732766962099
30
0
40
7.9999999999999991
210
0
220
0
230
1
100
AcDbArc
50
287.63781642976051
51
318.77005994704757
0
LINE
5
142
100
AcDbEntity
8
0
100
AcDbLine
10
6.0000000000000009
20
0
30
0
11
6.0221300644052196
21
0.030973089213688354
31
0
0
ARC
5
143
100
AcDbEntity
8
0
100
AcDbCircle
10
25.549816008124964
20
-13.921427481421937
30
0
40
24.00000000000048
210
0
220
0
230
1
100
AcDbArc
50
125.70669140060309
51
144.45444775641113
0
LINE
5
144
100
AcDbEntity
8
0
100
AcDbLine
10
0
20
0
30
0
11
6.0000000000000009
21
0
31
0
0
LINE
5
145
100
AcDbEntity
8
0
100
AcDbLine
10
11.542550852462812
20
5.5669414308035279
30
0
11
12.92517593845349
21
6.560703211359316
31
0
0
ENDSEC
0
SECTION
2
OBJECTS
0
DICTIONARY
5
C
100
AcDbDictionary
3
ACAD_GROUP
350
D
3
ACAD_MLINESTYLE
350
17
0
DICTIONARY
5
D
100
AcDbDictionary
0
DICTIONARY
5
1A
330
C
100
AcDbDictionary
0
DICTIONARY
5
17
100
AcDbDictionary
0
ENDSEC
0
EOF
