0
SECTION
2
HEADER
9
$INSUNITS
70
4
9
$ACADVER
1
AC1014
9
$HANDSEED
5
FFFF
0
ENDSEC
0
SECTION
2
TABLES
0
TABLE
2
VPORT
5
8
100
AcDbSymbolTable
0
ENDTAB
0
TABLE
2
LTYPE
5
5
100
AcDbSymbolTable
0
LTYPE
5
14
100
AcDbSymbolTableRecord
100
AcDbLinetypeTableRecord
2
BYBLOCK
70
0
0
LTYPE
5
15
100
AcDbSymbolTableRecord
100
AcDbLinetypeTableRecord
2
BYLAYER
70
0
0
ENDTAB
0
TABLE
2
LAYER
5
2
100
AcDbSymbolTable
70
2
0
LAYER
5
50
100
AcDbSymbolTableRecord
100
AcDbLayerTableRecord
2
0
70
0
6
CONTINUOUS
0
ENDTAB
0
TABLE
2
STYLE
5
3
100
AcDbSymbolTable
70
1
0
STYLE
5
11
100
AcDbSymbolTableRecord
100
AcDbTextStyleTableRecord
2
STANDARD
70
0
0
ENDTAB
0
TABLE
2
VIEW
5
6
100
AcDbSymbolTable
70
0
0
ENDTAB
0
TABLE
2
UCS
5
7
100
AcDbSymbolTable
70
0
0
ENDTAB
0
TABLE
2
APPID
5
9
100
AcDbSymbolTable
70
2
0
APPID
5
12
100
AcDbSymbolTableRecord
100
AcDbRegAppTableRecord
2
ACAD
70
0
0
ENDTAB
0
TABLE
2
DIMSTYLE
5
A
100
AcDbSymbolTable
70
1
0
ENDTAB
0
TABLE
2
BLOCK_RECORD
5
1
100
AcDbSymbolTable
70
1
0
BLOCK_RECORD
5
1F
100
AcDbSymbolTableRecord
100
AcDbBlockTableRecord
2
*MODEL_SPACE
0
BLOCK_RECORD
5
1B
100
AcDbSymbolTableRecord
100
AcDbBlockTableRecord
2
*PAPER_SPACE
0
ENDTAB
0
ENDSEC
0
SECTION
2
BLOCKS
0
BLOCK
5
20
100
AcDbEntity
100
AcDbBlockBegin
2
*MODEL_SPACE
0
ENDBLK
5
21
100
AcDbEntity
100
AcDbBlockEnd
0
BLOCK
5
1C
100
AcDbEntity
100
AcDbBlockBegin
2
*PAPER_SPACE
0
ENDBLK
5
1D
100
AcDbEntity
100
AcDbBlockEnd
0
ENDSEC
0
SECTION
2
ENTITIES
0
LWPOLYLINE
5
100
100
AcDbEntity
8
0
100
AcDbPolyline
90
8
70
1
43
0.0
10
-3.5016985531933802
20
-22.1551884008081
42
-0.57705242553366298
10
-2.0024726730582074
20
-23.021660281830933
10
-2.0024726730581848
20
-27.136694846262642
42
-0.26794919243112381
10
-3.0024726730581848
20
-28.868745653831528
10
-5.5024726730581897
20
-30.312121326805595
42
-0.57735026918962684
10
-7.0024726730581852
20
-29.446095923021161
10
-7.0024726730582056
20
-25.328084534065475
42
-0.2681886585496483
10
-6.0009244333285512
20
-23.595140772019789
0
CIRCLE
5
101
100
AcDbEntity
8
0
100
AcDbCircle
10
-12.49999982863665
20
-26.500000000000004
30
0
40
1.5000000000000002
210
0
220
0
230
1
0
LWPOLYLINE
5
102
100
AcDbEntity
8
0
100
AcDbPolyline
90
8
70
1
43
0.0
10
7.0000012547316111
20
32.422451159907759
10
7.0000012547316164
20
25.309202505855886
42
-0.2679491924311202
10
6.0000012547316235
20
23.577151698287025
10
3.5000012547316222
20
22.133776025312958
42
-0.57735026918962207
10
2.0000012547316128
20
22.999801429097406
10
2.0000012547316111
20
30.113050083149275
42
-0.26794919243112175
10
3.0000012547316017
20
31.845100890718136
10
5.5000012547316048
20
33.288476563692207
42
-0.57735026918962584
0
CIRCLE
5
103
100
AcDbEntity
8
0
100
AcDbCircle
10
-10.99999982863665
20
-68.5
30
0
40
1.5000000000000002
210
0
220
0
230
1
0
LWPOLYLINE
5
104
100
AcDbEntity
8
0
100
AcDbPolyline
90
8
70
1
43
0.0
10
8.0000010062964098
20
39.731654521428624
10
3.5000012844665451
20
37.133578264667314
42
-0.57735028063460214
10
2.0000012547316128
20
37.999603651284282
10
2.0000018759606819
20
60.11285227549952
42
-0.26794918462654271
10
3.0000018341721728
20
61.8449030489408
10
7.5000016005022552
20
64.442979270144335
42
-0.57735027960022456
10
9.0000016213965068
20
63.576953871317976
10
9.0000009468265514
20
41.463705290453099
42
-0.26794918266714524
0
CIRCLE
5
105
100
AcDbEntity
8
0
100
AcDbCircle
10
12.5
20
26.500000000000004
30
0
40
1.4999999999999991
210
0
220
0
230
1
0
LWPOLYLINE
5
106
100
AcDbEntity
8
0
100
AcDbPolyline
90
8
70
1
43
0.0
10
10.999999999999998
20
51.000000000000014
42
-0.99999999999999989
10
10.999999999999998
20
52.000000000000014
10
10.999999999999998
20
56.000000000000014
42
-0.99999999999999989
10
10.999999999999998
20
57.000000000000014
10
12.499999999999998
20
57.000000000000014
42
-0.99999999999999989
10
12.499999999999998
20
56.000000000000014
10
12.499999999999998
20
52.000000000000014
42
-0.99999999999999989
10
12.499999999999998
20
51.000000000000014
0
LWPOLYLINE
5
107
100
AcDbEntity
8
0
100
AcDbPolyline
90
8
70
1
43
0.0
10
-7.999999053173461
20
39.731654567952354
10
-3.4999987452683969
20
37.133578178829964
42
0.57735026918962584
10
-1.9999987452683894
20
37.999603582614412
10
-1.9999981240393183
20
60.112852256665342
42
0.26794919243112669
10
-2.999998115378216
20
61.844903069234718
10
-7.4999983742729368
20
64.442979460063896
42
0.57735026848804549
10
-8.9999983786034914
20
63.576954065884905
10
-8.9999990531734504
20
41.463705379730662
42
0.26794919299508135
0
LWPOLYLINE
5
108
100
AcDbEntity
8
0
100
AcDbPolyline
90
8
70
1
43
0.0
10
-2.9999987452683752
20
31.845100890718136
42
-0.26794919243112203
10
-1.9999987452683878
20
30.113050083149275
10
-1.9999987452683856
20
22.999801429097403
42
-0.57735026918962229
10
-3.4999987452683983
20
22.133776025312962
10
-5.9999987452683987
20
23.577151698287029
42
-0.26794919243112236
10
-6.9999987452683872
20
25.309202505855886
10
-6.9999987452683872
20
32.422451159907759
42
-0.57735026918962584
10
-5.4999987452683801
20
33.288476563692207
0
CIRCLE
5
109
100
AcDbEntity
8
0
100
AcDbCircle
10
-12.500000000000004
20
26.500000000000004
30
0
40
1.4999999999999991
210
0
220
0
230
1
0
LWPOLYLINE
5
110
100
AcDbEntity
8
0
100
AcDbPolyline
90
8
70
1
43
0.0
10
2.9975273268096352
20
-28.86874565383151
42
-0.26794919243112159
10
1.9975273268096403
20
-27.136694846262635
10
1.9975273268096394
20
-23.02344619221078
42
-0.57735026918962173
10
3.4975273268096414
20
-22.157420788426339
10
5.997527326809637
20
-23.6007964614004
42
-0.26794919243112192
10
6.9975273268096387
20
-25.332847268969282
10
6.9975273268096281
20
-29.44609592302114
42
-0.57735026918962207
10
5.4975273268096263
20
-30.312121326805581
0
LWPOLYLINE
5
111
100
AcDbEntity
8
0
100
AcDbPolyline
90
8
70
1
43
0.0
10
-11.000000000000004
20
51.000000000000014
10
-12.500000000000002
20
51.000000000000014
42
-0.99999999999999989
10
-12.500000000000002
20
52.000000000000014
10
-12.500000000000002
20
56.000000000000014
42
-0.99999999999999989
10
-12.500000000000002
20
57.000000000000014
10
-11.000000000000004
20
57.000000000000014
42
-0.99999999999999989
10
-11.000000000000004
20
56.000000000000014
10
-11.000000000000004
20
52.000000000000014
42
-0.99999999999999989
0
LWPOLYLINE
5
112
100
AcDbEntity
8
0
100
AcDbPolyline
90
8
70
1
43
0.0
10
-3.1414182327516444
20
76.372778758567236
42
-0.45641210326028614
10
-1.999996900408076
20
75.382828931159395
10
-1.9999993393333
20
67.99960429905488
42
-0.57735025986354893
10
-3.4999993436638688
20
67.13357893074938
10
-5.9999983536010459
20
68.576954048778703
42
-0.26794915458521673
10
-6.9999983449399137
20
70.309004578862343
10
-6.9999967882527327
20
74.954258258242504
42
-0.37323769379272825
10
-6.1414181205964553
20
75.944207419904416
0
LWPOLYLINE
5
113
100
AcDbEntity
8
0
100
AcDbPolyline
90
8
70
1
43
0.0
10
3.1414243203879746
20
76.372779145624023
10
6.1414244357880445
20
75.944208119392428
42
-0.37323795383180647
10
7.0000032149918576
20
74.954258141502166
10
7.0000007979589345
20
70.309005846428789
42
-0.26794918065023887
10
6.000000789297852
20
68.576955131794136
10
3.5000006563360788
20
67.133579398722844
42
-0.57735027851569398
10
2.0000006606666236
20
67.999604837986226
10
2.0000030995920186
20
75.382829962947454
42
-0.45641186964924535
0
CIRCLE
5
114
100
AcDbEntity
8
0
100
AcDbCircle
10
12.500000171363354
20
-26.500000000000004
30
0
40
1.4999999999999991
210
0
220
0
230
1
0
CIRCLE
5
115
100
AcDbEntity
8
0
100
AcDbCircle
10
11.000000171363356
20
-68.5
30
0
40
1.4999999999999991
210
0
220
0
230
1
0
CIRCLE
5
116
100
AcDbEntity
8
0
100
AcDbCircle
10
-12.499997086092874
20
76.499999934514477
30
0
40
1.4999999999999991
210
0
220
0
230
1
0
CIRCLE
5
117
100
AcDbEntity
8
0
100
AcDbCircle
10
12.500002913907123
20
76.499999467160336
30
0
40
1.4999999999999991
210
0
220
0
230
1
0
CIRCLE
5
118
100
AcDbEntity
8
0
100
AcDbCircle
10
-10
20
10
30
4.7801129413133127e-15
40
2.25
210
0
220
0
230
1
0
CIRCLE
5
119
100
AcDbEntity
8
0
100
AcDbCircle
10
10
20
-10
30
0
40
2.2500000000000009
210
0
220
0
230
1
0
CIRCLE
5
120
100
AcDbEntity
8
0
100
AcDbCircle
10
-10
20
-10
30
0
40
2.25
210
0
220
0
230
1
0
LWPOLYLINE
5
121
100
AcDbEntity
8
0
100
AcDbPolyline
90
10
70
1
43
0.0
10
-7
20
0
10
-7
20
-1.9585481156726208
42
0.26794919243112264
10
-5.9999999999999982
20
-3.6905989232414993
10
-3.5000000000000009
20
-5.1339745962155625
42
0.57735026918962407
10
-1.9999999999999996
20
-4.2679491924311224
10
-2
20
0
10
-2
20
4.2679491924311233
42
0.57735026918962584
10
-3.5
20
5.1339745962155625
10
-5.9999999999999982
20
3.690598923241498
42
0.26794919243112236
10
-7
20
1.9585481156726203
0
LWPOLYLINE
5
122
100
AcDbEntity
8
0
100
AcDbPolyline
90
10
70
1
43
0.0
10
2
20
4.2679491924311233
42
-0.57735026918962584
10
3.5
20
5.1339745962155625
10
5.9999999999999982
20
3.690598923241498
42
-0.26794919243112236
10
7
20
1.9585481156726203
10
7
20
0
10
7
20
-1.9585481156726208
42
-0.26794919243112264
10
5.9999999999999982
20
-3.6905989232414993
10
3.5000000000000009
20
-5.1339745962155625
42
-0.57735026918962407
10
1.9999999999999996
20
-4.2679491924311224
10
2
20
0
0
ARC
5
123
100
AcDbEntity
8
0
100
AcDbCircle
10
12.500002913907123
20
76.499999467160336
30
0
40
3.4999442073409064
210
-2.1099943722586194e-16
220
1.4618526648862696e-19
230
1
100
AcDbArc
50
-0.039696899506171841
51
89.999998928903182
0
LINE
5
124
100
AcDbEntity
8
0
100
AcDbLine
10
8.6634771783749507
20
80.643365791984948
30
7.5560080181762254e-17
11
13.041468970383958
21
79.957805702937947
31
1.1374353922682261e-16
0
ARC
5
125
100
AcDbEntity
8
0
100
AcDbCircle
10
-12.499997086092874
20
76.499999934514477
30
0
40
3.499999999946946
210
0
220
-0
230
1
100
AcDbArc
50
89.999998928903139
51
179.99989942850854
0
LINE
5
126
100
AcDbEntity
8
0
100
AcDbLine
10
-8.6634769295024441
20
80.643402732854071
30
-3.0814879110195774e-32
11
-13.041457029832282
21
79.957863599981124
31
0
0
ARC
5
127
100
AcDbEntity
8
0
100
AcDbCircle
10
-0.00011782954052952909
20
25.317584084549654
30
1.5785342505970333e-15
40
55.999999999999631
210
-4.3607814473824905e-18
220
2.7848756352707096e-17
230
1
100
AcDbArc
50
81.100193270099751
51
98.899562421999605
0
LINE
5
128
100
AcDbEntity
8
0
100
AcDbLine
10
-10.99999982863665
20
-68.5
30
0
11
-14.499999828636652
21
-68.5
31
0
0
CIRCLE
5
129
100
AcDbEntity
8
0
100
AcDbCircle
10
-10.99999982863665
20
-68.5
30
0
40
3.5000000000000009
210
0
220
0
230
1
0
LINE
5
130
100
AcDbEntity
8
0
100
AcDbLine
10
-1.7623873509490309
20
-67.864977508523367
30
0
11
-9.4579108686158833
21
-71.641967797317804
31
0
0
CIRCLE
5
131
100
AcDbEntity
8
0
100
AcDbCircle
10
11.000000171363356
20
-68.5
30
0
40
3.4999999999999982
210
0
220
0
230
1
0
LINE
5
132
100
AcDbEntity
8
0
100
AcDbLine
10
1.762387363346591
20
-67.864977483263601
30
0
11
9.4579112563754553
21
-71.641967819420088
31
0
0
LINE
5
133
100
AcDbEntity
8
0
100
AcDbLine
10
11.000000171363356
20
-68.5
30
0
11
14.500000171363354
21
-68.5
31
0
0
ARC
5
134
100
AcDbEntity
8
0
100
AcDbCircle
10
3.1931844945987109e-08
20
-71.455797848315143
30
0
40
4.0000000000000036
210
0
220
-0
230
1
100
AcDbArc
50
63.858032380741953
51
116.14196844046097
0
ARC
5
135
100
AcDbEntity
8
0
100
AcDbCircle
10
31.987386339483621
20
24.016809013035356
30
-3.9173250293738395e-15
40
5
210
1.2246467991473535e-16
220
-1.2325951644078309e-32
230
-1
100
AcDbArc
50
-53.100000000000009
51
126.89999999999999
0
ARC
5
136
100
AcDbEntity
8
0
100
AcDbCircle
10
-31.987386339483621
20
-24.016809013035356
30
8.4291956328822841e-16
40
5
210
1.2246467991473532e-16
220
1.2246467991473535e-16
230
1
100
AcDbArc
50
126.89999999999999
51
306.90000000000003
0
ARC
5
137
100
AcDbEntity
8
0
100
AcDbCircle
10
-31.987386339483621
20
-24.016809013035356
30
2.0982912650664783e-15
40
5
210
1.2325951644078309e-32
220
-1.2246467991473537e-16
230
-1
100
AcDbArc
50
126.89999999999999
51
306.90000000000003
0
ARC
5
138
100
AcDbEntity
8
0
100
AcDbCircle
10
31.987386339483621
20
24.016809013035356
30
0
40
5
210
0
220
0
230
1
100
AcDbArc
50
-53.100000000000009
51
126.89999999999999
0
LINE
5
139
100
AcDbEntity
8
0
100
AcDbLine
10
15.99994628120986
20
76.497574560411948
30
7.3848643530890506e-16
11
15.971209556842689
21
35.020966062299095
31
7.384862717060591e-16
0
LINE
5
140
100
AcDbEntity
8
0
100
AcDbLine
10
21.971208116754298
20
29.016809013035356
30
4.6171375843761352e-16
11
31.987386339483621
21
29.016809013035356
31
0
0
ARC
5
141
100
AcDbEntity
8
0
100
AcDbCircle
10
21.971208116754283
20
35.016809013035335
30
4.6190540881643972e-16
40
5.9999999999999805
210
4.6096799414956917e-17
220
-3.1941729804226217e-20
230
1
100
AcDbArc
50
179.96030310048462
51
270.00000000000017
0
CIRCLE
5
142
100
AcDbEntity
8
0
100
AcDbCircle
10
31.987386339483621
20
24.016809013035356
30
0
40
2.25
210
0
220
0
230
1
0
LWPOLYLINE
5
143
100
AcDbEntity
8
0
100
AcDbPolyline
90
4
70
1
43
0.0
10
19.090708497336063
20
16.211317315783973
10
24.688919765122002
20
20.413701234613214
42
-0.99999999999999989
10
26.489941444620246
20
18.014467834133526
10
20.891730176834308
20
13.812083915304287
42
-0.99999999999999989
0
LINE
5
144
100
AcDbEntity
8
0
100
AcDbLine
10
26.789047305110966
20
20.114595374122494
30
0
11
18.791602636845347
21
14.111189775795008
31
0
0
LINE
5
145
100
AcDbEntity
8
0
100
AcDbLine
10
-26.789047305110966
20
20.114595374122494
30
-4.8970225071747781e-16
11
-18.791602636845344
21
14.111189775795008
31
4.8970225071747781e-16
0
LWPOLYLINE
5
146
100
AcDbEntity
8
0
100
AcDbPolyline
90
4
70
1
43
0.0
10
-24.688919765122002
20
20.413701234613214
42
0.99999999999999989
10
-26.489941444620246
20
18.014467834133526
10
-20.891730176834308
20
13.812083915304287
42
0.99999999999999989
10
-19.090708497336063
20
16.211317315783973
0
CIRCLE
5
147
100
AcDbEntity
8
0
100
AcDbCircle
10
31.987386339483621
20
24.016809013035356
30
-2.7910098527236397e-15
40
2.25
210
1.2246467991473532e-16
220
0
230
-1
0
LINE
5
148
100
AcDbEntity
8
0
100
AcDbLine
10
26.789047305110966
20
-20.114595374122494
30
3.6760257249875264e-16
11
18.791602636845347
21
-14.11118977579501
31
-3.6760257249875289e-16
0
LWPOLYLINE
5
149
100
AcDbEntity
8
0
100
AcDbPolyline
90
4
70
1
43
0.0
10
24.688919765122002
20
-20.413701234613214
42
0.99999999999999989
10
26.489941444620246
20
-18.014467834133526
10
20.891730176834308
20
-13.812083915304294
42
0.99999999999999989
10
19.090708497336063
20
-16.211317315783973
0
CIRCLE
5
150
100
AcDbEntity
8
0
100
AcDbCircle
10
-31.987386339483621
20
-24.016809013035356
30
2.0957249116075742e-15
40
2.25
210
0
220
-1.2246467991473532e-16
230
-1
0
LINE
5
151
100
AcDbEntity
8
0
100
AcDbLine
10
-26.789047305110962
20
-20.114595374122494
30
8.5730482321622996e-16
11
-18.791602636845344
21
-14.11118977579501
31
-8.5730482321622996e-16
0
LWPOLYLINE
5
152
100
AcDbEntity
8
0
100
AcDbPolyline
90
4
70
1
43
0.0
10
-24.688919765122002
20
-20.413701234613214
42
-0.99999999999999989
10
-26.489941444620246
20
-18.014467834133526
10
-20.891730176834322
20
-13.812083915304294
42
-0.99999999999999989
10
-19.09070849733606
20
-16.211317315783973
0
CIRCLE
5
153
100
AcDbEntity
8
0
100
AcDbCircle
10
-31.987386339483628
20
-24.016809013035356
30
1.9718010933973305e-15
40
2.25
210
1.2246467991473532e-16
220
1.2246467991473532e-16
230
1
0
LINE
5
154
100
AcDbEntity
8
0
100
AcDbLine
10
-31.987386339483621
20
29.016809013035356
30
-6.1629758220391547e-32
11
-22.000069903069136
21
29.016809013035356
31
1.2230935105926752e-15
0
LINE
5
155
100
AcDbEntity
8
0
100
AcDbLine
10
-16.00006990307838
20
35.016798481008323
30
1.7104820224202854e-15
11
-15.999997086034428
21
76.500006078196918
31
0
0
ARC
5
156
100
AcDbEntity
8
0
100
AcDbCircle
10
-22.000069903069136
20
35.016809013035356
30
9.7569350866241992e-16
40
6.0000000000000009
210
-1.2246467991473549e-16
220
4.123333365504253e-17
230
1
100
AcDbArc
50
270
51
359.99989942850851
0
LINE
5
157
100
AcDbEntity
8
0
100
AcDbLine
10
-31.987386339483628
20
-29.016809013035356
30
1.4552429628619063e-15
11
-21.987386339483628
21
-29.016809013035356
31
1.4552429628619063e-15
0
SPLINE
5
158
100
AcDbEntity
8
0
100
AcDbSpline
70
12
71
2
41
1
41
1.4999999999999991
41
1
72
6
73
3
74
0
42
0.000000001
43
0.0000000001
44
0.0000000001
40
0
40
0
40
0
40
4.1533432475124661
40
4.1533432475124661
40
4.1533432475124661
10
-14.499999828636652
20
-68.5
30
0
10
-14.499999828636652
20
-29.016809013035356
30
1.4552429628619063e-15
10
-21.987386339483628
20
-29.016809013035356
30
1.4552429628619063e-15
0
LINE
5
159
100
AcDbEntity
8
0
100
AcDbLine
10
31.987386339483621
20
-29.016809013035356
30
1.4552429628619053e-15
11
21.987386339483621
21
-29.016809013035356
31
1.4552429628619053e-15
0
SPLINE
5
160
100
AcDbEntity
8
0
100
AcDbSpline
70
12
71
2
41
1
41
1.5000000000000007
41
1
72
6
73
3
74
0
42
0.000000001
43
0.0000000001
44
0.0000000001
40
0
40
0
40
0
40
4.1533432306178462
40
4.1533432306178462
40
4.1533432306178462
10
14.500000171363354
20
-68.5
30
0
10
14.500000171363354
20
-29.016809013035356
30
0
10
21.987386339483621
20
-29.016809013035356
30
1.4552429628619053e-15
0
CIRCLE
5
161
100
AcDbEntity
8
0
100
AcDbCircle
10
10
20
10
30
0
40
2.2500000000000009
210
0
220
0
230
1
0
LWPOLYLINE
5
162
100
AcDbEntity
8
0
100
AcDbPolyline
90
8
70
1
43
0.0
10
-8.0024726730582749
20
-36.75549699977968
10
-3.5024726730582967
20
-34.157420788426364
42
-0.57735026918962207
10
-2.0024726730582949
20
-35.023446192210798
10
-2.0024726730582354
20
-50.136694846262642
42
-0.26794919243112669
10
-3.0024726730582523
20
-51.868745653831553
10
-7.5024726730582811
20
-54.466821865184833
42
-0.57735026918962262
10
-9.0024726730582767
20
-53.600796461400392
10
-9.0024726730582643
20
-38.487547807348562
42
-0.26794919243111953
0
LWPOLYLINE
5
163
100
AcDbEntity
8
0
100
AcDbPolyline
90
8
70
1
43
0.0
10
1.9975273269417175
20
-35.023446192210791
42
-0.5773502691896274
10
3.4975273269417189
20
-34.15742078842635
10
7.9975273269417038
20
-36.755496999779659
42
-0.26794919243112336
10
8.9975273269417055
20
-38.487547807348534
10
8.9975273269417002
20
-53.600796461400364
42
-0.57735026918963339
10
7.4975273269417011
20
-54.466821865184798
10
2.9975273269417895
20
-51.868745653831532
42
-0.26794919243112214
10
1.9975273269417879
20
-50.136694846262664
0
LWPOLYLINE
5
164
100
AcDbEntity
8
0
100
AcDbPolyline
90
8
70
1
43
0.0
10
6.9977437657451986
20
-64.270537202223196
42
-0.57694879993641124
10
5.4988354640590842
20
-65.136514662869558
10
2.9990755666714621
20
-63.696254612622113
42
-0.26818865854964424
10
1.9975273269418135
20
-61.963310850576434
10
1.9975273269418112
20
-58.026375701958074
42
-0.57735026918962529
10
3.4975273269418157
20
-57.160350298173633
10
5.9995842151728098
20
-58.604913516121556
42
-0.2747015980645599
10
6.9989513477310803
20
-60.387274056801374
0
LWPOLYLINE
5
165
100
AcDbEntity
8
0
100
AcDbPolyline
90
8
70
1
43
0.0
10
-3.5011645359409145
20
-57.157810231519647
42
-0.57694955143090254
10
-2.0013211619712914
20
-58.024330175482284
10
-2.0001072279095009
20
-61.956537613913191
42
-0.26803191425435102
10
-3.0001307841215259
20
-63.689246833033508
10
-5.5024726730581826
20
-65.13397459621558
42
-0.57735026918962939
10
-7.0024726730581799
20
-64.267949192431132
10
-7.0024726730581834
20
-60.331014043812779
42
-0.26818865854964447
10
-6.0009244333285441
20
-58.5980702817671
0
LINE
5
166
100
AcDbEntity
8
0
100
AcDbLine
10
-34.98948746611304
20
20.018385720599902
30
-3.6765135354433817e-16
11
-25.368780407166589
21
12.794954535793455
31
8.1054545698297303e-16
0
LINE
5
167
100
AcDbEntity
8
0
100
AcDbLine
10
-25.368780407166586
20
-12.794954535793446
30
1.5063074896788016e-15
11
-34.98948746611304
21
-20.018385720599902
31
7.2090528816083645e-16
0
ARC
5
168
100
AcDbEntity
8
0
100
AcDbCircle
10
-34.975504012380725
20
3.3306690738754696e-15
30
1.7805398799215407e-16
40
15.999999999999996
210
-1.0205066010295407e-16
220
2.7188921646788864e-17
230
1
100
AcDbArc
50
-53.100000000000009
51
53.10000000000003
0
LINE
5
169
100
AcDbEntity
8
0
100
AcDbLine
10
34.98948746611304
20
20.018385720599902
30
0
11
25.368780407166582
21
12.794954535793446
31
-6.1629758220391547e-32
0
LINE
5
170
100
AcDbEntity
8
0
100
AcDbLine
10
25.368780407166589
20
-12.794954535793451
30
2.257858398820381e-16
11
34.98948746611304
21
-20.018385720599902
31
3.5325393461649833e-16
0
ARC
5
171
100
AcDbEntity
8
0
100
AcDbCircle
10
34.975504012380725
20
2.2204460492503131e-15
30
1.7653433148667458e-16
40
15.999999999999995
210
-6.6246739430614653e-18
220
8.8232372866355233e-18
230
1
100
AcDbArc
50
126.90000000000002
51
233.10000000000005
0
ENDSEC
0
SECTION
2
OBJECTS
0
DICTIONARY
5
C
100
AcDbDictionary
3
ACAD_GROUP
350
D
3
ACAD_MLINESTYLE
350
17
0
DICTIONARY
5
D
100
AcDbDictionary
0
DICTIONARY
5
1A
330
C
100
AcDbDictionary
0
DICTIONARY
5
17
100
AcDbDictionary
0
ENDSEC
0
EOF
