0
SECTION
2
HEADER
9
$INSUNITS
70
4
9
$ACADVER
1
AC1014
9
$HANDSEED
5
FFFF
0
ENDSEC
0
SECTION
2
TABLES
0
TABLE
2
VPORT
5
8
100
AcDbSymbolTable
0
ENDTAB
0
TABLE
2
LTYPE
5
5
100
AcDbSymbolTable
0
LTYPE
5
14
100
AcDbSymbolTableRecord
100
AcDbLinetypeTableRecord
2
BYBLOCK
70
0
0
LTYPE
5
15
100
AcDbSymbolTableRecord
100
AcDbLinetypeTableRecord
2
BYLAYER
70
0
0
ENDTAB
0
TABLE
2
LAYER
5
2
100
AcDbSymbolTable
70
2
0
LAYER
5
50
100
AcDbSymbolTableRecord
100
AcDbLayerTableRecord
2
0
70
0
6
CONTINUOUS
0
ENDTAB
0
TABLE
2
STYLE
5
3
100
AcDbSymbolTable
70
1
0
STYLE
5
11
100
AcDbSymbolTableRecord
100
AcDbTextStyleTableRecord
2
STANDARD
70
0
0
ENDTAB
0
TABLE
2
VIEW
5
6
100
AcDbSymbolTable
70
0
0
ENDTAB
0
TABLE
2
UCS
5
7
100
AcDbSymbolTable
70
0
0
ENDTAB
0
TABLE
2
APPID
5
9
100
AcDbSymbolTable
70
2
0
APPID
5
12
100
AcDbSymbolTableRecord
100
AcDbRegAppTableRecord
2
ACAD
70
0
0
ENDTAB
0
TABLE
2
DIMSTYLE
5
A
100
AcDbSymbolTable
70
1
0
ENDTAB
0
TABLE
2
BLOCK_RECORD
5
1
100
AcDbSymbolTable
70
1
0
BLOCK_RECORD
5
1F
100
AcDbSymbolTableRecord
100
AcDbBlockTableRecord
2
*MODEL_SPACE
0
BLOCK_RECORD
5
1B
100
AcDbSymbolTableRecord
100
AcDbBlockTableRecord
2
*PAPER_SPACE
0
ENDTAB
0
ENDSEC
0
SECTION
2
BLOCKS
0
BLOCK
5
20
100
AcDbEntity
100
AcDbBlockBegin
2
*MODEL_SPACE
0
ENDBLK
5
21
100
AcDbEntity
100
AcDbBlockEnd
0
BLOCK
5
1C
100
AcDbEntity
100
AcDbBlockBegin
2
*PAPER_SPACE
0
ENDBLK
5
1D
100
AcDbEntity
100
AcDbBlockEnd
0
ENDSEC
0
SECTION
2
ENTITIES
0
CIRCLE
5
100
100
AcDbEntity
8
0
100
AcDbCircle
10
-10.000016395170812
20
-10.000011803910589
30
1.4600600475412851e-15
40
1.4999999999999991
210
0
220
-1.2246467991473532e-16
230
-1
0
LWPOLYLINE
5
101
100
AcDbEntity
8
0
100
AcDbPolyline
90
48
70
1
43
0.0
10
18.724172014097395
20
-8.4105891336852725
42
-0.24799604151288118
10
18.724172014097398
20
8.4105891336852796
42
-0.17177377797598634
10
24.614701021481306
20
13.836733332169015
10
30.617070994646763
20
16.403969417718571
42
0.81589564657181191
10
27.864354564710506
20
29.840004863267247
10
26.994413118681948
20
29.840004863267247
42
-0.41407717389667309
10
14.994414419839366
20
41.834416681397563
10
14.990621161325034
20
49.980017217990991
42
-0.031447053675182732
10
15.302943305613081
20
54.996862599171443
10
15.683806625039306
20
58.026711630311354
42
0.031098768375561615
10
15.996128939036392
20
62.987885814760283
10
15.99994628120986
20
68.497574560411948
42
0.36961309390072272
10
13.041468970383958
20
71.957805702937947
10
8.6634771783749507
20
72.643365791984934
42
0.077822000214500475
10
-8.6637128373771599
20
72.643365791482012
10
-13.041468721511437
20
71.957842643807069
42
0.36961472102955101
10
-15.999977336570515
20
68.497555091448149
10
-15.996128690163896
20
62.987922755629398
42
0.03109876837556157
10
-15.683806376166803
20
58.026748571180477
10
-15.302943056740578
20
54.996899540040559
42
-0.031447053675182787
10
-14.990620912452531
20
49.980054158860113
10
-14.994414281932629
20
41.834416543362295
42
-0.41407717052786536
10
-26.994412980710912
20
29.840004863267247
10
-27.864354564710503
20
29.84000486326725
42
0.81589564657181191
10
-30.617070994646763
20
16.403969417718571
10
-24.614701021481309
20
13.83673333216902
42
-0.17177377797598486
10
-18.724172014097405
20
8.4105891336852885
42
-0.24799604151288174
10
-18.724172014097405
20
-8.4105891336852867
42
-0.17177377797598475
10
-24.614701021481309
20
-13.836733332169013
10
-30.617070994646763
20
-16.403969417718564
42
0.81589564657181191
10
-27.86435456471051
20
-29.840004863267243
10
-26.999999943907223
20
-29.840004863267239
42
-0.41421356100399598
10
-14.999999943907232
20
-41.840004807174495
10
-14.999999828636652
20
-66.500000008755791
42
0.35771327804182945
10
-12.183941218177253
20
-69.932524461045148
10
-10.363643435250541
20
-70.29522456971489
42
0.25915948104719744
10
-6.6638473163580914
20
-69.108103986902876
10
-2.9181486451969891
20
-65.11269207099771
42
-0.43323201246632853
10
2.9181489879237059
20
-65.11269207099771
10
6.6638476590848121
20
-69.10810398690289
42
0.25915948104719105
10
10.363643777977273
20
-70.295224569714861
10
12.183941560903889
20
-69.932524461045162
42
0.35771327874727532
10
15.000000171363354
20
-66.5
10
15.000000056092748
20
-41.840004919360013
42
-0.41421356374219404
10
27.000000056092741
20
-29.840004863267247
10
27.864354564710503
20
-29.84000486326725
42
0.81589564657181191
10
30.617070994646763
20
-16.403969417718571
10
24.614701021481309
20
-13.836733332169015
42
-0.17177377797598622
0
CIRCLE
5
102
100
AcDbEntity
8
0
100
AcDbCircle
10
10.000016395170812
20
10.000011803910589
30
0
40
1.4999999999999991
210
0
220
0
230
1
0
LWPOLYLINE
5
103
100
AcDbEntity
8
0
100
AcDbPolyline
90
12
70
1
43
0.0
10
7.0000000000000009
20
-41.041451884327387
42
-0.26794919243112336
10
8.0000000000000036
20
-42.773502691896262
10
7.9999999999999982
20
-50.46410161513775
42
-0.26794919243112603
10
7.0000000000000036
20
-52.196152422706625
10
1.5000000000000002
20
-55.371578903249564
42
-0.26794919243112481
10
-1.5000000000000002
20
-55.371578903249564
10
-7.0000000000000053
20
-52.196152422706625
42
-0.26794919243112603
10
-8
20
-50.46410161513775
10
-8.0000000000000036
20
-42.773502691896262
42
-0.26794919243112336
10
-7.0000000000000009
20
-41.041451884327387
10
-1.4999999999999991
20
-37.866025403784441
42
-0.26794919243112203
10
1.5000000000000013
20
-37.866025403784441
0
CIRCLE
5
104
100
AcDbEntity
8
0
100
AcDbCircle
10
12.500000171363354
20
-27.5
30
0
40
1.4999999999999991
210
0
220
0
230
1
0
CIRCLE
5
105
100
AcDbEntity
8
0
100
AcDbCircle
10
10.000000171363352
20
-36.499999999999993
30
0
40
1.0000000000000009
210
0
220
0
230
1
0
CIRCLE
5
106
100
AcDbEntity
8
0
100
AcDbCircle
10
-12.49999982863665
20
-27.5
30
0
40
1.5000000000000002
210
0
220
0
230
1
0
CIRCLE
5
107
100
AcDbEntity
8
0
100
AcDbCircle
10
10.000000171363352
20
-56.499999999999993
30
0
40
1.0000000000000009
210
0
220
0
230
1
0
LWPOLYLINE
5
108
100
AcDbEntity
8
0
100
AcDbPolyline
90
8
70
1
43
0.0
10
-2.0000001016006177
20
59.767949212340824
42
-0.57735027007723716
10
-3.500000101977625
20
58.901923806546542
10
-7.0000001078249685
20
60.922649753432381
42
-0.267949191717616
10
-8.0000001073677183
20
62.654700556624917
10
-8.0000001196433068
20
66.594635241239033
42
-0.38887873256818134
10
-7.0871558623909658
20
67.590829941815741
10
-3.0871558618824579
20
67.940784595963933
42
-0.44001053025065928
10
-2.0000001191347918
20
66.944589900020873
0
CIRCLE
5
109
100
AcDbEntity
8
0
100
AcDbCircle
10
-9.999999828636648
20
-36.499999999999993
30
0
40
0.99999999999999978
210
0
220
0
230
1
0
CIRCLE
5
110
100
AcDbEntity
8
0
100
AcDbCircle
10
12.5
20
27.5
30
0
40
1.4999999999999991
210
0
220
0
230
1
0
CIRCLE
5
111
100
AcDbEntity
8
0
100
AcDbCircle
10
-9.999999828636648
20
-56.499999999999993
30
0
40
0.99999999999999978
210
0
220
0
230
1
0
CIRCLE
5
112
100
AcDbEntity
8
0
100
AcDbCircle
10
-12.500000000000004
20
27.5
30
0
40
1.4999999999999991
210
0
220
0
230
1
0
CIRCLE
5
113
100
AcDbEntity
8
0
100
AcDbCircle
10
-10.49999982863665
20
-65.5
30
0
40
1.5000000000000002
210
0
220
0
230
1
0
CIRCLE
5
114
100
AcDbEntity
8
0
100
AcDbCircle
10
-27.86435456471051
20
-22.840004863267247
30
0
40
1.4999999999999991
210
0
220
0
230
1
0
CIRCLE
5
115
100
AcDbEntity
8
0
100
AcDbCircle
10
27.864354564710506
20
22.84000486326725
30
-3.4123992627979663e-15
40
1.4999999999999991
210
1.2246467991473532e-16
220
0
230
-1
0
ARC
5
116
100
AcDbEntity
8
0
100
AcDbCircle
10
5.9999998932258327
20
62.654700552885949
30
0
40
1.9999999999999873
210
-0
220
0
230
1
100
AcDbArc
50
-60.000000024942807
51
0
0
LINE
5
117
100
AcDbEntity
8
0
100
AcDbLine
10
1.9999998983993827
20
59.76794920949574
30
0
11
1.9999998804507879
21
66.944589901471517
31
0
0
LINE
5
118
100
AcDbEntity
8
0
100
AcDbLine
10
3.0871556245149745
20
67.940784601949076
30
0
11
7.0871556246022305
21
67.59082994251105
31
0
0
LINE
5
119
100
AcDbEntity
8
0
100
AcDbLine
10
7.9999998932258194
20
62.654700558022768
30
0
11
7.9999998818222497
21
66.594635247102886
31
0
0
CIRCLE
5
120
100
AcDbEntity
8
0
100
AcDbCircle
10
12.500002913907123
20
68.499999467160322
30
0
40
1.4999999999999991
210
0
220
0
230
1
0
LINE
5
121
100
AcDbEntity
8
0
100
AcDbLine
10
3.4999998980223723
20
58.901923807954226
30
0
11
6.9999998924718065
21
60.922649744881745
31
0
0
CIRCLE
5
122
100
AcDbEntity
8
0
100
AcDbCircle
10
-12.499997086092874
20
68.499999934514477
30
0
40
1.4999999999999991
210
0
220
0
230
1
0
ARC
5
123
100
AcDbEntity
8
0
100
AcDbCircle
10
6.9999998805380432
20
66.594635244534487
30
0
40
1.0000000012842059
210
0
220
-0
230
1
100
AcDbArc
50
0
51
84.999999924280303
0
ARC
5
124
100
AcDbEntity
8
0
100
AcDbCircle
10
2.9999998983993885
20
59.767949211956342
30
0
40
1.0000000000000058
210
0
220
0
230
1
100
AcDbArc
50
180
51
299.99999997505665
0
ARC
5
125
100
AcDbEntity
8
0
100
AcDbCircle
10
2.9999998804507961
20
66.944589903972499
30
0
40
1.0000000000000084
210
0
220
-0
230
1
100
AcDbArc
50
84.999999924280871
51
180
0
CIRCLE
5
126
100
AcDbEntity
8
0
100
AcDbCircle
10
-27.864354564710506
20
-22.84000486326725
30
2.7970938848310216e-15
40
1.4999999999999991
210
0
220
-1.2246467991473532e-16
230
-1
0
CIRCLE
5
127
100
AcDbEntity
8
0
100
AcDbCircle
10
27.864354564710506
20
22.84000486326725
30
0
40
1.4999999999999991
210
0
220
0
230
1
0
CIRCLE
5
128
100
AcDbEntity
8
0
100
AcDbCircle
10
10.500000167023195
20
-65.500000004340166
30
3.68572784135494e-17
40
1.5000000000000013
210
0
220
0
230
1
0
CIRCLE
5
129
100
AcDbEntity
8
0
100
AcDbCircle
10
10.000016395170812
20
10.000011803910596
30
1.4600600475412855e-15
40
1.4999999999999991
210
1.4997597826618576e-32
220
1.2246467991473532e-16
230
-1
0
CIRCLE
5
130
100
AcDbEntity
8
0
100
AcDbCircle
10
-10.000016395170812
20
-10.000011803910587
30
0
40
1.4999999999999991
210
0
220
0
230
1
0
LWPOLYLINE
5
131
100
AcDbEntity
8
0
100
AcDbPolyline
90
8
70
1
43
0.0
10
7.999999886169511
20
36.65470054494817
42
-0.26794919310887422
10
6.9999998927398455
20
34.922649744947201
10
3.4999998988089791
20
32.901923807121477
42
-0.57735026836944026
10
1.9999998961410081
20
33.767949210609032
10
1.9999998566803832
20
51.881197875777083
42
-0.26794919291972952
10
2.9999998516617579
20
53.613248679602052
10
6.4999998445113407
20
55.633974619300595
42
-0.57735026855883353
10
7.9999998449810183
20
54.767949217788143
0
LWPOLYLINE
5
132
100
AcDbEntity
8
0
100
AcDbPolyline
90
8
70
1
43
0.0
10
-7.0000001072245199
20
34.922649752341883
10
-3.5000001014596456
20
32.90192380531321
42
0.57734970561256727
10
-2.000034159834863
20
33.767927854256143
10
-2.0000001433411683
20
51.881191279172363
42
0.26794964564571949
10
-3.0000029099101635
20
53.613250260163895
10
-6.5000001554260214
20
55.633974610506975
42
0.57735104195897835
10
-8.0000001551516053
20
54.767946887927145
10
-7.9999535232382684
20
36.654615237646837
42
0.26794857104782882
0
LINE
5
133
100
AcDbEntity
8
0
100
AcDbLine
10
2.0122208086510014
20
17.900793834845889
30
0
11
2.0163703381103666
21
12.680050851364737
31
0
0
LINE
5
134
100
AcDbEntity
8
0
100
AcDbLine
10
3.5178789257245451
20
11.815693186537185
30
0
11
7.0143510260127275
21
13.842517334318597
31
0
0
ARC
5
135
100
AcDbEntity
8
0
100
AcDbCircle
10
7.0006637136537986
20
20.766799361083525
30
0
40
1.0013277376579197
210
0
220
-0
230
1
100
AcDbArc
50
0.10306821153761145
51
120.00000007904806
0
LINE
5
136
100
AcDbEntity
8
0
100
AcDbLine
10
8.0113299492470187
20
15.576420030862472
30
0
11
8.0019898311799071
21
20.768600628197795
31
0
0
LWPOLYLINE
5
137
100
AcDbEntity
8
0
100
AcDbPolyline
90
8
70
1
43
0.0
10
-6.5000001554260214
20
21.633974610506968
10
-3.0000029099101639
20
19.613250260163898
42
-0.26748260418737041
10
-1.992712342696739
20
17.872075000094309
10
-1.9836564122286897
20
12.67210811769905
42
-0.57734970561844723
10
-3.4821104354236603
20
11.803490607128781
10
-6.9856277022813931
20
13.818112197979357
42
-0.26794857104310227
10
-7.9885988037233568
20
15.548331908260671
10
-7.9977091505056688
20
20.767528161466593
42
-0.57793226380289886
0
ARC
5
138
100
AcDbEntity
8
0
100
AcDbCircle
10
6.0113331994343264
20
15.57282227353741
30
0
40
1.9999999857797706
210
-0
220
0
230
1
100
AcDbArc
50
-59.90012055196064
51
0.10306821153761145
0
LINE
5
139
100
AcDbEntity
8
0
100
AcDbLine
10
6.4999998436284407
20
21.633974618718543
30
0
11
2.999999851956765
21
19.613248674924858
31
0
0
ARC
5
140
100
AcDbEntity
8
0
100
AcDbCircle
10
3.9877795693500913
20
17.90236402316474
30
0
40
1.9755594300658164
210
0
220
0
230
1
100
AcDbArc
50
120.00000007904798
51
180.04553908826128
0
ARC
5
141
100
AcDbEntity
8
0
100
AcDbCircle
10
3.0163700111866252
20
12.680845658300758
30
0
40
0.99999998893534503
210
0
220
0
230
1
100
AcDbArc
50
180.04553908826128
51
300.0998794480393
0
LWPOLYLINE
5
142
100
AcDbEntity
8
0
100
AcDbPolyline
90
8
70
1
43
0.0
10
-7.9885988037706959
20
-15.54833190826059
42
-0.26794857104310227
10
-6.9856277023049893
20
-13.818112197938321
10
-3.4821104353864345
20
-11.803490607193519
42
-0.57734970561844723
10
-1.9836564123033673
20
-12.672108117698919
10
-1.9927123426967395
20
-17.872075000094309
42
-0.26748260418737041
10
-3.0000029099101635
20
-19.613250260163898
10
-6.5000001554260223
20
-21.633974610506964
42
-0.57793226380289886
10
-7.9977091505056652
20
-20.767528161466593
0
LINE
5
143
100
AcDbEntity
8
0
100
AcDbLine
10
2.0122208086510014
20
-17.900793834845889
30
0
11
2.0163703381103666
21
-12.680050851364737
31
0
0
LINE
5
144
100
AcDbEntity
8
0
100
AcDbLine
10
6.4999998436284407
20
-21.633974618718543
30
0
11
2.999999851956765
21
-19.613248674924858
31
0
0
ARC
5
145
100
AcDbEntity
8
0
100
AcDbCircle
10
3.9877795693500913
20
-17.90236402316474
30
0
40
1.9755593846974784
210
0
220
0
230
1
100
AcDbArc
50
179.95446091173872
51
239.99999992095201
0
LINE
5
146
100
AcDbEntity
8
0
100
AcDbLine
10
8.0113299492470187
20
-15.576420030862472
30
0
11
8.0019898311799071
21
-20.768600628197795
31
0
0
ARC
5
147
100
AcDbEntity
8
0
100
AcDbCircle
10
7.0006637136537986
20
-20.766799361083525
30
0
40
1.0013277376579197
210
0
220
0
230
1
100
AcDbArc
50
239.99999992095192
51
359.89693178846238
0
ARC
5
148
100
AcDbEntity
8
0
100
AcDbCircle
10
6.0113331994343264
20
-15.57282227353741
30
0
40
1.9999999857797748
210
-0
220
0
230
1
100
AcDbArc
50
-0.1030682115376363
51
59.90012055196064
0
ARC
5
149
100
AcDbEntity
8
0
100
AcDbCircle
10
3.0163700111866252
20
-12.680845658300758
30
0
40
0.9999999953798091
210
0
220
-0
230
1
100
AcDbArc
50
59.900120551960676
51
179.95446091173872
0
LINE
5
150
100
AcDbEntity
8
0
100
AcDbLine
10
3.5178789257245451
20
-11.815693186537185
30
0
11
7.0143510260127275
21
-13.842517334318597
31
0
0
ENDSEC
0
SECTION
2
OBJECTS
0
DICTIONARY
5
C
100
AcDbDictionary
3
ACAD_GROUP
350
D
3
ACAD_MLINESTYLE
350
17
0
DICTIONARY
5
D
100
AcDbDictionary
0
DICTIONARY
5
1A
330
C
100
AcDbDictionary
0
DICTIONARY
5
17
100
AcDbDictionary
0
ENDSEC
0
EOF
