0
SECTION
2
HEADER
9
$INSUNITS
70
4
9
$ACADVER
1
AC1014
9
$HANDSEED
5
FFFF
0
ENDSEC
0
SECTION
2
TABLES
0
TABLE
2
VPORT
5
8
100
AcDbSymbolTable
0
ENDTAB
0
TABLE
2
LTYPE
5
5
100
AcDbSymbolTable
0
LTYPE
5
14
100
AcDbSymbolTableRecord
100
AcDbLinetypeTableRecord
2
BYBLOCK
70
0
0
LTYPE
5
15
100
AcDbSymbolTableRecord
100
AcDbLinetypeTableRecord
2
BYLAYER
70
0
0
ENDTAB
0
TABLE
2
LAYER
5
2
100
AcDbSymbolTable
70
2
0
LAYER
5
50
100
AcDbSymbolTableRecord
100
AcDbLayerTableRecord
2
0
70
0
6
CONTINUOUS
0
ENDTAB
0
TABLE
2
STYLE
5
3
100
AcDbSymbolTable
70
1
0
STYLE
5
11
100
AcDbSymbolTableRecord
100
AcDbTextStyleTableRecord
2
STANDARD
70
0
0
ENDTAB
0
TABLE
2
VIEW
5
6
100
AcDbSymbolTable
70
0
0
ENDTAB
0
TABLE
2
UCS
5
7
100
AcDbSymbolTable
70
0
0
ENDTAB
0
TABLE
2
APPID
5
9
100
AcDbSymbolTable
70
2
0
APPID
5
12
100
AcDbSymbolTableRecord
100
AcDbRegAppTableRecord
2
ACAD
70
0
0
ENDTAB
0
TABLE
2
DIMSTYLE
5
A
100
AcDbSymbolTable
70
1
0
ENDTAB
0
TABLE
2
BLOCK_RECORD
5
1
100
AcDbSymbolTable
70
1
0
BLOCK_RECORD
5
1F
100
AcDbSymbolTableRecord
100
AcDbBlockTableRecord
2
*MODEL_SPACE
0
BLOCK_RECORD
5
1B
100
AcDbSymbolTableRecord
100
AcDbBlockTableRecord
2
*PAPER_SPACE
0
ENDTAB
0
ENDSEC
0
SECTION
2
BLOCKS
0
BLOCK
5
20
100
AcDbEntity
100
AcDbBlockBegin
2
*MODEL_SPACE
0
ENDBLK
5
21
100
AcDbEntity
100
AcDbBlockEnd
0
BLOCK
5
1C
100
AcDbEntity
100
AcDbBlockBegin
2
*PAPER_SPACE
0
ENDBLK
5
1D
100
AcDbEntity
100
AcDbBlockEnd
0
ENDSEC
0
SECTION
2
ENTITIES
0
LWPOLYLINE
5
100
100
AcDbEntity
8
0
100
AcDbPolyline
90
8
70
1
43
0.0
10
7.0871556246022305
20
68.59082994251105
42
-0.38887873073343171
10
7.999999880538045
20
67.594635247102886
10
7.9999998932258194
20
62.654700558022768
42
-0.26794919323597388
10
6.9999998924718065
20
60.922649744881745
10
3.4999998980223719
20
58.901923807954226
42
-0.57735026822431046
10
1.9999998983993827
20
59.76794920949574
10
1.9999998804507872
20
67.944589901777391
42
-0.4400105319412087
10
3.0871556245149745
20
68.940784601949062
0
LWPOLYLINE
5
101
100
AcDbEntity
8
0
100
AcDbPolyline
90
12
70
1
43
0.0
10
-1.5000000000000002
20
-55.371578903249564
10
-7.0000000000000053
20
-52.196152422706625
42
-0.26794919243112603
10
-8
20
-50.46410161513775
10
-8.0000000000000036
20
-42.773502691896262
42
-0.26794919243112336
10
-7.0000000000000009
20
-41.041451884327387
10
-1.4999999999999991
20
-37.866025403784441
42
-0.26794919243112203
10
1.5000000000000013
20
-37.866025403784441
10
7.0000000000000009
20
-41.041451884327387
42
-0.26794919243112336
10
8.0000000000000036
20
-42.773502691896262
10
7.9999999999999982
20
-50.46410161513775
42
-0.26794919243112603
10
7.0000000000000036
20
-52.196152422706625
10
1.5000000000000002
20
-55.371578903249564
42
-0.26794919243112481
0
LINE
5
102
100
AcDbEntity
8
0
100
AcDbLine
10
8.6634771783749507
20
72.643365791984934
30
7.5560080181762254e-17
11
13.041468970383958
21
71.957805702937947
31
1.1374353922682261e-16
0
LWPOLYLINE
5
103
100
AcDbEntity
8
0
100
AcDbPolyline
90
8
70
1
43
0.0
10
-1.999999880896506
20
-28.88119786561834
42
-0.26794919302798281
10
-2.9999998811903996
20
-30.613248677472548
10
-6.4999998751030263
20
-32.633974615329848
42
-0.57735026844712112
10
-7.9999998749560817
20
-31.767949213518385
10
-7.9999998932258194
20
-24.654700557554584
42
-0.26794919317325006
10
-6.9999998924718057
20
-22.922649744881735
10
-3.4999998980223705
20
-20.901923807954216
42
-0.57735026844711734
10
-1.9999998983993823
20
-21.767949210164154
0
LWPOLYLINE
5
104
100
AcDbEntity
8
0
100
AcDbPolyline
90
8
70
1
43
0.0
10
-3.0871558618824579
20
68.940784595963919
42
-0.44001053025065928
10
-2.0000001191347918
20
67.944589900020858
10
-2.0000001016006177
20
59.767949212340824
42
-0.57735027007723716
10
-3.500000101977625
20
58.901923806546542
10
-7.0000001078249685
20
60.922649753432381
42
-0.267949191717616
10
-8.0000001073677183
20
62.654700556624917
10
-8.0000001196433068
20
67.594635241239033
42
-0.38887873256818134
10
-7.0871558623909658
20
68.590829941815741
0
LWPOLYLINE
5
105
100
AcDbEntity
8
0
100
AcDbPolyline
90
8
70
1
43
0.0
10
3.0000001188095999
20
-30.613248666610605
42
-0.26794919183426186
10
2.0000001191034973
20
-28.88119786332706
10
2.0000001016006168
20
-21.767949212340817
42
-0.5773502700772376
10
3.5000001019776263
20
-20.901923806546531
10
7.0000001078249685
20
-22.922649753432371
42
-0.26794919171761677
10
8.0000001073677183
20
-24.654700556624913
10
8.0000001250439379
20
-31.767949207323269
42
-0.5773502699321309
10
6.5000001248969781
20
-32.63397461308071
0
ARC
5
106
100
AcDbEntity
8
0
100
AcDbCircle
10
12.50000266503462
20
68.500036408029445
30
-4.1458280618349442e-15
40
3.4999442073409086
210
3.3346411714059699e-16
220
1.4618526648862674e-19
230
-1
100
AcDbArc
50
-0.03969689951533184
51
89.999998928903182
0
ARC
5
107
100
AcDbEntity
8
0
100
AcDbCircle
10
1.7136335461742647e-07
20
-67.848456586523071
30
0
40
4.0000000000000302
210
0
220
-0
230
1
100
AcDbArc
50
43.152389734005737
51
136.84761026599421
0
LWPOLYLINE
5
108
100
AcDbEntity
8
0
100
AcDbPolyline
90
6
70
1
43
0.0
10
0.76962224638400867
20
-9.0903737158385596
42
0.46971161809764839
10
-0.76962224638394028
20
-9.0903737158385596
10
-3.7105433302402959
20
-12.635244665353474
42
0.66191505178256715
10
-2.8655128509369394
20
-14.27089690045619
42
-0.037757869586537547
10
2.8655128509369874
20
-14.270896900456183
42
0.66191505178256949
10
3.7105433302403585
20
-12.635244665353472
0
CIRCLE
5
109
100
AcDbEntity
8
0
100
AcDbCircle
10
-10.000016395170812
20
-10.000011803910587
30
0
40
1.4999999999999991
210
0
220
0
230
1
0
CIRCLE
5
110
100
AcDbEntity
8
0
100
AcDbCircle
10
-10.49999982863665
20
-65.5
30
0
40
1.5000000000000002
210
0
220
0
230
1
0
CIRCLE
5
111
100
AcDbEntity
8
0
100
AcDbCircle
10
12.500002913907123
20
68.499999467160322
30
0
40
1.4999999999999991
210
0
220
0
230
1
0
ARC
5
112
100
AcDbEntity
8
0
100
AcDbCircle
10
-11.499999828636652
20
-66.5
30
0
40
3.5000000000000009
210
0
220
0
230
1
100
AcDbArc
50
180
51
258.73121770506452
0
CIRCLE
5
113
100
AcDbEntity
8
0
100
AcDbCircle
10
10.500000167023195
20
-65.500000004340166
30
3.68572784135494e-17
40
1.5000000000000013
210
0
220
0
230
1
0
ARC
5
114
100
AcDbEntity
8
0
100
AcDbCircle
10
-0.00011782954052952909
20
17.317584084549647
30
1.5785342505970333e-15
40
55.999999999999631
210
-4.3607814473824905e-18
220
2.7848756352707096e-17
230
1
100
AcDbArc
50
81.100193270099751
51
98.899806729900149
0
LINE
5
115
100
AcDbEntity
8
0
100
AcDbLine
10
-15.999946032337359
20
68.497611501281057
30
-1.1795664745444823e-15
11
-15.996128690163886
21
62.987922755629398
31
-1.1790989632243324e-15
0
CIRCLE
5
116
100
AcDbEntity
8
0
100
AcDbCircle
10
12.500000171363354
20
-27.5
30
0
40
1.4999999999999991
210
0
220
0
230
1
0
LINE
5
117
100
AcDbEntity
8
0
100
AcDbLine
10
10.363643777977273
20
-70.295224569714861
30
0
11
12.183941560903889
21
-69.932524461045162
31
0
0
LINE
5
118
100
AcDbEntity
8
0
100
AcDbLine
10
-2.9181486451969896
20
-65.11269207099771
30
0
11
-6.6638473163580914
21
-69.108103986902876
31
0
0
LINE
5
119
100
AcDbEntity
8
0
100
AcDbLine
10
6.6638476590848121
20
-69.10810398690289
30
0
11
2.9181489879237059
21
-65.11269207099771
31
0
0
ARC
5
120
100
AcDbEntity
8
0
100
AcDbCircle
10
11.500000171363356
20
-66.5
30
0
40
3.4999999999999969
210
0
220
0
230
1
100
AcDbArc
50
-78.731217705065603
51
0
0
ARC
5
121
100
AcDbEntity
8
0
100
AcDbCircle
10
-9.5819961329184267
20
-66.372339471377629
30
0
40
3.9999999999999432
210
0
220
0
230
1
100
AcDbArc
50
258.73121770506441
51
316.84761026599529
0
CIRCLE
5
122
100
AcDbEntity
8
0
100
AcDbCircle
10
-12.49999982863665
20
-27.5
30
0
40
1.5000000000000002
210
0
220
0
230
1
0
LINE
5
123
100
AcDbEntity
8
0
100
AcDbLine
10
-8.6637128373771599
20
72.643365791482012
30
-3.0814879110195774e-32
11
-13.041468721511437
21
71.957842643807069
31
-1.9251461519774623e-16
0
CIRCLE
5
124
100
AcDbEntity
8
0
100
AcDbCircle
10
-10.000016395170812
20
-10.000011803910589
30
1.4600600475412851e-15
40
1.4999999999999991
210
0
220
-1.2246467991473532e-16
230
-1
0
LWPOLYLINE
5
125
100
AcDbEntity
8
0
100
AcDbPolyline
90
8
70
1
43
0.0
10
1.9999998541989161
20
35.767949190465018
10
1.9999998541989141
20
52.881197873497996
42
-0.26794919234393194
10
2.9999998536353036
20
54.613248680741471
10
8.4999998563984427
20
57.788675165265985
42
-0.57735026929809063
10
9.9999998566802546
20
56.922649761644237
10
9.9999998566802546
20
39.809401078611259
42
-0.2679491923439305
10
8.9999998572438624
20
38.077350271367784
10
3.4999998544807189
20
34.901923786843277
42
-0.57735026929809241
0
ARC
5
126
100
AcDbEntity
8
0
100
AcDbCircle
10
-24.003861709234883
20
63.015636417387327
30
-7.7986156179703286e-16
40
39.99999999998802
210
1.2246464836179861e-16
220
-3.9663217325773914e-24
230
-1
100
AcDbArc
50
352.83528675158067
51
359.96030310049389
0
ARC
5
127
100
AcDbEntity
8
0
100
AcDbCircle
10
12.500002913907123
20
68.499999467160322
30
0
40
3.4999442073409064
210
-2.1099943722586194e-16
220
1.4618526648862696e-19
230
1
100
AcDbArc
50
-0.039696899506171841
51
89.999998928903182
0
ARC
5
128
100
AcDbEntity
8
0
100
AcDbCircle
10
-24.003535991952258
20
63.023296113061356
30
7.3848767580324156e-16
40
39.999679864205476
210
3.155318923430904e-23
220
-3.9663535065265386e-24
230
1
100
AcDbArc
50
352.8352867515822
51
359.96030310048468
0
LINE
5
129
100
AcDbEntity
8
0
100
AcDbLine
10
-10.363643435250541
20
-70.29522456971489
30
0
11
-12.183941218177253
21
-69.932524461045148
31
0
0
LWPOLYLINE
5
130
100
AcDbEntity
8
0
100
AcDbPolyline
90
6
70
1
43
0.0
10
-3.710543330240327
20
12.635244665353486
42
-0.66191505178256715
10
-2.8655128509369705
20
14.270896900456194
42
0.037757869586537922
10
2.8655128509369572
20
14.270896900456197
42
-0.66191505178256993
10
3.7105433302403275
20
12.635244665353483
10
0.76962224638397692
20
9.0903737158385702
42
-0.46971161809764861
10
-0.76962224638397136
20
9.090373715838572
0
LWPOLYLINE
5
131
100
AcDbEntity
8
0
100
AcDbPolyline
90
8
70
1
43
0.0
10
-2.0000001099851872
20
35.767949215339911
10
-2.0000001439740438
20
52.881197859653277
42
0.26794919198612988
10
-3.0000001445376179
20
54.613248663575305
10
-8.5000001530459794
20
57.788675146644415
42
0.57735026983134452
10
-10.000000152764192
20
56.92264974044673
10
-10.000000114249929
20
39.80940109688666
42
0.26794919178262339
10
-9.0000001145438286
20
38.077350293988566
10
-3.5000001101321376
20
34.9019238096542
42
0.57735026990822547
0
LWPOLYLINE
5
132
100
AcDbEntity
8
0
100
AcDbPolyline
90
8
70
1
43
0.0
10
6.4999998751030299
20
32.633974615329855
42
-0.57735026827692537
10
7.9999998749560843
20
31.767949214028977
10
7.9999998932258194
20
24.654700558022761
42
-0.26794919323597338
10
6.9999998924718065
20
22.922649744881738
10
3.4999998980223719
20
20.901923807954219
42
-0.57735026822431046
10
1.9999998983993827
20
21.767949209495736
10
1.9999998808965076
20
28.881197864812798
42
-0.26794919313590559
10
2.999999881190401
20
30.613248677472555
0
ARC
5
133
100
AcDbEntity
8
0
100
AcDbCircle
10
54.990611142147486
20
50.008011693833978
30
2.3831693631726622e-15
40
39.999999999993179
210
-2.5455218996702583e-16
220
-4.7392426179342196e-17
230
-1
100
AcDbArc
50
172.835286751582
51
180.04004622224824
0
LINE
5
134
100
AcDbEntity
8
0
100
AcDbLine
10
-15.302943056740578
20
54.996899540040559
30
-1.0942081966827267e-15
11
-15.683806376166803
21
58.026748571180477
31
-1.1408505011875235e-15
0
LINE
5
135
100
AcDbEntity
8
0
100
AcDbLine
10
15.30114070189901
20
54.990196758338719
30
7.3848640375322718e-16
11
15.683814457382567
21
58.034448194893457
31
7.3848640375322817e-16
0
ARC
5
136
100
AcDbEntity
8
0
100
AcDbCircle
10
54.988808787305921
20
50.001308912132139
30
-1.4460869489681517e-14
40
39.999999999993172
210
3.7701686988176112e-16
220
-4.7392426179342325e-17
230
1
100
AcDbArc
50
172.835286751582
51
180.04004622224824
0
LWPOLYLINE
5
137
100
AcDbEntity
8
0
100
AcDbPolyline
90
8
70
1
43
0.0
10
-8.0000001250439361
20
31.767949207323273
42
-0.5773502699321309
10
-6.5000001248969763
20
32.63397461308071
10
-3.0000001188095964
20
30.613248666610609
42
-0.26794919183426169
10
-2.0000001191034955
20
28.881197863327067
10
-2.0000001016006177
20
21.76794921234082
42
-0.57735027007723716
10
-3.500000101977625
20
20.901923806546534
10
-7.0000001078249676
20
22.922649753432374
42
-0.26794919171761661
10
-8.0000001073677183
20
24.654700556624917
0
CIRCLE
5
138
100
AcDbEntity
8
0
100
AcDbCircle
10
10.000016395170812
20
10.000011803910596
30
1.4600600475412855e-15
40
1.4999999999999991
210
1.4997597826618576e-32
220
1.2246467991473532e-16
230
-1
0
ARC
5
139
100
AcDbEntity
8
0
100
AcDbCircle
10
9.5819964756451519
20
-66.372339471377529
30
0
40
4.0000000000000338
210
0
220
0
230
1
100
AcDbArc
50
223.15238973400582
51
281.26878229493553
0
LINE
5
140
100
AcDbEntity
8
0
100
AcDbLine
10
15.99994628120986
20
68.497574560411948
30
7.3848643530890506e-16
11
15.996134271740889
21
62.995582673106519
31
7.3848641357615512e-16
0
CIRCLE
5
141
100
AcDbEntity
8
0
100
AcDbCircle
10
-12.499997086092874
20
68.499999934514477
30
0
40
1.4999999999999991
210
0
220
0
230
1
0
CIRCLE
5
142
100
AcDbEntity
8
0
100
AcDbCircle
10
-12.500000000000004
20
27.5
30
0
40
1.4999999999999991
210
0
220
0
230
1
0
CIRCLE
5
143
100
AcDbEntity
8
0
100
AcDbCircle
10
10.000016395170812
20
10.000011803910589
30
0
40
1.4999999999999991
210
0
220
0
230
1
0
CIRCLE
5
144
100
AcDbEntity
8
0
100
AcDbCircle
10
12.5
20
27.5
30
0
40
1.4999999999999991
210
0
220
0
230
1
0
CIRCLE
5
145
100
AcDbEntity
8
0
100
AcDbCircle
10
26.240323822025083
20
21.672732766962099
30
0
40
1.4999999999999991
210
0
220
0
230
1
0
LINE
5
146
100
AcDbEntity
8
0
100
AcDbLine
10
24.996265495353448
20
29.346635364851782
30
7.9365829790356906e-18
11
25.311469433347902
21
29.346749154109865
31
0
0
LINE
5
147
100
AcDbEntity
8
0
100
AcDbLine
10
14.992656127008765
20
39.343024693282629
30
4.3362211315977747e-16
11
14.988818557610957
21
49.973351377158266
31
6.1847664660669732e-16
0
ARC
5
148
100
AcDbEntity
8
0
100
AcDbCircle
10
24.992655475396546
20
39.346634713239567
30
1.8183013009077614e-16
40
10.000000000000007
210
2.5185474257947325e-17
220
-1.738026383722375e-17
230
1
100
AcDbArc
50
180.02068389119171
51
270.02068389119813
0
LINE
5
149
100
AcDbEntity
8
0
100
AcDbLine
10
26.395756606436464
20
13.327528090003922
30
0
11
28.664315429248525
21
14.04880564977962
31
0
0
ARC
5
150
100
AcDbEntity
8
0
100
AcDbCircle
10
40.939706249777537
20
-32.416034613091867
30
0
40
48.000000000001009
210
0
220
0
230
1
100
AcDbArc
50
107.63781642976065
51
109.66519927027868
0
ARC
5
151
100
AcDbEntity
8
0
100
AcDbCircle
10
26.240323822025083
20
21.672732766962099
30
0
40
7.9999999999999991
210
0
220
0
230
1
100
AcDbArc
50
287.63781642976051
51
305.70669140060289
0
ELLIPSE
5
152
100
AcDbEntity
8
0
100
AcDbEllipse
10
26.240323822025083
20
21.672732766962099
30
0
11
-4.6690883852206042
21
6.4961229707417072
31
0.0
40
0.875
41
3.1415926535897931
42
5.7221252012111528
0
LINE
5
153
100
AcDbEntity
8
0
100
AcDbLine
10
24.996265495353448
20
-29.346635364851782
30
7.9365829790356906e-18
11
25.311469433347902
21
-29.346749154109865
31
0
0
ELLIPSE
5
154
100
AcDbEntity
8
0
100
AcDbEllipse
10
26.240323822025083
20
-21.672732766962099
30
0
11
-4.6690883852206042
21
-6.4961229707417081
31
0.0
40
0.87499999999999989
41
0.56106010596843303
42
3.141592653589794
0
CIRCLE
5
155
100
AcDbEntity
8
0
100
AcDbCircle
10
26.240323822025083
20
-21.672732766962099
30
0
40
1.4999999999999991
210
0
220
0
230
1
0
ARC
5
156
100
AcDbEntity
8
0
100
AcDbCircle
10
26.240323822025083
20
-21.672732766962099
30
0
40
7.9999999999999973
210
0
220
-0
230
1
100
AcDbArc
50
54.293308599397129
51
72.362183570239495
0
LINE
5
157
100
AcDbEntity
8
0
100
AcDbLine
10
26.395756606436464
20
-13.327528090003922
30
0
11
28.664315429248525
21
-14.04880564977962
31
0
0
ARC
5
158
100
AcDbEntity
8
0
100
AcDbCircle
10
24.992655475396546
20
-39.346634713239567
30
1.8183013009077614e-16
40
10.000000000000007
210
2.5198022876991357e-17
220
1.7380259307146938e-17
230
1
100
AcDbArc
50
89.979316108801882
51
179.97931610880829
0
ARC
5
159
100
AcDbEntity
8
0
100
AcDbCircle
10
40.939706249777537
20
32.416034613091867
30
0
40
48.00000000000103
210
0
220
0
230
1
100
AcDbArc
50
250.33480072972131
51
252.36218357023935
0
ARC
5
160
100
AcDbEntity
8
0
100
AcDbCircle
10
34.63837920215235
20
0
30
0
40
18.000000000000014
210
0
220
0
230
1
100
AcDbArc
50
165.67757389641508
51
194.32242610358503
0
ARC
5
161
100
AcDbEntity
8
0
100
AcDbCircle
10
28.824865325391809
20
1.484269653638508
30
0
40
12.000000000000053
210
0
220
0
230
1
100
AcDbArc
50
109.66519927027882
51
165.67757389641497
0
ARC
5
162
100
AcDbEntity
8
0
100
AcDbCircle
10
28.824865325391809
20
-1.4842696536385214
30
0
40
12.00000000000005
210
0
220
0
230
1
100
AcDbArc
50
194.32242610358514
51
250.33480072972114
0
ARC
5
163
100
AcDbEntity
8
0
100
AcDbCircle
10
-34.64198117243749
20
0.023614340796351177
30
0
40
18.000000000000021
210
0
220
0
230
1
100
AcDbArc
50
-14.361484849928217
51
14.283367357241758
0
ARC
5
164
100
AcDbEntity
8
0
100
AcDbCircle
10
-40.965404885733022
20
-32.388117102315952
30
0
40
48.000000000001023
210
0
220
-0
230
1
100
AcDbArc
50
70.295741983378136
51
72.323124823896151
0
ELLIPSE
5
165
100
AcDbEntity
8
0
100
AcDbEllipse
10
-26.229153362159874
20
21.690617086687549
30
0
11
4.6735157311980915
21
6.4929385266028836
31
0.0
40
0.87499999999999989
41
0.56106010596843303
42
3.141592653589794
0
CIRCLE
5
166
100
AcDbEntity
8
0
100
AcDbCircle
10
-26.229153362159874
20
21.690617086687549
30
0
40
1.4999999999999991
210
0
220
0
230
1
0
ARC
5
167
100
AcDbEntity
8
0
100
AcDbCircle
10
-26.229153362159874
20
21.690617086687549
30
0
40
7.9999999999999982
210
0
220
0
230
1
100
AcDbArc
50
234.25424985305395
51
252.32312482389631
0
LINE
5
168
100
AcDbEntity
8
0
100
AcDbLine
10
-24.979863996973531
20
29.363669822339205
30
7.9365829790356906e-18
11
-25.29506778415665
21
29.363998487252992
31
0
0
LINE
5
169
100
AcDbEntity
8
0
100
AcDbLine
10
-26.390275067131689
20
13.345520307920903
30
0
11
-28.658341665260028
21
14.068344184981562
31
0
0
ARC
5
170
100
AcDbEntity
8
0
100
AcDbCircle
10
-28.827456814430896
20
1.5039205557895616
30
0
40
12.000000000000057
210
0
220
-0
230
1
100
AcDbArc
50
14.283367357241888
51
70.29574198337798
0
ARC
5
171
100
AcDbEntity
8
0
100
AcDbCircle
10
-26.258702125204447
20
-21.654838375485333
30
0
40
8.0000000000000036
210
0
220
0
230
1
100
AcDbArc
50
107.59875768341736
51
125.66763265425973
0
CIRCLE
5
172
100
AcDbEntity
8
0
100
AcDbCircle
10
-26.258702125204447
20
-21.654838375485333
30
0
40
1.4999999999999991
210
0
220
0
230
1
0
ELLIPSE
5
173
100
AcDbEntity
8
0
100
AcDbEllipse
10
-26.258702125204447
20
-21.654838375485333
30
0
11
4.6646588694245974
21
-6.4993043960025831
31
0.0
40
0.87500000000000022
41
3.1415926535897922
42
5.7221252012111519
0
LINE
5
174
100
AcDbEntity
8
0
100
AcDbLine
10
-26.408445916822679
20
-13.309529678518736
30
0
11
-28.677495910073926
21
-14.029260585817402
31
0
0
ARC
5
175
100
AcDbEntity
8
0
100
AcDbCircle
10
-40.921208626039949
20
32.443937059489762
30
0
40
48.000000000001009
210
0
220
0
230
1
100
AcDbArc
50
287.59875768341749
51
289.62614052393553
0
ARC
5
176
100
AcDbEntity
8
0
100
AcDbCircle
10
-28.82948047857888
20
-1.4646180617177467
30
0
40
12.000000000000048
210
0
220
0
230
1
100
AcDbArc
50
289.62614052393559
51
345.63851515007167
0
LINE
5
177
100
AcDbEntity
8
0
100
AcDbLine
10
-25.019875415186249
20
-29.3295872693974
30
7.9365829790356906e-18
11
-25.335079357510484
21
-29.329486182946898
31
0
0
ARC
5
178
100
AcDbEntity
8
0
100
AcDbCircle
10
-25.02308243234986
20
-39.329586755149442
30
1.8183013009077614e-16
40
10.000000000000007
210
-2.5173620541754706e-17
220
1.7396413580477827e-17
230
1
100
AcDbArc
50
-0.01837485514391253
51
89.981625144854931
0
ARC
5
179
100
AcDbEntity
8
0
100
AcDbCircle
10
-24.969436941573761
20
39.363664386163521
30
1.8183013009077614e-16
40
10.000000000000009
210
2.5185437386465833e-17
220
-1.7415625173703467e-17
230
1
100
AcDbArc
50
269.94025736245868
51
359.94025736245959
0
LINE
5
180
100
AcDbEntity
8
0
100
AcDbLine
10
-14.969442377749447
20
39.353237330763726
30
4.3362211315977747e-16
11
-14.990620912452531
21
49.980054158860113
31
-9.359500081056773e-16
0
LINE
5
181
100
AcDbEntity
8
0
100
AcDbLine
10
-14.999999828636652
20
-66.500000008755791
30
0
11
-15.023082946597821
21
-39.332793772313018
31
4.3362211315977747e-16
0
LINE
5
182
100
AcDbEntity
8
0
100
AcDbLine
10
15.000000171363354
20
-66.5
30
0
11
14.992656127008765
21
-39.343024693282629
31
4.3362211315977747e-16
0
CIRCLE
5
183
100
AcDbEntity
8
0
100
AcDbCircle
10
-9.999999828636648
20
-36.499999999999993
30
0
40
0.99999999999999978
210
0
220
0
230
1
0
CIRCLE
5
184
100
AcDbEntity
8
0
100
AcDbCircle
10
10.000000171363352
20
-36.499999999999993
30
0
40
1.0000000000000009
210
0
220
0
230
1
0
CIRCLE
5
185
100
AcDbEntity
8
0
100
AcDbCircle
10
-9.999999828636648
20
-56.499999999999993
30
0
40
0.99999999999999978
210
0
220
0
230
1
0
CIRCLE
5
186
100
AcDbEntity
8
0
100
AcDbCircle
10
10.000000171363352
20
-56.499999999999993
30
0
40
1.0000000000000009
210
0
220
0
230
1
0
ENDSEC
0
SECTION
2
OBJECTS
0
DICTIONARY
5
C
100
AcDbDictionary
3
ACAD_GROUP
350
D
3
ACAD_MLINESTYLE
350
17
0
DICTIONARY
5
D
100
AcDbDictionary
0
DICTIONARY
5
1A
330
C
100
AcDbDictionary
0
DICTIONARY
5
17
100
AcDbDictionary
0
ENDSEC
0
EOF
