0
SECTION
2
HEADER
9
$INSUNITS
70
4
9
$ACADVER
1
AC1014
9
$HANDSEED
5
FFFF
0
ENDSEC
0
SECTION
2
TABLES
0
TABLE
2
VPORT
5
8
100
AcDbSymbolTable
0
ENDTAB
0
TABLE
2
LTYPE
5
5
100
AcDbSymbolTable
0
LTYPE
5
14
100
AcDbSymbolTableRecord
100
AcDbLinetypeTableRecord
2
BYBLOCK
70
0
0
LTYPE
5
15
100
AcDbSymbolTableRecord
100
AcDbLinetypeTableRecord
2
BYLAYER
70
0
0
ENDTAB
0
TABLE
2
LAYER
5
2
100
AcDbSymbolTable
70
2
0
LAYER
5
50
100
AcDbSymbolTableRecord
100
AcDbLayerTableRecord
2
0
70
0
6
CONTINUOUS
0
ENDTAB
0
TABLE
2
STYLE
5
3
100
AcDbSymbolTable
70
1
0
STYLE
5
11
100
AcDbSymbolTableRecord
100
AcDbTextStyleTableRecord
2
STANDARD
70
0
0
ENDTAB
0
TABLE
2
VIEW
5
6
100
AcDbSymbolTable
70
0
0
ENDTAB
0
TABLE
2
UCS
5
7
100
AcDbSymbolTable
70
0
0
ENDTAB
0
TABLE
2
APPID
5
9
100
AcDbSymbolTable
70
2
0
APPID
5
12
100
AcDbSymbolTableRecord
100
AcDbRegAppTableRecord
2
ACAD
70
0
0
ENDTAB
0
TABLE
2
DIMSTYLE
5
A
100
AcDbSymbolTable
70
1
0
ENDTAB
0
TABLE
2
BLOCK_RECORD
5
1
100
AcDbSymbolTable
70
1
0
BLOCK_RECORD
5
1F
100
AcDbSymbolTableRecord
100
AcDbBlockTableRecord
2
*MODEL_SPACE
0
BLOCK_RECORD
5
1B
100
AcDbSymbolTableRecord
100
AcDbBlockTableRecord
2
*PAPER_SPACE
0
ENDTAB
0
ENDSEC
0
SECTION
2
BLOCKS
0
BLOCK
5
20
100
AcDbEntity
100
AcDbBlockBegin
2
*MODEL_SPACE
0
ENDBLK
5
21
100
AcDbEntity
100
AcDbBlockEnd
0
BLOCK
5
1C
100
AcDbEntity
100
AcDbBlockBegin
2
*PAPER_SPACE
0
ENDBLK
5
1D
100
AcDbEntity
100
AcDbBlockEnd
0
ENDSEC
0
SECTION
2
ENTITIES
0
LWPOLYLINE
5
100
100
AcDbEntity
8
0
100
AcDbPolyline
90
8
70
1
43
0.0
10
2.9975273269417855
20
-48.868745653831532
42
-0.26794919243112214
10
1.9975273269417839
20
-47.136694846262664
10
1.9975273269417215
20
-33.023446192210791
42
-0.57735026918962995
10
3.4975273269417189
20
-32.15742078842635
10
7.997527326941702
20
-34.755496999779666
42
-0.26794919243112336
10
8.9975273269417038
20
-36.487547807348534
10
8.9975273269416984
20
-50.600796461400364
42
-0.57735026918963339
10
7.4975273269416975
20
-51.466821865184798
0
LWPOLYLINE
5
101
100
AcDbEntity
8
0
100
AcDbPolyline
90
8
70
1
43
0.0
10
-3.5023549137906889
20
-54.158541304367631
42
-0.57694955143090254
10
-2.0025115398210667
20
-55.025061248330267
10
-2.0012426519906832
20
-59.135276392816735
42
-0.26803191425435169
10
-3.0013211619713012
20
-60.868080828595566
10
-5.5036630509079574
20
-62.312808591777646
42
-0.57735026918962939
10
-7.0036630509079547
20
-61.446783187993191
10
-7.0036630509079583
20
-57.33174511666077
42
-0.26818865854964447
10
-6.002114811178318
20
-55.598801354615084
0
LWPOLYLINE
5
102
100
AcDbEntity
8
0
100
AcDbPolyline
90
8
70
1
43
0.0
10
2.9978851888216869
20
-60.875088608184178
42
-0.26818865854964424
10
1.9963369490920382
20
-59.1421448461385
10
1.996336949092036
20
-55.027106774806064
42
-0.57735026918962529
10
3.4963369490920404
20
-54.161081371021623
10
5.998393837323035
20
-55.605644588969547
42
-0.27470159806455979
10
6.9977609698813055
20
-57.388005129649358
10
6.9964967725348117
20
-61.44940420699961
42
-0.57694869981998886
10
5.4976450862093094
20
-62.315348658431624
0
ARC
5
103
100
AcDbEntity
8
0
100
AcDbCircle
10
9.5819964756451519
20
-66.372339471377529
30
0
40
4.0000000000000338
210
0
220
0
230
1
100
AcDbArc
50
223.15238973400582
51
281.26878229493553
0
CIRCLE
5
104
100
AcDbEntity
8
0
100
AcDbCircle
10
10.500000167023195
20
-65.500000004340166
30
3.68572784135494e-17
40
1.5000000000000013
210
0
220
0
230
1
0
LWPOLYLINE
5
105
100
AcDbEntity
8
0
100
AcDbPolyline
90
8
70
1
43
0.0
10
-12.500000000000002
20
47.000000000000014
42
-0.99999999999999989
10
-12.500000000000002
20
48.000000000000007
10
-11.000000000000004
20
48.000000000000007
42
-0.99999999999999989
10
-11.000000000000004
20
47.000000000000014
10
-11.000000000000004
20
44
42
-0.99999999999999989
10
-11.000000000000004
20
43.000000000000007
10
-12.500000000000002
20
43.000000000000007
42
-0.99999999999999989
10
-12.500000000000002
20
44
0
LWPOLYLINE
5
106
100
AcDbEntity
8
0
100
AcDbPolyline
90
8
70
1
43
0.0
10
-7.4999984228668843
20
56.442979458157254
10
-2.9999981629872847
20
53.844903069033947
42
-0.26794919243112619
10
-1.999998170991796
20
52.112852256843652
10
-1.9999982463041719
20
35.999603871895111
42
-0.57735026764915409
10
-3.4999987553575878
20
35.133578178829964
10
-7.9999990632626474
20
37.731654567952361
42
-0.26794919423338509
10
-8.999998531885975
20
39.463704468602103
10
-8.9999984268691584
20
55.576954063409644
42
-0.57735026848804716
0
LINE
5
107
100
AcDbEntity
8
0
100
AcDbLine
10
-6.9999997292199456
20
66.954257840642228
30
0
11
-6.9999990740892502
21
62.309004531743739
31
0
0
LWPOLYLINE
5
108
100
AcDbEntity
8
0
100
AcDbPolyline
90
8
70
1
43
0.0
10
-11.000000000000004
20
62.000000000000014
10
-11.000000000000004
20
59
42
-0.99999999999999989
10
-11.000000000000004
20
58.000000000000007
10
-12.500000000000002
20
58.000000000000007
42
-0.99999999999999989
10
-12.500000000000002
20
59
10
-12.500000000000002
20
62.000000000000014
42
-0.99999999999999989
10
-12.500000000000002
20
63.000000000000007
10
-11.000000000000004
20
63.000000000000007
42
-0.99999999999999989
0
CIRCLE
5
109
100
AcDbEntity
8
0
100
AcDbCircle
10
-12.499997086092874
20
68.499999934514477
30
0
40
1.4999999999999991
210
0
220
0
230
1
0
ARC
5
110
100
AcDbEntity
8
0
100
AcDbCircle
10
-3.000000055956431
20
59.99960430661104
30
0
40
1.0000000000000175
210
0
220
0
230
1
100
AcDbArc
50
240.0000000242668
51
359.99999879258172
0
LINE
5
111
100
AcDbEntity
8
0
100
AcDbLine
10
-6.1414181205964553
20
67.944207419904416
30
0
11
-3.1414182327516507
21
68.372778758567279
31
0
0
ARC
5
112
100
AcDbEntity
8
0
100
AcDbCircle
10
-2.9999969004079867
20
67.382829261492731
30
0
40
0.99999999999996547
210
-0
220
0
230
1
100
AcDbArc
50
-1.8899085273415407e-05
51
98.13010097125202
0
LINE
5
113
100
AcDbEntity
8
0
100
AcDbLine
10
-3.5000000555896498
20
59.133578902614815
30
0
11
-5.999999073355716
21
60.576954007084112
31
0
0
ARC
5
114
100
AcDbEntity
8
0
100
AcDbCircle
10
-5.9999967882527798
20
66.954257922829868
30
0
40
1.0000000000000089
210
0
220
0
230
1
100
AcDbArc
50
98.130100971252674
51
179.99998079483672
0
LINE
5
115
100
AcDbEntity
8
0
100
AcDbLine
10
-2.0000000559564262
20
59.999604279056335
30
0
11
-1.9999998493869617
21
67.38282947659539
31
0
0
ARC
5
116
100
AcDbEntity
8
0
100
AcDbCircle
10
-4.9999990740893079
20
62.309004815076477
30
0
40
1.9999999999999631
210
0
220
0
230
1
100
AcDbArc
50
180.00000809960798
51
240.00000002426628
0
LWPOLYLINE
5
117
100
AcDbEntity
8
0
100
AcDbPolyline
90
8
70
1
43
0.0
10
12.499999999999998
20
59
42
-0.99999999999999989
10
12.499999999999998
20
58.000000000000007
10
10.999999999999998
20
58.000000000000007
42
-0.99999999999999989
10
10.999999999999998
20
59
10
10.999999999999998
20
62.000000000000014
42
-0.99999999999999989
10
10.999999999999998
20
63.000000000000007
10
12.499999999999998
20
63.000000000000007
42
-0.99999999999999989
10
12.499999999999998
20
62.000000000000014
0
LWPOLYLINE
5
118
100
AcDbEntity
8
0
100
AcDbPolyline
90
8
70
1
43
0.0
10
-3.4999987553575891
20
20.133776025312962
10
-5.9999987553575895
20
21.577151698287025
42
-0.26794919243112236
10
-6.999998755357578
20
23.309202505855886
10
-6.9999987553575771
20
30.422451159907759
42
-0.57735026918962584
10
-5.49999875535757
20
31.288476563692203
10
-2.9999987553575655
20
29.845100890718133
42
-0.26794919243112203
10
-1.9999987553575789
20
28.113050083149275
10
-1.9999987553575769
20
20.999801429097399
42
-0.57735026918962229
0
LWPOLYLINE
5
119
100
AcDbEntity
8
0
100
AcDbPolyline
90
8
70
1
43
0.0
10
-7.0024726730582119
20
-23.328084534065475
42
-0.2681886585496483
10
-6.0009244333285583
20
-21.595140772019789
10
-3.5016985531933873
20
-20.1551884008081
42
-0.57705242553366298
10
-2.0024726730582154
20
-21.021660281830933
10
-2.0024726730581879
20
-25.136694846262646
42
-0.26794919243112381
10
-3.0024726730581874
20
-26.868745653831532
10
-5.5024726730581932
20
-28.312121326805595
42
-0.57735026918962684
10
-7.0024726730581888
20
-27.446095923021161
0
LWPOLYLINE
5
120
100
AcDbEntity
8
0
100
AcDbPolyline
90
8
70
1
43
0.0
10
1.9975273268096312
20
-21.02344619221078
42
-0.57735026918962173
10
3.497527326809633
20
-20.157420788426336
10
5.9975273268096281
20
-21.6007964614004
42
-0.26794919243112192
10
6.9975273268096299
20
-23.332847268969278
10
6.9975273268096227
20
-27.44609592302114
42
-0.57735026918962207
10
5.4975273268096201
20
-28.312121326805585
10
2.9975273268096272
20
-26.868745653831525
42
-0.26794919243112092
10
1.9975273268096272
20
-25.136694846262642
0
LWPOLYLINE
5
121
100
AcDbEntity
8
0
100
AcDbPolyline
90
6
70
1
43
0.0
10
-0.76962224638394028
20
-9.0903737158385596
10
-3.7105433302402959
20
-12.635244665353474
42
0.66191505178256715
10
-2.8655128509369394
20
-14.27089690045619
42
-0.037757869586537547
10
2.8655128509369874
20
-14.270896900456183
42
0.66191505178256949
10
3.7105433302403585
20
-12.635244665353472
10
0.76962224638400867
20
-9.0903737158385596
42
0.46971161809764839
0
CIRCLE
5
122
100
AcDbEntity
8
0
100
AcDbCircle
10
12.500000171363354
20
-27.5
30
0
40
1.4999999999999991
210
0
220
0
230
1
0
ARC
5
123
100
AcDbEntity
8
0
100
AcDbCircle
10
1.7136335461742647e-07
20
-67.848456586523071
30
0
40
4.0000000000000302
210
0
220
-0
230
1
100
AcDbArc
50
43.152389734005737
51
136.84761026599421
0
ARC
5
124
100
AcDbEntity
8
0
100
AcDbCircle
10
8.0000015731308487
20
55.576953882392303
30
0
40
1.0000000000000075
210
0
220
0
230
1
100
AcDbArc
50
0
51
120.0000014040714
0
LINE
5
125
100
AcDbEntity
8
0
100
AcDbLine
10
6.1414244357880587
20
67.944208119392528
30
0
11
3.1414243203879746
21
68.372779145624023
31
0
0
LINE
5
126
100
AcDbEntity
8
0
100
AcDbLine
10
15.99994628120986
20
68.497574560411948
30
7.3848643530890506e-16
11
15.996128939036392
21
62.987885814760283
31
7.3848641357615512e-16
0
ARC
5
127
100
AcDbEntity
8
0
100
AcDbCircle
10
12.500002913907123
20
68.499999467160322
30
0
40
3.4999442073409064
210
-2.1099943722586194e-16
220
1.4618526648862696e-19
230
1
100
AcDbArc
50
-0.039696899506171841
51
89.999998928903182
0
ARC
5
128
100
AcDbEntity
8
0
100
AcDbCircle
10
-24.003861460362383
20
63.015599476518211
30
7.3848767580324156e-16
40
39.99999999998802
210
3.1552936701685879e-23
220
-3.9663217622342895e-24
230
1
100
AcDbArc
50
352.83528675158067
51
359.96030310048468
0
ARC
5
129
100
AcDbEntity
8
0
100
AcDbCircle
10
4.0000018290081822
20
52.11285226795134
30
0
40
1.9999999999999749
210
0
220
0
230
1
100
AcDbArc
50
120.00000140407219
51
180
0
LINE
5
130
100
AcDbEntity
8
0
100
AcDbLine
10
15.302943305613081
20
54.996862599171443
30
7.3848640375322718e-16
11
15.683806625039303
21
58.026711630311354
31
7.3848640375322817e-16
0
LINE
5
131
100
AcDbEntity
8
0
100
AcDbLine
10
3.0000017865631081
20
53.844903051014512
30
0
11
7.5000015519083068
21
56.442979273923925
31
0
0
LINE
5
132
100
AcDbEntity
8
0
100
AcDbLine
10
3.4999999444102974
20
59.133579408556386
30
0
11
6.0000000695431783
21
60.576955155187719
31
0
0
ARC
5
133
100
AcDbEntity
8
0
100
AcDbCircle
10
2.9999999440435103
20
59.999604812129064
30
0
40
1.0000000000000042
210
0
220
0
230
1
100
AcDbArc
50
179.99999879258175
51
300.00000002426634
0
LINE
5
134
100
AcDbEntity
8
0
100
AcDbLine
10
7.0000002740248419
20
66.954258961655583
30
0
11
7.0000000688095874
21
62.30900587524637
31
0
0
LWPOLYLINE
5
135
100
AcDbEntity
8
0
100
AcDbPolyline
90
8
70
1
43
0.0
10
-9.0024726730582589
20
-36.487547807348562
42
-0.26794919243111931
10
-8.0024726730582749
20
-34.755496999779687
10
-3.5024726730583007
20
-32.157420788426364
42
-0.57735026918962651
10
-2.0024726730582949
20
-33.023446192210798
10
-2.0024726730582394
20
-47.136694846262657
42
-0.26794919243112669
10
-3.0024726730582563
20
-48.868745653831553
10
-7.5024726730582847
20
-51.466821865184833
42
-0.57735026918962262
10
-9.0024726730582785
20
-50.600796461400392
0
CIRCLE
5
136
100
AcDbEntity
8
0
100
AcDbCircle
10
-10.49999982863665
20
-65.5
30
0
40
1.5000000000000002
210
0
220
0
230
1
0
LINE
5
137
100
AcDbEntity
8
0
100
AcDbLine
10
-10.363643435250541
20
-70.29522456971489
30
0
11
-12.183941218177253
21
-69.932524461045148
31
0
0
LINE
5
138
100
AcDbEntity
8
0
100
AcDbLine
10
6.6638476590848121
20
-69.10810398690289
30
0
11
2.9181489879237059
21
-65.11269207099771
31
0
0
ARC
5
139
100
AcDbEntity
8
0
100
AcDbCircle
10
-11.499999828636652
20
-66.5
30
0
40
3.5000000000000009
210
0
220
0
230
1
100
AcDbArc
50
180
51
258.73121770506452
0
ARC
5
140
100
AcDbEntity
8
0
100
AcDbCircle
10
11.500000171363356
20
-66.5
30
0
40
3.4999999999999969
210
0
220
0
230
1
100
AcDbArc
50
-78.731217705065603
51
0
0
LWPOLYLINE
5
141
100
AcDbEntity
8
0
100
AcDbPolyline
90
8
70
1
43
0.0
10
7.0000012446424211
20
30.422451159907759
10
7.0000012446424256
20
23.309202505855886
42
-0.2679491924311202
10
6.0000012446424336
20
21.577151698287022
10
3.5000012446424309
20
20.133776025312958
42
-0.57735026918962207
10
2.0000012446424216
20
20.999801429097403
10
2.0000012446424198
20
28.113050083149275
42
-0.26794919243112175
10
3.0000012446424105
20
29.845100890718133
10
5.500001244642414
20
31.288476563692203
42
-0.57735026918962584
0
LWPOLYLINE
5
142
100
AcDbEntity
8
0
100
AcDbPolyline
90
6
70
1
43
0.0
10
-3.710543330240327
20
12.635244665353486
42
-0.66191505178256715
10
-2.8655128509369705
20
14.270896900456194
42
0.037757869586537922
10
2.8655128509369572
20
14.270896900456197
42
-0.66191505178256993
10
3.7105433302403275
20
12.635244665353483
10
0.76962224638397692
20
9.0903737158385702
42
-0.46971161809764861
10
-0.76962224638397136
20
9.090373715838572
0
LINE
5
143
100
AcDbEntity
8
0
100
AcDbLine
10
10.363643777977273
20
-70.295224569714861
30
0
11
12.183941560903889
21
-69.932524461045162
31
0
0
ARC
5
144
100
AcDbEntity
8
0
100
AcDbCircle
10
-9.5819961329184267
20
-66.372339471377629
30
0
40
3.9999999999999432
210
0
220
0
230
1
100
AcDbArc
50
258.73121770506441
51
316.84761026599529
0
LINE
5
145
100
AcDbEntity
8
0
100
AcDbLine
10
2.0000018290082053
20
52.112852277194158
30
0
11
2.0000017541190749
21
35.999603362003555
31
0
0
CIRCLE
5
146
100
AcDbEntity
8
0
100
AcDbCircle
10
-12.49999982863665
20
-27.5
30
0
40
1.5000000000000002
210
0
220
0
230
1
0
LINE
5
147
100
AcDbEntity
8
0
100
AcDbLine
10
-2.9181486451969896
20
-65.11269207099771
30
0
11
-6.6638473163580914
21
-69.108103986902876
31
0
0
CIRCLE
5
148
100
AcDbEntity
8
0
100
AcDbCircle
10
10.000016395170812
20
10.000011803910596
30
1.4600600475412855e-15
40
1.4999999999999991
210
1.4997597826618576e-32
220
1.2246467991473532e-16
230
-1
0
CIRCLE
5
149
100
AcDbEntity
8
0
100
AcDbCircle
10
-10.000016395170812
20
-10.000011803910589
30
1.4600600475412851e-15
40
1.4999999999999991
210
0
220
-1.2246467991473532e-16
230
-1
0
CIRCLE
5
150
100
AcDbEntity
8
0
100
AcDbCircle
10
-12.500000000000004
20
27.5
30
0
40
1.4999999999999991
210
0
220
0
230
1
0
CIRCLE
5
151
100
AcDbEntity
8
0
100
AcDbCircle
10
-10.000016395170812
20
-10.000011803910587
30
0
40
1.4999999999999991
210
0
220
0
230
1
0
ARC
5
152
100
AcDbEntity
8
0
100
AcDbCircle
10
3.0000030995919613
20
67.382829632614104
30
0
40
0.99999999999999756
210
0
220
-0
230
1
100
AcDbArc
50
81.869905484844537
51
179.99998110091468
0
CIRCLE
5
153
100
AcDbEntity
8
0
100
AcDbCircle
10
12.500002913907123
20
68.499999467160322
30
0
40
1.4999999999999991
210
0
220
0
230
1
0
ARC
5
154
100
AcDbEntity
8
0
100
AcDbCircle
10
6.000003214992045
20
66.954258606382595
30
0
40
0.9999999999999214
210
-0
220
0
230
1
100
AcDbArc
50
-2.6618027982733113e-05
51
81.869905484844651
0
LINE
5
155
100
AcDbEntity
8
0
100
AcDbLine
10
8.6634771783749507
20
72.643365791984934
30
7.5560080181762254e-17
11
13.041468970383958
21
71.957805702937947
31
1.1374353922682261e-16
0
ARC
5
156
100
AcDbEntity
8
0
100
AcDbCircle
10
5.0000000688096247
20
62.309005962333032
30
0
40
1.9999999999999598
210
0
220
0
230
1
100
AcDbArc
50
300.0000000242664
51
359.9999975851635
0
LINE
5
157
100
AcDbEntity
8
0
100
AcDbLine
10
1.9999999440435066
20
59.999604839683755
30
0
11
2.0000001506129705
21
67.382830015838209
31
0
0
ARC
5
158
100
AcDbEntity
8
0
100
AcDbCircle
10
54.990611391019996
20
50.007974752964863
30
-1.4460869489681517e-14
40
39.999999999993179
210
3.7701686988176117e-16
220
-4.7392426179342332e-17
230
1
100
AcDbArc
50
172.835286751582
51
180.04004622224824
0
LINE
5
159
100
AcDbEntity
8
0
100
AcDbLine
10
9.0000015731308576
20
55.57695387566617
30
0
11
9.0000014664326251
21
39.463706201581928
31
0
0
CIRCLE
5
160
100
AcDbEntity
8
0
100
AcDbCircle
10
12.5
20
27.5
30
0
40
1.4999999999999991
210
0
220
0
230
1
0
LWPOLYLINE
5
161
100
AcDbEntity
8
0
100
AcDbPolyline
90
8
70
1
43
0.0
10
12.499999999999998
20
43.000000000000007
10
10.999999999999998
20
43.000000000000007
42
-0.99999999999999989
10
10.999999999999998
20
44
10
10.999999999999998
20
47.000000000000014
42
-0.99999999999999989
10
10.999999999999998
20
48.000000000000007
10
12.499999999999998
20
48.000000000000007
42
-0.99999999999999989
10
12.499999999999998
20
47.000000000000014
10
12.499999999999998
20
44
42
-0.99999999999999989
0
ARC
5
162
100
AcDbEntity
8
0
100
AcDbCircle
10
-0.00011782954052952909
20
17.317584084549647
30
1.5785342505970333e-15
40
55.999999999999631
210
-4.3607814473824905e-18
220
2.7848756352707096e-17
230
1
100
AcDbArc
50
81.100193270099751
51
98.899806729900149
0
ARC
5
163
100
AcDbEntity
8
0
100
AcDbCircle
10
3.0000014143269214
20
35.999603357382142
30
0
40
0.99999966020784647
210
0
220
0
230
1
100
AcDbArc
50
180
51
300.00000196724687
0
ARC
5
164
100
AcDbEntity
8
0
100
AcDbCircle
10
7.0000004053605194
20
39.463706215034193
30
0
40
2.0000010627536393
210
0
220
0
230
1
100
AcDbArc
50
300.00000196724676
51
360
0
LINE
5
165
100
AcDbEntity
8
0
100
AcDbLine
10
3.500001274377353
20
35.133578264667314
30
0
11
8.0000009962072198
21
37.731654521428617
31
0
0
CIRCLE
5
166
100
AcDbEntity
8
0
100
AcDbCircle
10
10.000016395170812
20
10.000011803910589
30
0
40
1.4999999999999991
210
0
220
0
230
1
0
CIRCLE
5
167
100
AcDbEntity
8
0
100
AcDbCircle
10
27.864354564710506
20
22.84000486326725
30
0
40
1.4999999999999991
210
0
220
0
230
1
0
LINE
5
168
100
AcDbEntity
8
0
100
AcDbLine
10
24.614701021481306
20
13.836733332169015
30
0
11
30.617070994646763
21
16.403969417718571
31
0
0
ARC
5
169
100
AcDbEntity
8
0
100
AcDbCircle
10
27.864354564710506
20
22.84000486326725
30
0
40
7
210
-0
220
0
230
1
100
AcDbArc
50
-66.843423197848708
51
90
0
LINE
5
170
100
AcDbEntity
8
0
100
AcDbLine
10
27.864354564710506
20
29.840004863267247
30
0
11
26.994413118681948
21
29.840004863267247
31
0
0
ARC
5
171
100
AcDbEntity
8
0
100
AcDbCircle
10
27.864354564710506
20
22.84000486326725
30
-3.4123992627979671e-15
40
7
210
1.2246467991473537e-16
220
1.8488927466117464e-32
230
-1
100
AcDbArc
50
-66.843423197848708
51
90
0
LINE
5
172
100
AcDbEntity
8
0
100
AcDbLine
10
-24.614701021481306
20
13.836733332169015
30
3.9796778100534928e-16
11
-30.617070994646763
21
16.403969417718571
31
-3.371105364881766e-16
0
LINE
5
173
100
AcDbEntity
8
0
100
AcDbLine
10
-27.864354564710506
20
29.840004863267247
30
0
11
-26.994412980710912
21
29.840004863267247
31
1.0653711762902824e-16
0
CIRCLE
5
174
100
AcDbEntity
8
0
100
AcDbCircle
10
27.864354564710506
20
22.84000486326725
30
-3.4123992627979663e-15
40
1.4999999999999991
210
1.2246467991473532e-16
220
0
230
-1
0
CIRCLE
5
175
100
AcDbEntity
8
0
100
AcDbCircle
10
-27.86435456471051
20
-22.840004863267247
30
0
40
1.4999999999999991
210
0
220
0
230
1
0
LINE
5
176
100
AcDbEntity
8
0
100
AcDbLine
10
-27.86435456471051
20
-29.840004863267243
30
0
11
-26.999999943907223
21
-29.840004863267239
31
0
0
ARC
5
177
100
AcDbEntity
8
0
100
AcDbCircle
10
-27.86435456471051
20
-22.840004863267247
30
0
40
6.9999999999999982
210
0
220
0
230
1
100
AcDbArc
50
113.15657680215125
51
270
0
LINE
5
178
100
AcDbEntity
8
0
100
AcDbLine
10
-24.614701021481309
20
-13.836733332169013
30
0
11
-30.617070994646763
21
-16.403969417718564
31
0
0
CIRCLE
5
179
100
AcDbEntity
8
0
100
AcDbCircle
10
-27.864354564710506
20
-22.84000486326725
30
2.7970938848310216e-15
40
1.4999999999999991
210
0
220
-1.2246467991473532e-16
230
-1
0
LINE
5
180
100
AcDbEntity
8
0
100
AcDbLine
10
27.864354564710506
20
-29.840004863267247
30
8.5725275940314732e-16
11
27.000000056092741
21
-29.840004863267247
31
8.5725275940314742e-16
0
ARC
5
181
100
AcDbEntity
8
0
100
AcDbCircle
10
-27.864354564710506
20
-22.84000486326725
30
2.7970938848310212e-15
40
7
210
6.1629758220391547e-33
220
-1.224646799147353e-16
230
-1
100
AcDbArc
50
113.15657680215128
51
270
0
LINE
5
182
100
AcDbEntity
8
0
100
AcDbLine
10
24.614701021481306
20
-13.836733332169013
30
-1.1025827662413941e-15
11
30.617070994646763
21
-16.403969417718571
31
-7.8818702075900985e-16
0
LINE
5
183
100
AcDbEntity
8
0
100
AcDbLine
10
-14.999999943907232
20
-41.840004807174495
30
0
11
-14.999999828636652
21
-66.500000008755791
31
0
0
LINE
5
184
100
AcDbEntity
8
0
100
AcDbLine
10
15.000000056092748
20
-41.840004919360013
30
5.7664625297685576e-16
11
15.000000171363354
21
-66.5
31
0
0
ARC
5
185
100
AcDbEntity
8
0
100
AcDbCircle
10
12.50000266503462
20
68.500036408029445
30
-4.1458280618349442e-15
40
3.4999442073409086
210
3.3346411714059699e-16
220
1.4618526648862674e-19
230
-1
100
AcDbArc
50
-0.03969689951533184
51
89.999998928903182
0
ARC
5
186
100
AcDbEntity
8
0
100
AcDbCircle
10
-24.003861709234883
20
63.015636417387327
30
-7.7986156179703533e-16
40
39.99999999998802
210
1.2246464836179859e-16
220
-3.9663217603107811e-24
230
-1
100
AcDbArc
50
352.83528675158067
51
359.96030310049389
0
LINE
5
187
100
AcDbEntity
8
0
100
AcDbLine
10
-15.999946032337359
20
68.497611501281057
30
-1.1795664745444823e-15
11
-15.996128690163886
21
62.987922755629398
31
-1.1790989632243324e-15
0
ARC
5
188
100
AcDbEntity
8
0
100
AcDbCircle
10
54.990611142147486
20
50.008011693833978
30
2.3831693631726583e-15
40
39.999999999993179
210
-2.5455218996702583e-16
220
-4.7392426179342307e-17
230
-1
100
AcDbArc
50
172.835286751582
51
180.04004622224824
0
LINE
5
189
100
AcDbEntity
8
0
100
AcDbLine
10
-15.302943056740578
20
54.996899540040559
30
-1.0942081966827267e-15
11
-15.683806376166803
21
58.026748571180477
31
-1.1408505011875235e-15
0
LINE
5
190
100
AcDbEntity
8
0
100
AcDbLine
10
-8.6637128373771599
20
72.643365791482012
30
-3.0814879110195774e-32
11
-13.041468721511437
21
71.957842643807069
31
-1.9251461519774623e-16
0
LINE
5
191
100
AcDbEntity
8
0
100
AcDbLine
10
14.994414419839366
20
41.834416681397563
30
3.6833461016011024e-16
11
14.990621161325034
21
49.980017217990991
31
6.1847664660669732e-16
0
LINE
5
192
100
AcDbEntity
8
0
100
AcDbLine
10
-14.994414281932629
20
41.834416543362295
30
7.977659399460492e-17
11
-14.990620912452531
21
49.980054158860113
31
-9.359500081056773e-16
0
ARC
5
193
100
AcDbEntity
8
0
100
AcDbCircle
10
34.638379202152173
20
1.1102230246251565e-15
30
4.815437910503621e-15
40
17.999999999999972
210
-5.0630830700816391e-16
220
-3.445187378841506e-17
230
1
100
AcDbArc
50
152.14374344898468
51
207.85625655101526
0
ARC
5
194
100
AcDbEntity
8
0
100
AcDbCircle
10
-34.638379202152151
20
2.2204460492503131e-15
30
4.1471437034419886e-15
40
17.999999999999957
210
3.7301213077263949e-16
220
-1.5632150503925384e-17
230
1
100
AcDbArc
50
-27.856256551015377
51
27.856256551015363
0
ARC
5
195
100
AcDbEntity
8
0
100
AcDbCircle
10
29.333643472800549
20
2.8035297112284727
30
-3.4814763000020296e-16
40
11.999999999999932
210
-3.3868858541850254e-16
220
-1.7641291146069818e-16
230
1
100
AcDbArc
50
113.15657680215114
51
152.14374344898476
0
ARC
5
196
100
AcDbEntity
8
0
100
AcDbCircle
10
29.333643472800574
20
-2.8035297112284518
30
-2.3105388220163869e-15
40
11.999999999999957
210
-2.2349180848424004e-16
220
2.0507199142586883e-16
230
1
100
AcDbArc
50
207.85625655101518
51
246.84342319784875
0
ARC
5
197
100
AcDbEntity
8
0
100
AcDbCircle
10
-29.333643472800613
20
2.8035297112283963
30
-4.7420544542405218e-16
40
12.000000000000028
210
1.9809319476966361e-16
220
-1.637750624955276e-16
230
1
100
AcDbArc
50
27.856256551015406
51
66.843423197848722
0
ARC
5
198
100
AcDbEntity
8
0
100
AcDbCircle
10
-29.333643472800617
20
-2.8035297112283941
30
-1.5118084918590109e-16
40
12.000000000000028
210
2.2483294602754271e-16
220
1.0986424471944205e-16
230
1
100
AcDbArc
50
293.15657680215128
51
332.14374344898459
0
ARC
5
199
100
AcDbEntity
8
0
100
AcDbCircle
10
-26.99441298071093
20
41.840004863267254
30
-1.3904965642220781e-15
40
12.000000000000011
210
-1.2246467991473539e-16
220
1.2475280682092525e-16
230
1
100
AcDbArc
50
270.00000000000011
51
359.97331773694378
0
ARC
5
200
100
AcDbEntity
8
0
100
AcDbCircle
10
26.994413118681962
20
41.840004863267275
30
3.6850621680674671e-16
40
12.000000000000027
210
-1.0378956840924335e-32
220
-3.0708851400562154e-17
230
1
100
AcDbArc
50
180.02668160398019
51
269.99999999999994
0
ARC
5
201
100
AcDbEntity
8
0
100
AcDbCircle
10
-26.99999994390723
20
-41.840004863267239
30
0
40
12
210
0
220
-0
230
1
100
AcDbArc
50
0
51
89.999999999999972
0
ARC
5
202
100
AcDbEntity
8
0
100
AcDbCircle
10
27.000000056092752
20
-41.840004863267247
30
5.7664625428852073e-16
40
12.000000000000002
210
1.0849081027907939e-31
220
-2.3383875426218896e-17
230
1
100
AcDbArc
50
90.000000000000057
51
180
0
ENDSEC
0
SECTION
2
OBJECTS
0
DICTIONARY
5
C
100
AcDbDictionary
3
ACAD_GROUP
350
D
3
ACAD_MLINESTYLE
350
17
0
DICTIONARY
5
D
100
AcDbDictionary
0
DICTIONARY
5
1A
330
C
100
AcDbDictionary
0
DICTIONARY
5
17
100
AcDbDictionary
0
ENDSEC
0
EOF
