0
SECTION
2
HEADER
9
$INSUNITS
70
4
9
$ACADVER
1
AC1014
9
$HANDSEED
5
FFFF
0
ENDSEC
0
SECTION
2
TABLES
0
TABLE
2
VPORT
5
8
100
AcDbSymbolTable
0
ENDTAB
0
TABLE
2
LTYPE
5
5
100
AcDbSymbolTable
0
LTYPE
5
14
100
AcDbSymbolTableRecord
100
AcDbLinetypeTableRecord
2
BYBLOCK
70
0
0
LTYPE
5
15
100
AcDbSymbolTableRecord
100
AcDbLinetypeTableRecord
2
BYLAYER
70
0
0
ENDTAB
0
TABLE
2
LAYER
5
2
100
AcDbSymbolTable
70
2
0
LAYER
5
50
100
AcDbSymbolTableRecord
100
AcDbLayerTableRecord
2
0
70
0
6
CONTINUOUS
0
ENDTAB
0
TABLE
2
STYLE
5
3
100
AcDbSymbolTable
70
1
0
STYLE
5
11
100
AcDbSymbolTableRecord
100
AcDbTextStyleTableRecord
2
STANDARD
70
0
0
ENDTAB
0
TABLE
2
VIEW
5
6
100
AcDbSymbolTable
70
0
0
ENDTAB
0
TABLE
2
UCS
5
7
100
AcDbSymbolTable
70
0
0
ENDTAB
0
TABLE
2
APPID
5
9
100
AcDbSymbolTable
70
2
0
APPID
5
12
100
AcDbSymbolTableRecord
100
AcDbRegAppTableRecord
2
ACAD
70
0
0
ENDTAB
0
TABLE
2
DIMSTYLE
5
A
100
AcDbSymbolTable
70
1
0
ENDTAB
0
TABLE
2
BLOCK_RECORD
5
1
100
AcDbSymbolTable
70
1
0
BLOCK_RECORD
5
1F
100
AcDbSymbolTableRecord
100
AcDbBlockTableRecord
2
*MODEL_SPACE
0
BLOCK_RECORD
5
1B
100
AcDbSymbolTableRecord
100
AcDbBlockTableRecord
2
*PAPER_SPACE
0
ENDTAB
0
ENDSEC
0
SECTION
2
BLOCKS
0
BLOCK
5
20
100
AcDbEntity
100
AcDbBlockBegin
2
*MODEL_SPACE
0
ENDBLK
5
21
100
AcDbEntity
100
AcDbBlockEnd
0
BLOCK
5
1C
100
AcDbEntity
100
AcDbBlockBegin
2
*PAPER_SPACE
0
ENDBLK
5
1D
100
AcDbEntity
100
AcDbBlockEnd
0
ENDSEC
0
SECTION
2
ENTITIES
0
LWPOLYLINE
5
100
100
AcDbEntity
8
0
100
AcDbPolyline
90
8
70
1
43
0.0
10
12.499999999999998
20
66.000000000000014
10
12.499999999999998
20
63.000000000000007
42
-0.99999999999999989
10
12.499999999999998
20
62.000000000000014
10
10.999999999999998
20
62.000000000000014
42
-0.99999999999999989
10
10.999999999999998
20
63.000000000000007
10
10.999999999999998
20
66.000000000000014
42
-0.99999999999999989
10
10.999999999999998
20
67.000000000000014
10
12.499999999999998
20
67.000000000000014
42
-0.99999999999999989
0
LWPOLYLINE
5
101
100
AcDbEntity
8
0
100
AcDbPolyline
90
8
70
1
43
0.0
10
-6.0009244333285512
20
-23.595140772019789
10
-3.5016985531933802
20
-22.1551884008081
42
-0.57705242553366298
10
-2.0024726730582074
20
-23.021660281830933
10
-2.0024726730581852
20
-27.136694846262642
42
-0.26794919243112381
10
-3.0024726730581848
20
-28.868745653831528
10
-5.5024726730581897
20
-30.312121326805595
42
-0.57735026918962684
10
-7.0024726730581852
20
-29.446095923021161
10
-7.0024726730582056
20
-25.328084534065475
42
-0.2681886585496483
0
ARC
5
102
100
AcDbEntity
8
0
100
AcDbCircle
10
5.0000000688096247
20
66.309005962333032
30
0
40
1.9999999999999598
210
0
220
0
230
1
100
AcDbArc
50
300.0000000242664
51
359.9999975851635
0
LWPOLYLINE
5
103
100
AcDbEntity
8
0
100
AcDbPolyline
90
10
70
1
43
0.0
10
-5.9999999999999982
20
3.690598923241498
42
0.26794919243112236
10
-7
20
1.9585481156726203
10
-7
20
0
10
-7
20
-1.9585481156726208
42
0.26794919243112264
10
-5.9999999999999982
20
-3.6905989232414993
10
-3.5000000000000009
20
-5.1339745962155625
42
0.57735026918962407
10
-1.9999999999999996
20
-4.2679491924311224
10
-2
20
0
10
-2
20
4.2679491924311233
42
0.57735026918962584
10
-3.5
20
5.1339745962155625
0
LWPOLYLINE
5
104
100
AcDbEntity
8
0
100
AcDbPolyline
90
8
70
1
43
0.0
10
10.999999999999998
20
45.000000000000007
42
-0.99999999999999989
10
10.999999999999998
20
46.000000000000007
10
10.999999999999998
20
49.000000000000014
42
-0.99999999999999989
10
10.999999999999998
20
50.000000000000007
10
12.499999999999998
20
50.000000000000007
42
-0.99999999999999989
10
12.499999999999998
20
49.000000000000014
10
12.499999999999998
20
46.000000000000007
42
-0.99999999999999989
10
12.499999999999998
20
45.000000000000007
0
LINE
5
105
100
AcDbEntity
8
0
100
AcDbLine
10
-3.0024726730582563
20
-50.868745653831553
30
0
11
-7.5024726730582856
21
-53.466821865184841
31
0
0
ARC
5
106
100
AcDbEntity
8
0
100
AcDbCircle
10
-3.9999981709917765
20
56.112852266086492
30
0
40
1.9999999999999805
210
0
220
0
230
1
100
AcDbArc
50
0
51
59.999999735213123
0
LINE
5
107
100
AcDbEntity
8
0
100
AcDbLine
10
-3.5024726730582967
20
-34.157420788426364
30
0
11
-8.0024726730582749
21
-36.75549699977968
31
0
0
LWPOLYLINE
5
108
100
AcDbEntity
8
0
100
AcDbPolyline
90
8
70
1
43
0.0
10
-12.500000000000002
20
45.000000000000007
42
-0.99999999999999989
10
-12.500000000000002
20
46.000000000000007
10
-12.500000000000002
20
49.000000000000014
42
-0.99999999999999989
10
-12.500000000000002
20
50.000000000000007
10
-11.000000000000004
20
50.000000000000007
42
-0.99999999999999989
10
-11.000000000000004
20
49.000000000000014
10
-11.000000000000004
20
46.000000000000007
42
-0.99999999999999989
10
-11.000000000000004
20
45.000000000000007
0
ARC
5
109
100
AcDbEntity
8
0
100
AcDbCircle
10
-4.0024726730582376
20
-49.136694846262671
30
0
40
1.9999999999999978
210
-0
220
0
230
1
100
AcDbArc
50
-60.00000000000054
51
0
0
ARC
5
110
100
AcDbEntity
8
0
100
AcDbCircle
10
-7.9999984268691451
20
59.576954056683505
30
0
40
1.000000000000014
210
0
220
-0
230
1
100
AcDbArc
50
59.999999735213031
51
180
0
LINE
5
111
100
AcDbEntity
8
0
100
AcDbLine
10
3.4999999444102974
20
63.133579408556386
30
0
11
6.0000000695431783
21
64.576955155187719
31
0
0
LINE
5
112
100
AcDbEntity
8
0
100
AcDbLine
10
-8.9999984268691477
20
59.576954063409644
30
0
11
-8.9999985073021129
21
41.46370538488771
31
0
0
ARC
5
113
100
AcDbEntity
8
0
100
AcDbCircle
10
4.0000018290081822
20
56.11285226795134
30
0
40
1.9999999999999749
210
0
220
0
230
1
100
AcDbArc
50
120.00000140407219
51
180
0
LWPOLYLINE
5
114
100
AcDbEntity
8
0
100
AcDbPolyline
90
8
70
1
43
0.0
10
-5.5024726730581861
20
-64.13397459621558
42
-0.57735026918962939
10
-7.0024726730581834
20
-63.267949192431132
10
-7.0024726730581861
20
-59.331014043812786
42
-0.26818865854964447
10
-6.0009244333285476
20
-57.5980702817671
10
-3.5011645359409185
20
-56.157810231519647
42
-0.57694955143090254
10
-2.0013211619712954
20
-57.024330175482291
10
-2.0001072279095045
20
-60.956537613913191
42
-0.26803191425435102
10
-3.0001307841215299
20
-62.689246833033508
0
ARC
5
115
100
AcDbEntity
8
0
100
AcDbCircle
10
-3.0024726730582971
20
-35.023446192210805
30
0
40
1.0000000000000027
210
0
220
-0
230
1
100
AcDbArc
50
0
51
119.99999999999991
0
ARC
5
116
100
AcDbEntity
8
0
100
AcDbCircle
10
-8.0024726730582767
20
-52.600796461400392
30
0
40
1.000000000000002
210
0
220
0
230
1
100
AcDbArc
50
180
51
299.99999999999932
0
CIRCLE
5
117
100
AcDbEntity
8
0
100
AcDbCircle
10
-12.49999982863665
20
-29.5
30
0
40
1.5000000000000002
210
0
220
0
230
1
0
LINE
5
118
100
AcDbEntity
8
0
100
AcDbLine
10
7.0000002740248419
20
70.954258961655583
30
0
11
7.0000000688095874
21
66.30900587524637
31
0
0
LWPOLYLINE
5
119
100
AcDbEntity
8
0
100
AcDbPolyline
90
8
70
1
43
0.0
10
-12.500000000000002
20
62.000000000000014
42
-0.99999999999999989
10
-12.500000000000002
20
63.000000000000007
10
-12.500000000000002
20
66.000000000000014
42
-0.99999999999999989
10
-12.500000000000002
20
67.000000000000014
10
-11.000000000000004
20
67.000000000000014
42
-0.99999999999999989
10
-11.000000000000004
20
66.000000000000014
10
-11.000000000000004
20
63.000000000000007
42
-0.99999999999999989
10
-11.000000000000004
20
62.000000000000014
0
LWPOLYLINE
5
120
100
AcDbEntity
8
0
100
AcDbPolyline
90
8
70
1
43
0.0
10
-6.9999987452683863
20
32.422451159907759
42
-0.57735026918962584
10
-5.4999987452683801
20
33.288476563692207
10
-2.9999987452683752
20
31.845100890718136
42
-0.26794919243112203
10
-1.9999987452683878
20
30.113050083149275
10
-1.9999987452683858
20
22.999801429097403
42
-0.57735026918962229
10
-3.4999987452683983
20
22.133776025312962
10
-5.9999987452683987
20
23.577151698287029
42
-0.26794919243112236
10
-6.9999987452683872
20
25.309202505855886
0
LINE
5
121
100
AcDbEntity
8
0
100
AcDbLine
10
-3.4999987452683969
20
37.133578178829964
30
0
11
-7.999999053173461
21
39.731654567952354
31
0
0
CIRCLE
5
122
100
AcDbEntity
8
0
100
AcDbCircle
10
-10.49999982863665
20
-67.500000000000014
30
0
40
1.5000000000000002
210
0
220
0
230
1
0
CIRCLE
5
123
100
AcDbEntity
8
0
100
AcDbCircle
10
-12.500000000000004
20
29.5
30
0
40
1.4999999999999991
210
0
220
0
230
1
0
ARC
5
124
100
AcDbEntity
8
0
100
AcDbCircle
10
-3.000000055956431
20
63.99960430661104
30
0
40
1.0000000000000175
210
0
220
0
230
1
100
AcDbArc
50
240.0000000242666
51
359.99999879258172
0
ARC
5
125
100
AcDbEntity
8
0
100
AcDbCircle
10
-2.9999987452683943
20
37.999603582614412
30
0
40
1.0000000000000049
210
0
220
0
230
1
100
AcDbArc
50
240.00000000000011
51
360
0
LINE
5
126
100
AcDbEntity
8
0
100
AcDbLine
10
-2.9181486451969896
20
-67.11269207099771
30
0
11
-6.6638473163580914
21
-71.108103986902876
31
0
0
LINE
5
127
100
AcDbEntity
8
0
100
AcDbLine
10
-10.363643435250541
20
-72.29522456971489
30
0
11
-12.183941218177253
21
-71.932524461045148
31
0
0
LINE
5
128
100
AcDbEntity
8
0
100
AcDbLine
10
-14.999999828636652
20
-68.5
30
0
11
-14.999999947918088
21
-41.016808960953448
31
4.9286691615570728e-16
0
LINE
5
129
100
AcDbEntity
8
0
100
AcDbLine
10
1.9999999440435066
20
63.999604839683755
30
0
11
2.0000001506129705
21
71.382830015838209
31
0
0
LINE
5
130
100
AcDbEntity
8
0
100
AcDbLine
10
-2.0000000559564262
20
63.999604279056335
30
0
11
-1.9999998493869617
21
71.38282947659539
31
0
0
ARC
5
131
100
AcDbEntity
8
0
100
AcDbCircle
10
-11.499999828636652
20
-68.5
30
0
40
3.5000000000000009
210
0
220
0
230
1
100
AcDbArc
50
180
51
258.73121770506452
0
LINE
5
132
100
AcDbEntity
8
0
100
AcDbLine
10
3.0000017865631081
20
57.844903051014512
30
0
11
7.5000015519083068
21
60.442979273923925
31
0
0
ARC
5
133
100
AcDbEntity
8
0
100
AcDbCircle
10
-7.0024726730582465
20
-38.487547807348562
30
0
40
2.0000000000000178
210
0
220
0
230
1
100
AcDbArc
50
120.00000000000065
51
180
0
LINE
5
134
100
AcDbEntity
8
0
100
AcDbLine
10
-9.0024726730582767
20
-53.600796461400392
30
0
11
-9.0024726730582625
21
-38.487547807348562
31
0
0
ARC
5
135
100
AcDbEntity
8
0
100
AcDbCircle
10
-4.9999990740893079
20
66.309004815076491
30
0
40
1.9999999999999631
210
0
220
0
230
1
100
AcDbArc
50
180.00000809960798
51
240.00000002426651
0
LINE
5
136
100
AcDbEntity
8
0
100
AcDbLine
10
-3.5000000555896498
20
63.133578902614822
30
0
11
-5.999999073355716
21
64.576954007084112
31
0
0
ARC
5
137
100
AcDbEntity
8
0
100
AcDbCircle
10
-9.5819961329184267
20
-68.372339471377629
30
0
40
3.9999999999999432
210
0
220
0
230
1
100
AcDbArc
50
258.73121770506441
51
316.84761026599529
0
LINE
5
138
100
AcDbEntity
8
0
100
AcDbLine
10
-6.9999997292199456
20
70.954257840642228
30
0
11
-6.9999990740892502
21
66.309004531743739
31
0
0
LINE
5
139
100
AcDbEntity
8
0
100
AcDbLine
10
-2.9999981629872825
20
57.844903069033947
30
0
11
-7.4999984228668843
21
60.442979458157254
31
0
0
LINE
5
140
100
AcDbEntity
8
0
100
AcDbLine
10
-2.0024726730582949
20
-35.023446192210798
30
0
11
-2.0024726730582367
21
-50.136694846262657
31
0
0
LINE
5
141
100
AcDbEntity
8
0
100
AcDbLine
10
-1.999998170991796
20
56.112852256843659
30
0
11
-1.9999982146145998
21
37.99960358020607
31
0
0
LWPOLYLINE
5
142
100
AcDbEntity
8
0
100
AcDbPolyline
90
10
70
1
43
0.0
10
7
20
-1.9585481156726208
42
-0.26794919243112264
10
5.9999999999999982
20
-3.6905989232414993
10
3.5000000000000009
20
-5.1339745962155625
42
-0.57735026918962407
10
1.9999999999999996
20
-4.2679491924311224
10
2
20
0
10
2
20
4.2679491924311233
42
-0.57735026918962584
10
3.5
20
5.1339745962155625
10
5.9999999999999982
20
3.690598923241498
42
-0.26794919243112236
10
7
20
1.9585481156726203
10
7
20
0
0
LWPOLYLINE
5
143
100
AcDbEntity
8
0
100
AcDbPolyline
90
8
70
1
43
0.0
10
2.0000012547316128
20
22.999801429097406
10
2.0000012547316111
20
30.113050083149275
42
-0.26794919243112175
10
3.0000012547316017
20
31.845100890718136
10
5.5000012547316048
20
33.288476563692207
42
-0.57735026918962584
10
7.0000012547316111
20
32.422451159907759
10
7.0000012547316164
20
25.309202505855886
42
-0.2679491924311202
10
6.0000012547316235
20
23.577151698287025
10
3.5000012547316222
20
22.133776025312958
42
-0.57735026918962207
0
CIRCLE
5
144
100
AcDbEntity
8
0
100
AcDbCircle
10
12.5
20
29.5
30
0
40
1.4999999999999991
210
0
220
0
230
1
0
ARC
5
145
100
AcDbEntity
8
0
100
AcDbCircle
10
1.7136335461742647e-07
20
-69.848456586523071
30
0
40
4.0000000000000302
210
0
220
-0
230
1
100
AcDbArc
50
43.152389734005588
51
136.84761026599421
0
LINE
5
146
100
AcDbEntity
8
0
100
AcDbLine
10
9.0000015731308576
20
59.57695387566617
30
0
11
9.0000014926982033
21
41.463705285296086
31
0
0
LINE
5
147
100
AcDbEntity
8
0
100
AcDbLine
10
2.0000018290082053
20
56.112852277194165
30
0
11
2.0000017853855621
21
37.999603653692617
31
0
0
ARC
5
148
100
AcDbEntity
8
0
100
AcDbCircle
10
2.9999999440435103
20
63.999604812129071
30
0
40
1.0000000000000042
210
0
220
0
230
1
100
AcDbArc
50
179.99999879258175
51
300.00000002426611
0
ARC
5
149
100
AcDbEntity
8
0
100
AcDbCircle
10
8.0000015731308487
20
59.576953882392303
30
0
40
1.0000000000000075
210
0
220
0
230
1
100
AcDbArc
50
0
51
120.0000014040714
0
ARC
5
150
100
AcDbEntity
8
0
100
AcDbCircle
10
-6.9999990531734646
20
41.463705375521215
30
0
40
1.9999994541286492
210
0
220
0
230
1
100
AcDbArc
50
180
51
239.99999999999983
0
ARC
5
151
100
AcDbEntity
8
0
100
AcDbCircle
10
7.9975273269417055
20
-52.600796461400378
30
-1.2240122501790934e-15
40
0.99999999999999223
210
9.1531235451925376e-17
220
-5.3578297462695758e-17
230
1
100
AcDbArc
50
-120.00000000000094
51
0
0
CIRCLE
5
152
100
AcDbEntity
8
0
100
AcDbCircle
10
10.500000167023195
20
-67.500000004340166
30
3.68572784135494e-17
40
1.5000000000000013
210
0
220
0
230
1
0
LINE
5
153
100
AcDbEntity
8
0
100
AcDbLine
10
3.4975273269417189
20
-34.15742078842635
30
-5.5109105961631034e-16
11
7.9975273269417047
21
-36.755496999779659
31
-5.5109105961631014e-16
0
LWPOLYLINE
5
154
100
AcDbEntity
8
0
100
AcDbPolyline
90
8
70
1
43
0.0
10
5.9995842151728063
20
-57.604913516121563
42
-0.27470159806455979
10
6.9989513477310776
20
-59.387274056801374
10
6.997743765745196
20
-63.270537202223196
42
-0.57694879993641124
10
5.4988354640590806
20
-64.136514662869558
10
2.9990755666714581
20
-62.69625461262212
42
-0.26818865854964424
10
1.9975273269418095
20
-60.963310850576434
10
1.9975273269418072
20
-57.026375701958081
42
-0.57735026918962529
10
3.4975273269418117
20
-56.16035029817364
0
ARC
5
155
100
AcDbEntity
8
0
100
AcDbCircle
10
9.5819964756451519
20
-68.372339471377529
30
0
40
4.0000000000000338
210
0
220
0
230
1
100
AcDbArc
50
223.15238973400582
51
281.26878229493553
0
LINE
5
156
100
AcDbEntity
8
0
100
AcDbLine
10
10.363643777977273
20
-72.295224569714861
30
0
11
12.183941560903889
21
-71.932524461045162
31
0
0
LINE
5
157
100
AcDbEntity
8
0
100
AcDbLine
10
15.000000171363354
20
-68.5
30
0
11
15.000000052081921
21
-41.016809065117272
31
1.0129556199797135e-15
0
ARC
5
158
100
AcDbEntity
8
0
100
AcDbCircle
10
2.997527326941718
20
-35.023446192210784
30
-5.5109105961631034e-16
40
1.0000000000000004
210
-1.5407439555097963e-32
220
8.895489374658718e-33
230
1
100
AcDbArc
50
59.999999999999815
51
180
0
ARC
5
159
100
AcDbEntity
8
0
100
AcDbCircle
10
3.9975273269417784
20
-49.136694846262657
30
-7.9602041944578083e-16
40
1.9999999999999942
210
1.2246467991473559e-16
220
6.2892098537375986e-31
230
1
100
AcDbArc
50
180
51
240.00000000000023
0
LINE
5
160
100
AcDbEntity
8
0
100
AcDbLine
10
8.9975273269417002
20
-53.600796461400364
30
-1.3155434856310174e-15
11
8.9975273269417055
21
-38.487547807348534
31
-6.1295794854192884e-16
0
LINE
5
161
100
AcDbEntity
8
0
100
AcDbLine
10
1.9975273269417191
20
-35.023446192210791
30
-5.5109105961631034e-16
11
1.9975273269417879
21
-50.136694846262664
31
-5.5109105961631034e-16
0
ARC
5
162
100
AcDbEntity
8
0
100
AcDbCircle
10
6.9975273269417109
20
-38.487547807348534
30
-6.7482483746754696e-16
40
1.9999999999999951
210
-3.0933444462809118e-17
220
-5.3578297462695875e-17
230
1
100
AcDbArc
50
0
51
60.000000000000121
0
LINE
5
163
100
AcDbEntity
8
0
100
AcDbLine
10
2.9975273269417841
20
-50.868745653831539
30
-6.7355573953104489e-16
11
7.4975273269416975
21
-53.466821865184798
31
-1.2246467991473432e-15
0
LWPOLYLINE
5
164
100
AcDbEntity
8
0
100
AcDbPolyline
90
8
70
1
43
0.0
10
6.9975273268096281
20
-29.44609592302114
42
-0.57735026918962207
10
5.4975273268096263
20
-30.312121326805581
10
2.9975273268096352
20
-28.86874565383151
42
-0.26794919243112159
10
1.9975273268096403
20
-27.136694846262635
10
1.9975273268096394
20
-23.02344619221078
42
-0.57735026918962173
10
3.4975273268096414
20
-22.157420788426339
10
5.997527326809637
20
-23.6007964614004
42
-0.26794919243112192
10
6.9975273268096387
20
-25.332847268969282
0
CIRCLE
5
165
100
AcDbEntity
8
0
100
AcDbCircle
10
12.500000171363354
20
-29.5
30
0
40
1.4999999999999991
210
0
220
0
230
1
0
LINE
5
166
100
AcDbEntity
8
0
100
AcDbLine
10
6.6638476590848121
20
-71.10810398690289
30
0
11
2.9181489879237059
21
-67.112692070997724
31
0
0
ARC
5
167
100
AcDbEntity
8
0
100
AcDbCircle
10
11.500000171363356
20
-68.5
30
0
40
3.4999999999999969
210
0
220
0
230
1
100
AcDbArc
50
-78.731217705065603
51
0
0
ARC
5
168
100
AcDbEntity
8
0
100
AcDbCircle
10
7.0000009468265665
20
41.463705294662546
30
0
40
1.9999999999999849
210
0
220
0
230
1
100
AcDbArc
50
300.00000196724693
51
360
0
LINE
5
169
100
AcDbEntity
8
0
100
AcDbLine
10
3.5000012844665438
20
37.133578264667314
30
0
11
8.0000010062964098
21
39.731654521428624
31
0
0
ARC
5
170
100
AcDbEntity
8
0
100
AcDbCircle
10
3.0000012547316182
20
37.999603651284289
30
0
40
0.99999946934605566
210
0
220
0
230
1
100
AcDbArc
50
180
51
300.0000019672467
0
ARC
5
171
100
AcDbEntity
8
0
100
AcDbCircle
10
33.748629980116633
20
-2.2204460492503131e-15
30
3.6118124039936369e-15
40
18.000000000000004
210
-3.1083194514553641e-16
220
2.3276360065077932e-17
230
1
100
AcDbArc
50
141.30186753162647
51
218.69813246837342
0
CIRCLE
5
172
100
AcDbEntity
8
0
100
AcDbCircle
10
10.000016395170812
20
10.000011803910589
30
0
40
1.4999999999999991
210
0
220
0
230
1
0
CIRCLE
5
173
100
AcDbEntity
8
0
100
AcDbCircle
10
-10.000016395170812
20
-10.000011803910589
30
1.1084037955501074e-15
40
1.4999999999999991
210
0
220
-1.2246467991473532e-16
230
-1
0
ARC
5
174
100
AcDbEntity
8
0
100
AcDbCircle
10
-46.777852818365616
20
27.590164783675775
30
1.1084037955501119e-15
40
47.999999999999041
210
1.355854680848614e-31
220
-1.2246467991473537e-16
230
-1
100
AcDbArc
50
295.90742876672113
51
299.47198831199171
0
ARC
5
175
100
AcDbEntity
8
0
100
AcDbCircle
10
29.065925261459199
20
-3.7513033092332746
30
1.5115483396819721e-15
40
11.999999999999915
210
-2.6760377575245415e-16
220
6.6887473596084165e-17
230
1
100
AcDbArc
50
218.69813246837333
51
240.52801168800838
0
LINE
5
176
100
AcDbEntity
8
0
100
AcDbLine
10
25.805768746980789
20
15.585889803359787
30
0
11
32.089743606385824
21
18.63823097520655
31
0
0
ARC
5
177
100
AcDbEntity
8
0
100
AcDbCircle
10
29.468233097462651
20
24.035237798586095
30
0
40
5.9999999999999982
210
0
220
0
230
1
100
AcDbArc
50
-64.092571233278719
51
135.6705181516453
0
CIRCLE
5
178
100
AcDbEntity
8
0
100
AcDbCircle
10
-29.468233097462651
20
-24.035237798586095
30
1.1084037955501074e-15
40
1.4999999999999991
210
0
220
-1.2246467991473532e-16
230
-1
0
ARC
5
179
100
AcDbEntity
8
0
100
AcDbCircle
10
29.065925261459398
20
3.7513033092330552
30
2.3917301331384724e-15
40
12.000000000000208
210
-3.2989179508137307e-16
220
4.2505054944040921e-17
230
1
100
AcDbArc
50
119.47198831199191
51
141.30186753162627
0
ARC
5
180
100
AcDbEntity
8
0
100
AcDbCircle
10
46.777852818365623
20
-27.590164783675771
30
1.1084037955501103e-15
40
47.999999999999034
210
-9.8607613152626476e-32
220
1.2246467991473537e-16
230
-1
100
AcDbArc
50
115.90742876672113
51
119.47198831199179
0
CIRCLE
5
181
100
AcDbEntity
8
0
100
AcDbCircle
10
10.000016395170817
20
10.000011803910594
30
1.1084037955501075e-15
40
1.4999999999999991
210
1.4997597826618576e-32
220
1.2246467991473532e-16
230
-1
0
ARC
5
182
100
AcDbEntity
8
0
100
AcDbCircle
10
-33.748629980116618
20
-2.2204460492503131e-15
30
-2.8608454680381538e-15
40
18.000000000000004
210
-3.0406397706628647e-16
220
-2.3276360065077784e-17
230
1
100
AcDbArc
50
-38.698132468373089
51
38.698132468373245
0
ARC
5
183
100
AcDbEntity
8
0
100
AcDbCircle
10
-29.065925261459384
20
3.7513033092330406
30
-3.3600619782153616e-15
40
12.000000000000206
210
-4.2277887791696105e-16
220
-1.4304291718533765e-16
230
1
100
AcDbArc
50
38.698132468373352
51
60.528011688007929
0
LINE
5
184
100
AcDbEntity
8
0
100
AcDbLine
10
-25.805768746980796
20
15.585889803359787
30
8.003172104046861e-16
11
-32.089743606385824
21
18.638230975206554
31
1.174121195005468e-15
0
ARC
5
185
100
AcDbEntity
8
0
100
AcDbCircle
10
-29.468233097462651
20
24.035237798586095
30
1.8350639081282863e-15
40
6.0000000000000036
210
-6.1215568653064546e-17
220
-5.979929734230659e-17
230
1
100
AcDbArc
50
44.329481848354703
51
244.09257123327865
0
ARC
5
186
100
AcDbEntity
8
0
100
AcDbCircle
10
-29.06592526145932
20
-3.7513033092330437
30
2.6496541205796321e-14
40
12.000000000000162
210
1.2329318523648989e-15
220
-1.8394806457308259e-15
230
1
100
AcDbArc
50
299.47198831199194
51
321.30186753162661
0
CIRCLE
5
187
100
AcDbEntity
8
0
100
AcDbCircle
10
-10.000016395170817
20
-10.000011803910587
30
0
40
1.4999999999999991
210
0
220
0
230
1
0
CIRCLE
5
188
100
AcDbEntity
8
0
100
AcDbCircle
10
29.468233097462651
20
24.035237798586095
30
1.1084037955501068e-15
40
1.4999999999999991
210
1.4997597826618576e-32
220
1.2246467991473532e-16
230
-1
0
CIRCLE
5
189
100
AcDbEntity
8
0
100
AcDbCircle
10
-29.468233097462662
20
-24.035237798586092
30
0
40
1.4999999999999991
210
0
220
0
230
1
0
LINE
5
190
100
AcDbEntity
8
0
100
AcDbLine
10
-25.805768746980796
20
-15.585889803359784
30
0
11
-32.089743606385838
21
-18.638230975206547
31
0
0
ARC
5
191
100
AcDbEntity
8
0
100
AcDbCircle
10
-29.468233097462662
20
-24.035237798586092
30
0
40
5.9999999999999982
210
0
220
0
230
1
100
AcDbArc
50
115.90742876672135
51
315.67051815164535
0
ARC
5
192
100
AcDbEntity
8
0
100
AcDbCircle
10
-46.777852818365623
20
27.590164783675775
30
0
40
47.999999999999034
210
-0
220
0
230
1
100
AcDbArc
50
295.90742876672113
51
299.47198831199182
0
ARC
5
193
100
AcDbEntity
8
0
100
AcDbCircle
10
29.468233097462651
20
-24.035237798586095
30
1.8350639081282863e-15
40
6
210
6.1215568653064608e-17
220
5.979929734230659e-17
230
1
100
AcDbArc
50
-135.6705181516453
51
64.09257123327869
0
CIRCLE
5
194
100
AcDbEntity
8
0
100
AcDbCircle
10
29.468233097462651
20
24.035237798586095
30
0
40
1.4999999999999991
210
0
220
0
230
1
0
LINE
5
195
100
AcDbEntity
8
0
100
AcDbLine
10
25.805768746980789
20
-15.585889803359787
30
8.003172104046861e-16
11
32.089743606385824
21
-18.63823097520655
31
1.174121195005468e-15
0
ARC
5
196
100
AcDbEntity
8
0
100
AcDbCircle
10
46.777852818365616
20
-27.590164783675775
30
0
40
47.999999999999041
210
0
220
0
230
1
100
AcDbArc
50
115.90742876672113
51
119.47198831199172
0
LINE
5
197
100
AcDbEntity
8
0
100
AcDbLine
10
29.468233097462651
20
30.035237798586095
30
0
11
26.998577128957464
21
30.035318606272916
31
0
0
LINE
5
198
100
AcDbEntity
8
0
100
AcDbLine
10
-29.468233097462662
20
-30.035237798586092
30
0
11
-26.999999943497947
21
-30.035237798586092
31
1.2325951644078309e-31
0
LINE
5
199
100
AcDbEntity
8
0
100
AcDbLine
10
-14.999999943497944
20
-42.03523774650418
30
5.3857529863004022e-16
11
-14.999999947918088
21
-41.016808960953448
31
4.9286691615570728e-16
0
LINE
5
200
100
AcDbEntity
8
0
100
AcDbLine
10
29.468233123503612
20
-30.035237798586095
30
2.1938596905880135e-15
11
27.000000004420144
21
-30.035237809298621
31
2.3449539851816368e-15
0
LINE
5
201
100
AcDbEntity
8
0
100
AcDbLine
10
15.000000056502065
20
-42.035237861380537
30
8.2130090768281693e-16
11
15.000000052081921
21
-41.016809065117272
31
1.0129556199797135e-15
0
LINE
5
202
100
AcDbEntity
8
0
100
AcDbLine
10
-29.468233123503612
20
30.035237798586103
30
2.1938596905880143e-15
11
-27.000841824071049
21
30.035237809294976
31
2.3449024527127856e-15
0
ARC
5
203
100
AcDbEntity
8
0
100
AcDbCircle
10
-27.000841876152968
20
42.035237809294969
30
-9.9168284094730564e-16
40
11.999999999999993
210
-6.1215570119379438e-17
220
2.7804877420598909e-16
230
1
100
AcDbArc
50
270.00000024867285
51
359.9984167783474
0
ARC
5
204
100
AcDbEntity
8
0
100
AcDbCircle
10
26.998969771598272
20
42.035318599849241
30
4.9242443422437605e-17
40
12
210
-1.3426863211875884e-22
220
-4.1035369496731512e-18
230
1
100
AcDbArc
50
180
51
269.99812526948506
0
ARC
5
205
100
AcDbEntity
8
0
100
AcDbCircle
10
-26.999999943497937
20
-42.035237798586081
30
5.3857530096754236e-16
40
11.999999999999993
210
-5.5179113354520499e-33
220
4.4881275080628549e-17
230
1
100
AcDbArc
50
0
51
90.000000000000057
0
ARC
5
206
100
AcDbEntity
8
0
100
AcDbCircle
10
27.000000056502063
20
-42.035237809298621
30
8.6714080731578548e-17
40
11.999999999999996
210
6.1215569729363439e-17
220
-1.8818665843848624e-16
230
1
100
AcDbArc
50
90.000000248672848
51
180
0
ARC
5
207
100
AcDbEntity
8
0
100
AcDbCircle
10
-2.9999969004079867
20
71.382829261492731
30
0
40
0.99999999999996547
210
-0
220
0
230
1
100
AcDbArc
50
-1.8899085273415407e-05
51
98.13010097125202
0
ARC
5
208
100
AcDbEntity
8
0
100
AcDbCircle
10
-12.499997086092874
20
72.499999934514477
30
0
40
3.499999999946946
210
0
220
-0
230
1
100
AcDbArc
50
89.999998928903139
51
179.99989942850854
0
CIRCLE
5
209
100
AcDbEntity
8
0
100
AcDbCircle
10
-12.499997086092874
20
72.499999934514477
30
0
40
1.4999999999999991
210
0
220
0
230
1
0
ARC
5
210
100
AcDbEntity
8
0
100
AcDbCircle
10
-5.9999967882527798
20
70.954257922829868
30
0
40
1.0000000000000089
210
0
220
0
230
1
100
AcDbArc
50
98.130100971252674
51
179.99998079483672
0
LINE
5
211
100
AcDbEntity
8
0
100
AcDbLine
10
-6.1414181205964553
20
71.944207419904416
30
0
11
-3.1414182327516507
21
72.372778758567279
31
0
0
LINE
5
212
100
AcDbEntity
8
0
100
AcDbLine
10
-8.6634769295024441
20
76.643402732854057
30
-3.0814879110195774e-32
11
-13.041457029832282
21
75.957863599981124
31
0
0
ARC
5
213
100
AcDbEntity
8
0
100
AcDbCircle
10
-0.00011782954052952909
20
21.317584084549651
30
1.5785342505970333e-15
40
55.999999999999631
210
-4.3607814473824905e-18
220
2.7848756352707096e-17
230
1
100
AcDbArc
50
81.100193270099751
51
98.899562421999605
0
ARC
5
214
100
AcDbEntity
8
0
100
AcDbCircle
10
6.000003214992045
20
70.954258606382595
30
0
40
0.9999999999999214
210
-0
220
0
230
1
100
AcDbArc
50
-2.6618027982733113e-05
51
81.86990548484475
0
ARC
5
215
100
AcDbEntity
8
0
100
AcDbCircle
10
3.0000030995919613
20
71.382829632614119
30
0
40
0.99999999999999756
210
0
220
-0
230
1
100
AcDbArc
50
81.869905484844438
51
179.99998110091468
0
CIRCLE
5
216
100
AcDbEntity
8
0
100
AcDbCircle
10
12.500002913907123
20
72.499999467160322
30
0
40
1.4999999999999991
210
0
220
0
230
1
0
ARC
5
217
100
AcDbEntity
8
0
100
AcDbCircle
10
12.500002913907123
20
72.499999467160322
30
0
40
3.4999442073409064
210
-2.1099943722586194e-16
220
1.4618526648862696e-19
230
1
100
AcDbArc
50
-0.039696899506171841
51
89.999998928903182
0
LINE
5
218
100
AcDbEntity
8
0
100
AcDbLine
10
8.6634771783749507
20
76.643365791984934
30
7.5560080181762254e-17
11
13.041468970383958
21
75.957805702937947
31
1.1374353922682261e-16
0
LINE
5
219
100
AcDbEntity
8
0
100
AcDbLine
10
6.1414244357880587
20
71.944208119392542
30
0
11
3.1414243203879746
21
72.372779145624023
31
0
0
LINE
5
220
100
AcDbEntity
8
0
100
AcDbLine
10
-15.999997086034428
20
72.500006078196918
30
0
11
-16.000006757401884
21
66.990316010147268
31
0
0
LINE
5
221
100
AcDbEntity
8
0
100
AcDbLine
10
-15.309041996893713
20
58.97217418487773
30
-7.0874221953450279e-31
11
-15.691130534863568
21
62.028926084389191
31
0
0
LINE
5
222
100
AcDbEntity
8
0
100
AcDbLine
10
-15.000165838049945
20
54.008596045387634
30
-4.4265264892450345e-17
11
-15.000841880734285
21
42.034906220096929
31
-2.5700380182514581e-16
0
ARC
5
223
100
AcDbEntity
8
0
100
AcDbCircle
10
23.999993242535162
20
66.990245796633758
30
0
40
39.999999999998664
210
0
220
0
230
1
100
AcDbArc
50
179.99989942850854
51
187.12491577545222
0
ARC
5
224
100
AcDbEntity
8
0
100
AcDbCircle
10
-55.000165774291702
20
54.010854472633184
30
-5.7272324462115556e-15
40
39.999999999997925
210
-1.4207518245283528e-16
220
-1.7759144519998407e-17
230
1
100
AcDbArc
50
-0.0032349587112022182
51
7.1249157754523589
0
LINE
5
225
100
AcDbEntity
8
0
100
AcDbLine
10
15.99994628120986
20
72.497574560411948
30
7.3848643530890506e-16
11
15.996128939036392
21
66.98788581476029
31
7.3848641357615512e-16
0
LINE
5
226
100
AcDbEntity
8
0
100
AcDbLine
10
15.302943305613081
20
58.99686259917145
30
7.3848640375322718e-16
11
15.683806625039303
21
62.026711630311354
31
7.3848640375322817e-16
0
LINE
5
227
100
AcDbEntity
8
0
100
AcDbLine
10
14.990621161325034
20
53.980017217990991
30
6.1847664660669732e-16
11
14.998969771598272
21
42.035318599849241
31
4.9240832198852181e-17
0
ARC
5
228
100
AcDbEntity
8
0
100
AcDbCircle
10
-24.003861460362383
20
67.015599476518219
30
7.3848767580324156e-16
40
39.99999999998802
210
3.1552936701685879e-23
220
-3.9663217622343123e-24
230
1
100
AcDbArc
50
352.83528675158067
51
359.96030310048468
0
ARC
5
229
100
AcDbEntity
8
0
100
AcDbCircle
10
54.990611391019996
20
54.007974752964863
30
-1.4460869489681517e-14
40
39.999999999993179
210
3.7701686988176112e-16
220
-4.7392426179342369e-17
230
1
100
AcDbArc
50
172.83528675158195
51
180.04004622224824
0
ENDSEC
0
SECTION
2
OBJECTS
0
DICTIONARY
5
C
100
AcDbDictionary
3
ACAD_GROUP
350
D
3
ACAD_MLINESTYLE
350
17
0
DICTIONARY
5
D
100
AcDbDictionary
0
DICTIONARY
5
1A
330
C
100
AcDbDictionary
0
DICTIONARY
5
17
100
AcDbDictionary
0
ENDSEC
0
EOF
