0
SECTION
2
HEADER
9
$INSUNITS
70
4
9
$ACADVER
1
AC1014
9
$HANDSEED
5
FFFF
0
ENDSEC
0
SECTION
2
TABLES
0
TABLE
2
VPORT
5
8
100
AcDbSymbolTable
0
ENDTAB
0
TABLE
2
LTYPE
5
5
100
AcDbSymbolTable
0
LTYPE
5
14
100
AcDbSymbolTableRecord
100
AcDbLinetypeTableRecord
2
BYBLOCK
70
0
0
LTYPE
5
15
100
AcDbSymbolTableRecord
100
AcDbLinetypeTableRecord
2
BYLAYER
70
0
0
ENDTAB
0
TABLE
2
LAYER
5
2
100
AcDbSymbolTable
70
2
0
LAYER
5
50
100
AcDbSymbolTableRecord
100
AcDbLayerTableRecord
2
0
70
0
6
CONTINUOUS
0
ENDTAB
0
TABLE
2
STYLE
5
3
100
AcDbSymbolTable
70
1
0
STYLE
5
11
100
AcDbSymbolTableRecord
100
AcDbTextStyleTableRecord
2
STANDARD
70
0
0
ENDTAB
0
TABLE
2
VIEW
5
6
100
AcDbSymbolTable
70
0
0
ENDTAB
0
TABLE
2
UCS
5
7
100
AcDbSymbolTable
70
0
0
ENDTAB
0
TABLE
2
APPID
5
9
100
AcDbSymbolTable
70
2
0
APPID
5
12
100
AcDbSymbolTableRecord
100
AcDbRegAppTableRecord
2
ACAD
70
0
0
ENDTAB
0
TABLE
2
DIMSTYLE
5
A
100
AcDbSymbolTable
70
1
0
ENDTAB
0
TABLE
2
BLOCK_RECORD
5
1
100
AcDbSymbolTable
70
1
0
BLOCK_RECORD
5
1F
100
AcDbSymbolTableRecord
100
AcDbBlockTableRecord
2
*MODEL_SPACE
0
BLOCK_RECORD
5
1B
100
AcDbSymbolTableRecord
100
AcDbBlockTableRecord
2
*PAPER_SPACE
0
ENDTAB
0
ENDSEC
0
SECTION
2
BLOCKS
0
BLOCK
5
20
100
AcDbEntity
100
AcDbBlockBegin
2
*MODEL_SPACE
0
ENDBLK
5
21
100
AcDbEntity
100
AcDbBlockEnd
0
BLOCK
5
1C
100
AcDbEntity
100
AcDbBlockBegin
2
*PAPER_SPACE
0
ENDBLK
5
1D
100
AcDbEntity
100
AcDbBlockEnd
0
ENDSEC
0
SECTION
2
ENTITIES
0
LWPOLYLINE
5
100
100
AcDbEntity
8
0
100
AcDbPolyline
90
8
70
1
43
0.0
10
3.0000012547316017
20
31.845100890718136
10
5.5000012547316048
20
33.288476563692207
42
-0.57735026918962584
10
7.0000012547316111
20
32.422451159907759
10
7.0000012547316164
20
25.309202505855886
42
-0.2679491924311202
10
6.0000012547316235
20
23.577151698287025
10
3.5000012547316222
20
22.133776025312958
42
-0.57735026918962207
10
2.0000012547316128
20
22.999801429097406
10
2.0000012547316111
20
30.113050083149275
42
-0.26794919243112175
0
ARC
5
101
100
AcDbEntity
8
0
100
AcDbCircle
10
-6.9999990531734646
20
41.463705375521215
30
0
40
1.9999994541286492
210
0
220
0
230
1
100
AcDbArc
50
180
51
239.99999999999983
0
LWPOLYLINE
5
102
100
AcDbEntity
8
0
100
AcDbPolyline
90
8
70
1
43
0.0
10
-11.000000000000004
20
50.000000000000007
42
-0.99999999999999989
10
-11.000000000000004
20
49.000000000000014
10
-11.000000000000004
20
46.000000000000007
42
-0.99999999999999989
10
-11.000000000000004
20
45.000000000000007
10
-12.500000000000002
20
45.000000000000007
42
-0.99999999999999989
10
-12.500000000000002
20
46.000000000000007
10
-12.500000000000002
20
49.000000000000014
42
-0.99999999999999989
10
-12.500000000000002
20
50.000000000000007
0
CIRCLE
5
103
100
AcDbEntity
8
0
100
AcDbCircle
10
12.500000171363354
20
-29.5
30
0
40
1.4999999999999991
210
0
220
0
230
1
0
ARC
5
104
100
AcDbEntity
8
0
100
AcDbCircle
10
8.0000015731308487
20
59.576953882392303
30
0
40
1.0000000000000075
210
0
220
0
230
1
100
AcDbArc
50
0
51
120.0000014040714
0
LWPOLYLINE
5
105
100
AcDbEntity
8
0
100
AcDbPolyline
90
8
70
1
43
0.0
10
12.499999999999998
20
62.000000000000014
10
10.999999999999998
20
62.000000000000014
42
-0.99999999999999989
10
10.999999999999998
20
63.000000000000007
10
10.999999999999998
20
66.000000000000014
42
-0.99999999999999989
10
10.999999999999998
20
67.000000000000014
10
12.499999999999998
20
67.000000000000014
42
-0.99999999999999989
10
12.499999999999998
20
66.000000000000014
10
12.499999999999998
20
63.000000000000007
42
-0.99999999999999989
0
ARC
5
106
100
AcDbEntity
8
0
100
AcDbCircle
10
5.0000000688096247
20
66.309005962333032
30
0
40
1.9999999999999598
210
0
220
0
230
1
100
AcDbArc
50
300.0000000242664
51
359.9999975851635
0
ARC
5
107
100
AcDbEntity
8
0
100
AcDbCircle
10
12.500002913907123
20
72.499999467160322
30
0
40
3.4999442073409064
210
-2.1099943722586194e-16
220
1.4618526648862696e-19
230
1
100
AcDbArc
50
-0.039696899506171841
51
89.999998928903182
0
LWPOLYLINE
5
108
100
AcDbEntity
8
0
100
AcDbPolyline
90
8
70
1
43
0.0
10
12.499999999999998
20
50.000000000000007
42
-0.99999999999999989
10
12.499999999999998
20
49.000000000000014
10
12.499999999999998
20
46.000000000000007
42
-0.99999999999999989
10
12.499999999999998
20
45.000000000000007
10
10.999999999999998
20
45.000000000000007
42
-0.99999999999999989
10
10.999999999999998
20
46.000000000000007
10
10.999999999999998
20
49.000000000000014
42
-0.99999999999999989
10
10.999999999999998
20
50.000000000000007
0
ARC
5
109
100
AcDbEntity
8
0
100
AcDbCircle
10
9.5819964756451519
20
-68.372339471377529
30
0
40
4.0000000000000338
210
0
220
0
230
1
100
AcDbArc
50
223.15238973400582
51
281.26878229493553
0
LINE
5
110
100
AcDbEntity
8
0
100
AcDbLine
10
6.6638476590848121
20
-71.10810398690289
30
0
11
2.9181489879237059
21
-67.112692070997724
31
0
0
LINE
5
111
100
AcDbEntity
8
0
100
AcDbLine
10
10.363643777977273
20
-72.295224569714861
30
0
11
12.183941560903889
21
-71.932524461045162
31
0
0
ARC
5
112
100
AcDbEntity
8
0
100
AcDbCircle
10
-2.9999987452683943
20
37.999603582614412
30
0
40
1.0000000000000049
210
0
220
0
230
1
100
AcDbArc
50
240.00000000000011
51
360
0
LINE
5
113
100
AcDbEntity
8
0
100
AcDbLine
10
3.0000017865631081
20
57.844903051014512
30
0
11
7.5000015519083068
21
60.442979273923925
31
0
0
ARC
5
114
100
AcDbEntity
8
0
100
AcDbCircle
10
-55.000165774291702
20
54.010854472633184
30
-5.7272324462115556e-15
40
39.999999999997925
210
-1.4207518245283528e-16
220
-1.7759144519998576e-17
230
1
100
AcDbArc
50
-0.0032349587112022182
51
7.1249157754523589
0
LINE
5
115
100
AcDbEntity
8
0
100
AcDbLine
10
-6.9999997292199456
20
70.954257840642228
30
0
11
-6.9999990740892502
21
66.309004531743739
31
0
0
CIRCLE
5
116
100
AcDbEntity
8
0
100
AcDbCircle
10
-10.000016395170812
20
-10.000011803910589
30
1.4600600475412851e-15
40
1.4999999999999991
210
0
220
-1.2246467991473532e-16
230
-1
0
LINE
5
117
100
AcDbEntity
8
0
100
AcDbLine
10
3.5000012844665438
20
37.133578264667314
30
0
11
8.0000010062964098
21
39.731654521428624
31
0
0
LINE
5
118
100
AcDbEntity
8
0
100
AcDbLine
10
2.0000018290082053
20
56.112852277194165
30
0
11
2.0000017853855621
21
37.999603653692617
31
0
0
ARC
5
119
100
AcDbEntity
8
0
100
AcDbCircle
10
4.0000018290081822
20
56.11285226795134
30
0
40
1.9999999999999749
210
0
220
0
230
1
100
AcDbArc
50
120.00000140407219
51
180
0
ARC
5
120
100
AcDbEntity
8
0
100
AcDbCircle
10
7.0000009468265665
20
41.463705294662546
30
0
40
1.9999999999999849
210
0
220
0
230
1
100
AcDbArc
50
300.00000196724693
51
360
0
ARC
5
121
100
AcDbEntity
8
0
100
AcDbCircle
10
3.0000012547316182
20
37.999603651284289
30
0
40
0.99999946934605566
210
0
220
0
230
1
100
AcDbArc
50
180
51
300.0000019672467
0
LWPOLYLINE
5
122
100
AcDbEntity
8
0
100
AcDbPolyline
90
8
70
1
43
0.0
10
-11.000000000000004
20
63.000000000000007
42
-0.99999999999999989
10
-11.000000000000004
20
62.000000000000014
10
-12.500000000000002
20
62.000000000000014
42
-0.99999999999999989
10
-12.500000000000002
20
63.000000000000007
10
-12.500000000000002
20
66.000000000000014
42
-0.99999999999999989
10
-12.500000000000002
20
67.000000000000014
10
-11.000000000000004
20
67.000000000000014
42
-0.99999999999999989
10
-11.000000000000004
20
66.000000000000014
0
ARC
5
123
100
AcDbEntity
8
0
100
AcDbCircle
10
-5.9999967882527798
20
70.954257922829868
30
0
40
1.0000000000000089
210
0
220
0
230
1
100
AcDbArc
50
98.130100971252674
51
179.99998079483672
0
LINE
5
124
100
AcDbEntity
8
0
100
AcDbLine
10
-3.5000000555896498
20
63.133578902614822
30
0
11
-5.999999073355716
21
64.576954007084112
31
0
0
ARC
5
125
100
AcDbEntity
8
0
100
AcDbCircle
10
2.9999999440435103
20
63.999604812129071
30
0
40
1.0000000000000042
210
0
220
0
230
1
100
AcDbArc
50
179.99999879258175
51
300.00000002426611
0
LINE
5
126
100
AcDbEntity
8
0
100
AcDbLine
10
6.1414244357880587
20
71.944208119392542
30
0
11
3.1414243203879746
21
72.372779145624023
31
0
0
ARC
5
127
100
AcDbEntity
8
0
100
AcDbCircle
10
6.000003214992045
20
70.954258606382595
30
0
40
0.9999999999999214
210
-0
220
0
230
1
100
AcDbArc
50
-2.6618027982733113e-05
51
81.86990548484475
0
CIRCLE
5
128
100
AcDbEntity
8
0
100
AcDbCircle
10
12.500002913907123
20
72.499999467160322
30
0
40
1.4999999999999991
210
0
220
0
230
1
0
ARC
5
129
100
AcDbEntity
8
0
100
AcDbCircle
10
23.999993242535162
20
66.990245796633758
30
0
40
39.999999999998664
210
0
220
0
230
1
100
AcDbArc
50
179.99989942850854
51
187.12491577545222
0
ARC
5
130
100
AcDbEntity
8
0
100
AcDbCircle
10
-4.9999990740893079
20
66.309004815076491
30
0
40
1.9999999999999631
210
0
220
0
230
1
100
AcDbArc
50
180.00000809960798
51
240.00000002426651
0
ARC
5
131
100
AcDbEntity
8
0
100
AcDbCircle
10
-7.9999984268691451
20
59.576954056683505
30
0
40
1.000000000000014
210
0
220
-0
230
1
100
AcDbArc
50
59.999999735213031
51
180
0
LINE
5
132
100
AcDbEntity
8
0
100
AcDbLine
10
9.0000015731308576
20
59.57695387566617
30
0
11
9.0000014926982033
21
41.463705285296086
31
0
0
CIRCLE
5
133
100
AcDbEntity
8
0
100
AcDbCircle
10
-10.000016395170812
20
-10.000011803910587
30
0
40
1.4999999999999991
210
0
220
0
230
1
0
LINE
5
134
100
AcDbEntity
8
0
100
AcDbLine
10
-3.4999987452683969
20
37.133578178829964
30
0
11
-7.999999053173461
21
39.731654567952354
31
0
0
LINE
5
135
100
AcDbEntity
8
0
100
AcDbLine
10
7.0000002740248419
20
70.954258961655583
30
0
11
7.0000000688095874
21
66.30900587524637
31
0
0
LINE
5
136
100
AcDbEntity
8
0
100
AcDbLine
10
1.9999999440435066
20
63.999604839683755
30
0
11
2.0000001506129705
21
71.382830015838209
31
0
0
LINE
5
137
100
AcDbEntity
8
0
100
AcDbLine
10
8.6634771783749507
20
76.643365791984934
30
7.5560080181762254e-17
11
13.041468970383958
21
75.957805702937947
31
1.1374353922682261e-16
0
ARC
5
138
100
AcDbEntity
8
0
100
AcDbCircle
10
-11.499999828636652
20
-68.5
30
0
40
3.5000000000000009
210
0
220
0
230
1
100
AcDbArc
50
180
51
258.73121770506452
0
ARC
5
139
100
AcDbEntity
8
0
100
AcDbCircle
10
3.0000030995919613
20
71.382829632614119
30
0
40
0.99999999999999756
210
0
220
-0
230
1
100
AcDbArc
50
81.869905484844438
51
179.99998110091468
0
ARC
5
140
100
AcDbEntity
8
0
100
AcDbCircle
10
1.7136335461742647e-07
20
-69.848456586523071
30
0
40
4.0000000000000302
210
0
220
-0
230
1
100
AcDbArc
50
43.152389734005588
51
136.84761026599421
0
ARC
5
141
100
AcDbEntity
8
0
100
AcDbCircle
10
-24.003861460362383
20
67.015599476518219
30
7.3848767580324156e-16
40
39.99999999998802
210
3.1552936701685879e-23
220
-3.9663217622342947e-24
230
1
100
AcDbArc
50
352.83528675158067
51
359.96030310048468
0
ARC
5
142
100
AcDbEntity
8
0
100
AcDbCircle
10
-9.5819961329184267
20
-68.372339471377629
30
0
40
3.9999999999999432
210
0
220
0
230
1
100
AcDbArc
50
258.73121770506441
51
316.84761026599529
0
LINE
5
143
100
AcDbEntity
8
0
100
AcDbLine
10
15.302943305613081
20
58.99686259917145
30
7.3848640375322718e-16
11
15.683806625039303
21
62.026711630311354
31
7.3848640375322817e-16
0
LINE
5
144
100
AcDbEntity
8
0
100
AcDbLine
10
-10.363643435250541
20
-72.29522456971489
30
0
11
-12.183941218177253
21
-71.932524461045148
31
0
0
CIRCLE
5
145
100
AcDbEntity
8
0
100
AcDbCircle
10
-10.49999982863665
20
-67.500000000000014
30
0
40
1.5000000000000002
210
0
220
0
230
1
0
ARC
5
146
100
AcDbEntity
8
0
100
AcDbCircle
10
11.500000171363356
20
-68.5
30
0
40
3.4999999999999969
210
0
220
0
230
1
100
AcDbArc
50
-78.731217705065603
51
0
0
LINE
5
147
100
AcDbEntity
8
0
100
AcDbLine
10
15.99994628120986
20
72.497574560411948
30
7.3848643530890506e-16
11
15.996128939036392
21
66.98788581476029
31
7.3848641357615512e-16
0
LINE
5
148
100
AcDbEntity
8
0
100
AcDbLine
10
-2.9181486451969896
20
-67.11269207099771
30
0
11
-6.6638473163580914
21
-71.108103986902876
31
0
0
CIRCLE
5
149
100
AcDbEntity
8
0
100
AcDbCircle
10
10.500000167023195
20
-67.500000004340166
30
3.68572784135494e-17
40
1.5000000000000013
210
0
220
0
230
1
0
ARC
5
150
100
AcDbEntity
8
0
100
AcDbCircle
10
54.990611391019996
20
54.007974752964863
30
-1.4460869489681517e-14
40
39.999999999993179
210
3.7701686988176117e-16
220
-4.7392426179342332e-17
230
1
100
AcDbArc
50
172.83528675158195
51
180.04004622224824
0
LINE
5
151
100
AcDbEntity
8
0
100
AcDbLine
10
-6.1414181205964553
20
71.944207419904416
30
0
11
-3.1414182327516507
21
72.372778758567279
31
0
0
LINE
5
152
100
AcDbEntity
8
0
100
AcDbLine
10
-15.999997086034428
20
72.500006078196918
30
0
11
-16.000006757401884
21
66.990316010147268
31
0
0
LINE
5
153
100
AcDbEntity
8
0
100
AcDbLine
10
-8.9999984268691477
20
59.576954063409644
30
0
11
-8.9999985073021129
21
41.46370538488771
31
0
0
CIRCLE
5
154
100
AcDbEntity
8
0
100
AcDbCircle
10
-12.499997086092874
20
72.499999934514477
30
0
40
1.4999999999999991
210
0
220
0
230
1
0
ARC
5
155
100
AcDbEntity
8
0
100
AcDbCircle
10
-12.499997086092874
20
72.499999934514477
30
0
40
3.499999999946946
210
0
220
-0
230
1
100
AcDbArc
50
89.999998928903139
51
179.99989942850854
0
ARC
5
156
100
AcDbEntity
8
0
100
AcDbCircle
10
-2.9999969004079867
20
71.382829261492731
30
0
40
0.99999999999996547
210
-0
220
0
230
1
100
AcDbArc
50
-1.8899085273415407e-05
51
98.13010097125202
0
LINE
5
157
100
AcDbEntity
8
0
100
AcDbLine
10
-2.9999981629872825
20
57.844903069033947
30
0
11
-7.4999984228668843
21
60.442979458157254
31
0
0
LINE
5
158
100
AcDbEntity
8
0
100
AcDbLine
10
-15.309041996893713
20
58.97217418487773
30
-7.0874221953450279e-31
11
-15.691130534863568
21
62.028926084389191
31
0
0
ARC
5
159
100
AcDbEntity
8
0
100
AcDbCircle
10
-0.00011782954052952909
20
21.317584084549651
30
1.5785342505970333e-15
40
55.999999999999631
210
-4.3607814473824905e-18
220
2.7848756352707096e-17
230
1
100
AcDbArc
50
81.100193270099751
51
98.899562421999605
0
LINE
5
160
100
AcDbEntity
8
0
100
AcDbLine
10
-8.6634769295024441
20
76.643402732854057
30
-3.0814879110195774e-32
11
-13.041457029832282
21
75.957863599981124
31
0
0
CIRCLE
5
161
100
AcDbEntity
8
0
100
AcDbCircle
10
-12.49999982863665
20
-29.5
30
0
40
1.5000000000000002
210
0
220
0
230
1
0
LINE
5
162
100
AcDbEntity
8
0
100
AcDbLine
10
3.4999999444102974
20
63.133579408556386
30
0
11
6.0000000695431783
21
64.576955155187719
31
0
0
ARC
5
163
100
AcDbEntity
8
0
100
AcDbCircle
10
-3.000000055956431
20
63.99960430661104
30
0
40
1.0000000000000175
210
0
220
0
230
1
100
AcDbArc
50
240.0000000242666
51
359.99999879258172
0
LINE
5
164
100
AcDbEntity
8
0
100
AcDbLine
10
-2.0000000559564262
20
63.999604279056335
30
0
11
-1.9999998493869617
21
71.38282947659539
31
0
0
LINE
5
165
100
AcDbEntity
8
0
100
AcDbLine
10
-1.999998170991796
20
56.112852256843659
30
0
11
-1.9999982146145998
21
37.99960358020607
31
0
0
ARC
5
166
100
AcDbEntity
8
0
100
AcDbCircle
10
-3.9999981709917765
20
56.112852266086492
30
0
40
1.9999999999999805
210
0
220
0
230
1
100
AcDbArc
50
0
51
59.999999735213123
0
CIRCLE
5
167
100
AcDbEntity
8
0
100
AcDbCircle
10
-12.500000000000004
20
29.5
30
0
40
1.4999999999999991
210
0
220
0
230
1
0
LWPOLYLINE
5
168
100
AcDbEntity
8
0
100
AcDbPolyline
90
8
70
1
43
0.0
10
-6.9999987452683872
20
32.422451159907759
42
-0.57735026918962584
10
-5.4999987452683801
20
33.288476563692207
10
-2.9999987452683752
20
31.845100890718136
42
-0.26794919243112203
10
-1.9999987452683878
20
30.113050083149275
10
-1.9999987452683849
20
22.999801429097403
42
-0.57735026918962229
10
-3.4999987452683978
20
22.133776025312962
10
-5.9999987452683987
20
23.577151698287029
42
-0.26794919243112236
10
-6.9999987452683872
20
25.309202505855886
0
CIRCLE
5
169
100
AcDbEntity
8
0
100
AcDbCircle
10
10.000016395170812
20
10.000011803910596
30
1.4600600475412855e-15
40
1.4999999999999991
210
1.4997597826618576e-32
220
1.2246467991473532e-16
230
-1
0
CIRCLE
5
170
100
AcDbEntity
8
0
100
AcDbCircle
10
12.5
20
29.5
30
0
40
1.4999999999999991
210
0
220
0
230
1
0
CIRCLE
5
171
100
AcDbEntity
8
0
100
AcDbCircle
10
10.000016395170812
20
10.000011803910589
30
0
40
1.4999999999999991
210
0
220
0
230
1
0
CIRCLE
5
172
100
AcDbEntity
8
0
100
AcDbCircle
10
27.845896727613308
20
22.865646462183079
30
0
40
1.4999999999999991
210
0
220
0
230
1
0
LINE
5
173
100
AcDbEntity
8
0
100
AcDbLine
10
26.995274512608454
20
29.865646462183083
30
0
11
27.845896727613308
21
29.865646462183083
31
0
0
ARC
5
174
100
AcDbEntity
8
0
100
AcDbCircle
10
60.328364955534397
20
-57.887799645765917
30
0
40
80.000000000001819
210
0
220
0
230
1
100
AcDbArc
50
113.18536144764569
51
117.23829635890807
0
LINE
5
175
100
AcDbEntity
8
0
100
AcDbLine
10
28.831799676518905
20
15.6510769816684
30
0
11
30.667192932968668
21
16.459377054669261
31
0
0
ARC
5
176
100
AcDbEntity
8
0
100
AcDbCircle
10
27.845896727613308
20
22.865646462183079
30
0
40
7.0000000000000009
210
0
220
0
230
1
100
AcDbArc
50
-66.231493425748056
51
90
0
ARC
5
177
100
AcDbEntity
8
0
100
AcDbCircle
10
-60.328364955534397
20
57.887799645765924
30
3.4199090376916863e-16
40
80.000000000001819
210
3.6977854932234928e-32
220
-1.2246467991473535e-16
230
-1
100
AcDbArc
50
293.18536144764568
51
297.23829635890809
0
LINE
5
178
100
AcDbEntity
8
0
100
AcDbLine
10
28.831799676518905
20
-15.6510769816684
30
1.5747132291117327e-15
11
30.667192932968668
21
-16.459377054669261
31
1.6737014388268405e-15
0
ARC
5
179
100
AcDbEntity
8
0
100
AcDbCircle
10
-27.845896727613308
20
-22.865646462183079
30
3.4199090376917011e-16
40
7.0000000000000009
210
-6.162975822039152e-33
220
-1.2246467991473535e-16
230
-1
100
AcDbArc
50
113.76850657425196
51
270
0
LINE
5
180
100
AcDbEntity
8
0
100
AcDbLine
10
26.999994661078759
20
-29.865646462183079
30
3.3154959306687287e-15
11
27.845896727613308
21
-29.865646462183083
31
3.3154959306687287e-15
0
LINE
5
181
100
AcDbEntity
8
0
100
AcDbLine
10
-27.000023165289928
20
29.865646462183083
30
-3.3065491946276697e-15
11
-27.845896727613308
21
29.865646462183083
31
-3.4101388296859391e-15
0
ARC
5
182
100
AcDbEntity
8
0
100
AcDbCircle
10
27.845896727613308
20
22.865646462183079
30
1.9721522630525295e-30
40
7.0000000000000009
210
1.224646799147353e-16
220
6.1629758220391525e-32
230
-1
100
AcDbArc
50
-66.231493425748056
51
90
0
ARC
5
183
100
AcDbEntity
8
0
100
AcDbCircle
10
60.328364955534397
20
-57.887799645765917
30
-9.8607613152626476e-31
40
80.000000000001819
210
1.2246467991473535e-16
220
0
230
-1
100
AcDbArc
50
113.18536144764569
51
117.23829635890807
0
LINE
5
184
100
AcDbEntity
8
0
100
AcDbLine
10
-28.831799676518905
20
15.6510769816684
30
-3.5308771187506566e-15
11
-30.667192932968668
21
16.459377054669261
31
-3.7556479664194414e-15
0
ARC
5
185
100
AcDbEntity
8
0
100
AcDbCircle
10
-60.328364955534397
20
57.887799645765924
30
4.3107854297365355e-17
40
80.000000000001819
210
-1.2246467991473542e-16
220
-1.2246467991473535e-16
230
1
100
AcDbArc
50
293.18536144764568
51
297.23829635890809
0
ARC
5
186
100
AcDbEntity
8
0
100
AcDbCircle
10
-27.845896727613308
20
-22.865646462183079
30
-5.8683820009515198e-15
40
7.0000000000000009
210
-1.224646799147353e-16
220
-1.2246467991473515e-16
230
1
100
AcDbArc
50
113.76850657425196
51
270
0
LINE
5
187
100
AcDbEntity
8
0
100
AcDbLine
10
-28.831799676518905
20
-15.6510769816684
30
-5.105590347862389e-15
11
-30.667192932968668
21
-16.459377054669261
31
-5.4293494052462822e-15
0
LINE
5
188
100
AcDbEntity
8
0
100
AcDbLine
10
-26.999999895266615
20
-29.865646462183079
30
-6.6220413259364295e-15
11
-27.845896727613308
21
-29.865646462183083
31
-6.7256347603546682e-15
0
LINE
5
189
100
AcDbEntity
8
0
100
AcDbLine
10
14.995275397552792
20
41.861037919727508
30
3.0765345521652792e-16
11
14.990621161325034
21
53.980017217990991
31
6.1847664660669732e-16
0
LINE
5
190
100
AcDbEntity
8
0
100
AcDbLine
10
-15.000023166118243
20
41.865787456185245
30
-9.4590727732233562e-16
11
-15.000165838049945
21
54.008596045387634
31
-4.4265264892450345e-17
0
LINE
5
191
100
AcDbEntity
8
0
100
AcDbLine
10
-14.999999893841686
20
-42.435237768566274
30
-7.9743900034370648e-16
11
-14.999999828636652
21
-68.5
31
0
0
LINE
5
192
100
AcDbEntity
8
0
100
AcDbLine
10
14.999999999999998
20
-42.435237798586094
30
-1.2369936447906994e-15
11
14.999999999999998
21
-68.501095236719905
31
0
0
LINE
5
193
100
AcDbEntity
8
0
100
AcDbLine
10
-14.999999893841686
20
-42.435237768566274
30
-7.9743900034370648e-16
11
-14.999999895266605
21
-41.865646432163281
31
-9.9478650694612555e-16
0
LINE
5
194
100
AcDbEntity
8
0
100
AcDbLine
10
14.999999999999998
20
-42.435237798586094
30
-1.2369936447906994e-15
11
14.999994661606008
21
-41.865758952275115
31
-1.0307382111898405e-15
0
ARC
5
195
100
AcDbEntity
8
0
100
AcDbCircle
10
34.62619493027907
20
3.3306690738754696e-15
30
2.0916025563450858e-15
40
18.000000000000025
210
-1.3012077644428157e-16
220
4.9529137818460364e-17
230
1
100
AcDbArc
50
154.61993707291089
51
205.38006292708934
0
ARC
5
196
100
AcDbEntity
8
0
100
AcDbCircle
10
-34.62619493027902
20
0
30
-5.89091506500711e-15
40
17.999999999999996
210
-2.1062006498968337e-16
220
-4.9529137818460271e-17
230
1
100
AcDbArc
50
-25.380062927089135
51
25.380062927089327
0
ARC
5
197
100
AcDbEntity
8
0
100
AcDbCircle
10
26.995274512608468
20
41.865646462183108
30
3.0777165344415514e-16
40
12.000000000000025
210
4.7365839569773568e-33
220
-2.5647637787012886e-17
230
1
100
AcDbArc
50
180.02200416989984
51
269.99999999999994
0
ARC
5
198
100
AcDbEntity
8
0
100
AcDbCircle
10
26.999994661078752
20
-41.865646462183072
30
-1.0306974692152112e-15
40
11.999999999999993
210
2.0424261365311283e-31
220
-3.6218278332366189e-16
230
1
100
AcDbArc
50
89.999999999999972
51
180.00053710030835
0
ARC
5
199
100
AcDbEntity
8
0
100
AcDbCircle
10
-26.999999895266605
20
-41.865646462183079
30
-2.4643761267251358e-15
40
12.000000000000002
210
-1.2246580251500277e-16
220
3.4647209993427438e-16
230
1
100
AcDbArc
50
0
51
90.000000000000057
0
ARC
5
200
100
AcDbEntity
8
0
100
AcDbCircle
10
-27.000023165289928
20
41.865646462183072
30
-2.4154939056519985e-15
40
11.999999999999989
210
-1.224646799147353e-16
220
-7.4254607414639304e-17
230
1
100
AcDbArc
50
-90
51
0.00067319659497688106
0
ARC
5
201
100
AcDbEntity
8
0
100
AcDbCircle
10
29.205287968163955
20
2.5717246563525298
30
1.0657881839212625e-15
40
12.00000000000006
210
-1.1699114311723958e-16
220
3.9668555933238993e-17
230
1
100
AcDbArc
50
117.2382963589082
51
154.61993707291086
0
ARC
5
202
100
AcDbEntity
8
0
100
AcDbCircle
10
29.205287968164061
20
-2.5717246563524245
30
-1.9268489420762625e-15
40
12.000000000000203
210
9.0152143443244489e-17
220
2.5411872478056099e-16
230
1
100
AcDbArc
50
205.38006292708971
51
242.76170364109174
0
ARC
5
203
100
AcDbEntity
8
0
100
AcDbCircle
10
-29.205287968163944
20
2.5717246563525196
30
-4.2227182286088884e-15
40
12.000000000000062
210
-1.8348101674774386e-16
220
-2.9147242847681224e-17
230
1
100
AcDbArc
50
25.380062927089444
51
62.761703641091856
0
ARC
5
204
100
AcDbEntity
8
0
100
AcDbCircle
10
-29.205287968163937
20
-2.571724656352532
30
-3.5190734351826647e-15
40
12.00000000000005
210
-1.2101747725698438e-16
220
-1.2457810813015475e-16
230
1
100
AcDbArc
50
297.2382963589082
51
334.61993707291083
0
CIRCLE
5
205
100
AcDbEntity
8
0
100
AcDbCircle
10
-27.845896727613308
20
22.865646462183079
30
-3.4101388296859391e-15
40
1.4999999999999991
210
0
220
0
230
1
0
CIRCLE
5
206
100
AcDbEntity
8
0
100
AcDbCircle
10
-27.845896727613308
20
-22.865646462183079
30
-5.8683820009515198e-15
40
1.4999999999999991
210
0
220
0
230
1
0
CIRCLE
5
207
100
AcDbEntity
8
0
100
AcDbCircle
10
27.845896727613308
20
-22.865646462183079
30
2.4582431712655815e-15
40
1.4999999999999991
210
0
220
0
230
1
0
LWPOLYLINE
5
208
100
AcDbEntity
8
0
100
AcDbPolyline
90
6
70
1
43
0.0
10
-3.7105433302402959
20
-12.635244665353474
42
0.66191505178256715
10
-2.8655128509369394
20
-14.27089690045619
42
-0.037757869586537547
10
2.8655128509369874
20
-14.270896900456183
42
0.66191505178256949
10
3.7105433302403585
20
-12.635244665353472
10
0.76962224638400867
20
-9.0903737158385596
42
0.46971161809764839
10
-0.76962224638394028
20
-9.0903737158385596
0
LWPOLYLINE
5
209
100
AcDbEntity
8
0
100
AcDbPolyline
90
6
70
1
43
0.0
10
2.8655128509369958
20
14.270896900456194
42
-0.037757869586537922
10
-2.8655128509369705
20
14.270896900456197
42
0.66191505178256715
10
-3.710543330240327
20
12.63524466535349
10
-0.76962224638397148
20
9.090373715838572
42
0.46971161809764861
10
0.76962224638397747
20
9.0903737158385702
10
3.7105433302403275
20
12.635244665353483
42
0.66191505178256993
0
LWPOLYLINE
5
210
100
AcDbEntity
8
0
100
AcDbPolyline
90
8
70
1
43
0.0
10
1.9975273269417191
20
-35.023446192210791
10
1.9975273269417839
20
-49.136694846262671
42
0.26794919243112214
10
2.9975273269417841
20
-50.868745653831539
10
7.4975273269416975
20
-53.466821865184798
42
0.57735026918963339
10
8.9975273269416984
20
-52.600796461400364
10
8.9975273269417038
20
-38.487547807348534
42
0.26794919243112336
10
7.9975273269417047
20
-36.755496999779659
10
3.4975273269417189
20
-34.15742078842635
42
0.57735026918962995
0
LWPOLYLINE
5
211
100
AcDbEntity
8
0
100
AcDbPolyline
90
8
70
1
43
0.0
10
-7.5024726730582856
20
-53.466821865184841
10
-3.0024726730582563
20
-50.868745653831553
42
0.26794919243112669
10
-2.0024726730582407
20
-49.136694846262657
10
-2.0024726730582949
20
-35.023446192210798
42
0.57735026918962651
10
-3.5024726730582967
20
-34.157420788426364
10
-8.0024726730582749
20
-36.755496999779687
42
0.26794919243111937
10
-9.0024726730582625
20
-38.487547807348562
10
-9.0024726730582785
20
-52.600796461400392
42
0.57735026918962262
0
LWPOLYLINE
5
212
100
AcDbEntity
8
0
100
AcDbPolyline
90
8
70
1
43
0.0
10
2.9978851888216869
20
-62.875088608184186
42
-0.26818865854964424
10
1.9963369490920382
20
-61.1421448461385
10
1.996336949092036
20
-57.027106774806064
42
-0.57735026918962529
10
3.4963369490920404
20
-56.161081371021623
10
5.998393837323035
20
-57.605644588969547
42
-0.27470159806455979
10
6.9977609698813055
20
-59.388005129649358
10
6.9964967725348117
20
-63.449404206999617
42
-0.57694869981998886
10
5.4976450862093094
20
-64.315348658431631
0
LWPOLYLINE
5
213
100
AcDbEntity
8
0
100
AcDbPolyline
90
8
70
1
43
0.0
10
6.9975273268096227
20
-29.446095923021144
42
-0.57735026918962207
10
5.4975273268096201
20
-30.312121326805585
10
2.9975273268096272
20
-28.868745653831525
42
-0.26794919243112092
10
1.9975273268096272
20
-27.136694846262642
10
1.9975273268096312
20
-23.02344619221078
42
-0.57735026918962173
10
3.497527326809633
20
-22.157420788426339
10
5.9975273268096281
20
-23.6007964614004
42
-0.26794919243112192
10
6.9975273268096299
20
-25.332847268969282
0
LWPOLYLINE
5
214
100
AcDbEntity
8
0
100
AcDbPolyline
90
8
70
1
43
0.0
10
-5.5024726730581932
20
-30.312121326805599
42
-0.57735026918962684
10
-7.0024726730581888
20
-29.446095923021165
10
-7.0024726730582119
20
-25.328084534065475
42
-0.2681886585496483
10
-6.0009244333285583
20
-23.595140772019789
10
-3.5016985531933873
20
-22.1551884008081
42
-0.57705242553366298
10
-2.0024726730582154
20
-23.021660281830933
10
-2.0024726730581879
20
-27.13669484626265
42
-0.26794919243112381
10
-3.0024726730581874
20
-28.868745653831532
0
LWPOLYLINE
5
215
100
AcDbEntity
8
0
100
AcDbPolyline
90
8
70
1
43
0.0
10
-7.0036630509079547
20
-63.446783187993191
10
-7.0036630509079583
20
-59.33174511666077
42
-0.26818865854964447
10
-6.002114811178318
20
-57.598801354615084
10
-3.5023549137906897
20
-56.158541304367631
42
-0.57694955143090254
10
-2.0025115398210667
20
-57.025061248330275
10
-2.0012426519906832
20
-61.135276392816735
42
-0.26803191425435169
10
-3.0013211619713012
20
-62.868080828595573
10
-5.5036630509079574
20
-64.312808591777639
42
-0.57735026918962939
0
ENDSEC
0
SECTION
2
OBJECTS
0
DICTIONARY
5
C
100
AcDbDictionary
3
ACAD_GROUP
350
D
3
ACAD_MLINESTYLE
350
17
0
DICTIONARY
5
D
100
AcDbDictionary
0
DICTIONARY
5
1A
330
C
100
AcDbDictionary
0
DICTIONARY
5
17
100
AcDbDictionary
0
ENDSEC
0
EOF
