0
SECTION
2
HEADER
9
$INSUNITS
70
4
9
$ACADVER
1
AC1014
9
$HANDSEED
5
FFFF
0
ENDSEC
0
SECTION
2
TABLES
0
TABLE
2
VPORT
5
8
100
AcDbSymbolTable
0
ENDTAB
0
TABLE
2
LTYPE
5
5
100
AcDbSymbolTable
0
LTYPE
5
14
100
AcDbSymbolTableRecord
100
AcDbLinetypeTableRecord
2
BYBLOCK
70
0
0
LTYPE
5
15
100
AcDbSymbolTableRecord
100
AcDbLinetypeTableRecord
2
BYLAYER
70
0
0
ENDTAB
0
TABLE
2
LAYER
5
2
100
AcDbSymbolTable
70
2
0
LAYER
5
50
100
AcDbSymbolTableRecord
100
AcDbLayerTableRecord
2
0
70
0
6
CONTINUOUS
0
ENDTAB
0
TABLE
2
STYLE
5
3
100
AcDbSymbolTable
70
1
0
STYLE
5
11
100
AcDbSymbolTableRecord
100
AcDbTextStyleTableRecord
2
STANDARD
70
0
0
ENDTAB
0
TABLE
2
VIEW
5
6
100
AcDbSymbolTable
70
0
0
ENDTAB
0
TABLE
2
UCS
5
7
100
AcDbSymbolTable
70
0
0
ENDTAB
0
TABLE
2
APPID
5
9
100
AcDbSymbolTable
70
2
0
APPID
5
12
100
AcDbSymbolTableRecord
100
AcDbRegAppTableRecord
2
ACAD
70
0
0
ENDTAB
0
TABLE
2
DIMSTYLE
5
A
100
AcDbSymbolTable
70
1
0
ENDTAB
0
TABLE
2
BLOCK_RECORD
5
1
100
AcDbSymbolTable
70
1
0
BLOCK_RECORD
5
1F
100
AcDbSymbolTableRecord
100
AcDbBlockTableRecord
2
*MODEL_SPACE
0
BLOCK_RECORD
5
1B
100
AcDbSymbolTableRecord
100
AcDbBlockTableRecord
2
*PAPER_SPACE
0
ENDTAB
0
ENDSEC
0
SECTION
2
BLOCKS
0
BLOCK
5
20
100
AcDbEntity
100
AcDbBlockBegin
2
*MODEL_SPACE
0
ENDBLK
5
21
100
AcDbEntity
100
AcDbBlockEnd
0
BLOCK
5
1C
100
AcDbEntity
100
AcDbBlockBegin
2
*PAPER_SPACE
0
ENDBLK
5
1D
100
AcDbEntity
100
AcDbBlockEnd
0
ENDSEC
0
SECTION
2
ENTITIES
0
CIRCLE
5
100
100
AcDbEntity
8
0
100
AcDbCircle
10
-10.000016395170812
20
-10.000011803910589
30
1.4600600475412851e-15
40
1.4999999999999991
210
0
220
-1.2246467991473532e-16
230
-1
0
ARC
5
101
100
AcDbEntity
8
0
100
AcDbCircle
10
34.638379202152173
20
1.1102230246251565e-15
30
4.815437910503621e-15
40
17.999999999999972
210
-5.0630830700816391e-16
220
-3.445187378841506e-17
230
1
100
AcDbArc
50
152.14374344898468
51
207.85625655101526
0
LINE
5
102
100
AcDbEntity
8
0
100
AcDbLine
10
24.614701021481306
20
-13.836733332169013
30
-1.1025827662413941e-15
11
30.617070994646763
21
-16.403969417718571
31
-7.8818702075900985e-16
0
ARC
5
103
100
AcDbEntity
8
0
100
AcDbCircle
10
29.333643472800574
20
-2.8035297112284518
30
-2.3105388220163869e-15
40
11.999999999999957
210
-2.2349180848423999e-16
220
2.0507199142586873e-16
230
1
100
AcDbArc
50
207.85625655101518
51
246.84342319784875
0
LINE
5
104
100
AcDbEntity
8
0
100
AcDbLine
10
24.614701021481306
20
13.836733332169015
30
0
11
30.617070994646763
21
16.403969417718571
31
0
0
ARC
5
105
100
AcDbEntity
8
0
100
AcDbCircle
10
29.333643472800549
20
2.8035297112284727
30
-3.4814763000020296e-16
40
11.999999999999932
210
-3.3868858541850298e-16
220
-1.7641291146069835e-16
230
1
100
AcDbArc
50
113.15657680215114
51
152.14374344898476
0
CIRCLE
5
106
100
AcDbEntity
8
0
100
AcDbCircle
10
10.000016395170812
20
10.000011803910589
30
0
40
1.4999999999999991
210
0
220
0
230
1
0
ARC
5
107
100
AcDbEntity
8
0
100
AcDbCircle
10
-29.333643472800613
20
2.8035297112283963
30
-4.7420544542405218e-16
40
12.000000000000028
210
1.9809319476966361e-16
220
-1.637750624955276e-16
230
1
100
AcDbArc
50
27.856256551015406
51
66.843423197848722
0
LWPOLYLINE
5
108
100
AcDbEntity
8
0
100
AcDbPolyline
90
12
70
1
43
0.0
10
7.0000000000000009
20
-41.041451884327387
42
-0.26794919243112336
10
8.0000000000000036
20
-42.773502691896262
10
7.9999999999999982
20
-50.46410161513775
42
-0.26794919243112603
10
7.0000000000000036
20
-52.196152422706625
10
1.5000000000000002
20
-55.371578903249564
42
-0.26794919243112481
10
-1.5000000000000002
20
-55.371578903249564
10
-7.0000000000000053
20
-52.196152422706625
42
-0.26794919243112603
10
-8
20
-50.46410161513775
10
-8.0000000000000036
20
-42.773502691896262
42
-0.26794919243112336
10
-7.0000000000000009
20
-41.041451884327387
10
-1.4999999999999991
20
-37.866025403784441
42
-0.26794919243112203
10
1.5000000000000013
20
-37.866025403784441
0
LINE
5
109
100
AcDbEntity
8
0
100
AcDbLine
10
14.994414419839366
20
41.834416681397563
30
3.6833461016011024e-16
11
14.990621161325034
21
49.980017217990991
31
6.1847664660669732e-16
0
ARC
5
110
100
AcDbEntity
8
0
100
AcDbCircle
10
1.7136335461742647e-07
20
-67.848456586523071
30
0
40
4.0000000000000302
210
0
220
-0
230
1
100
AcDbArc
50
43.152389734005737
51
136.84761026599421
0
CIRCLE
5
111
100
AcDbEntity
8
0
100
AcDbCircle
10
12.500000171363354
20
-27.5
30
0
40
1.4999999999999991
210
0
220
0
230
1
0
ARC
5
112
100
AcDbEntity
8
0
100
AcDbCircle
10
11.500000171363356
20
-66.5
30
0
40
3.4999999999999969
210
0
220
0
230
1
100
AcDbArc
50
-78.731217705065603
51
0
0
CIRCLE
5
113
100
AcDbEntity
8
0
100
AcDbCircle
10
10.000000171363352
20
-36.499999999999993
30
0
40
1.0000000000000009
210
0
220
0
230
1
0
CIRCLE
5
114
100
AcDbEntity
8
0
100
AcDbCircle
10
-12.49999982863665
20
-27.5
30
0
40
1.5000000000000002
210
0
220
0
230
1
0
CIRCLE
5
115
100
AcDbEntity
8
0
100
AcDbCircle
10
10.000000171363352
20
-56.499999999999993
30
0
40
1.0000000000000009
210
0
220
0
230
1
0
ARC
5
116
100
AcDbEntity
8
0
100
AcDbCircle
10
27.000000056092752
20
-41.840004863267247
30
5.7664625428852073e-16
40
12.000000000000002
210
1.0849081027907939e-31
220
-2.3383875426218896e-17
230
1
100
AcDbArc
50
90.000000000000057
51
180
0
LINE
5
117
100
AcDbEntity
8
0
100
AcDbLine
10
-14.994414281932629
20
41.834416543362295
30
7.977659399460492e-17
11
-14.990620912452531
21
49.980054158860113
31
-9.359500081056773e-16
0
LINE
5
118
100
AcDbEntity
8
0
100
AcDbLine
10
10.363643777977273
20
-70.295224569714861
30
0
11
12.183941560903889
21
-69.932524461045162
31
0
0
LINE
5
119
100
AcDbEntity
8
0
100
AcDbLine
10
-27.86435456471051
20
-29.840004863267243
30
0
11
-26.999999943907223
21
-29.840004863267239
31
0
0
ARC
5
120
100
AcDbEntity
8
0
100
AcDbCircle
10
-26.99441298071093
20
41.840004863267254
30
-1.3904965642220781e-15
40
12.000000000000011
210
-1.2246467991473539e-16
220
1.2475280682092525e-16
230
1
100
AcDbArc
50
270.00000000000011
51
359.97331773694378
0
LINE
5
121
100
AcDbEntity
8
0
100
AcDbLine
10
-14.999999943907232
20
-41.840004807174495
30
0
11
-14.999999828636652
21
-66.500000008755791
31
0
0
ARC
5
122
100
AcDbEntity
8
0
100
AcDbCircle
10
12.50000266503462
20
68.500036408029445
30
-4.1458280618349442e-15
40
3.4999442073409086
210
3.3346411714059699e-16
220
1.4618526648862674e-19
230
-1
100
AcDbArc
50
-0.03969689951533184
51
89.999998928903182
0
LWPOLYLINE
5
123
100
AcDbEntity
8
0
100
AcDbPolyline
90
8
70
1
43
0.0
10
-2.0000001016006177
20
59.767949212340824
42
-0.57735027007723716
10
-3.500000101977625
20
58.901923806546542
10
-7.0000001078249685
20
60.922649753432381
42
-0.267949191717616
10
-8.0000001073677183
20
62.654700556624917
10
-8.0000001196433068
20
66.594635241239033
42
-0.38887873256818134
10
-7.0871558623909658
20
67.590829941815741
10
-3.0871558618824579
20
67.940784595963933
42
-0.44001053025065928
10
-2.0000001191347918
20
66.944589900020873
0
CIRCLE
5
124
100
AcDbEntity
8
0
100
AcDbCircle
10
-9.999999828636648
20
-36.499999999999993
30
0
40
0.99999999999999978
210
0
220
0
230
1
0
CIRCLE
5
125
100
AcDbEntity
8
0
100
AcDbCircle
10
12.5
20
27.5
30
0
40
1.4999999999999991
210
0
220
0
230
1
0
CIRCLE
5
126
100
AcDbEntity
8
0
100
AcDbCircle
10
-9.999999828636648
20
-56.499999999999993
30
0
40
0.99999999999999978
210
0
220
0
230
1
0
ARC
5
127
100
AcDbEntity
8
0
100
AcDbCircle
10
-11.499999828636652
20
-66.5
30
0
40
3.5000000000000009
210
0
220
0
230
1
100
AcDbArc
50
180
51
258.73121770506452
0
LINE
5
128
100
AcDbEntity
8
0
100
AcDbLine
10
-15.302943056740578
20
54.996899540040559
30
-1.0942081966827267e-15
11
-15.683806376166803
21
58.026748571180477
31
-1.1408505011875235e-15
0
LINE
5
129
100
AcDbEntity
8
0
100
AcDbLine
10
-8.6637128373771599
20
72.643365791482012
30
-3.0814879110195774e-32
11
-13.041468721511437
21
71.957842643807069
31
-1.9251461519774623e-16
0
CIRCLE
5
130
100
AcDbEntity
8
0
100
AcDbCircle
10
-12.500000000000004
20
27.5
30
0
40
1.4999999999999991
210
0
220
0
230
1
0
ARC
5
131
100
AcDbEntity
8
0
100
AcDbCircle
10
-9.5819961329184267
20
-66.372339471377629
30
0
40
3.9999999999999432
210
0
220
0
230
1
100
AcDbArc
50
258.73121770506441
51
316.84761026599529
0
CIRCLE
5
132
100
AcDbEntity
8
0
100
AcDbCircle
10
-10.49999982863665
20
-65.5
30
0
40
1.5000000000000002
210
0
220
0
230
1
0
ARC
5
133
100
AcDbEntity
8
0
100
AcDbCircle
10
-26.99999994390723
20
-41.840004863267239
30
0
40
12
210
0
220
-0
230
1
100
AcDbArc
50
0
51
89.999999999999972
0
LINE
5
134
100
AcDbEntity
8
0
100
AcDbLine
10
-10.363643435250541
20
-70.29522456971489
30
0
11
-12.183941218177253
21
-69.932524461045148
31
0
0
LINE
5
135
100
AcDbEntity
8
0
100
AcDbLine
10
-27.864354564710506
20
29.840004863267247
30
0
11
-26.994412980710912
21
29.840004863267247
31
1.0653711762902824e-16
0
ARC
5
136
100
AcDbEntity
8
0
100
AcDbCircle
10
54.990611142147486
20
50.008011693833978
30
2.3831693631726622e-15
40
39.999999999993179
210
-2.5455218996702583e-16
220
-4.7392426179342196e-17
230
-1
100
AcDbArc
50
172.835286751582
51
180.04004622224824
0
ARC
5
137
100
AcDbEntity
8
0
100
AcDbCircle
10
-24.003861460362383
20
63.015599476518211
30
7.3848767580324156e-16
40
39.99999999998802
210
3.1552936701685879e-23
220
-3.9663217622342895e-24
230
1
100
AcDbArc
50
352.83528675158067
51
359.96030310048468
0
ARC
5
138
100
AcDbEntity
8
0
100
AcDbCircle
10
-0.00011782954052952909
20
17.317584084549647
30
1.5785342505970333e-15
40
55.999999999999631
210
-4.3607814473824905e-18
220
2.7848756352707096e-17
230
1
100
AcDbArc
50
81.100193270099751
51
98.899806729900149
0
CIRCLE
5
139
100
AcDbEntity
8
0
100
AcDbCircle
10
-27.86435456471051
20
-22.840004863267247
30
0
40
1.4999999999999991
210
0
220
0
230
1
0
CIRCLE
5
140
100
AcDbEntity
8
0
100
AcDbCircle
10
27.864354564710506
20
22.84000486326725
30
-3.4123992627979663e-15
40
1.4999999999999991
210
1.2246467991473532e-16
220
0
230
-1
0
LINE
5
141
100
AcDbEntity
8
0
100
AcDbLine
10
-2.9181486451969896
20
-65.11269207099771
30
0
11
-6.6638473163580914
21
-69.108103986902876
31
0
0
ARC
5
142
100
AcDbEntity
8
0
100
AcDbCircle
10
5.9999998932258327
20
62.654700552885949
30
0
40
1.9999999999999873
210
-0
220
0
230
1
100
AcDbArc
50
-60.000000024942807
51
0
0
ARC
5
143
100
AcDbEntity
8
0
100
AcDbCircle
10
-24.003861709234883
20
63.015636417387327
30
-7.7986156179703385e-16
40
39.99999999998802
210
1.2246464836179859e-16
220
-3.9663217356588778e-24
230
-1
100
AcDbArc
50
352.83528675158067
51
359.96030310049389
0
LINE
5
144
100
AcDbEntity
8
0
100
AcDbLine
10
1.9999998983993827
20
59.76794920949574
30
0
11
1.9999998804507879
21
66.944589901471517
31
0
0
LINE
5
145
100
AcDbEntity
8
0
100
AcDbLine
10
3.0871556245149745
20
67.940784601949076
30
0
11
7.0871556246022305
21
67.59082994251105
31
0
0
LINE
5
146
100
AcDbEntity
8
0
100
AcDbLine
10
7.9999998932258194
20
62.654700558022768
30
0
11
7.9999998818222497
21
66.594635247102886
31
0
0
CIRCLE
5
147
100
AcDbEntity
8
0
100
AcDbCircle
10
12.500002913907123
20
68.499999467160322
30
0
40
1.4999999999999991
210
0
220
0
230
1
0
LINE
5
148
100
AcDbEntity
8
0
100
AcDbLine
10
3.4999998980223723
20
58.901923807954226
30
0
11
6.9999998924718065
21
60.922649744881745
31
0
0
CIRCLE
5
149
100
AcDbEntity
8
0
100
AcDbCircle
10
-12.499997086092874
20
68.499999934514477
30
0
40
1.4999999999999991
210
0
220
0
230
1
0
ARC
5
150
100
AcDbEntity
8
0
100
AcDbCircle
10
54.990611391019996
20
50.007974752964863
30
-1.4460869489681517e-14
40
39.999999999993179
210
3.7701686988176117e-16
220
-4.7392426179342332e-17
230
1
100
AcDbArc
50
172.835286751582
51
180.04004622224824
0
ARC
5
151
100
AcDbEntity
8
0
100
AcDbCircle
10
12.500002913907123
20
68.499999467160322
30
0
40
3.4999442073409064
210
-2.1099943722586194e-16
220
1.4618526648862696e-19
230
1
100
AcDbArc
50
-0.039696899506171841
51
89.999998928903182
0
ARC
5
152
100
AcDbEntity
8
0
100
AcDbCircle
10
6.9999998805380432
20
66.594635244534487
30
0
40
1.0000000012842059
210
0
220
-0
230
1
100
AcDbArc
50
0
51
84.999999924280303
0
ARC
5
153
100
AcDbEntity
8
0
100
AcDbCircle
10
2.9999998983993885
20
59.767949211956342
30
0
40
1.0000000000000058
210
0
220
0
230
1
100
AcDbArc
50
180
51
299.99999997505665
0
ARC
5
154
100
AcDbEntity
8
0
100
AcDbCircle
10
2.9999998804507961
20
66.944589903972499
30
0
40
1.0000000000000084
210
0
220
-0
230
1
100
AcDbArc
50
84.999999924280871
51
180
0
LINE
5
155
100
AcDbEntity
8
0
100
AcDbLine
10
15.302943305613081
20
54.996862599171443
30
7.3848640375322718e-16
11
15.683806625039303
21
58.026711630311354
31
7.3848640375322817e-16
0
LINE
5
156
100
AcDbEntity
8
0
100
AcDbLine
10
15.99994628120986
20
68.497574560411948
30
7.3848643530890506e-16
11
15.996128939036392
21
62.987885814760283
31
7.3848641357615512e-16
0
LINE
5
157
100
AcDbEntity
8
0
100
AcDbLine
10
-15.999946032337359
20
68.497611501281057
30
-1.1795664745444823e-15
11
-15.996128690163886
21
62.987922755629398
31
-1.1790989632243324e-15
0
LINE
5
158
100
AcDbEntity
8
0
100
AcDbLine
10
8.6634771783749507
20
72.643365791984934
30
7.5560080181762254e-17
11
13.041468970383958
21
71.957805702937947
31
1.1374353922682261e-16
0
ARC
5
159
100
AcDbEntity
8
0
100
AcDbCircle
10
-27.864354564710506
20
-22.84000486326725
30
2.7970938848310212e-15
40
7
210
6.1629758220391547e-33
220
-1.224646799147353e-16
230
-1
100
AcDbArc
50
113.15657680215128
51
270
0
LINE
5
160
100
AcDbEntity
8
0
100
AcDbLine
10
15.000000056092748
20
-41.840004919360013
30
5.7664625297685576e-16
11
15.000000171363354
21
-66.5
31
0
0
LINE
5
161
100
AcDbEntity
8
0
100
AcDbLine
10
27.864354564710506
20
-29.840004863267247
30
8.5725275940314732e-16
11
27.000000056092741
21
-29.840004863267247
31
8.5725275940314742e-16
0
CIRCLE
5
162
100
AcDbEntity
8
0
100
AcDbCircle
10
-27.864354564710506
20
-22.84000486326725
30
2.7970938848310216e-15
40
1.4999999999999991
210
0
220
-1.2246467991473532e-16
230
-1
0
LINE
5
163
100
AcDbEntity
8
0
100
AcDbLine
10
27.864354564710506
20
29.840004863267247
30
0
11
26.994413118681948
21
29.840004863267247
31
0
0
CIRCLE
5
164
100
AcDbEntity
8
0
100
AcDbCircle
10
27.864354564710506
20
22.84000486326725
30
0
40
1.4999999999999991
210
0
220
0
230
1
0
CIRCLE
5
165
100
AcDbEntity
8
0
100
AcDbCircle
10
10.500000167023195
20
-65.500000004340166
30
3.68572784135494e-17
40
1.5000000000000013
210
0
220
0
230
1
0
ARC
5
166
100
AcDbEntity
8
0
100
AcDbCircle
10
26.994413118681962
20
41.840004863267275
30
3.6850621680674671e-16
40
12.000000000000027
210
-1.0378956840924335e-32
220
-3.0708851400562154e-17
230
1
100
AcDbArc
50
180.02668160398019
51
269.99999999999994
0
ARC
5
167
100
AcDbEntity
8
0
100
AcDbCircle
10
-27.86435456471051
20
-22.840004863267247
30
0
40
6.9999999999999982
210
0
220
0
230
1
100
AcDbArc
50
113.15657680215125
51
270
0
ARC
5
168
100
AcDbEntity
8
0
100
AcDbCircle
10
9.5819964756451519
20
-66.372339471377529
30
0
40
4.0000000000000338
210
0
220
0
230
1
100
AcDbArc
50
223.15238973400582
51
281.26878229493553
0
LINE
5
169
100
AcDbEntity
8
0
100
AcDbLine
10
6.6638476590848121
20
-69.10810398690289
30
0
11
2.9181489879237059
21
-65.11269207099771
31
0
0
ARC
5
170
100
AcDbEntity
8
0
100
AcDbCircle
10
27.864354564710506
20
22.84000486326725
30
0
40
7
210
-0
220
0
230
1
100
AcDbArc
50
-66.843423197848708
51
90
0
ARC
5
171
100
AcDbEntity
8
0
100
AcDbCircle
10
-29.333643472800617
20
-2.8035297112283941
30
-1.5118084918590109e-16
40
12.000000000000028
210
2.2483294602754286e-16
220
1.0986424471944212e-16
230
1
100
AcDbArc
50
293.15657680215128
51
332.14374344898459
0
ARC
5
172
100
AcDbEntity
8
0
100
AcDbCircle
10
27.864354564710506
20
22.84000486326725
30
-3.4123992627979683e-15
40
7
210
1.2246467991473539e-16
220
0
230
-1
100
AcDbArc
50
-66.843423197848708
51
90
0
CIRCLE
5
173
100
AcDbEntity
8
0
100
AcDbCircle
10
10.000016395170812
20
10.000011803910596
30
1.4600600475412855e-15
40
1.4999999999999991
210
1.4997597826618576e-32
220
1.2246467991473532e-16
230
-1
0
ARC
5
174
100
AcDbEntity
8
0
100
AcDbCircle
10
-34.638379202152151
20
2.2204460492503131e-15
30
4.1471437034419886e-15
40
17.999999999999957
210
3.7301213077263949e-16
220
-1.5632150503925384e-17
230
1
100
AcDbArc
50
-27.856256551015377
51
27.856256551015363
0
LINE
5
175
100
AcDbEntity
8
0
100
AcDbLine
10
-24.614701021481309
20
-13.836733332169013
30
0
11
-30.617070994646763
21
-16.403969417718564
31
0
0
LINE
5
176
100
AcDbEntity
8
0
100
AcDbLine
10
-24.614701021481306
20
13.836733332169015
30
3.9796778100534928e-16
11
-30.617070994646763
21
16.403969417718571
31
-3.371105364881766e-16
0
CIRCLE
5
177
100
AcDbEntity
8
0
100
AcDbCircle
10
-10.000016395170812
20
-10.000011803910587
30
0
40
1.4999999999999991
210
0
220
0
230
1
0
LWPOLYLINE
5
178
100
AcDbEntity
8
0
100
AcDbPolyline
90
8
70
1
43
0.0
10
7.999999886169511
20
36.65470054494817
42
-0.26794919310887422
10
6.9999998927398455
20
34.922649744947201
10
3.4999998988089791
20
32.901923807121477
42
-0.57735026836944026
10
1.9999998961410081
20
33.767949210609032
10
1.9999998566803832
20
51.881197875777083
42
-0.26794919291972952
10
2.9999998516617579
20
53.613248679602052
10
6.4999998445113407
20
55.633974619300595
42
-0.57735026855883353
10
7.9999998449810183
20
54.767949217788143
0
LWPOLYLINE
5
179
100
AcDbEntity
8
0
100
AcDbPolyline
90
8
70
1
43
0.0
10
-7.0000001072245199
20
34.922649752341883
10
-3.5000001014596456
20
32.90192380531321
42
0.57734970561256727
10
-2.000034159834863
20
33.767927854256143
10
-2.0000001433411683
20
51.881191279172363
42
0.26794964564571949
10
-3.0000029099101635
20
53.613250260163895
10
-6.5000001554260214
20
55.633974610506975
42
0.57735104195897835
10
-8.0000001551516053
20
54.767946887927145
10
-7.9999535232382684
20
36.654615237646837
42
0.26794857104782882
0
LINE
5
180
100
AcDbEntity
8
0
100
AcDbLine
10
2.0122208086510014
20
17.900793834845889
30
0
11
2.0163703381103666
21
12.680050851364737
31
0
0
LINE
5
181
100
AcDbEntity
8
0
100
AcDbLine
10
3.5178789257245451
20
11.815693186537185
30
0
11
7.0143510260127275
21
13.842517334318597
31
0
0
ARC
5
182
100
AcDbEntity
8
0
100
AcDbCircle
10
7.0006637136537986
20
20.766799361083525
30
0
40
1.0013277376579197
210
0
220
-0
230
1
100
AcDbArc
50
0.10306821153761145
51
120.00000007904806
0
LINE
5
183
100
AcDbEntity
8
0
100
AcDbLine
10
8.0113299492470187
20
15.576420030862472
30
0
11
8.0019898311799071
21
20.768600628197795
31
0
0
LWPOLYLINE
5
184
100
AcDbEntity
8
0
100
AcDbPolyline
90
8
70
1
43
0.0
10
-6.5000001554260214
20
21.633974610506968
10
-3.0000029099101639
20
19.613250260163898
42
-0.26748260418737041
10
-1.992712342696739
20
17.872075000094309
10
-1.9836564122286897
20
12.67210811769905
42
-0.57734970561844723
10
-3.4821104354236603
20
11.803490607128781
10
-6.9856277022813931
20
13.818112197979357
42
-0.26794857104310227
10
-7.9885988037233568
20
15.548331908260671
10
-7.9977091505056688
20
20.767528161466593
42
-0.57793226380289886
0
ARC
5
185
100
AcDbEntity
8
0
100
AcDbCircle
10
6.0113331994343264
20
15.57282227353741
30
0
40
1.9999999857797706
210
-0
220
0
230
1
100
AcDbArc
50
-59.90012055196064
51
0.10306821153761145
0
LINE
5
186
100
AcDbEntity
8
0
100
AcDbLine
10
6.4999998436284407
20
21.633974618718543
30
0
11
2.999999851956765
21
19.613248674924858
31
0
0
ARC
5
187
100
AcDbEntity
8
0
100
AcDbCircle
10
3.9877795693500913
20
17.90236402316474
30
0
40
1.9755594300658164
210
0
220
0
230
1
100
AcDbArc
50
120.00000007904798
51
180.04553908826128
0
ARC
5
188
100
AcDbEntity
8
0
100
AcDbCircle
10
3.0163700111866252
20
12.680845658300758
30
0
40
0.99999998893534503
210
0
220
0
230
1
100
AcDbArc
50
180.04553908826128
51
300.0998794480393
0
LWPOLYLINE
5
189
100
AcDbEntity
8
0
100
AcDbPolyline
90
8
70
1
43
0.0
10
-7.9885988037706959
20
-15.54833190826059
42
-0.26794857104310227
10
-6.9856277023049893
20
-13.818112197938321
10
-3.4821104353864345
20
-11.803490607193519
42
-0.57734970561844723
10
-1.9836564123033673
20
-12.672108117698919
10
-1.9927123426967395
20
-17.872075000094309
42
-0.26748260418737041
10
-3.0000029099101635
20
-19.613250260163898
10
-6.5000001554260223
20
-21.633974610506964
42
-0.57793226380289886
10
-7.9977091505056652
20
-20.767528161466593
0
LINE
5
190
100
AcDbEntity
8
0
100
AcDbLine
10
2.0122208086510014
20
-17.900793834845889
30
0
11
2.0163703381103666
21
-12.680050851364737
31
0
0
LINE
5
191
100
AcDbEntity
8
0
100
AcDbLine
10
6.4999998436284407
20
-21.633974618718543
30
0
11
2.999999851956765
21
-19.613248674924858
31
0
0
ARC
5
192
100
AcDbEntity
8
0
100
AcDbCircle
10
3.9877795693500913
20
-17.90236402316474
30
0
40
1.9755593846974784
210
0
220
0
230
1
100
AcDbArc
50
179.95446091173872
51
239.99999992095201
0
LINE
5
193
100
AcDbEntity
8
0
100
AcDbLine
10
8.0113299492470187
20
-15.576420030862472
30
0
11
8.0019898311799071
21
-20.768600628197795
31
0
0
ARC
5
194
100
AcDbEntity
8
0
100
AcDbCircle
10
7.0006637136537986
20
-20.766799361083525
30
0
40
1.0013277376579197
210
0
220
0
230
1
100
AcDbArc
50
239.99999992095192
51
359.89693178846238
0
ARC
5
195
100
AcDbEntity
8
0
100
AcDbCircle
10
6.0113331994343264
20
-15.57282227353741
30
0
40
1.9999999857797748
210
-0
220
0
230
1
100
AcDbArc
50
-0.1030682115376363
51
59.90012055196064
0
ARC
5
196
100
AcDbEntity
8
0
100
AcDbCircle
10
3.0163700111866252
20
-12.680845658300758
30
0
40
0.9999999953798091
210
0
220
-0
230
1
100
AcDbArc
50
59.900120551960676
51
179.95446091173872
0
LINE
5
197
100
AcDbEntity
8
0
100
AcDbLine
10
3.5178789257245451
20
-11.815693186537185
30
0
11
7.0143510260127275
21
-13.842517334318597
31
0
0
ENDSEC
0
SECTION
2
OBJECTS
0
DICTIONARY
5
C
100
AcDbDictionary
3
ACAD_GROUP
350
D
3
ACAD_MLINESTYLE
350
17
0
DICTIONARY
5
D
100
AcDbDictionary
0
DICTIONARY
5
1A
330
C
100
AcDbDictionary
0
DICTIONARY
5
17
100
AcDbDictionary
0
ENDSEC
0
EOF
