0
SECTION
2
HEADER
9
$INSUNITS
70
4
9
$ACADVER
1
AC1014
9
$HANDSEED
5
FFFF
0
ENDSEC
0
SECTION
2
TABLES
0
TABLE
2
VPORT
5
8
100
AcDbSymbolTable
0
ENDTAB
0
TABLE
2
LTYPE
5
5
100
AcDbSymbolTable
0
LTYPE
5
14
100
AcDbSymbolTableRecord
100
AcDbLinetypeTableRecord
2
BYBLOCK
70
0
0
LTYPE
5
15
100
AcDbSymbolTableRecord
100
AcDbLinetypeTableRecord
2
BYLAYER
70
0
0
ENDTAB
0
TABLE
2
LAYER
5
2
100
AcDbSymbolTable
70
2
0
LAYER
5
50
100
AcDbSymbolTableRecord
100
AcDbLayerTableRecord
2
0
70
0
6
CONTINUOUS
0
ENDTAB
0
TABLE
2
STYLE
5
3
100
AcDbSymbolTable
70
1
0
STYLE
5
11
100
AcDbSymbolTableRecord
100
AcDbTextStyleTableRecord
2
STANDARD
70
0
0
ENDTAB
0
TABLE
2
VIEW
5
6
100
AcDbSymbolTable
70
0
0
ENDTAB
0
TABLE
2
UCS
5
7
100
AcDbSymbolTable
70
0
0
ENDTAB
0
TABLE
2
APPID
5
9
100
AcDbSymbolTable
70
2
0
APPID
5
12
100
AcDbSymbolTableRecord
100
AcDbRegAppTableRecord
2
ACAD
70
0
0
ENDTAB
0
TABLE
2
DIMSTYLE
5
A
100
AcDbSymbolTable
70
1
0
ENDTAB
0
TABLE
2
BLOCK_RECORD
5
1
100
AcDbSymbolTable
70
1
0
BLOCK_RECORD
5
1F
100
AcDbSymbolTableRecord
100
AcDbBlockTableRecord
2
*MODEL_SPACE
0
BLOCK_RECORD
5
1B
100
AcDbSymbolTableRecord
100
AcDbBlockTableRecord
2
*PAPER_SPACE
0
ENDTAB
0
ENDSEC
0
SECTION
2
BLOCKS
0
BLOCK
5
20
100
AcDbEntity
100
AcDbBlockBegin
2
*MODEL_SPACE
0
ENDBLK
5
21
100
AcDbEntity
100
AcDbBlockEnd
0
BLOCK
5
1C
100
AcDbEntity
100
AcDbBlockBegin
2
*PAPER_SPACE
0
ENDBLK
5
1D
100
AcDbEntity
100
AcDbBlockEnd
0
ENDSEC
0
SECTION
2
ENTITIES
0
LWPOLYLINE
5
100
100
AcDbEntity
8
0
100
AcDbPolyline
90
8
70
1
43
0.0
10
-12.500000000000002
20
62.000000000000014
42
-0.99999999999999989
10
-12.500000000000002
20
63.000000000000007
10
-11.000000000000004
20
63.000000000000007
42
-0.99999999999999989
10
-11.000000000000004
20
62.000000000000014
10
-11.000000000000004
20
59
42
-0.99999999999999989
10
-11.000000000000004
20
58.000000000000007
10
-12.500000000000002
20
58.000000000000007
42
-0.99999999999999989
10
-12.500000000000002
20
59
0
LINE
5
101
100
AcDbEntity
8
0
100
AcDbLine
10
-15.999946032337359
20
68.497611501281057
30
-1.1795664745444823e-15
11
-15.996128690163886
21
62.987922755629398
31
-1.1790989632243324e-15
0
LINE
5
102
100
AcDbEntity
8
0
100
AcDbLine
10
-8.6637128373771599
20
72.643365791482012
30
-3.0814879110195774e-32
11
-13.041468721511437
21
71.957842643807069
31
-1.9251461519774623e-16
0
ARC
5
103
100
AcDbEntity
8
0
100
AcDbCircle
10
-24.003861709234883
20
63.015636417387327
30
-7.7986156179703286e-16
40
39.99999999998802
210
1.2246464836179861e-16
220
-3.9663217325773914e-24
230
-1
100
AcDbArc
50
352.83528675158067
51
359.96030310049389
0
LINE
5
104
100
AcDbEntity
8
0
100
AcDbLine
10
-15.302943056740578
20
54.996899540040559
30
-1.0942081966827267e-15
11
-15.683806376166803
21
58.026748571180477
31
-1.1408505011875235e-15
0
LINE
5
105
100
AcDbEntity
8
0
100
AcDbLine
10
24.614701021481306
20
13.836733332169015
30
0
11
30.617070994646763
21
16.403969417718571
31
0
0
ARC
5
106
100
AcDbEntity
8
0
100
AcDbCircle
10
12.50000266503462
20
68.500036408029445
30
-4.1458280618349442e-15
40
3.4999442073409086
210
3.3346411714059699e-16
220
1.4618526648862674e-19
230
-1
100
AcDbArc
50
-0.03969689951533184
51
89.999998928903182
0
LINE
5
107
100
AcDbEntity
8
0
100
AcDbLine
10
15.99994628120986
20
68.497574560411948
30
7.3848643530890506e-16
11
15.996128939036392
21
62.987885814760283
31
7.3848641357615512e-16
0
LWPOLYLINE
5
108
100
AcDbEntity
8
0
100
AcDbPolyline
90
8
70
1
43
0.0
10
10.999999999999998
20
58.000000000000007
42
-0.99999999999999989
10
10.999999999999998
20
59
10
10.999999999999998
20
62.000000000000014
42
-0.99999999999999989
10
10.999999999999998
20
63.000000000000007
10
12.499999999999998
20
63.000000000000007
42
-0.99999999999999989
10
12.499999999999998
20
62.000000000000014
10
12.499999999999998
20
59
42
-0.99999999999999989
10
12.499999999999998
20
58.000000000000007
0
ARC
5
109
100
AcDbEntity
8
0
100
AcDbCircle
10
12.500002913907123
20
68.499999467160322
30
0
40
3.4999442073409064
210
-2.1099943722586194e-16
220
1.4618526648862696e-19
230
1
100
AcDbArc
50
-0.039696899506171841
51
89.999998928903182
0
LINE
5
110
100
AcDbEntity
8
0
100
AcDbLine
10
-24.614701021481306
20
13.836733332169015
30
3.9796778100534928e-16
11
-30.617070994646763
21
16.403969417718571
31
-3.371105364881766e-16
0
ARC
5
111
100
AcDbEntity
8
0
100
AcDbCircle
10
-24.003861460362383
20
63.015599476518211
30
7.3848767580324156e-16
40
39.99999999998802
210
3.1552936701685879e-23
220
-3.9663217622342895e-24
230
1
100
AcDbArc
50
352.83528675158067
51
359.96030310048468
0
CIRCLE
5
112
100
AcDbEntity
8
0
100
AcDbCircle
10
12.500002913907123
20
68.499999467160322
30
0
40
1.4999999999999991
210
0
220
0
230
1
0
ARC
5
113
100
AcDbEntity
8
0
100
AcDbCircle
10
-34.638379202152151
20
2.2204460492503131e-15
30
4.1471437034419886e-15
40
17.999999999999957
210
3.7301213077263949e-16
220
-1.5632150503925384e-17
230
1
100
AcDbArc
50
-27.856256551015377
51
27.856256551015363
0
LINE
5
114
100
AcDbEntity
8
0
100
AcDbLine
10
-27.86435456471051
20
-29.840004863267243
30
0
11
-26.999999943907223
21
-29.840004863267239
31
0
0
LINE
5
115
100
AcDbEntity
8
0
100
AcDbLine
10
-24.614701021481309
20
-13.836733332169013
30
0
11
-30.617070994646763
21
-16.403969417718564
31
0
0
ARC
5
116
100
AcDbEntity
8
0
100
AcDbCircle
10
54.990611391019996
20
50.007974752964863
30
-1.4460869489681517e-14
40
39.999999999993179
210
3.7701686988176112e-16
220
-4.7392426179342325e-17
230
1
100
AcDbArc
50
172.835286751582
51
180.04004622224824
0
ARC
5
117
100
AcDbEntity
8
0
100
AcDbCircle
10
-27.86435456471051
20
-22.840004863267247
30
0
40
6.9999999999999982
210
0
220
0
230
1
100
AcDbArc
50
113.15657680215125
51
270
0
CIRCLE
5
118
100
AcDbEntity
8
0
100
AcDbCircle
10
-12.49999982863665
20
-27.5
30
0
40
1.5000000000000002
210
0
220
0
230
1
0
CIRCLE
5
119
100
AcDbEntity
8
0
100
AcDbCircle
10
-27.86435456471051
20
-22.840004863267247
30
0
40
1.4999999999999991
210
0
220
0
230
1
0
ARC
5
120
100
AcDbEntity
8
0
100
AcDbCircle
10
-11.499999828636652
20
-66.5
30
0
40
3.5000000000000009
210
0
220
0
230
1
100
AcDbArc
50
180
51
258.73121770506452
0
ARC
5
121
100
AcDbEntity
8
0
100
AcDbCircle
10
-29.333643472800617
20
-2.8035297112283941
30
-1.5118084918590109e-16
40
12.000000000000028
210
2.2483294602754281e-16
220
1.0986424471944211e-16
230
1
100
AcDbArc
50
293.15657680215128
51
332.14374344898459
0
ARC
5
122
100
AcDbEntity
8
0
100
AcDbCircle
10
-26.99999994390723
20
-41.840004863267239
30
0
40
12
210
0
220
-0
230
1
100
AcDbArc
50
0
51
89.999999999999972
0
ARC
5
123
100
AcDbEntity
8
0
100
AcDbCircle
10
-29.333643472800613
20
2.8035297112283963
30
-4.7420544542405218e-16
40
12.000000000000028
210
1.9809319476966361e-16
220
-1.637750624955276e-16
230
1
100
AcDbArc
50
27.856256551015406
51
66.843423197848722
0
LINE
5
124
100
AcDbEntity
8
0
100
AcDbLine
10
-14.999999943907232
20
-41.840004807174495
30
0
11
-14.999999828636652
21
-66.500000008755791
31
0
0
ARC
5
125
100
AcDbEntity
8
0
100
AcDbCircle
10
-27.864354564710506
20
-22.84000486326725
30
2.7970938848310212e-15
40
7
210
6.1629758220391547e-33
220
-1.224646799147353e-16
230
-1
100
AcDbArc
50
113.15657680215128
51
270
0
LWPOLYLINE
5
126
100
AcDbEntity
8
0
100
AcDbPolyline
90
6
70
1
43
0.0
10
2.8655128509369958
20
14.270896900456194
42
-0.037757869586537922
10
-2.8655128509369705
20
14.270896900456197
42
0.66191505178256715
10
-3.710543330240327
20
12.63524466535349
10
-0.76962224638397148
20
9.090373715838572
42
0.46971161809764861
10
0.76962224638397747
20
9.0903737158385702
10
3.7105433302403275
20
12.635244665353483
42
0.66191505178256993
0
ARC
5
127
100
AcDbEntity
8
0
100
AcDbCircle
10
29.333643472800549
20
2.8035297112284727
30
-3.4814763000020296e-16
40
11.999999999999932
210
-3.3868858541850298e-16
220
-1.7641291146069835e-16
230
1
100
AcDbArc
50
113.15657680215114
51
152.14374344898476
0
CIRCLE
5
128
100
AcDbEntity
8
0
100
AcDbCircle
10
10.000016395170812
20
10.000011803910596
30
1.4600600475412855e-15
40
1.4999999999999991
210
1.4997597826618576e-32
220
1.2246467991473532e-16
230
-1
0
ARC
5
129
100
AcDbEntity
8
0
100
AcDbCircle
10
54.990611142147486
20
50.008011693833978
30
2.3831693631726603e-15
40
39.999999999993179
210
-2.5455218996702583e-16
220
-4.7392426179342239e-17
230
-1
100
AcDbArc
50
172.835286751582
51
180.04004622224824
0
CIRCLE
5
130
100
AcDbEntity
8
0
100
AcDbCircle
10
10.000016395170812
20
10.000011803910589
30
0
40
1.4999999999999991
210
0
220
0
230
1
0
ARC
5
131
100
AcDbEntity
8
0
100
AcDbCircle
10
34.638379202152173
20
1.1102230246251565e-15
30
4.815437910503621e-15
40
17.999999999999972
210
-5.0630830700816391e-16
220
-3.445187378841506e-17
230
1
100
AcDbArc
50
152.14374344898468
51
207.85625655101526
0
LINE
5
132
100
AcDbEntity
8
0
100
AcDbLine
10
-14.994414281932629
20
41.834416543362295
30
7.977659399460492e-17
11
-14.990620912452531
21
49.980054158860113
31
-9.359500081056773e-16
0
LWPOLYLINE
5
133
100
AcDbEntity
8
0
100
AcDbPolyline
90
8
70
1
43
0.0
10
10.999999999999998
20
44
10
10.999999999999998
20
47.000000000000014
42
-0.99999999999999989
10
10.999999999999998
20
48.000000000000007
10
12.499999999999998
20
48.000000000000007
42
-0.99999999999999989
10
12.499999999999998
20
47.000000000000014
10
12.499999999999998
20
44
42
-0.99999999999999989
10
12.499999999999998
20
43.000000000000007
10
10.999999999999998
20
43.000000000000007
42
-0.99999999999999989
0
ARC
5
134
100
AcDbEntity
8
0
100
AcDbCircle
10
27.864354564710506
20
22.84000486326725
30
0
40
7
210
-0
220
0
230
1
100
AcDbArc
50
-66.843423197848708
51
90
0
LWPOLYLINE
5
135
100
AcDbEntity
8
0
100
AcDbPolyline
90
8
70
1
43
0.0
10
-12.500000000000002
20
43.000000000000007
42
-0.99999999999999989
10
-12.500000000000002
20
44
10
-12.500000000000002
20
47.000000000000014
42
-0.99999999999999989
10
-12.500000000000002
20
48.000000000000007
10
-11.000000000000004
20
48.000000000000007
42
-0.99999999999999989
10
-11.000000000000004
20
47.000000000000014
10
-11.000000000000004
20
44
42
-0.99999999999999989
10
-11.000000000000004
20
43.000000000000007
0
LINE
5
136
100
AcDbEntity
8
0
100
AcDbLine
10
27.864354564710506
20
-29.840004863267247
30
8.5725275940314732e-16
11
27.000000056092741
21
-29.840004863267247
31
8.5725275940314742e-16
0
ARC
5
137
100
AcDbEntity
8
0
100
AcDbCircle
10
26.994413118681962
20
41.840004863267275
30
3.6850621680674671e-16
40
12.000000000000027
210
-1.0378956840924335e-32
220
-3.0708851400562154e-17
230
1
100
AcDbArc
50
180.02668160398019
51
269.99999999999994
0
ARC
5
138
100
AcDbEntity
8
0
100
AcDbCircle
10
27.000000056092752
20
-41.840004863267247
30
5.7664625428852073e-16
40
12.000000000000002
210
1.0849081027907939e-31
220
-2.3383875426218896e-17
230
1
100
AcDbArc
50
90.000000000000057
51
180
0
CIRCLE
5
139
100
AcDbEntity
8
0
100
AcDbCircle
10
27.864354564710506
20
22.84000486326725
30
-3.4123992627979663e-15
40
1.4999999999999991
210
1.2246467991473532e-16
220
0
230
-1
0
LWPOLYLINE
5
140
100
AcDbEntity
8
0
100
AcDbPolyline
90
6
70
1
43
0.0
10
-3.7105433302402959
20
-12.635244665353474
42
0.66191505178256715
10
-2.8655128509369394
20
-14.27089690045619
42
-0.037757869586537547
10
2.8655128509369874
20
-14.270896900456183
42
0.66191505178256949
10
3.7105433302403585
20
-12.635244665353472
10
0.76962224638400867
20
-9.0903737158385596
42
0.46971161809764839
10
-0.76962224638394028
20
-9.0903737158385596
0
ARC
5
141
100
AcDbEntity
8
0
100
AcDbCircle
10
-26.99441298071093
20
41.840004863267254
30
-1.3904965642220781e-15
40
12.000000000000011
210
-1.2246467991473539e-16
220
1.2475280682092525e-16
230
1
100
AcDbArc
50
270.00000000000011
51
359.97331773694378
0
LINE
5
142
100
AcDbEntity
8
0
100
AcDbLine
10
27.864354564710506
20
29.840004863267247
30
0
11
26.994413118681948
21
29.840004863267247
31
0
0
CIRCLE
5
143
100
AcDbEntity
8
0
100
AcDbCircle
10
-27.864354564710506
20
-22.84000486326725
30
2.7970938848310216e-15
40
1.4999999999999991
210
0
220
-1.2246467991473532e-16
230
-1
0
LINE
5
144
100
AcDbEntity
8
0
100
AcDbLine
10
24.614701021481306
20
-13.836733332169013
30
-1.1025827662413941e-15
11
30.617070994646763
21
-16.403969417718571
31
-7.8818702075900985e-16
0
CIRCLE
5
145
100
AcDbEntity
8
0
100
AcDbCircle
10
27.864354564710506
20
22.84000486326725
30
0
40
1.4999999999999991
210
0
220
0
230
1
0
ARC
5
146
100
AcDbEntity
8
0
100
AcDbCircle
10
29.333643472800574
20
-2.8035297112284518
30
-2.3105388220163869e-15
40
11.999999999999957
210
-2.2349180848423999e-16
220
2.0507199142586868e-16
230
1
100
AcDbArc
50
207.85625655101518
51
246.84342319784875
0
CIRCLE
5
147
100
AcDbEntity
8
0
100
AcDbCircle
10
-10.000016395170812
20
-10.000011803910587
30
0
40
1.4999999999999991
210
0
220
0
230
1
0
ARC
5
148
100
AcDbEntity
8
0
100
AcDbCircle
10
27.864354564710506
20
22.84000486326725
30
-3.4123992627979683e-15
40
7
210
1.2246467991473539e-16
220
0
230
-1
100
AcDbArc
50
-66.843423197848708
51
90
0
ARC
5
149
100
AcDbEntity
8
0
100
AcDbCircle
10
-0.00011782954052952909
20
17.317584084549647
30
1.5785342505970333e-15
40
55.999999999999631
210
-4.3607814473824905e-18
220
2.7848756352707096e-17
230
1
100
AcDbArc
50
81.100193270099751
51
98.899806729900149
0
LINE
5
150
100
AcDbEntity
8
0
100
AcDbLine
10
-27.864354564710506
20
29.840004863267247
30
0
11
-26.994412980710912
21
29.840004863267247
31
1.0653711762902824e-16
0
LINE
5
151
100
AcDbEntity
8
0
100
AcDbLine
10
14.994414419839366
20
41.834416681397563
30
3.6833461016011024e-16
11
14.990621161325034
21
49.980017217990991
31
6.1847664660669732e-16
0
CIRCLE
5
152
100
AcDbEntity
8
0
100
AcDbCircle
10
-10.000016395170812
20
-10.000011803910589
30
1.4600600475412851e-15
40
1.4999999999999991
210
0
220
-1.2246467991473532e-16
230
-1
0
CIRCLE
5
153
100
AcDbEntity
8
0
100
AcDbCircle
10
12.500000171363354
20
-27.5
30
0
40
1.4999999999999991
210
0
220
0
230
1
0
ARC
5
154
100
AcDbEntity
8
0
100
AcDbCircle
10
9.5819964756451519
20
-66.372339471377529
30
0
40
4.0000000000000338
210
0
220
0
230
1
100
AcDbArc
50
223.15238973400582
51
281.26878229493553
0
CIRCLE
5
155
100
AcDbEntity
8
0
100
AcDbCircle
10
-12.500000000000004
20
27.5
30
0
40
1.4999999999999991
210
0
220
0
230
1
0
LINE
5
156
100
AcDbEntity
8
0
100
AcDbLine
10
-2.9181486451969896
20
-65.11269207099771
30
0
11
-6.6638473163580914
21
-69.108103986902876
31
0
0
CIRCLE
5
157
100
AcDbEntity
8
0
100
AcDbCircle
10
12.5
20
27.5
30
0
40
1.4999999999999991
210
0
220
0
230
1
0
LINE
5
158
100
AcDbEntity
8
0
100
AcDbLine
10
15.302943305613081
20
54.996862599171443
30
7.3848640375322718e-16
11
15.683806625039303
21
58.026711630311354
31
7.3848640375322817e-16
0
LINE
5
159
100
AcDbEntity
8
0
100
AcDbLine
10
15.000000056092748
20
-41.840004919360013
30
5.7664625297685576e-16
11
15.000000171363354
21
-66.5
31
0
0
CIRCLE
5
160
100
AcDbEntity
8
0
100
AcDbCircle
10
-10.49999982863665
20
-65.5
30
0
40
1.5000000000000002
210
0
220
0
230
1
0
LINE
5
161
100
AcDbEntity
8
0
100
AcDbLine
10
6.6638476590848121
20
-69.10810398690289
30
0
11
2.9181489879237059
21
-65.11269207099771
31
0
0
ARC
5
162
100
AcDbEntity
8
0
100
AcDbCircle
10
1.7136335461742647e-07
20
-67.848456586523071
30
0
40
4.0000000000000302
210
0
220
-0
230
1
100
AcDbArc
50
43.152389734005737
51
136.84761026599421
0
ARC
5
163
100
AcDbEntity
8
0
100
AcDbCircle
10
11.500000171363356
20
-66.5
30
0
40
3.4999999999999969
210
0
220
0
230
1
100
AcDbArc
50
-78.731217705065603
51
0
0
LINE
5
164
100
AcDbEntity
8
0
100
AcDbLine
10
8.6634771783749507
20
72.643365791984934
30
7.5560080181762254e-17
11
13.041468970383958
21
71.957805702937947
31
1.1374353922682261e-16
0
LINE
5
165
100
AcDbEntity
8
0
100
AcDbLine
10
10.363643777977273
20
-70.295224569714861
30
0
11
12.183941560903889
21
-69.932524461045162
31
0
0
LINE
5
166
100
AcDbEntity
8
0
100
AcDbLine
10
-10.363643435250541
20
-70.29522456971489
30
0
11
-12.183941218177253
21
-69.932524461045148
31
0
0
ARC
5
167
100
AcDbEntity
8
0
100
AcDbCircle
10
-9.5819961329184267
20
-66.372339471377629
30
0
40
3.9999999999999432
210
0
220
0
230
1
100
AcDbArc
50
258.73121770506441
51
316.84761026599529
0
CIRCLE
5
168
100
AcDbEntity
8
0
100
AcDbCircle
10
10.500000167023195
20
-65.500000004340166
30
3.68572784135494e-17
40
1.5000000000000013
210
0
220
0
230
1
0
CIRCLE
5
169
100
AcDbEntity
8
0
100
AcDbCircle
10
-12.499997086092874
20
68.499999934514477
30
0
40
1.4999999999999991
210
0
220
0
230
1
0
LWPOLYLINE
5
170
100
AcDbEntity
8
0
100
AcDbPolyline
90
8
70
1
43
0.0
10
-2.0000001065451389
20
35.767949210760207
10
-2.0000001433196055
20
52.881194666476134
42
0.26794919183426841
10
-3.0000029099101635
20
54.613250260163895
10
-6.5000001554260214
20
56.633974610506968
42
0.5773502699501204
10
-8.0000001551442317
20
55.767949203952938
10
-8.0000001166299697
20
38.654700561734387
42
0.26794919177433479
10
-7.0000001127794675
20
36.922649751472868
10
-3.5000001066920872
20
34.901923805002774
42
0.57735026993213001
0
LWPOLYLINE
5
171
100
AcDbEntity
8
0
100
AcDbPolyline
90
8
70
1
43
0.0
10
3.4999998980223719
20
20.901923807954219
42
-0.57735026822431046
10
1.9999998983993827
20
21.767949209495736
10
1.9999998808965076
20
28.881197864812798
42
-0.26794919313590559
10
2.999999881190401
20
30.613248677472555
10
6.4999998751030299
20
32.633974615329855
42
-0.57735026827692537
10
7.9999998749560843
20
31.767949214028977
10
7.9999998932258194
20
24.654700558022761
42
-0.26794919323597338
10
6.9999998924718065
20
22.922649744881738
0
LWPOLYLINE
5
172
100
AcDbEntity
8
0
100
AcDbPolyline
90
8
70
1
43
0.0
10
1.9999998566803832
20
52.881197875777076
42
-0.26794919291972952
10
2.9999998516617579
20
54.613248679602044
10
6.4999998445113407
20
56.633974619300595
42
-0.57735026855883353
10
7.9999998449810183
20
55.767949217788136
10
7.999999883059389
20
38.654700550265119
42
-0.26794919302797982
10
6.999999887220544
20
36.922649746127313
10
3.4999998933079097
20
34.90192380827002
42
-0.57735026844711435
10
1.9999998934548646
20
35.767949210081483
0
LWPOLYLINE
5
173
100
AcDbEntity
8
0
100
AcDbPolyline
90
8
70
1
43
0.0
10
-8.000000125043929
20
31.767949207323273
10
-8.0000001073677183
20
24.654700556624917
42
0.26794919171761661
10
-7.000000107528197
20
22.922649753946402
10
-3.500000101977625
20
20.901923806546534
42
0.57735027007723716
10
-2.0000001015658118
20
21.76794921234082
10
-2.0000001191034955
20
28.881197863327067
42
0.26794919183426169
10
-3.0000001188095959
20
30.613248666610609
10
-6.5000001248969763
20
32.63397461308071
42
0.5773502699321309
0
LWPOLYLINE
5
174
100
AcDbEntity
8
0
100
AcDbPolyline
90
8
70
1
43
0.0
10
-7.9999998749560817
20
-31.767949213518385
10
-7.9999998932258194
20
-24.654700557554584
42
-0.26794919317325006
10
-6.9999998924718057
20
-22.922649744881735
10
-3.4999998980223705
20
-20.901923807954216
42
-0.57735026844711734
10
-1.9999998983993823
20
-21.767949210164154
10
-1.999999880896506
20
-28.88119786561834
42
-0.26794919302798281
10
-2.9999998811903996
20
-30.613248677472548
10
-6.4999998751030263
20
-32.633974615329848
42
-0.57735026844712112
0
LWPOLYLINE
5
175
100
AcDbEntity
8
0
100
AcDbPolyline
90
8
70
1
43
0.0
10
-7.9999998830593864
20
-38.654700550265119
42
-0.26794919302797982
10
-6.9999998872205413
20
-36.922649746127306
10
-3.4999998933079075
20
-34.901923808270013
42
-0.57735026844711435
10
-1.9999998934548624
20
-35.767949210081476
10
-1.9999998781691746
20
-42.881197874618131
42
-0.26794919302798065
10
-2.999999873714148
20
-44.6132486789257
10
-6.4999998672838943
20
-46.633974617376893
42
-0.57735026844712356
10
-7.9999998672838952
20
-45.767949215819939
0
LWPOLYLINE
5
176
100
AcDbEntity
8
0
100
AcDbPolyline
90
8
70
1
43
0.0
10
8.0000001250439325
20
-31.767949207323269
10
8.0000001073677183
20
-24.654700556624913
42
0.26794919171761677
10
7.0000001075281979
20
-22.922649753946395
10
3.5000001019776263
20
-20.901923806546531
42
0.5773502700772376
10
2.0000001015658122
20
-21.767949212340817
10
2.0000001191034973
20
-28.88119786332706
42
0.26794919183426186
10
3.0000001188095982
20
-30.613248666610605
10
6.5000001248969781
20
-32.63397461308071
42
0.5773502699321309
0
LWPOLYLINE
5
177
100
AcDbEntity
8
0
100
AcDbPolyline
90
8
70
1
43
0.0
10
2.0000001065451407
20
-35.767949210760207
10
2.0000001218308223
20
-42.881194667426755
42
0.26794919183426935
10
3.0000028878577778
20
-44.613250261439923
10
6.5000001327161039
20
-46.633974612921882
42
0.57735026995011818
10
8.0000001327161154
20
-45.767949206855945
10
8.0000001166299715
20
-38.65470056173438
42
0.26794919177433479
10
7.0000001127794711
20
-36.922649751472861
10
3.5000001066920898
20
-34.901923805002767
42
0.57735026993213012
0
LWPOLYLINE
5
178
100
AcDbEntity
8
0
100
AcDbPolyline
90
8
70
1
43
0.0
10
2.0000001148960407
20
-49.767949211364936
42
-0.57735026993212235
10
3.5000001148960487
20
-48.901923805352979
10
7.0000001213263099
20
-50.922649751229194
42
-0.26794919183426424
10
8.0000001213263054
20
-52.654700554343052
10
8.0000001327161048
20
-59.767949206909925
42
-0.57735026993213256
10
6.5000001327161039
20
-60.633974612921875
10
3.0000001262858471
20
-58.613248667045667
42
-0.2679491918342608
10
2.0000001262858467
20
-56.88119786393181
0
LWPOLYLINE
5
179
100
AcDbEntity
8
0
100
AcDbPolyline
90
8
70
1
43
0.0
10
-7.9999998672838952
20
-59.767949215819954
10
-7.999999878673691
20
-52.654700560283061
42
-0.26794919302798165
10
-6.9999998786736946
20
-50.922649748259175
10
-3.4999998851039487
20
-48.901923809807997
42
-0.57735026844711623
10
-1.9999998851039509
20
-49.767949211364936
10
-1.9999998737141522
20
-56.881197866901807
42
-0.26794919302798392
10
-2.999999873714148
20
-58.613248678925707
10
-6.4999998672838943
20
-60.633974617376879
42
-0.57735026844711768
0
LWPOLYLINE
5
180
100
AcDbEntity
8
0
100
AcDbPolyline
90
8
70
1
43
0.0
10
-7.000000107528197
20
60.922649753946409
10
-3.500000101977625
20
58.901923806546542
42
0.57735027007723716
10
-2.0000001015658118
20
59.767949212340824
10
-2.0000001191347918
20
67.944589900020858
42
0.44001053025065928
10
-3.0871558618824575
20
68.940784595963919
10
-7.0871558623909658
20
68.590829941815741
42
0.38887873256818134
10
-8.0000001196433068
20
67.594635241239033
10
-8.0000001073677183
20
62.654700556624917
42
0.267949191717616
0
LWPOLYLINE
5
181
100
AcDbEntity
8
0
100
AcDbPolyline
90
8
70
1
43
0.0
10
6.9999998924718065
20
60.922649744881745
10
3.4999998980223719
20
58.901923807954226
42
-0.57735026822431046
10
1.9999998983993827
20
59.76794920949574
10
1.9999998804507872
20
67.944589901777391
42
-0.4400105319412087
10
3.0871556245149745
20
68.940784601949062
10
7.0871556246022305
20
68.59082994251105
42
-0.38887873073343171
10
7.999999880538045
20
67.594635247102886
10
7.9999998932258194
20
62.654700558022768
42
-0.26794919323597388
0
ENDSEC
0
SECTION
2
OBJECTS
0
DICTIONARY
5
C
100
AcDbDictionary
3
ACAD_GROUP
350
D
3
ACAD_MLINESTYLE
350
17
0
DICTIONARY
5
D
100
AcDbDictionary
0
DICTIONARY
5
1A
330
C
100
AcDbDictionary
0
DICTIONARY
5
17
100
AcDbDictionary
0
ENDSEC
0
EOF
