0
SECTION
2
HEADER
9
$INSUNITS
70
4
9
$ACADVER
1
AC1014
9
$HANDSEED
5
FFFF
0
ENDSEC
0
SECTION
2
TABLES
0
TABLE
2
VPORT
5
8
100
AcDbSymbolTable
0
ENDTAB
0
TABLE
2
LTYPE
5
5
100
AcDbSymbolTable
0
LTYPE
5
14
100
AcDbSymbolTableRecord
100
AcDbLinetypeTableRecord
2
BYBLOCK
70
0
0
LTYPE
5
15
100
AcDbSymbolTableRecord
100
AcDbLinetypeTableRecord
2
BYLAYER
70
0
0
ENDTAB
0
TABLE
2
LAYER
5
2
100
AcDbSymbolTable
70
2
0
LAYER
5
50
100
AcDbSymbolTableRecord
100
AcDbLayerTableRecord
2
0
70
0
6
CONTINUOUS
0
ENDTAB
0
TABLE
2
STYLE
5
3
100
AcDbSymbolTable
70
1
0
STYLE
5
11
100
AcDbSymbolTableRecord
100
AcDbTextStyleTableRecord
2
STANDARD
70
0
0
ENDTAB
0
TABLE
2
VIEW
5
6
100
AcDbSymbolTable
70
0
0
ENDTAB
0
TABLE
2
UCS
5
7
100
AcDbSymbolTable
70
0
0
ENDTAB
0
TABLE
2
APPID
5
9
100
AcDbSymbolTable
70
2
0
APPID
5
12
100
AcDbSymbolTableRecord
100
AcDbRegAppTableRecord
2
ACAD
70
0
0
ENDTAB
0
TABLE
2
DIMSTYLE
5
A
100
AcDbSymbolTable
70
1
0
ENDTAB
0
TABLE
2
BLOCK_RECORD
5
1
100
AcDbSymbolTable
70
1
0
BLOCK_RECORD
5
1F
100
AcDbSymbolTableRecord
100
AcDbBlockTableRecord
2
*MODEL_SPACE
0
BLOCK_RECORD
5
1B
100
AcDbSymbolTableRecord
100
AcDbBlockTableRecord
2
*PAPER_SPACE
0
ENDTAB
0
ENDSEC
0
SECTION
2
BLOCKS
0
BLOCK
5
20
100
AcDbEntity
100
AcDbBlockBegin
2
*MODEL_SPACE
0
ENDBLK
5
21
100
AcDbEntity
100
AcDbBlockEnd
0
BLOCK
5
1C
100
AcDbEntity
100
AcDbBlockBegin
2
*PAPER_SPACE
0
ENDBLK
5
1D
100
AcDbEntity
100
AcDbBlockEnd
0
ENDSEC
0
SECTION
2
ENTITIES
0
LWPOLYLINE
5
100
100
AcDbEntity
8
0
100
AcDbPolyline
90
8
70
1
43
0.0
10
-3.5016985531933802
20
-22.1551884008081
42
-0.57705242553366298
10
-2.0024726730582074
20
-23.021660281830933
10
-2.0024726730581848
20
-27.136694846262642
42
-0.26794919243112381
10
-3.0024726730581848
20
-28.868745653831528
10
-5.5024726730581897
20
-30.312121326805595
42
-0.57735026918962684
10
-7.0024726730581852
20
-29.446095923021161
10
-7.0024726730582056
20
-25.328084534065475
42
-0.2681886585496483
10
-6.0009244333285512
20
-23.595140772019789
0
ARC
5
101
100
AcDbEntity
8
0
100
AcDbCircle
10
-0.001701379090481125
20
-71.674444089930404
30
0
40
4.000000000000016
100
AcDbArc
50
60.000000000000028
51
120.01468682920664
0
ARC
5
102
100
AcDbEntity
8
0
100
AcDbCircle
10
-1.2991609543223395e-14
20
39.429005756829326
30
0
40
40.000000000000824
100
AcDbArc
50
80.375983866401299
51
99.62401613359863
0
CIRCLE
5
103
100
AcDbEntity
8
0
100
AcDbCircle
10
-12.49999982863665
20
-26.500000000000004
30
0
40
1.5000000000000002
0
LWPOLYLINE
5
104
100
AcDbEntity
8
0
100
AcDbPolyline
90
8
70
1
43
0.0
10
7.0000012547316111
20
32.422451159907759
10
7.0000012547316164
20
25.309202505855886
42
-0.2679491924311202
10
6.0000012547316235
20
23.577151698287025
10
3.5000012547316222
20
22.133776025312958
42
-0.57735026918962207
10
2.0000012547316128
20
22.999801429097406
10
2.0000012547316111
20
30.113050083149275
42
-0.26794919243112175
10
3.0000012547316017
20
31.845100890718136
10
5.5000012547316048
20
33.288476563692207
42
-0.57735026918962584
0
LWPOLYLINE
5
105
100
AcDbEntity
8
0
100
AcDbPolyline
90
8
70
1
43
0.0
10
-7.0024726730581586
20
-64.268055197105838
10
-7.0024726730581586
20
-60.331014043812779
42
-0.26818865854964424
10
-6.000924433328521
20
-58.5980702817671
10
-3.5011645359408909
20
-57.157810231519647
42
-0.57694955143090498
10
-2.0019387034583982
20
-58.023973396885197
10
-2.0007243035704065
20
-61.95768976839414
42
-0.26803140563266203
10
-3.0001419573543844
20
-63.689352955593961
10
-5.5024710292394428
20
-65.134079651829026
42
-0.57735090189626947
0
LWPOLYLINE
5
106
100
AcDbEntity
8
0
100
AcDbPolyline
90
8
70
1
43
0.0
10
-9.0024726730582607
20
-38.487547807348555
42
-0.2679491924311197
10
-8.0024726730582714
20
-36.755496999779673
10
-3.502472673058294
20
-34.157420788426357
42
-0.57735026918962207
10
-2.0024726730582918
20
-35.023446192210791
10
-2.0024726730582167
20
-50.136694846262642
42
-0.26794919243112669
10
-3.0024726730582332
20
-51.868745653831553
10
-7.5024726730582607
20
-54.466821865184841
42
-0.57735026918961962
10
-9.0024726730582554
20
-53.6007964614004
0
CIRCLE
5
107
100
AcDbEntity
8
0
100
AcDbCircle
10
-9.4999998286366498
20
-68.5
30
0
40
1.5000000000000002
0
LWPOLYLINE
5
108
100
AcDbEntity
8
0
100
AcDbPolyline
90
8
70
1
43
0.0
10
8.0000010062964098
20
39.731654521428624
10
3.5000012844665451
20
37.133578264667314
42
-0.57735028063460214
10
2.0000012547316128
20
37.999603651284282
10
2.0000012547316115
20
58.112852275502419
42
-0.26794918462654271
10
3.0000012042820021
20
59.844903053944179
10
7.5000009576204345
20
62.442979297649899
42
-0.57735027960022389
10
9.0000009828452363
20
61.576953906324277
10
9.0000009468265514
20
41.463705290453099
42
-0.26794918266714524
0
ARC
5
109
100
AcDbEntity
8
0
100
AcDbCircle
10
-9.4999998286366498
20
-68.5
30
0
40
3.4999999999999964
100
AcDbArc
50
270
51
299.99999999999994
0
LINE
5
110
100
AcDbEntity
8
0
100
AcDbLine
10
-7.7499998286366516
20
-71.53108891324554
30
0
11
-2.0025892787564699
21
-68.210855255647346
31
0
0
ARC
5
111
100
AcDbEntity
8
0
100
AcDbCircle
10
-9.4999998286366498
20
-68.5
30
0
40
3.5000000000000004
100
AcDbArc
50
180.24569980117082
51
270
0
CIRCLE
5
112
100
AcDbEntity
8
0
100
AcDbCircle
10
12.5
20
26.500000000000004
30
0
40
1.4999999999999991
0
LWPOLYLINE
5
113
100
AcDbEntity
8
0
100
AcDbPolyline
90
8
70
1
43
0.0
10
10.999999999999998
20
49.000000000000014
42
-0.99999999999999989
10
10.999999999999998
20
50.000000000000007
10
10.999999999999998
20
54.000000000000014
42
-0.99999999999999989
10
10.999999999999998
20
55.000000000000007
10
12.499999999999998
20
55.000000000000007
42
-0.99999999999999989
10
12.499999999999998
20
54.000000000000014
10
12.499999999999998
20
50.000000000000007
42
-0.99999999999999989
10
12.499999999999998
20
49.000000000000014
0
LWPOLYLINE
5
114
100
AcDbEntity
8
0
100
AcDbPolyline
90
8
70
1
43
0.0
10
-7.999999053173461
20
39.731654567952354
10
-3.4999987452683969
20
37.133578178829964
42
0.57735026918962584
10
-1.9999987452683894
20
37.999603582614412
10
-1.9999987452683881
20
58.112852236666285
42
0.26794919243112669
10
-2.9999987452683867
20
59.844903044235167
10
-7.4999990171547593
20
62.442979412562138
42
0.57735026848804638
10
-8.9999990171547637
20
61.576954010882417
10
-8.9999990531734504
20
41.463705379730662
42
0.26794919299508135
0
LWPOLYLINE
5
115
100
AcDbEntity
8
0
100
AcDbPolyline
90
8
70
1
43
0.0
10
-2.9999987452683752
20
31.845100890718136
42
-0.26794919243112203
10
-1.9999987452683878
20
30.113050083149275
10
-1.9999987452683858
20
22.999801429097403
42
-0.57735026918962229
10
-3.4999987452683983
20
22.133776025312962
10
-5.9999987452683987
20
23.577151698287029
42
-0.26794919243112236
10
-6.9999987452683872
20
25.309202505855886
10
-6.9999987452683863
20
32.422451159907759
42
-0.57735026918962584
10
-5.4999987452683801
20
33.288476563692207
0
CIRCLE
5
116
100
AcDbEntity
8
0
100
AcDbCircle
10
-12.500000000000004
20
26.500000000000004
30
0
40
1.4999999999999991
0
LWPOLYLINE
5
117
100
AcDbEntity
8
0
100
AcDbPolyline
90
8
70
1
43
0.0
10
8.9975273269417215
20
-53.600796461400364
42
-0.57735026918963339
10
7.4975273269417215
20
-54.466821865184798
10
2.9975273269418077
20
-51.868745653831532
42
-0.26794919243112214
10
1.9975273269418063
20
-50.136694846262664
10
1.9975273269417215
20
-35.023446192210784
42
-0.57735026918962762
10
3.4975273269417229
20
-34.157420788426343
10
7.9975273269417109
20
-36.755496999779652
42
-0.26794919243112308
10
8.9975273269417126
20
-38.487547807348527
0
LWPOLYLINE
5
118
100
AcDbEntity
8
0
100
AcDbPolyline
90
8
70
1
43
0.0
10
2.9990755666714852
20
-63.696254612622113
10
5.4988354640591099
20
-65.136514662869558
42
0.57694954918076669
10
6.9983697765102013
20
-64.270173282950793
10
6.9995835383485403
20
-60.338609710179526
42
0.26816964459871329
10
5.9995842151728329
20
-58.604913516121556
10
3.497527326941837
20
-57.160350298173633
42
0.57735026918962506
10
1.9975273269418334
20
-58.026375701958074
10
1.9975273269418365
20
-61.963310850576434
42
0.26818865854964435
0
LWPOLYLINE
5
119
100
AcDbEntity
8
0
100
AcDbPolyline
90
8
70
1
43
0.0
10
2.9975273268096352
20
-28.86874565383151
42
-0.26794919243112159
10
1.9975273268096403
20
-27.136694846262635
10
1.9975273268096394
20
-23.02344619221078
42
-0.57735026918962173
10
3.4975273268096414
20
-22.157420788426339
10
5.997527326809637
20
-23.6007964614004
42
-0.26794919243112192
10
6.9975273268096387
20
-25.332847268969282
10
6.9975273268096281
20
-29.44609592302114
42
-0.57735026918962207
10
5.4975273268096263
20
-30.312121326805581
0
LWPOLYLINE
5
120
100
AcDbEntity
8
0
100
AcDbPolyline
90
8
70
1
43
0.0
10
-11.000000000000004
20
49.000000000000014
10
-12.500000000000002
20
49.000000000000014
42
-0.99999999999999989
10
-12.500000000000002
20
50.000000000000007
10
-12.500000000000002
20
54.000000000000014
42
-0.99999999999999989
10
-12.500000000000002
20
55.000000000000007
10
-11.000000000000004
20
55.000000000000007
42
-0.99999999999999989
10
-11.000000000000004
20
54.000000000000014
10
-11.000000000000004
20
50.000000000000007
42
-0.99999999999999989
0
ARC
5
121
100
AcDbEntity
8
0
100
AcDbCircle
10
-11.500000000000004
20
74.5
30
0
40
3.5000000000000053
100
AcDbArc
50
90
51
179.99990049965007
0
LINE
5
122
100
AcDbEntity
8
0
100
AcDbLine
10
11.5
20
74.5
30
0
11
11.5
21
73
31
0
0
LWPOLYLINE
5
123
100
AcDbEntity
8
0
100
AcDbPolyline
90
8
70
1
43
0.0
10
-3.1414211442804882
20
74.372778999003643
42
-0.45641201076487475
10
-1.9999997934305314
20
73.382829499130779
10
-1.9999999999999885
20
65.999604307034033
42
-0.5773502691896244
10
-3.5000000000000036
20
65.133578903249571
10
-5.999999017154761
20
66.57695400877769
42
-0.26794915458521673
10
-6.9999990171547291
20
68.309004533860843
10
-6.999999673263555
20
72.954257974026689
42
-0.37323782268225247
10
-6.1414210241135105
20
73.944207604258267
0
LWPOLYLINE
5
124
100
AcDbEntity
8
0
100
AcDbPolyline
90
8
70
1
43
0.0
10
3.1414214088591299
20
74.372779503512888
10
6.1414215322709911
20
73.944208533363891
42
-0.37323782829610935
10
7.0000003299812779
20
72.954259012268182
10
7.0000001257441147
20
68.309005959367823
42
-0.26794919243112264
10
6.0000001257441307
20
66.57695515179897
10
3.4999999999999387
20
65.13357940622646
42
-0.5773502691896244
10
1.9999999999999354
20
65.999604810010908
10
2.0000002065693998
20
73.382829993301272
42
-0.45641196214464941
0
CIRCLE
5
125
100
AcDbEntity
8
0
100
AcDbCircle
10
12.500000171363354
20
-26.500000000000004
30
0
40
1.4999999999999991
0
LINE
5
126
100
AcDbEntity
8
0
100
AcDbLine
10
-6.6872809099623209
20
78.866047659478667
30
0
11
-12.085137079621726
21
77.950741166481748
31
0
0
ARC
5
127
100
AcDbEntity
8
0
100
AcDbCircle
10
9.5000001713633537
20
-68.5
30
0
40
3.5000000000000004
100
AcDbArc
50
-119.99999999999997
51
0.092441305193877429
0
LINE
5
128
100
AcDbEntity
8
0
100
AcDbLine
10
7.7500001713633555
20
-71.53108891324554
30
0
11
1.9982986209095219
21
-68.21034247479264
31
0
0
CIRCLE
5
129
100
AcDbEntity
8
0
100
AcDbCircle
10
9.5000001713633537
20
-68.5
30
0
40
1.4999999999999991
0
ARC
5
130
100
AcDbEntity
8
0
100
AcDbCircle
10
11.5
20
74.5
30
0
40
3.5000000000000009
100
AcDbArc
50
0
51
90
0
CIRCLE
5
131
100
AcDbEntity
8
0
100
AcDbCircle
10
-11.500000000000004
20
74.5
30
0
40
1.4999999999999991
0
CIRCLE
5
132
100
AcDbEntity
8
0
100
AcDbCircle
10
11.5
20
74.5
30
0
40
1.4999999999999991
0
LINE
5
133
100
AcDbEntity
8
0
100
AcDbLine
10
-11.500000000000004
20
74.5
30
0
11
-11.500000000000004
21
73
31
0
0
LINE
5
134
100
AcDbEntity
8
0
100
AcDbLine
10
6.6872809099623325
20
78.866047659478667
30
0
11
12.08513707962172
21
77.950741166481748
31
0
0
ARC
5
135
100
AcDbEntity
8
0
100
AcDbCircle
10
-19.700474576987659
20
-15.391273481143591
30
4.7230921835932492e-15
40
1.499999999999998
100
AcDbArc
50
-52.00027810857646
51
127.99972189142385
0
ARC
5
136
100
AcDbEntity
8
0
100
AcDbCircle
10
-25.216570770728922
20
-19.700877033837642
30
3.5197910092077523e-15
40
1.499999999999998
100
AcDbArc
50
127.99972189142375
51
307.99972189142386
0
CIRCLE
5
137
100
AcDbEntity
8
0
100
AcDbCircle
10
31.520021749124595
20
24.626981736020831
30
0
40
1.4999999999999991
0
ARC
5
138
100
AcDbEntity
8
0
100
AcDbCircle
10
25.216570770728918
20
-19.700877033837642
30
-6.0317053673167393e-16
40
1.5000000000000009
100
AcDbArc
50
-127.99972189142375
51
52.000278108576154
0
ARC
5
139
100
AcDbEntity
8
0
100
AcDbCircle
10
40.606254852163921
20
0.00067914445076588947
30
5.1596386872712165e-16
40
19.99999999999994
100
AcDbArc
50
127.99881802387856
51
232.00357751751076
0
LINE
5
140
100
AcDbEntity
8
0
100
AcDbLine
10
24.293084295151619
20
-20.882897646782197
30
-4.584147607147997e-16
11
18.776988101410364
21
-16.573294094088144
31
-9.8618898035488342e-16
0
ARC
5
141
100
AcDbEntity
8
0
100
AcDbCircle
10
25.215911813421258
20
19.701720532940687
30
0
40
1.5000000000000027
100
AcDbArc
50
-52.000278108576254
51
127.99972189142365
0
LINE
5
142
100
AcDbEntity
8
0
100
AcDbLine
10
-24.293084295151619
20
-20.882897646782197
30
3.4881297088280388e-15
11
-18.776988101410367
21
-16.573294094088144
31
4.691430883213535e-15
0
ARC
5
143
100
AcDbEntity
8
0
100
AcDbCircle
10
31.520021749124595
20
24.626981736020831
30
0
40
4.9999999999999973
100
AcDbArc
50
-52.00118197612138
51
127.9988180238787
0
ARC
5
144
100
AcDbEntity
8
0
100
AcDbCircle
10
-40.606254852163921
20
0.00067914445076588947
30
5.1596386872712165e-16
40
19.99999999999994
100
AcDbArc
50
-52.003577517510742
51
52.001181976121444
0
ARC
5
145
100
AcDbEntity
8
0
100
AcDbCircle
10
19.700474576987663
20
-15.391273481143591
30
-1.1309447563717576e-15
40
1.5000000000000009
100
AcDbArc
50
52.000278108576261
51
232.00027810857625
0
LINE
5
146
100
AcDbEntity
8
0
100
AcDbLine
10
28.294009428965303
20
-15.760304728357497
30
6.4082841285654856e-16
11
34.59890680155884
21
-20.686020966165337
31
-4.8252520038921909e-16
0
ARC
5
147
100
AcDbEntity
8
0
100
AcDbCircle
10
-31.520680706432252
20
-24.626138236917789
30
2.1445896670528662e-15
40
5.0000000000000036
100
AcDbArc
50
127.99881802387864
51
307.99881802387864
0
CIRCLE
5
148
100
AcDbEntity
8
0
100
AcDbCircle
10
31.520680706432259
20
-24.626138236917789
30
0
40
1.4999999999999991
0
LINE
5
149
100
AcDbEntity
8
0
100
AcDbLine
10
34.598247844251176
20
20.686864465268382
30
0
11
28.293350471657639
21
15.761148227460538
31
0
0
LINE
5
150
100
AcDbEntity
8
0
100
AcDbLine
10
-20.623961052564962
20
-14.209252868199036
30
4.7547534839729618e-15
11
-26.14005724630622
21
-18.518856420893087
31
3.5514523095874657e-15
0
ARC
5
151
100
AcDbEntity
8
0
100
AcDbCircle
10
19.699815619680002
20
15.392116980246634
30
0
40
1.5000000000000027
100
AcDbArc
50
127.99972189142385
51
307.99972189142358
0
ARC
5
152
100
AcDbEntity
8
0
100
AcDbCircle
10
-19.699815619679999
20
15.392116980246634
30
3.5922281262172518e-15
40
1.5
100
AcDbArc
50
-127.99972189142369
51
52.000278108576367
0
LINE
5
153
100
AcDbEntity
8
0
100
AcDbLine
10
24.292425337843959
20
20.883741145885246
30
0
11
18.7763291441027
21
16.574137593191189
31
0
0
LINE
5
154
100
AcDbEntity
8
0
100
AcDbLine
10
20.623302095257298
20
14.210096367302077
30
0
11
26.139398288998557
21
18.519699919996132
31
0
0
LINE
5
155
100
AcDbEntity
8
0
100
AcDbLine
10
-24.292425337843959
20
20.883741145885246
30
3.029795647109e-15
11
-18.776329144102704
21
16.574137593191189
31
3.7053226018544128e-15
0
ARC
5
156
100
AcDbEntity
8
0
100
AcDbCircle
10
31.520680706432259
20
-24.626138236917789
30
0
40
5.0000000000000009
100
AcDbArc
50
-127.99881802387873
51
52.00118197612143
0
LINE
5
157
100
AcDbEntity
8
0
100
AcDbLine
10
20.623961052564962
20
-14.209252868199036
30
-1.2757005323886319e-15
11
26.14005724630622
21
-18.518856420893087
31
-7.4792631274854816e-16
0
LINE
5
158
100
AcDbEntity
8
0
100
AcDbLine
10
-28.294009428965303
20
-15.760304728357497
30
1.8989145193813787e-15
11
-34.59890680155884
21
-20.686020966165337
31
2.250140893997223e-15
0
ARC
5
159
100
AcDbEntity
8
0
100
AcDbCircle
10
-31.520021749124602
20
24.626981736020831
30
2.1446703660486266e-15
40
4.9999999999999947
100
AcDbArc
50
52.001181976121309
51
232.0011819761215
0
CIRCLE
5
160
100
AcDbEntity
8
0
100
AcDbCircle
10
-31.520680706432252
20
-24.626138236917789
30
2.1445896670528662e-15
40
1.4999999999999991
0
LINE
5
161
100
AcDbEntity
8
0
100
AcDbLine
10
-20.623302095257298
20
14.210096367302077
30
3.4791336505800908e-15
11
-26.139398288998557
21
18.519699919996132
31
2.803606695834678e-15
0
LINE
5
162
100
AcDbEntity
8
0
100
AcDbLine
10
-34.598247844251176
20
20.686864465268382
30
1.767696392603764e-15
11
-28.293350471657639
21
15.761148227460538
31
2.5398236312336874e-15
0
ARC
5
163
100
AcDbEntity
8
0
100
AcDbCircle
10
-25.215911813421251
20
19.701720532940687
30
2.9167011714718386e-15
40
1.5000000000000053
100
AcDbArc
50
52.000278108576566
51
232.00027810857605
0
CIRCLE
5
164
100
AcDbEntity
8
0
100
AcDbCircle
10
-31.520021749124602
20
24.626981736020831
30
2.1446703660486266e-15
40
1.4999999999999991
0
CIRCLE
5
165
100
AcDbEntity
8
0
100
AcDbCircle
10
-10
20
10
30
4.7801129413133127e-15
40
2.25
0
CIRCLE
5
166
100
AcDbEntity
8
0
100
AcDbCircle
10
10
20
10
30
0
40
2.2500000000000009
0
CIRCLE
5
167
100
AcDbEntity
8
0
100
AcDbCircle
10
10
20
-10
30
0
40
2.2500000000000009
0
CIRCLE
5
168
100
AcDbEntity
8
0
100
AcDbCircle
10
-10
20
-10
30
0
40
2.25
0
LINE
5
169
100
AcDbEntity
8
0
100
AcDbLine
10
-31.520021749124602
20
29.626981736020824
30
2.1446703660486274e-15
11
-20.998665278221431
21
29.629421558629755
31
2.1446703660486274e-15
0
LINE
5
170
100
AcDbEntity
8
0
100
AcDbLine
10
-15.000056632593605
20
35.629412655585767
30
1.8579475880951748e-15
11
-14.999999999941673
21
74.500006078252852
31
0
0
LINE
5
171
100
AcDbEntity
8
0
100
AcDbLine
10
31.520012944097317
20
29.626981736013072
30
0
11
20.999999999999996
21
29.626981736013072
31
0
0
LINE
5
172
100
AcDbEntity
8
0
100
AcDbLine
10
14.999999999999996
20
35.626981736013072
30
0
11
15
21
74.5
31
0
0
LINE
5
173
100
AcDbEntity
8
0
100
AcDbLine
10
-31.520680706432252
20
-29.626138236917789
30
1.5322662674791893e-15
11
-21.520680706432252
21
-29.626138236917789
31
1.5322662674791893e-15
0
LINE
5
174
100
AcDbEntity
8
0
100
AcDbLine
10
31.520680706432259
20
-29.626138236917789
30
6.1232339957367594e-16
11
21.520680706432259
21
-29.626138236917789
31
6.1232339957367594e-16
0
ARC
5
175
100
AcDbEntity
8
0
100
AcDbCircle
10
-21.000056632587231
20
35.629421397307496
30
1.857880665905666e-15
40
5.9999999999999929
100
AcDbArc
50
270.01328645561364
51
359.99991652206614
0
ARC
5
176
100
AcDbEntity
8
0
100
AcDbCircle
10
20.999999999999996
20
35.626981736013072
30
0
40
6.0000000000000009
100
AcDbArc
50
180
51
270
0
SPLINE
5
177
100
AcDbEntity
8
0
100
AcDbSpline
70
12
71
2
41
1
41
1.4999999999999984
41
1
72
6
73
3
74
0
42
0.000000001
43
0.0000000001
44
0.0000000001
40
0
40
0
40
0
40
4.1480231147044773
40
4.1480231147044773
40
4.1480231147044773
10
12.999995615981081
20
-68.494353084458155
30
0
10
12.999995615981081
20
-29.626138236917789
30
0
10
21.520680706432259
20
-29.626138236917789
30
6.1232339957367594e-16
0
SPLINE
5
178
100
AcDbEntity
8
0
100
AcDbSpline
70
12
71
2
41
1
41
1.4999999999999998
41
1
72
6
73
3
74
0
42
0.000000001
43
0.0000000001
44
0.0000000001
40
0
40
0
40
0
40
4.1499852586670043
40
4.1499852586670043
40
4.1499852586670043
10
-12.999967647474143
20
-68.515008900756243
30
0
10
-12.999967647474143
20
-29.626138236917789
30
0
10
-21.520680706432252
20
-29.626138236917789
30
1.5322662674791893e-15
0
LWPOLYLINE
5
179
100
AcDbEntity
8
0
100
AcDbPolyline
90
10
70
1
43
0.0
10
-7
20
0
10
-7
20
-1.9585481156726208
42
0.26794919243112264
10
-5.9999999999999982
20
-3.6905989232414993
10
-3.5000000000000009
20
-5.1339745962155625
42
0.57735026918962407
10
-1.9999999999999996
20
-4.2679491924311224
10
-2
20
0
10
-2
20
4.2679491924311233
42
0.57735026918962584
10
-3.5
20
5.1339745962155625
10
-5.9999999999999982
20
3.690598923241498
42
0.26794919243112236
10
-7
20
1.9585481156726203
0
LWPOLYLINE
5
180
100
AcDbEntity
8
0
100
AcDbPolyline
90
10
70
1
43
0.0
10
2
20
4.2679491924311233
42
-0.57735026918962584
10
3.5
20
5.1339745962155625
10
5.9999999999999982
20
3.690598923241498
42
-0.26794919243112236
10
7
20
1.9585481156726203
10
7
20
0
10
7
20
-1.9585481156726208
42
-0.26794919243112264
10
5.9999999999999982
20
-3.6905989232414993
10
3.5000000000000009
20
-5.1339745962155625
42
-0.57735026918962407
10
1.9999999999999996
20
-4.2679491924311224
10
2
20
0
0
CIRCLE
5
181
100
AcDbEntity
8
0
100
AcDbCircle
10
-31.520680706432252
20
-24.626138236917789
30
2.1445896670528662e-15
40
2.2500000000000009
0
CIRCLE
5
182
100
AcDbEntity
8
0
100
AcDbCircle
10
31.520680706432259
20
-24.626138236917789
30
0
40
2.2500000000000009
0
CIRCLE
5
183
100
AcDbEntity
8
0
100
AcDbCircle
10
-31.520021749124602
20
24.626981736020831
30
2.1446703660486266e-15
40
2.2500000000000009
0
CIRCLE
5
184
100
AcDbEntity
8
0
100
AcDbCircle
10
31.520021749124595
20
24.626981736020831
30
0
40
2.2500000000000009
0
ENDSEC
0
SECTION
2
OBJECTS
0
DICTIONARY
5
C
100
AcDbDictionary
3
ACAD_GROUP
350
D
3
ACAD_MLINESTYLE
350
17
0
DICTIONARY
5
D
100
AcDbDictionary
0
DICTIONARY
5
1A
330
C
100
AcDbDictionary
0
DICTIONARY
5
17
100
AcDbDictionary
0
ENDSEC
0
EOF
