0
SECTION
2
HEADER
9
$INSUNITS
70
4
9
$ACADVER
1
AC1014
9
$HANDSEED
5
FFFF
0
ENDSEC
0
SECTION
2
TABLES
0
TABLE
2
VPORT
5
8
100
AcDbSymbolTable
0
ENDTAB
0
TABLE
2
LTYPE
5
5
100
AcDbSymbolTable
0
LTYPE
5
14
100
AcDbSymbolTableRecord
100
AcDbLinetypeTableRecord
2
BYBLOCK
70
0
0
LTYPE
5
15
100
AcDbSymbolTableRecord
100
AcDbLinetypeTableRecord
2
BYLAYER
70
0
0
ENDTAB
0
TABLE
2
LAYER
5
2
100
AcDbSymbolTable
70
2
0
LAYER
5
50
100
AcDbSymbolTableRecord
100
AcDbLayerTableRecord
2
0
70
0
6
CONTINUOUS
0
ENDTAB
0
TABLE
2
STYLE
5
3
100
AcDbSymbolTable
70
1
0
STYLE
5
11
100
AcDbSymbolTableRecord
100
AcDbTextStyleTableRecord
2
STANDARD
70
0
0
ENDTAB
0
TABLE
2
VIEW
5
6
100
AcDbSymbolTable
70
0
0
ENDTAB
0
TABLE
2
UCS
5
7
100
AcDbSymbolTable
70
0
0
ENDTAB
0
TABLE
2
APPID
5
9
100
AcDbSymbolTable
70
2
0
APPID
5
12
100
AcDbSymbolTableRecord
100
AcDbRegAppTableRecord
2
ACAD
70
0
0
ENDTAB
0
TABLE
2
DIMSTYLE
5
A
100
AcDbSymbolTable
70
1
0
ENDTAB
0
TABLE
2
BLOCK_RECORD
5
1
100
AcDbSymbolTable
70
1
0
BLOCK_RECORD
5
1F
100
AcDbSymbolTableRecord
100
AcDbBlockTableRecord
2
*MODEL_SPACE
0
BLOCK_RECORD
5
1B
100
AcDbSymbolTableRecord
100
AcDbBlockTableRecord
2
*PAPER_SPACE
0
ENDTAB
0
ENDSEC
0
SECTION
2
BLOCKS
0
BLOCK
5
20
100
AcDbEntity
100
AcDbBlockBegin
2
*MODEL_SPACE
0
ENDBLK
5
21
100
AcDbEntity
100
AcDbBlockEnd
0
BLOCK
5
1C
100
AcDbEntity
100
AcDbBlockBegin
2
*PAPER_SPACE
0
ENDBLK
5
1D
100
AcDbEntity
100
AcDbBlockEnd
0
ENDSEC
0
SECTION
2
ENTITIES
0
LWPOLYLINE
5
100
100
AcDbEntity
8
0
100
AcDbPolyline
90
40
70
1
43
0.0
10
58.000000000000057
20
31.500000000000007
42
-0.41421356237309509
10
58.500000000000057
20
32.000000000000007
10
62.500000000000028
20
31.999999999999993
42
-0.41421356237309509
10
63.000000000000028
20
31.499999999999993
10
63.000000000000014
20
29.999999999999996
42
0.99999999999999989
10
64.000000000000014
20
29.999999999999996
10
66.000000000000014
20
29.999999999999993
10
66
20
24.999999999999993
42
0.5351837584879986
10
61.384615384615401
20
18.076923076923052
10
66.000000000000014
20
7
10
66.000000000000014
20
2.0000000000000004
10
64.000000000000014
20
2
42
0.99999999999999989
10
63.000000000000014
20
2
10
63.000000000000014
20
0.50000000000000011
42
-0.41421356237309542
10
62.500000000000014
20
1.2559397966072079e-15
10
58.500000000000007
20
-3.1918911957973251e-15
42
-0.4142135623730982
10
58.000000000000007
20
0.50000000000000044
10
58.000000000000007
20
2.0000000000000004
42
0.99999999999999989
10
57.000000000000021
20
2.0000000000000004
10
49.000000000000014
20
2
42
0.99999999999999989
10
48.000000000000014
20
2
10
48.000000000000014
20
0.49999999999999989
42
-0.41421356237309542
10
47.500000000000014
20
1.0061396160665481e-15
10
43.500000000000007
20
-3.4000580129145419e-15
42
-0.4142135623730982
10
43.000000000000007
20
0.50000000000000022
10
43.000000000000007
20
2.0000000000000004
42
0.99999999999999989
10
42.000000000000021
20
2.0000000000000004
10
40.000000000000028
20
2.0000000000000004
42
0.20798724079689132
10
29.999999999999996
20
24.999999999999979
10
30.000000000000004
20
29.999999999999979
10
32.000000000000043
20
29.999999999999865
42
0.99999999999999989
10
33.000000000000057
20
29.999999999999858
10
33.000000000000057
20
31.500000000000014
42
-0.41421356237309509
10
33.500000000000057
20
32.000000000000014
10
37.500000000000028
20
31.999999999999996
42
-0.41421356237309509
10
38.000000000000028
20
31.5
10
38.000000000000014
20
30
42
0.99999999999999989
10
39.000000000000014
20
30
10
57.000000000000043
20
29.999999999999861
42
0.99999999999999989
10
58.000000000000057
20
29.999999999999854
0
LWPOLYLINE
5
101
100
AcDbEntity
8
0
100
AcDbPolyline
90
8
70
1
43
0.0
10
36.668680118889341
20
23.322033898305051
42
-0.13434112422430358
10
44.303647265425219
20
8.581464872944693
42
0.35372856563860777
10
46.259364102654168
20
7.0000000000000009
10
53.403014923119585
20
7
42
0.47357453132348531
10
54.383409501875576
20
8.1970443349753719
42
0.14999224376395009
10
45.599273800508371
20
24.426146010186727
42
0.19671109653259292
10
44.197094226549169
20
24.999999999999964
10
37.40377328642159
20
24.999999999999968
42
0.65366469013644779
0
ARC
5
102
100
AcDbEntity
8
0
100
AcDbCircle
10
-48.500000000000014
20
2
30
5.9395369758646973e-15
40
0.49999999999999822
210
1.2246467991473599e-16
220
0
230
-1
100
AcDbArc
50
0
51
180
0
ARC
5
103
100
AcDbEntity
8
0
100
AcDbCircle
10
-63.500000000000014
20
2
30
7.7765071745857371e-15
40
0.49999999999999822
210
1.2246467991473599e-16
220
0
230
-1
100
AcDbArc
50
0
51
180
0
LWPOLYLINE
5
104
100
AcDbEntity
8
0
100
AcDbPolyline
90
4
70
1
43
0.0
10
58.381993360826065
20
15.353004447294198
42
-0.99999999999999989
10
59.667568580199145
20
13.820915561056237
42
-0.17632698070846475
10
57.000000000000014
20
12.85
42
-0.99999999999999989
10
57.000000000000014
20
14.850000000000001
42
0.17632698070846453
0
LWPOLYLINE
5
105
100
AcDbEntity
8
0
100
AcDbPolyline
90
4
70
1
43
0.0
10
54.332431419800869
20
20.179084438943757
42
-0.176326980708465
10
57.000000000000014
20
21.149999999999991
42
-0.99999999999999989
10
57.000000000000014
20
19.149999999999999
42
0.17632698070846431
10
55.618006639173956
20
18.646995552705803
42
-0.99999999999999989
0
ARC
5
106
100
AcDbEntity
8
0
100
AcDbCircle
10
57.000000000000014
20
17
30
0
40
3.1499999999999972
210
0
220
-0
230
1
100
AcDbArc
50
90
51
130.00000000000003
0
ARC
5
107
100
AcDbEntity
8
0
100
AcDbCircle
10
57.000000000000014
20
17
30
0
40
3.1499999999999995
210
0
220
0
230
1
100
AcDbArc
50
270
51
309.99999999999989
0
ENDSEC
0
SECTION
2
OBJECTS
0
DICTIONARY
5
C
100
AcDbDictionary
3
ACAD_GROUP
350
D
3
ACAD_MLINESTYLE
350
17
0
DICTIONARY
5
D
100
AcDbDictionary
0
DICTIONARY
5
1A
330
C
100
AcDbDictionary
0
DICTIONARY
5
17
100
AcDbDictionary
0
ENDSEC
0
EOF
