0
SECTION
2
HEADER
9
$INSUNITS
70
4
9
$ACADVER
1
AC1014
9
$HANDSEED
5
FFFF
0
ENDSEC
0
SECTION
2
TABLES
0
TABLE
2
VPORT
5
8
100
AcDbSymbolTable
0
ENDTAB
0
TABLE
2
LTYPE
5
5
100
AcDbSymbolTable
0
LTYPE
5
14
100
AcDbSymbolTableRecord
100
AcDbLinetypeTableRecord
2
BYBLOCK
70
0
0
LTYPE
5
15
100
AcDbSymbolTableRecord
100
AcDbLinetypeTableRecord
2
BYLAYER
70
0
0
ENDTAB
0
TABLE
2
LAYER
5
2
100
AcDbSymbolTable
70
2
0
LAYER
5
50
100
AcDbSymbolTableRecord
100
AcDbLayerTableRecord
2
0
70
0
6
CONTINUOUS
0
ENDTAB
0
TABLE
2
STYLE
5
3
100
AcDbSymbolTable
70
1
0
STYLE
5
11
100
AcDbSymbolTableRecord
100
AcDbTextStyleTableRecord
2
STANDARD
70
0
0
ENDTAB
0
TABLE
2
VIEW
5
6
100
AcDbSymbolTable
70
0
0
ENDTAB
0
TABLE
2
UCS
5
7
100
AcDbSymbolTable
70
0
0
ENDTAB
0
TABLE
2
APPID
5
9
100
AcDbSymbolTable
70
2
0
APPID
5
12
100
AcDbSymbolTableRecord
100
AcDbRegAppTableRecord
2
ACAD
70
0
0
ENDTAB
0
TABLE
2
DIMSTYLE
5
A
100
AcDbSymbolTable
70
1
0
ENDTAB
0
TABLE
2
BLOCK_RECORD
5
1
100
AcDbSymbolTable
70
1
0
BLOCK_RECORD
5
1F
100
AcDbSymbolTableRecord
100
AcDbBlockTableRecord
2
*MODEL_SPACE
0
BLOCK_RECORD
5
1B
100
AcDbSymbolTableRecord
100
AcDbBlockTableRecord
2
*PAPER_SPACE
0
ENDTAB
0
ENDSEC
0
SECTION
2
BLOCKS
0
BLOCK
5
20
100
AcDbEntity
100
AcDbBlockBegin
2
*MODEL_SPACE
0
ENDBLK
5
21
100
AcDbEntity
100
AcDbBlockEnd
0
BLOCK
5
1C
100
AcDbEntity
100
AcDbBlockBegin
2
*PAPER_SPACE
0
ENDBLK
5
1D
100
AcDbEntity
100
AcDbBlockEnd
0
ENDSEC
0
SECTION
2
ENTITIES
0
LWPOLYLINE
5
100
100
AcDbEntity
8
0
100
AcDbPolyline
90
4
70
1
43
0.0
10
42.499999999999744
20
29.000000000000469
42
-0.99999999999999989
10
42.499999999999758
20
31.999999999999954
10
61.50000000000027
20
31.999999999999783
42
-0.99999999999999989
10
61.500000000000256
20
29.000000000000302
0
LWPOLYLINE
5
101
100
AcDbEntity
8
0
100
AcDbPolyline
90
22
70
1
43
0.0
10
37.500000000000014
20
31.999999999999964
42
0.99999999999999989
10
38.500000000000007
20
31.999999999999964
10
38.500000000000007
20
33.500000000000128
42
-0.41421356237309509
10
39.000000000000007
20
34.000000000000121
10
64.999999999999986
20
34.000000000000014
42
-0.41421356237309509
10
65.499999999999986
20
33.500000000000014
10
65.499999999999972
20
32.000000000000014
42
0.99999999999999989
10
66.499999999999972
20
32.000000000000014
10
71.500000000000028
20
31.999999999999996
10
71.500000000000028
20
15.999999999999996
42
0.30725519112511973
10
62.000000000000021
20
2.0000000000000004
10
56.000000000000014
20
2.0000000000000004
42
0.99999999999999989
10
55.000000000000014
20
2.0000000000000004
10
55.000000000000014
20
0.50000000000000022
42
-0.41421356237309542
10
54.500000000000021
20
1.2490009027033011e-15
10
49.500000000000014
20
-3.1918911957973251e-15
42
-0.4142135623730982
10
49.000000000000014
20
0.50000000000000044
10
49.000000000000014
20
2.0000000000000004
42
0.99999999999999989
10
48.000000000000028
20
2.0000000000000004
10
42.000000000000028
20
2.0000000000000004
42
0.1650230404152703
10
32.500000000000007
20
29.999999999999982
10
32.500000000000007
20
31.999999999999979
0
ARC
5
102
100
AcDbEntity
8
0
100
AcDbCircle
10
55.500000000000014
20
2.0000000000000004
30
0
40
0.49999999999999822
100
AcDbArc
50
0
51
180
0
CIRCLE
5
103
100
AcDbEntity
8
0
100
AcDbCircle
10
67.500000000000014
20
17.999999999999996
30
0
40
0.99999999999999645
0
LWPOLYLINE
5
104
100
AcDbEntity
8
0
100
AcDbPolyline
90
8
70
1
43
0.0
10
46.667044636623103
20
25.000000000000398
42
-0.27498529656799642
10
48.424710043130325
20
23.954260089686539
42
-0.096820303675502289
10
53.715253127992931
20
7.1110786319793018
42
-0.44720379110480424
10
52.721441507253033
20
6.0000000000003437
10
47.733360855170723
20
6.0000000000003499
42
-0.38333778858804779
10
46.739032440675061
20
6.8936467954103664
42
0.095392684690719959
10
41.651097893543614
20
23.532045899804501
42
-0.56520598325875848
10
42.534850664464216
20
25.00000000000043
0
LINE
5
105
100
AcDbEntity
8
0
100
AcDbLine
10
61.50000000000027
20
31.999999999999783
30
-9.8607613152626476e-31
11
42.499999999999773
21
31.999999999999954
31
-9.8607613152626476e-31
0
LWPOLYLINE
5
106
100
AcDbEntity
8
0
100
AcDbPolyline
90
4
70
1
43
0.0
10
59.073511125691255
20
10.92933629344806
42
-0.176326980708465
10
56.500000000000014
20
17.999999999999996
42
0.99999999999999989
10
54.500000000000021
20
17.999999999999996
42
0.17632698070846495
10
57.541422239453304
20
9.6437610740749875
42
0.99999999999999989
0
ARC
5
107
100
AcDbEntity
8
0
100
AcDbCircle
10
67.500000000000014
20
17.999999999999996
30
0
40
12.000000000000002
100
AcDbArc
50
180
51
219.99999999999997
0
ENDSEC
0
SECTION
2
OBJECTS
0
DICTIONARY
5
C
100
AcDbDictionary
3
ACAD_GROUP
350
D
3
ACAD_MLINESTYLE
350
17
0
DICTIONARY
5
D
100
AcDbDictionary
0
DICTIONARY
5
1A
330
C
100
AcDbDictionary
0
DICTIONARY
5
17
100
AcDbDictionary
0
ENDSEC
0
EOF
