0
SECTION
2
HEADER
9
$INSUNITS
70
4
9
$ACADVER
1
AC1014
9
$HANDSEED
5
FFFF
0
ENDSEC
0
SECTION
2
TABLES
0
TABLE
2
VPORT
5
8
100
AcDbSymbolTable
0
ENDTAB
0
TABLE
2
LTYPE
5
5
100
AcDbSymbolTable
0
LTYPE
5
14
100
AcDbSymbolTableRecord
100
AcDbLinetypeTableRecord
2
BYBLOCK
70
0
0
LTYPE
5
15
100
AcDbSymbolTableRecord
100
AcDbLinetypeTableRecord
2
BYLAYER
70
0
0
ENDTAB
0
TABLE
2
LAYER
5
2
100
AcDbSymbolTable
70
2
0
LAYER
5
50
100
AcDbSymbolTableRecord
100
AcDbLayerTableRecord
2
0
70
0
6
CONTINUOUS
0
ENDTAB
0
TABLE
2
STYLE
5
3
100
AcDbSymbolTable
70
1
0
STYLE
5
11
100
AcDbSymbolTableRecord
100
AcDbTextStyleTableRecord
2
STANDARD
70
0
0
ENDTAB
0
TABLE
2
VIEW
5
6
100
AcDbSymbolTable
70
0
0
ENDTAB
0
TABLE
2
UCS
5
7
100
AcDbSymbolTable
70
0
0
ENDTAB
0
TABLE
2
APPID
5
9
100
AcDbSymbolTable
70
2
0
APPID
5
12
100
AcDbSymbolTableRecord
100
AcDbRegAppTableRecord
2
ACAD
70
0
0
ENDTAB
0
TABLE
2
DIMSTYLE
5
A
100
AcDbSymbolTable
70
1
0
ENDTAB
0
TABLE
2
BLOCK_RECORD
5
1
100
AcDbSymbolTable
70
1
0
BLOCK_RECORD
5
1F
100
AcDbSymbolTableRecord
100
AcDbBlockTableRecord
2
*MODEL_SPACE
0
BLOCK_RECORD
5
1B
100
AcDbSymbolTableRecord
100
AcDbBlockTableRecord
2
*PAPER_SPACE
0
ENDTAB
0
ENDSEC
0
SECTION
2
BLOCKS
0
BLOCK
5
20
100
AcDbEntity
100
AcDbBlockBegin
2
*MODEL_SPACE
0
ENDBLK
5
21
100
AcDbEntity
100
AcDbBlockEnd
0
BLOCK
5
1C
100
AcDbEntity
100
AcDbBlockBegin
2
*PAPER_SPACE
0
ENDBLK
5
1D
100
AcDbEntity
100
AcDbBlockEnd
0
ENDSEC
0
SECTION
2
ENTITIES
0
LWPOLYLINE
5
100
100
AcDbEntity
8
0
100
AcDbPolyline
90
8
70
1
43
0.0
10
47.263812576162742
20
23.000000000000369
42
-0.2020479848472507
10
48.694975265586436
20
22.397058823529818
42
-0.1498806749396496
10
56.537353971863183
20
7.1773049645390188
42
-0.46743867283361612
10
55.553198013922668
20
6.0000000000000133
10
48.417641973215396
20
6.0000000000000151
42
-0.35860579235097406
10
46.454972615958013
20
7.6153846153846319
42
0.13335891777004347
10
39.679019378614008
20
21.337748344371342
42
-0.64613595927255796
10
40.428300864183001
20
23.000000000000501
0
ARC
5
101
100
AcDbEntity
8
0
100
AcDbCircle
10
66.500000000000028
20
0.49999999999999922
30
-5.6129644960920486e-17
40
0.49999999999999822
210
1.0205389992894599e-17
220
1.5407439555097942e-32
230
1
100
AcDbArc
50
-90
51
0
0
LWPOLYLINE
5
102
100
AcDbEntity
8
0
100
AcDbPolyline
90
4
70
1
43
0.0
10
41.999999999999751
20
29.99999999999995
10
60.00000000000027
20
29.999999999999783
42
-0.99999999999999989
10
60.000000000000249
20
27.000000000000298
10
41.999999999999751
20
27.000000000000469
42
-0.99999999999999989
0
ARC
5
103
100
AcDbEntity
8
0
100
AcDbCircle
10
-67.500000000000014
20
2
30
8.2663658942446825e-15
40
0.49999999999999822
210
1.2246467991473599e-16
220
0
230
-1
100
AcDbArc
50
0
51
180
0
LINE
5
104
100
AcDbEntity
8
0
100
AcDbLine
10
64.999999999999972
20
30.000000000000014
30
-9.8607613152626476e-31
11
70.000000000000014
21
29.999999999999996
31
2.4492935982946911e-16
0
LINE
5
105
100
AcDbEntity
8
0
100
AcDbLine
10
63.499999999999979
20
32.000000000000014
30
-3.6739403974420663e-16
11
38.500000000000007
21
32.000000000000121
31
-3.6739403974420663e-16
0
LINE
5
106
100
AcDbEntity
8
0
100
AcDbLine
10
60.00000000000027
20
29.999999999999783
30
-9.8607613152626476e-31
11
41.999999999999773
21
29.99999999999995
31
-9.8607613152626476e-31
0
LINE
5
107
100
AcDbEntity
8
0
100
AcDbLine
10
42.000000000000028
20
2.0000000000000004
30
0
11
44.000000000000028
21
2.0000000000000004
31
0
0
LWPOLYLINE
5
108
100
AcDbEntity
8
0
100
AcDbPolyline
90
4
70
1
43
0.0
10
57.786061951567326
20
20.83022221559489
42
-0.17632698070846464
10
61.000000000000014
20
21.999999999999996
42
0.99999999999999989
10
61.000000000000014
20
24
42
0.17632698070846478
10
56.50048673219424
20
22.362311101832848
42
0.99999999999999989
0
LINE
5
109
100
AcDbEntity
8
0
100
AcDbLine
10
61.000000000000021
20
2.0000000000000004
30
0
11
51.000000000000014
21
2
31
6.1232339957366785e-17
0
LINE
5
110
100
AcDbEntity
8
0
100
AcDbLine
10
38.000000000000007
20
31.500000000000124
30
-9.4910126933915322e-16
11
38.000000000000007
21
29.999999999999964
31
-2.694222958124178e-15
0
ARC
5
111
100
AcDbEntity
8
0
100
AcDbCircle
10
61.000000000000014
20
17
30
0
40
5.9999999999999982
210
0
220
-0
230
1
100
AcDbArc
50
90
51
129.99999999999997
0
ARC
5
112
100
AcDbEntity
8
0
100
AcDbCircle
10
-67.500000000000014
20
2
30
8.2663658942446825e-15
40
0.49999999999999822
210
1.2246467991473599e-16
220
0
230
-1
100
AcDbArc
50
0
51
180
0
ARC
5
113
100
AcDbEntity
8
0
100
AcDbCircle
10
12.799999999999816
20
2.0000000000000004
30
7.1519373070205279e-16
40
29.200000000000212
210
2.449293598294684e-17
220
0
230
1
100
AcDbArc
50
0
51
48.887909560832966
0
LINE
5
114
100
AcDbEntity
8
0
100
AcDbLine
10
31.999999999999996
20
24.000000000000124
30
2.4492935982946911e-16
11
32.000000000000007
21
29.999999999999979
31
-2.5717582782094428e-15
0
LINE
5
115
100
AcDbEntity
8
0
100
AcDbLine
10
67.000000000000014
20
2
30
-6.1232339957367771e-17
11
67.000000000000014
21
0.49999999999999989
31
-6.1232339957367771e-17
0
ARC
5
116
100
AcDbEntity
8
0
100
AcDbCircle
10
38.500000000000007
20
31.500000000000124
30
-9.4910126933915283e-16
40
0.49999999999999822
210
-8.3692911454562392e-31
220
-1.1634144591898965e-15
230
1
100
AcDbArc
50
90
51
180
0
ARC
5
117
100
AcDbEntity
8
0
100
AcDbCircle
10
-37.500000000000007
20
29.999999999999964
30
-1.9594348786357916e-15
40
0.49999999999999822
210
-1.2246467991473599e-16
220
-2.9995195653237108e-32
230
-1
100
AcDbArc
50
-180
51
0
0
LINE
5
118
100
AcDbEntity
8
0
100
AcDbLine
10
37.000000000000014
20
29.999999999999964
30
-2.5717582782094436e-15
11
32.000000000000007
21
29.999999999999979
31
-2.5717582782094428e-15
0
LINE
5
119
100
AcDbEntity
8
0
100
AcDbLine
10
70
20
24.000000000000014
30
2.4492935982946911e-16
11
70.000000000000014
21
29.999999999999996
31
-7.3478807948841227e-16
0
LINE
5
120
100
AcDbEntity
8
0
100
AcDbLine
10
70.000000000000014
20
2.0000000000000004
30
-7.3478807948841227e-16
11
70.000000000000014
21
8.0000000000000142
31
-7.3478807948841138e-16
0
ARC
5
121
100
AcDbEntity
8
0
100
AcDbCircle
10
61.500000000000021
20
2.0000000000000004
30
0
40
0.49999999999998934
210
0
220
0
230
1
100
AcDbArc
50
0
51
180
0
LINE
5
122
100
AcDbEntity
8
0
100
AcDbLine
10
49.500000000000021
20
1.0061396160665479e-15
30
-5.6129644960920486e-17
11
45.500000000000007
21
-3.3653635433950058e-15
31
-5.1026949964472624e-18
0
ARC
5
123
100
AcDbEntity
8
0
100
AcDbCircle
10
44.500000000000021
20
2.0000000000000004
30
0
40
0.49999999999998934
210
0
220
0
230
1
100
AcDbArc
50
0
51
180
0
ARC
5
124
100
AcDbEntity
8
0
100
AcDbCircle
10
-50.500000000000014
20
2
30
6.1844663356941692e-15
40
0.49999999999999822
210
1.2246467991473599e-16
220
0
230
-1
100
AcDbArc
50
0
51
180
0
LINE
5
125
100
AcDbEntity
8
0
100
AcDbLine
10
45.000000000000007
20
2.0000000000000004
30
0
11
45.000000000000007
21
0.50000000000000033
31
0
0
ARC
5
126
100
AcDbEntity
8
0
100
AcDbCircle
10
49.500000000000021
20
0.49999999999999922
30
-5.6129644960920486e-17
40
0.49999999999999822
210
1.0205389992894599e-17
220
1.5407439555097942e-32
230
1
100
AcDbArc
50
-90
51
0
0
LINE
5
127
100
AcDbEntity
8
0
100
AcDbLine
10
50.000000000000014
20
2
30
-6.1232339957367771e-17
11
50.000000000000014
21
0.49999999999999989
31
-6.1232339957367771e-17
0
ARC
5
128
100
AcDbEntity
8
0
100
AcDbCircle
10
-50.500000000000014
20
2
30
6.1844663356941692e-15
40
0.49999999999999822
210
1.2246467991473599e-16
220
0
230
-1
100
AcDbArc
50
0
51
180
0
ARC
5
129
100
AcDbEntity
8
0
100
AcDbCircle
10
45.500000000000007
20
0.49999999999999484
30
-5.1026949964472539e-18
40
0.49999999999999822
210
1.0205389992894545e-17
220
-1.8889025154674937e-32
230
1
100
AcDbArc
50
180
51
270
0
LINE
5
130
100
AcDbEntity
8
0
100
AcDbLine
10
66.500000000000028
20
1.0061396160665479e-15
30
-5.6129644960920486e-17
11
62.500000000000007
21
-3.3653635433950058e-15
31
-5.1026949964472624e-18
0
LINE
5
131
100
AcDbEntity
8
0
100
AcDbLine
10
68.000000000000014
20
2
30
6.1232339957366785e-17
11
70.000000000000014
21
2.0000000000000004
31
-7.3478807948841227e-16
0
CIRCLE
5
132
100
AcDbEntity
8
0
100
AcDbCircle
10
61.000000000000014
20
17
30
0
40
0.99999999999999645
210
0
220
0
230
1
0
ARC
5
133
100
AcDbEntity
8
0
100
AcDbCircle
10
62.500000000000007
20
0.49999999999999484
30
-5.1026949964472539e-18
40
0.49999999999999822
210
1.0205389992894545e-17
220
-1.8889025154674937e-32
230
1
100
AcDbArc
50
180
51
270
0
LINE
5
134
100
AcDbEntity
8
0
100
AcDbLine
10
62.000000000000014
20
2.0000000000000004
30
0
11
62.000000000000014
21
0.50000000000000033
31
0
0
LINE
5
135
100
AcDbEntity
8
0
100
AcDbLine
10
63.999999999999972
20
30.000000000000014
30
-9.8607613152626476e-31
11
63.999999999999979
21
31.500000000000014
31
-2.7554552980815502e-16
0
ARC
5
136
100
AcDbEntity
8
0
100
AcDbCircle
10
63.499999999999979
20
31.500000000000014
30
-2.7554552980815477e-16
40
0.49999999999999822
210
4.9303806576313413e-31
220
1.8369701987210435e-16
230
1
100
AcDbArc
50
0
51
90
0
ARC
5
137
100
AcDbEntity
8
0
100
AcDbCircle
10
64.499999999999972
20
30.000000000000014
30
-9.8607613152626476e-31
40
0.49999999999999822
210
0
220
1.4997597826618576e-32
230
1
100
AcDbArc
50
-180
51
0
0
LINE
5
138
100
AcDbEntity
8
0
100
AcDbLine
10
70.000000000000014
20
8.0000000000000142
30
-7.3478807948841138e-16
11
65.54638228584875
21
16.72727272727273
31
1.0613605592610391e-15
0
ARC
5
139
100
AcDbEntity
8
0
100
AcDbCircle
10
69.999999999999972
20
19.000000000000014
30
1.0613605592610391e-15
40
5
210
8.701638870060115e-31
220
1.63286239886314e-16
230
1
100
AcDbArc
50
89.999999999999673
51
207.03569178941245
0
ENDSEC
0
SECTION
2
OBJECTS
0
DICTIONARY
5
C
100
AcDbDictionary
3
ACAD_GROUP
350
D
3
ACAD_MLINESTYLE
350
17
0
DICTIONARY
5
D
100
AcDbDictionary
0
DICTIONARY
5
1A
330
C
100
AcDbDictionary
0
DICTIONARY
5
17
100
AcDbDictionary
0
ENDSEC
0
EOF
