0
SECTION
2
HEADER
9
$INSUNITS
70
4
9
$ACADVER
1
AC1014
9
$HANDSEED
5
FFFF
0
ENDSEC
0
SECTION
2
TABLES
0
TABLE
2
VPORT
5
8
100
AcDbSymbolTable
0
ENDTAB
0
TABLE
2
LTYPE
5
5
100
AcDbSymbolTable
0
LTYPE
5
14
100
AcDbSymbolTableRecord
100
AcDbLinetypeTableRecord
2
BYBLOCK
70
0
0
LTYPE
5
15
100
AcDbSymbolTableRecord
100
AcDbLinetypeTableRecord
2
BYLAYER
70
0
0
ENDTAB
0
TABLE
2
LAYER
5
2
100
AcDbSymbolTable
70
2
0
LAYER
5
50
100
AcDbSymbolTableRecord
100
AcDbLayerTableRecord
2
0
70
0
6
CONTINUOUS
0
ENDTAB
0
TABLE
2
STYLE
5
3
100
AcDbSymbolTable
70
1
0
STYLE
5
11
100
AcDbSymbolTableRecord
100
AcDbTextStyleTableRecord
2
STANDARD
70
0
0
ENDTAB
0
TABLE
2
VIEW
5
6
100
AcDbSymbolTable
70
0
0
ENDTAB
0
TABLE
2
UCS
5
7
100
AcDbSymbolTable
70
0
0
ENDTAB
0
TABLE
2
APPID
5
9
100
AcDbSymbolTable
70
2
0
APPID
5
12
100
AcDbSymbolTableRecord
100
AcDbRegAppTableRecord
2
ACAD
70
0
0
ENDTAB
0
TABLE
2
DIMSTYLE
5
A
100
AcDbSymbolTable
70
1
0
ENDTAB
0
TABLE
2
BLOCK_RECORD
5
1
100
AcDbSymbolTable
70
1
0
BLOCK_RECORD
5
1F
100
AcDbSymbolTableRecord
100
AcDbBlockTableRecord
2
*MODEL_SPACE
0
BLOCK_RECORD
5
1B
100
AcDbSymbolTableRecord
100
AcDbBlockTableRecord
2
*PAPER_SPACE
0
ENDTAB
0
ENDSEC
0
SECTION
2
BLOCKS
0
BLOCK
5
20
100
AcDbEntity
100
AcDbBlockBegin
2
*MODEL_SPACE
0
ENDBLK
5
21
100
AcDbEntity
100
AcDbBlockEnd
0
BLOCK
5
1C
100
AcDbEntity
100
AcDbBlockBegin
2
*PAPER_SPACE
0
ENDBLK
5
1D
100
AcDbEntity
100
AcDbBlockEnd
0
ENDSEC
0
SECTION
2
ENTITIES
0
LWPOLYLINE
5
100
100
AcDbEntity
8
0
100
AcDbPolyline
90
32
70
1
43
0.0
10
22.975068984037183
20
26.544962511333637
42
-0.013529270000440347
10
19.248132552690002
20
22.926871559800968
42
-0.094927329041325018
10
12.848443597794299
20
18.965792438246353
42
-0.18452687880121735
10
-12.848443597794228
20
18.965792438246311
42
-0.094927329041320757
10
-19.248132552690002
20
22.926871559800944
42
-0.013529270000439356
10
-22.975068984037151
20
26.544962511333633
10
-24.887702452420545
20
28.504996070554508
42
1.189902383705616
10
-32.261423254142514
20
18.276931732682101
10
-29.797413293713191
20
17.081710726944934
42
-0.015166641297849287
10
-24.638043854250185
20
14.382790500194103
42
-0.21269894356567373
10
-16.867246048169559
20
3.9316083590320146
42
-0.110545950386749
10
-16.867246048170173
20
-3.9316083590347572
42
-0.21269894356562163
10
-24.638043854250704
20
-14.382790500194346
42
-0.015166641297848376
10
-29.797413293713213
20
-17.08171072694492
10
-32.261423254142521
20
-18.276931732682101
42
1.189902383705616
10
-24.887702452420548
20
-28.504996070554519
10
-22.975068984037371
20
-26.544962511333814
42
-0.013529270000441457
10
-19.248132552689889
20
-22.926871559800848
42
-0.094927329041332525
10
-12.848443597794006
20
-18.965792438246233
42
-0.18452687880121493
10
12.84844359779418
20
-18.965792438246293
42
-0.094927329041326711
10
19.248132552689956
20
-22.926871559800936
42
-0.013529270000441412
10
22.975068984037158
20
-26.544962511333633
10
24.887702452420541
20
-28.504996070554508
42
1.1899023837056162
10
32.261423254142514
20
-18.276931732682101
10
29.797413293713202
20
-17.081710726944934
42
-0.015166641297849287
10
24.638043854250714
20
-14.382790500194378
42
-0.21269894356561814
10
16.867246048170202
20
-3.9316083590349136
42
-0.11054595038679552
10
16.867246048170244
20
3.9316083590350983
42
-0.21269894356561897
10
24.638043854250704
20
14.382790500194353
42
-0.015166641297848376
10
29.797413293713213
20
17.08171072694492
10
32.261423254142514
20
18.276931732682101
42
1.1899023837056162
10
24.887702452420541
20
28.504996070554512
0
CIRCLE
5
101
100
AcDbEntity
8
0
100
AcDbCircle
10
0
20
0
30
-3.2508203372991223e-15
40
4
210
0
220
0
230
1
0
CIRCLE
5
102
100
AcDbEntity
8
0
100
AcDbCircle
10
-10.000016395170812
20
10.000011803910581
30
-2.026172092589637e-15
40
2.25
210
0
220
0
230
1
0
CIRCLE
5
103
100
AcDbEntity
8
0
100
AcDbCircle
10
10.000016395170812
20
10.000011803910589
30
0
40
2.2500000000000009
210
0
220
0
230
1
0
CIRCLE
5
104
100
AcDbEntity
8
0
100
AcDbCircle
10
29.468233097462651
20
24.035237798586095
30
0
40
2.2500000000000009
210
0
220
0
230
1
0
CIRCLE
5
105
100
AcDbEntity
8
0
100
AcDbCircle
10
-29.468233097462651
20
24.035237798586092
30
-3.0735263362072865e-16
40
2.2500000000000009
210
0
220
0
230
1
0
CIRCLE
5
106
100
AcDbEntity
8
0
100
AcDbCircle
10
-10.000016395170812
20
-10.000011803910594
30
0
40
2.25
210
0
220
0
230
1
0
CIRCLE
5
107
100
AcDbEntity
8
0
100
AcDbCircle
10
-29.468233097462662
20
-24.035237798586099
30
0
40
2.2500000000000009
210
0
220
0
230
1
0
CIRCLE
5
108
100
AcDbEntity
8
0
100
AcDbCircle
10
10.000016395170812
20
-10.000011803910587
30
-2.026172092589637e-15
40
2.2500000000000009
210
0
220
0
230
1
0
CIRCLE
5
109
100
AcDbEntity
8
0
100
AcDbCircle
10
29.468233097462651
20
-24.035237798586095
30
-3.0735263362072865e-16
40
2.2500000000000009
210
0
220
0
230
1
0
ENDSEC
0
SECTION
2
OBJECTS
0
DICTIONARY
5
C
100
AcDbDictionary
3
ACAD_GROUP
350
D
3
ACAD_MLINESTYLE
350
17
0
DICTIONARY
5
D
100
AcDbDictionary
0
DICTIONARY
5
1A
330
C
100
AcDbDictionary
0
DICTIONARY
5
17
100
AcDbDictionary
0
ENDSEC
0
EOF
