0
SECTION
2
HEADER
9
$INSUNITS
70
4
9
$ACADVER
1
AC1014
9
$HANDSEED
5
FFFF
0
ENDSEC
0
SECTION
2
TABLES
0
TABLE
2
VPORT
5
8
100
AcDbSymbolTable
0
ENDTAB
0
TABLE
2
LTYPE
5
5
100
AcDbSymbolTable
0
LTYPE
5
14
100
AcDbSymbolTableRecord
100
AcDbLinetypeTableRecord
2
BYBLOCK
70
0
0
LTYPE
5
15
100
AcDbSymbolTableRecord
100
AcDbLinetypeTableRecord
2
BYLAYER
70
0
0
ENDTAB
0
TABLE
2
LAYER
5
2
100
AcDbSymbolTable
70
2
0
LAYER
5
50
100
AcDbSymbolTableRecord
100
AcDbLayerTableRecord
2
0
70
0
6
CONTINUOUS
0
ENDTAB
0
TABLE
2
STYLE
5
3
100
AcDbSymbolTable
70
1
0
STYLE
5
11
100
AcDbSymbolTableRecord
100
AcDbTextStyleTableRecord
2
STANDARD
70
0
0
ENDTAB
0
TABLE
2
VIEW
5
6
100
AcDbSymbolTable
70
0
0
ENDTAB
0
TABLE
2
UCS
5
7
100
AcDbSymbolTable
70
0
0
ENDTAB
0
TABLE
2
APPID
5
9
100
AcDbSymbolTable
70
2
0
APPID
5
12
100
AcDbSymbolTableRecord
100
AcDbRegAppTableRecord
2
ACAD
70
0
0
ENDTAB
0
TABLE
2
DIMSTYLE
5
A
100
AcDbSymbolTable
70
1
0
ENDTAB
0
TABLE
2
BLOCK_RECORD
5
1
100
AcDbSymbolTable
70
1
0
BLOCK_RECORD
5
1F
100
AcDbSymbolTableRecord
100
AcDbBlockTableRecord
2
*MODEL_SPACE
0
BLOCK_RECORD
5
1B
100
AcDbSymbolTableRecord
100
AcDbBlockTableRecord
2
*PAPER_SPACE
0
ENDTAB
0
ENDSEC
0
SECTION
2
BLOCKS
0
BLOCK
5
20
100
AcDbEntity
100
AcDbBlockBegin
2
*MODEL_SPACE
0
ENDBLK
5
21
100
AcDbEntity
100
AcDbBlockEnd
0
BLOCK
5
1C
100
AcDbEntity
100
AcDbBlockBegin
2
*PAPER_SPACE
0
ENDBLK
5
1D
100
AcDbEntity
100
AcDbBlockEnd
0
ENDSEC
0
SECTION
2
ENTITIES
0
LWPOLYLINE
5
100
100
AcDbEntity
8
0
100
AcDbPolyline
90
28
70
1
43
0.0
10
-24.614701021481309
20
13.83673333216902
42
-0.17177377797598486
10
-18.724172014097405
20
8.4105891336852885
42
-0.24799604151288165
10
-18.724172014097405
20
-8.4105891336852778
42
-0.17177377797598622
10
-24.614701021481306
20
-13.836733332169011
10
-30.617070994646763
20
-16.403969417718564
42
1.2470910553583892
10
-22.641399289096075
20
-27.500556138484725
10
-21.350677976201432
20
-26.054079253576631
42
-0.012520592152738366
10
-18.609536580158245
20
-23.13280019577002
42
-0.11495295962658453
10
-12.470186006610401
20
-19.255805673521436
42
-0.16875409573267883
10
12.470186006610536
20
-19.255805673521479
42
-0.11495295962657993
10
18.609536580158327
20
-23.132800195770102
42
-0.012520592152737806
10
21.350677976201382
20
-26.054079253576589
10
22.641399289096071
20
-27.500556138484743
42
1.2470910553583872
10
30.617070994646767
20
-16.403969417718574
10
24.614701021481306
20
-13.836733332169025
42
-0.17177377797598475
10
18.724172014097405
20
-8.4105891336852867
42
-0.24799604151288143
10
18.724172014097398
20
8.4105891336852796
42
-0.17177377797598634
10
24.614701021481306
20
13.836733332169015
10
30.617070994646763
20
16.403969417718571
42
1.2470910553583887
10
22.641399289096071
20
27.500556138484736
10
21.350677976201418
20
26.054079253576631
42
-0.012520592152738366
10
18.609536580158245
20
23.132800195770024
42
-0.11495295962658453
10
12.470186006610399
20
19.255805673521436
42
-0.16875409573267883
10
-12.470186006610543
20
19.25580567352149
42
-0.1149529596265797
10
-18.60953658015832
20
23.132800195770102
42
-0.012520592152737806
10
-21.350677976201389
20
26.054079253576585
10
-22.641399289096078
20
27.500556138484736
42
1.2470910553583883
10
-30.617070994646763
20
16.403969417718571
0
CIRCLE
5
101
100
AcDbEntity
8
0
100
AcDbCircle
10
-10.000016395170812
20
10.000011803910596
30
-2.3541180283179981e-16
40
2.25
210
0
220
0
230
1
0
CIRCLE
5
102
100
AcDbEntity
8
0
100
AcDbCircle
10
10.000016395170812
20
10.000011803910589
30
0
40
2.2500000000000009
210
0
220
0
230
1
0
CIRCLE
5
103
100
AcDbEntity
8
0
100
AcDbCircle
10
-10.000016395170812
20
-10.000011803910587
30
0
40
2.25
210
0
220
0
230
1
0
CIRCLE
5
104
100
AcDbEntity
8
0
100
AcDbCircle
10
10.000016395170812
20
-10.000011803910596
30
-2.3541180283179981e-16
40
2.2500000000000009
210
0
220
0
230
1
0
CIRCLE
5
105
100
AcDbEntity
8
0
100
AcDbCircle
10
27.864354564710503
20
-22.840004863267254
30
0
40
2.2500000000000009
210
0
220
0
230
1
0
CIRCLE
5
106
100
AcDbEntity
8
0
100
AcDbCircle
10
27.864354564710506
20
22.84000486326725
30
0
40
2.2500000000000009
210
0
220
0
230
1
0
CIRCLE
5
107
100
AcDbEntity
8
0
100
AcDbCircle
10
-27.864354564710506
20
22.84000486326725
30
0
40
2.2500000000000009
210
0
220
0
230
1
0
CIRCLE
5
108
100
AcDbEntity
8
0
100
AcDbCircle
10
-27.864354564710506
20
-22.840004863267247
30
0
40
2.2500000000000009
210
0
220
0
230
1
0
LWPOLYLINE
5
109
100
AcDbEntity
8
0
100
AcDbPolyline
90
6
70
1
43
0.0
10
-0.76962224638397136
20
9.090373715838572
10
-3.710543330240327
20
12.635244665353486
42
-0.66191505178256715
10
-2.8655128509369705
20
14.270896900456194
42
0.037757869586537922
10
2.8655128509369572
20
14.270896900456197
42
-0.66191505178256993
10
3.7105433302403275
20
12.635244665353483
10
0.76962224638397692
20
9.0903737158385702
42
-0.46971161809764861
0
LWPOLYLINE
5
110
100
AcDbEntity
8
0
100
AcDbPolyline
90
6
70
1
43
0.0
10
0.76962224638400867
20
-9.0903737158385596
42
0.46971161809764839
10
-0.76962224638394028
20
-9.0903737158385596
10
-3.7105433302402959
20
-12.635244665353474
42
0.66191505178256715
10
-2.8655128509369394
20
-14.27089690045619
42
-0.037757869586537547
10
2.8655128509369874
20
-14.270896900456183
42
0.66191505178256949
10
3.7105433302403585
20
-12.635244665353472
0
ENDSEC
0
SECTION
2
OBJECTS
0
DICTIONARY
5
C
100
AcDbDictionary
3
ACAD_GROUP
350
D
3
ACAD_MLINESTYLE
350
17
0
DICTIONARY
5
D
100
AcDbDictionary
0
DICTIONARY
5
1A
330
C
100
AcDbDictionary
0
DICTIONARY
5
17
100
AcDbDictionary
0
ENDSEC
0
EOF
