0
SECTION
2
HEADER
9
$INSUNITS
70
4
9
$ACADVER
1
AC1014
9
$HANDSEED
5
FFFF
0
ENDSEC
0
SECTION
2
TABLES
0
TABLE
2
VPORT
5
8
100
AcDbSymbolTable
0
ENDTAB
0
TABLE
2
LTYPE
5
5
100
AcDbSymbolTable
0
LTYPE
5
14
100
AcDbSymbolTableRecord
100
AcDbLinetypeTableRecord
2
BYBLOCK
70
0
0
LTYPE
5
15
100
AcDbSymbolTableRecord
100
AcDbLinetypeTableRecord
2
BYLAYER
70
0
0
ENDTAB
0
TABLE
2
LAYER
5
2
100
AcDbSymbolTable
70
2
0
LAYER
5
50
100
AcDbSymbolTableRecord
100
AcDbLayerTableRecord
2
0
70
0
6
CONTINUOUS
0
ENDTAB
0
TABLE
2
STYLE
5
3
100
AcDbSymbolTable
70
1
0
STYLE
5
11
100
AcDbSymbolTableRecord
100
AcDbTextStyleTableRecord
2
STANDARD
70
0
0
ENDTAB
0
TABLE
2
VIEW
5
6
100
AcDbSymbolTable
70
0
0
ENDTAB
0
TABLE
2
UCS
5
7
100
AcDbSymbolTable
70
0
0
ENDTAB
0
TABLE
2
APPID
5
9
100
AcDbSymbolTable
70
2
0
APPID
5
12
100
AcDbSymbolTableRecord
100
AcDbRegAppTableRecord
2
ACAD
70
0
0
ENDTAB
0
TABLE
2
DIMSTYLE
5
A
100
AcDbSymbolTable
70
1
0
ENDTAB
0
TABLE
2
BLOCK_RECORD
5
1
100
AcDbSymbolTable
70
1
0
BLOCK_RECORD
5
1F
100
AcDbSymbolTableRecord
100
AcDbBlockTableRecord
2
*MODEL_SPACE
0
BLOCK_RECORD
5
1B
100
AcDbSymbolTableRecord
100
AcDbBlockTableRecord
2
*PAPER_SPACE
0
ENDTAB
0
ENDSEC
0
SECTION
2
BLOCKS
0
BLOCK
5
20
100
AcDbEntity
100
AcDbBlockBegin
2
*MODEL_SPACE
0
ENDBLK
5
21
100
AcDbEntity
100
AcDbBlockEnd
0
BLOCK
5
1C
100
AcDbEntity
100
AcDbBlockBegin
2
*PAPER_SPACE
0
ENDBLK
5
1D
100
AcDbEntity
100
AcDbBlockEnd
0
ENDSEC
0
SECTION
2
ENTITIES
0
LINE
5
100
100
AcDbEntity
8
0
100
AcDbLine
10
26.395756606436464
20
13.327528090003922
30
0
11
28.664315429248525
21
14.04880564977962
31
0
0
CIRCLE
5
101
100
AcDbEntity
8
0
100
AcDbCircle
10
10.000016395170812
20
10.000011803910589
30
0
40
1.4999999999999991
210
0
220
0
230
1
0
LINE
5
102
100
AcDbEntity
8
0
100
AcDbLine
10
18.379923270705824
20
24.479991861455215
30
0
11
19.786656809200235
21
26.400330686368562
31
0
0
CIRCLE
5
103
100
AcDbEntity
8
0
100
AcDbCircle
10
26.240323822025083
20
21.672732766962099
30
0
40
1.4999999999999991
210
0
220
0
230
1
0
ARC
5
104
100
AcDbEntity
8
0
100
AcDbCircle
10
26.240323822025083
20
21.672732766962099
30
0
40
7.9999999999999982
210
0
220
0
230
1
100
AcDbArc
50
125.7066914468524
51
143.77556637144522
0
ARC
5
105
100
AcDbEntity
8
0
100
AcDbCircle
10
40.939706249777537
20
-32.416034613091867
30
0
40
48.000000000001009
210
0
220
0
230
1
100
AcDbArc
50
107.63781642976065
51
109.66519927027869
0
ARC
5
106
100
AcDbEntity
8
0
100
AcDbCircle
10
-20.342078806243219
20
52.845579377893877
30
0
40
47.999999999999886
210
-0
220
0
230
1
100
AcDbArc
50
321.29332379536345
51
323.77556637144528
0
ARC
5
107
100
AcDbEntity
8
0
100
AcDbCircle
10
26.240323822025083
20
21.672732766962099
30
0
40
7.9999999999999991
210
0
220
0
230
1
100
AcDbArc
50
287.63781642976051
51
305.7066914468524
0
ELLIPSE
5
108
100
AcDbEntity
8
0
100
AcDbEllipse
10
26.240323822025083
20
21.672732766962099
30
0
11
-4.669088390464311
21
6.4961229669727905
31
0.0
40
0.87500000000000044
41
3.1415926535897931
42
6.2831853071795862
0
ARC
5
109
100
AcDbEntity
8
0
100
AcDbCircle
10
-26.240323822025083
20
21.672732766962099
30
0
40
7.9999999999999973
210
0
220
-0
230
1
100
AcDbArc
50
36.224433628554785
51
54.293308553147611
0
ARC
5
110
100
AcDbEntity
8
0
100
AcDbCircle
10
-40.939706249777537
20
-32.416034613091867
30
0
40
48.000000000001023
210
0
220
-0
230
1
100
AcDbArc
50
70.334800729721294
51
72.362183570239353
0
ELLIPSE
5
111
100
AcDbEntity
8
0
100
AcDbEllipse
10
-26.240323822025083
20
21.672732766962099
30
0
11
4.669088390464311
21
6.4961229669727905
31
0.0
40
0.87500000000000044
41
0
42
3.1415926535897931
0
LINE
5
112
100
AcDbEntity
8
0
100
AcDbLine
10
-18.379923270705824
20
24.479991861455215
30
0
11
-19.786656809200235
21
26.400330686368562
31
0
0
ARC
5
113
100
AcDbEntity
8
0
100
AcDbCircle
10
20.342078806243219
20
52.845579377893877
30
0
40
47.999999999999865
210
0
220
0
230
1
100
AcDbArc
50
216.22443362855469
51
218.70667620463652
0
LINE
5
114
100
AcDbEntity
8
0
100
AcDbLine
10
-26.395756606436464
20
13.327528090003922
30
0
11
-28.664315429248525
21
14.04880564977962
31
0
0
ARC
5
115
100
AcDbEntity
8
0
100
AcDbCircle
10
-26.240323822025083
20
21.672732766962099
30
0
40
7.9999999999999982
210
0
220
0
230
1
100
AcDbArc
50
234.2933085531476
51
252.36218357023949
0
CIRCLE
5
116
100
AcDbEntity
8
0
100
AcDbCircle
10
-26.240323822025083
20
21.672732766962099
30
0
40
1.4999999999999991
210
0
220
0
230
1
0
CIRCLE
5
117
100
AcDbEntity
8
0
100
AcDbCircle
10
-10.000016395170812
20
10.000011803910589
30
0
40
1.4999999999999991
210
0
220
0
230
1
0
CIRCLE
5
118
100
AcDbEntity
8
0
100
AcDbCircle
10
10.000016395170812
20
-10.000011803910589
30
0
40
1.4999999999999991
210
0
220
0
230
1
0
ARC
5
119
100
AcDbEntity
8
0
100
AcDbCircle
10
26.240323822025083
20
-21.672732766962099
30
0
40
7.9999999999999973
210
0
220
0
230
1
100
AcDbArc
50
216.22443362855478
51
234.2933085531476
0
ARC
5
120
100
AcDbEntity
8
0
100
AcDbCircle
10
-20.342078806243222
20
-52.845579377893877
30
0
40
47.999999999999865
210
-0
220
0
230
1
100
AcDbArc
50
36.224433628554713
51
38.706676204636551
0
CIRCLE
5
121
100
AcDbEntity
8
0
100
AcDbCircle
10
26.240323822025083
20
-21.672732766962099
30
0
40
1.4999999999999991
210
0
220
0
230
1
0
ELLIPSE
5
122
100
AcDbEntity
8
0
100
AcDbEllipse
10
26.240323822025083
20
-21.672732766962099
30
0
11
-4.669088390464311
21
-6.4961229669727905
31
0.0
40
0.87500000000000044
41
0
42
3.141592653589794
0
ARC
5
123
100
AcDbEntity
8
0
100
AcDbCircle
10
40.939706249777537
20
32.416034613091867
30
0
40
48.000000000001023
210
0
220
0
230
1
100
AcDbArc
50
250.33480072972131
51
252.36218357023935
0
LINE
5
124
100
AcDbEntity
8
0
100
AcDbLine
10
18.379923270705824
20
-24.479991861455215
30
0
11
19.786656809200235
21
-26.400330686368562
31
0
0
CIRCLE
5
125
100
AcDbEntity
8
0
100
AcDbCircle
10
-10.000016395170812
20
-10.000011803910589
30
0
40
1.4999999999999991
210
0
220
0
230
1
0
ARC
5
126
100
AcDbEntity
8
0
100
AcDbCircle
10
26.240323822025083
20
-21.672732766962099
30
0
40
7.9999999999999973
210
0
220
-0
230
1
100
AcDbArc
50
54.293308553147632
51
72.362183570239523
0
ARC
5
127
100
AcDbEntity
8
0
100
AcDbCircle
10
20.342078806243219
20
-52.845579377893877
30
0
40
47.999999999999872
210
0
220
0
230
1
100
AcDbArc
50
141.29332379536348
51
143.77556637144528
0
LINE
5
128
100
AcDbEntity
8
0
100
AcDbLine
10
-18.379923270705827
20
-24.479991861455215
30
0
11
-19.786656809200235
21
-26.400330686368562
31
0
0
LINE
5
129
100
AcDbEntity
8
0
100
AcDbLine
10
26.395756606436464
20
-13.327528090003922
30
0
11
28.664315429248521
21
-14.04880564977962
31
0
0
ELLIPSE
5
130
100
AcDbEntity
8
0
100
AcDbEllipse
10
-26.240323822025083
20
-21.672732766962099
30
0
11
4.669088390464311
21
-6.4961229669727905
31
0.0
40
0.87500000000000056
41
3.1415926535897931
42
6.2831853071795862
0
ARC
5
131
100
AcDbEntity
8
0
100
AcDbCircle
10
-40.939706249777537
20
32.416034613091867
30
0
40
48.000000000001009
210
-0
220
0
230
1
100
AcDbArc
50
287.63781642976068
51
289.66519927027866
0
LINE
5
132
100
AcDbEntity
8
0
100
AcDbLine
10
-26.395756606436464
20
-13.327528090003922
30
0
11
-28.664315429248532
21
-14.04880564977962
31
0
0
ARC
5
133
100
AcDbEntity
8
0
100
AcDbCircle
10
-26.240323822025083
20
-21.672732766962099
30
0
40
8
210
0
220
0
230
1
100
AcDbArc
50
107.63781642976055
51
125.70669144685242
0
ARC
5
134
100
AcDbEntity
8
0
100
AcDbCircle
10
-26.240323822025083
20
-21.672732766962099
30
0
40
7.9999999999999973
210
-0
220
0
230
1
100
AcDbArc
50
305.70669144685235
51
323.77556637144522
0
CIRCLE
5
135
100
AcDbEntity
8
0
100
AcDbCircle
10
-26.240323822025083
20
-21.672732766962099
30
0
40
1.4999999999999991
210
0
220
0
230
1
0
ARC
5
136
100
AcDbEntity
8
0
100
AcDbCircle
10
34.638379202152308
20
0
30
0
40
17.999999999999993
210
0
220
0
230
1
100
AcDbArc
50
165.677573896415
51
194.32242610358509
0
ARC
5
137
100
AcDbEntity
8
0
100
AcDbCircle
10
28.824865325391769
20
1.4842696536385236
30
0
40
12.000000000000025
210
0
220
-0
230
1
100
AcDbArc
50
109.66519927027878
51
165.67757389641497
0
ARC
5
138
100
AcDbEntity
8
0
100
AcDbCircle
10
28.824865325391759
20
-1.4842696536385469
30
0
40
12.000000000000011
210
0
220
0
230
1
100
AcDbArc
50
194.32242610358503
51
250.33480072972125
0
ARC
5
139
100
AcDbEntity
8
0
100
AcDbCircle
10
-34.638379202152322
20
0
30
0
40
18
210
0
220
0
230
1
100
AcDbArc
50
-14.322426103585066
51
14.322426103585027
0
ARC
5
140
100
AcDbEntity
8
0
100
AcDbCircle
10
-28.824865325391798
20
1.4842696536385125
30
0
40
12.000000000000057
210
0
220
-0
230
1
100
AcDbArc
50
14.322426103585103
51
70.334800729721167
0
ARC
5
141
100
AcDbEntity
8
0
100
AcDbCircle
10
-28.824865325391759
20
-1.4842696536385347
30
0
40
12.000000000000014
210
0
220
0
230
1
100
AcDbArc
50
289.66519927027866
51
345.6775738964148
0
ARC
5
142
100
AcDbEntity
8
0
100
AcDbCircle
10
0
20
55.151410710357581
30
0
40
37.999999999999993
210
0
220
0
230
1
100
AcDbArc
50
252.65603423624398
51
287.34396576375605
0
ARC
5
143
100
AcDbEntity
8
0
100
AcDbCircle
10
-7.7507929098910964
20
30.333570166345972
30
0
40
11.999999999999902
210
0
220
0
230
1
100
AcDbArc
50
218.70667620463641
51
252.6560342362441
0
ARC
5
144
100
AcDbEntity
8
0
100
AcDbCircle
10
7.750792909890988
20
30.333570166346149
30
0
40
12.000000000000114
210
0
220
0
230
1
100
AcDbArc
50
287.34396576375616
51
321.29332379536322
0
ARC
5
145
100
AcDbEntity
8
0
100
AcDbCircle
10
0
20
-55.151410710357581
30
0
40
38
210
0
220
-0
230
1
100
AcDbArc
50
72.656034236243968
51
107.343965763756
0
ARC
5
146
100
AcDbEntity
8
0
100
AcDbCircle
10
-7.7507929098908264
20
-30.333570166346355
30
0
40
12.000000000000362
210
0
220
-0
230
1
100
AcDbArc
50
107.34396576375651
51
141.29332379536291
0
ARC
5
147
100
AcDbEntity
8
0
100
AcDbCircle
10
7.7507929098908814
20
-30.333570166346249
30
0
40
12.000000000000242
210
0
220
-0
230
1
100
AcDbArc
50
38.706676204636821
51
72.656034236243585
0
LWPOLYLINE
5
148
100
AcDbEntity
8
0
100
AcDbPolyline
90
6
70
1
43
0.0
10
-0.76962224638397136
20
9.090373715838572
10
-3.710543330240327
20
12.635244665353486
42
-0.66191505178256715
10
-2.8655128509369705
20
14.270896900456194
42
0.037757869586537922
10
2.8655128509369572
20
14.270896900456197
42
-0.66191505178256993
10
3.7105433302403275
20
12.635244665353483
10
0.76962224638397692
20
9.0903737158385702
42
-0.46971161809764861
0
LWPOLYLINE
5
149
100
AcDbEntity
8
0
100
AcDbPolyline
90
6
70
1
43
0.0
10
3.7105433302403585
20
-12.635244665353472
10
0.76962224638400867
20
-9.0903737158385596
42
0.46971161809764839
10
-0.76962224638394028
20
-9.0903737158385596
10
-3.7105433302402959
20
-12.635244665353474
42
0.66191505178256715
10
-2.8655128509369394
20
-14.27089690045619
42
-0.037757869586537547
10
2.8655128509369874
20
-14.270896900456183
42
0.66191505178256949
0
ENDSEC
0
SECTION
2
OBJECTS
0
DICTIONARY
5
C
100
AcDbDictionary
3
ACAD_GROUP
350
D
3
ACAD_MLINESTYLE
350
17
0
DICTIONARY
5
D
100
AcDbDictionary
0
DICTIONARY
5
1A
330
C
100
AcDbDictionary
0
DICTIONARY
5
17
100
AcDbDictionary
0
ENDSEC
0
EOF
