0
SECTION
2
HEADER
9
$INSUNITS
70
4
9
$ACADVER
1
AC1014
9
$HANDSEED
5
FFFF
0
ENDSEC
0
SECTION
2
TABLES
0
TABLE
2
VPORT
5
8
100
AcDbSymbolTable
0
ENDTAB
0
TABLE
2
LTYPE
5
5
100
AcDbSymbolTable
0
LTYPE
5
14
100
AcDbSymbolTableRecord
100
AcDbLinetypeTableRecord
2
BYBLOCK
70
0
0
LTYPE
5
15
100
AcDbSymbolTableRecord
100
AcDbLinetypeTableRecord
2
BYLAYER
70
0
0
ENDTAB
0
TABLE
2
LAYER
5
2
100
AcDbSymbolTable
70
2
0
LAYER
5
50
100
AcDbSymbolTableRecord
100
AcDbLayerTableRecord
2
0
70
0
6
CONTINUOUS
0
ENDTAB
0
TABLE
2
STYLE
5
3
100
AcDbSymbolTable
70
1
0
STYLE
5
11
100
AcDbSymbolTableRecord
100
AcDbTextStyleTableRecord
2
STANDARD
70
0
0
ENDTAB
0
TABLE
2
VIEW
5
6
100
AcDbSymbolTable
70
0
0
ENDTAB
0
TABLE
2
UCS
5
7
100
AcDbSymbolTable
70
0
0
ENDTAB
0
TABLE
2
APPID
5
9
100
AcDbSymbolTable
70
2
0
APPID
5
12
100
AcDbSymbolTableRecord
100
AcDbRegAppTableRecord
2
ACAD
70
0
0
ENDTAB
0
TABLE
2
DIMSTYLE
5
A
100
AcDbSymbolTable
70
1
0
ENDTAB
0
TABLE
2
BLOCK_RECORD
5
1
100
AcDbSymbolTable
70
1
0
BLOCK_RECORD
5
1F
100
AcDbSymbolTableRecord
100
AcDbBlockTableRecord
2
*MODEL_SPACE
0
BLOCK_RECORD
5
1B
100
AcDbSymbolTableRecord
100
AcDbBlockTableRecord
2
*PAPER_SPACE
0
ENDTAB
0
ENDSEC
0
SECTION
2
BLOCKS
0
BLOCK
5
20
100
AcDbEntity
100
AcDbBlockBegin
2
*MODEL_SPACE
0
ENDBLK
5
21
100
AcDbEntity
100
AcDbBlockEnd
0
BLOCK
5
1C
100
AcDbEntity
100
AcDbBlockBegin
2
*PAPER_SPACE
0
ENDBLK
5
1D
100
AcDbEntity
100
AcDbBlockEnd
0
ENDSEC
0
SECTION
2
ENTITIES
0
LWPOLYLINE
5
100
100
AcDbEntity
8
0
100
AcDbPolyline
90
28
70
1
43
0.0
10
32.089743606385824
20
18.63823097520655
10
25.805768746980789
20
15.585889803359789
42
0.015554579380607876
10
23.161949409156989
20
14.198459340203158
42
0.095539927447521392
10
19.700515824144539
20
11.253909927699649
42
0.35115669748706552
10
19.700515824144521
20
-11.253909927699626
42
0.09553992744752432
10
23.161949409156968
20
-14.198459340203149
42
0.015554579380607886
10
25.805768746980789
20
-15.585889803359787
10
32.089743606385824
20
-18.63823097520655
42
-1.1892547876100048
10
25.176233503439136
20
-28.227938537358416
10
21.900990390484381
20
-24.87512540163091
42
0.1116233313447563
10
14.498256965320435
20
-20.080186536391974
42
0.17807128248364795
10
-14.498256965320412
20
-20.080186536391956
42
0.11162333134475598
10
-21.900990390484381
20
-24.875125401630903
10
-25.176233503439143
20
-28.227938537358405
42
-1.1892547876100048
10
-32.089743606385838
20
-18.638230975206547
10
-25.805768746980796
20
-15.58588980335978
42
0.015554579380607876
10
-23.161949409156936
20
-14.198459340203108
42
0.095539927447523348
10
-19.700515824144443
20
-11.253909927699548
42
0.35115669748706235
10
-19.700515824144475
20
11.253909927699572
42
0.095539927447522516
10
-23.161949409157046
20
14.19845934020319
42
0.015554579380607442
10
-25.805768746980796
20
15.585889803359787
10
-32.089743606385824
20
18.638230975206543
42
-1.1892547876100048
10
-25.176233503439136
20
28.227938537358419
10
-21.90099039048436
20
24.875125401630896
42
0.11162333134475637
10
-14.498256965320378
20
20.080186536391924
42
0.17807128248364804
10
14.498256965320426
20
20.08018653639197
42
0.11162333134475501
10
21.900990390484377
20
24.87512540163091
10
25.176233503439136
20
28.227938537358412
42
-1.1892547876100048
0
CIRCLE
5
101
100
AcDbEntity
8
0
100
AcDbCircle
10
0
20
0
30
0
40
4
210
0
220
0
230
1
0
CIRCLE
5
102
100
AcDbEntity
8
0
100
AcDbCircle
10
-10.000016395170817
20
10.000011803910594
30
1.1624444915937792e-16
40
2.25
210
0
220
0
230
1
0
CIRCLE
5
103
100
AcDbEntity
8
0
100
AcDbCircle
10
-10.000016395170817
20
-10.000011803910587
30
0
40
2.25
210
0
220
0
230
1
0
CIRCLE
5
104
100
AcDbEntity
8
0
100
AcDbCircle
10
10.000016395170812
20
-10.000011803910589
30
1.1624444915937792e-16
40
2.2500000000000009
210
0
220
0
230
1
0
CIRCLE
5
105
100
AcDbEntity
8
0
100
AcDbCircle
10
10.000016395170812
20
10.000011803910589
30
0
40
2.2500000000000009
210
0
220
0
230
1
0
CIRCLE
5
106
100
AcDbEntity
8
0
100
AcDbCircle
10
29.468233097462651
20
24.035237798586095
30
0
40
2.2500000000000009
210
0
220
0
230
1
0
CIRCLE
5
107
100
AcDbEntity
8
0
100
AcDbCircle
10
-29.468233097462662
20
-24.035237798586092
30
0
40
2.2500000000000009
210
0
220
0
230
1
0
CIRCLE
5
108
100
AcDbEntity
8
0
100
AcDbCircle
10
-29.468233097462651
20
24.035237798586095
30
1.8350639081282863e-15
40
2.2500000000000009
210
0
220
0
230
1
0
CIRCLE
5
109
100
AcDbEntity
8
0
100
AcDbCircle
10
29.468233097462651
20
-24.035237798586095
30
1.8350639081282863e-15
40
2.2500000000000009
210
0
220
0
230
1
0
ENDSEC
0
SECTION
2
OBJECTS
0
DICTIONARY
5
C
100
AcDbDictionary
3
ACAD_GROUP
350
D
3
ACAD_MLINESTYLE
350
17
0
DICTIONARY
5
D
100
AcDbDictionary
0
DICTIONARY
5
1A
330
C
100
AcDbDictionary
0
DICTIONARY
5
17
100
AcDbDictionary
0
ENDSEC
0
EOF
