0
SECTION
2
HEADER
9
$INSUNITS
70
4
9
$ACADVER
1
AC1014
9
$HANDSEED
5
FFFF
0
ENDSEC
0
SECTION
2
TABLES
0
TABLE
2
VPORT
5
8
100
AcDbSymbolTable
0
ENDTAB
0
TABLE
2
LTYPE
5
5
100
AcDbSymbolTable
0
LTYPE
5
14
100
AcDbSymbolTableRecord
100
AcDbLinetypeTableRecord
2
BYBLOCK
70
0
0
LTYPE
5
15
100
AcDbSymbolTableRecord
100
AcDbLinetypeTableRecord
2
BYLAYER
70
0
0
ENDTAB
0
TABLE
2
LAYER
5
2
100
AcDbSymbolTable
70
2
0
LAYER
5
50
100
AcDbSymbolTableRecord
100
AcDbLayerTableRecord
2
0
70
0
6
CONTINUOUS
0
ENDTAB
0
TABLE
2
STYLE
5
3
100
AcDbSymbolTable
70
1
0
STYLE
5
11
100
AcDbSymbolTableRecord
100
AcDbTextStyleTableRecord
2
STANDARD
70
0
0
ENDTAB
0
TABLE
2
VIEW
5
6
100
AcDbSymbolTable
70
0
0
ENDTAB
0
TABLE
2
UCS
5
7
100
AcDbSymbolTable
70
0
0
ENDTAB
0
TABLE
2
APPID
5
9
100
AcDbSymbolTable
70
2
0
APPID
5
12
100
AcDbSymbolTableRecord
100
AcDbRegAppTableRecord
2
ACAD
70
0
0
ENDTAB
0
TABLE
2
DIMSTYLE
5
A
100
AcDbSymbolTable
70
1
0
ENDTAB
0
TABLE
2
BLOCK_RECORD
5
1
100
AcDbSymbolTable
70
1
0
BLOCK_RECORD
5
1F
100
AcDbSymbolTableRecord
100
AcDbBlockTableRecord
2
*MODEL_SPACE
0
BLOCK_RECORD
5
1B
100
AcDbSymbolTableRecord
100
AcDbBlockTableRecord
2
*PAPER_SPACE
0
ENDTAB
0
ENDSEC
0
SECTION
2
BLOCKS
0
BLOCK
5
20
100
AcDbEntity
100
AcDbBlockBegin
2
*MODEL_SPACE
0
ENDBLK
5
21
100
AcDbEntity
100
AcDbBlockEnd
0
BLOCK
5
1C
100
AcDbEntity
100
AcDbBlockBegin
2
*PAPER_SPACE
0
ENDBLK
5
1D
100
AcDbEntity
100
AcDbBlockEnd
0
ENDSEC
0
SECTION
2
ENTITIES
0
LWPOLYLINE
5
100
100
AcDbEntity
8
0
100
AcDbPolyline
90
32
70
1
43
0.0
10
21.342611215307276
20
26.059779658967017
42
-0.0105344389573628
10
19.047214518802829
20
23.591498631035073
42
-0.12292341987191208
10
11.641686280943308
20
18.989905653523437
42
-0.15695358640461629
10
-11.641686280943331
20
18.989905653523444
42
-0.12292341987190801
10
-19.047214518802846
20
23.591498631035108
42
-0.010534438957362172
10
-21.342611215307109
20
26.059779658966843
10
-22.632605658044515
20
27.506904784359179
42
1.2470910553583872
10
-30.613851135974777
20
16.414326336260487
10
-28.831799676518905
20
15.651076981668401
42
-0.01768610835892585
10
-23.712980264510453
20
13.241052474373225
42
-0.16457019632978165
10
-18.363474043933678
20
7.7151739690577408
42
-0.22517692026415367
10
-18.363474043933504
20
-7.7151739690573891
42
-0.1645701963297935
10
-23.712980264510403
20
-13.241052474373172
42
-0.017686108358926297
10
-28.831799676518905
20
-15.651076981668401
10
-30.613851135974777
20
-16.414326336260487
42
1.2470910553583872
10
-22.632605658044515
20
-27.506904784359179
10
-21.342611215307102
20
-26.059779658966828
42
-0.010534438957362134
10
-19.047214518802807
20
-23.591498631035044
42
-0.12292341987190981
10
-11.641686280943265
20
-18.989905653523422
42
-0.15695358640461574
10
11.641686280943278
20
-18.989905653523422
42
-0.12292341987190836
10
19.047214518802811
20
-23.591498631035037
42
-0.010534438957362172
10
21.342611215307109
20
-26.059779658966843
10
22.632605658044515
20
-27.506904784359179
42
1.2470910553583872
10
30.613851135974777
20
-16.414326336260487
10
28.831799676518905
20
-15.651076981668401
42
-0.017686108358926634
10
23.712980264510239
20
-13.241052474373118
42
-0.16457019632979633
10
18.363474043933447
20
-7.7151739690573411
42
-0.22517692026415184
10
18.363474043933607
20
7.7151739690576697
42
-0.16457019632978051
10
23.712980264510527
20
13.241052474373234
42
-0.017686108358925853
10
28.831799676518905
20
15.6510769816684
10
30.613851135974777
20
16.414326336260487
42
1.2470910553583872
10
22.632605658044515
20
27.506904784359179
0
CIRCLE
5
101
100
AcDbEntity
8
0
100
AcDbCircle
10
27.857901674061001
20
22.848978041160848
30
0
40
2.2500000000000009
210
0
220
0
230
1
0
CIRCLE
5
102
100
AcDbEntity
8
0
100
AcDbCircle
10
10.000016395170812
20
10.000011803910589
30
0
40
2.2500000000000009
210
0
220
0
230
1
0
CIRCLE
5
103
100
AcDbEntity
8
0
100
AcDbCircle
10
-10.000016395170812
20
-10.000011803910587
30
3.191402574583904e-15
40
2.2500000000000009
210
0
220
-1.2246467991473532e-16
230
-1
0
CIRCLE
5
104
100
AcDbEntity
8
0
100
AcDbCircle
10
-27.857901674061001
20
-22.848978041160848
30
3.1914025745839044e-15
40
2.2500000000000009
210
0
220
-1.2246467991473532e-16
230
-1
0
CIRCLE
5
105
100
AcDbEntity
8
0
100
AcDbCircle
10
-10.000016395170812
20
-10.000011803910587
30
2.1287662956267196e-15
40
2.2500000000000009
210
-1.2246467991473532e-16
220
-1.2246467991473532e-16
230
1
0
CIRCLE
5
106
100
AcDbEntity
8
0
100
AcDbCircle
10
-27.857901674061001
20
-22.848978041160848
30
-1.6317384464867254e-15
40
2.2500000000000009
210
-1.2246467991473532e-16
220
-1.2246467991473532e-16
230
1
0
CIRCLE
5
107
100
AcDbEntity
8
0
100
AcDbCircle
10
10.000016395170812
20
10.000011803910589
30
-1.3866607727289994e-15
40
2.2500000000000009
210
1.2246467991473532e-16
220
0
230
-1
0
CIRCLE
5
108
100
AcDbEntity
8
0
100
AcDbCircle
10
27.857901674061001
20
22.848978041160848
30
-1.3866607727289994e-15
40
2.2500000000000009
210
1.2246467991473532e-16
220
0
230
-1
0
LWPOLYLINE
5
109
100
AcDbEntity
8
0
100
AcDbPolyline
90
6
70
1
43
0.0
10
2.8655128509369958
20
14.270896900456194
42
-0.037757869586537922
10
-2.8655128509369705
20
14.270896900456197
42
0.66191505178256715
10
-3.710543330240327
20
12.63524466535349
10
-0.76962224638397148
20
9.090373715838572
42
0.46971161809764861
10
0.76962224638397747
20
9.0903737158385702
10
3.7105433302403275
20
12.635244665353483
42
0.66191505178256993
0
LWPOLYLINE
5
110
100
AcDbEntity
8
0
100
AcDbPolyline
90
6
70
1
43
0.0
10
-3.7105433302402959
20
-12.635244665353474
42
0.66191505178256715
10
-2.8655128509369394
20
-14.27089690045619
42
-0.037757869586537547
10
2.8655128509369874
20
-14.270896900456183
42
0.66191505178256949
10
3.7105433302403585
20
-12.635244665353472
10
0.76962224638400867
20
-9.0903737158385596
42
0.46971161809764839
10
-0.76962224638394028
20
-9.0903737158385596
0
ENDSEC
0
SECTION
2
OBJECTS
0
DICTIONARY
5
C
100
AcDbDictionary
3
ACAD_GROUP
350
D
3
ACAD_MLINESTYLE
350
17
0
DICTIONARY
5
D
100
AcDbDictionary
0
DICTIONARY
5
1A
330
C
100
AcDbDictionary
0
DICTIONARY
5
17
100
AcDbDictionary
0
ENDSEC
0
EOF
