0
SECTION
2
HEADER
9
$INSUNITS
70
4
9
$ACADVER
1
AC1014
9
$HANDSEED
5
FFFF
0
ENDSEC
0
SECTION
2
TABLES
0
TABLE
2
VPORT
5
8
100
AcDbSymbolTable
0
ENDTAB
0
TABLE
2
LTYPE
5
5
100
AcDbSymbolTable
0
LTYPE
5
14
100
AcDbSymbolTableRecord
100
AcDbLinetypeTableRecord
2
BYBLOCK
70
0
0
LTYPE
5
15
100
AcDbSymbolTableRecord
100
AcDbLinetypeTableRecord
2
BYLAYER
70
0
0
ENDTAB
0
TABLE
2
LAYER
5
2
100
AcDbSymbolTable
70
2
0
LAYER
5
50
100
AcDbSymbolTableRecord
100
AcDbLayerTableRecord
2
0
70
0
6
CONTINUOUS
0
ENDTAB
0
TABLE
2
STYLE
5
3
100
AcDbSymbolTable
70
1
0
STYLE
5
11
100
AcDbSymbolTableRecord
100
AcDbTextStyleTableRecord
2
STANDARD
70
0
0
ENDTAB
0
TABLE
2
VIEW
5
6
100
AcDbSymbolTable
70
0
0
ENDTAB
0
TABLE
2
UCS
5
7
100
AcDbSymbolTable
70
0
0
ENDTAB
0
TABLE
2
APPID
5
9
100
AcDbSymbolTable
70
2
0
APPID
5
12
100
AcDbSymbolTableRecord
100
AcDbRegAppTableRecord
2
ACAD
70
0
0
ENDTAB
0
TABLE
2
DIMSTYLE
5
A
100
AcDbSymbolTable
70
1
0
ENDTAB
0
TABLE
2
BLOCK_RECORD
5
1
100
AcDbSymbolTable
70
1
0
BLOCK_RECORD
5
1F
100
AcDbSymbolTableRecord
100
AcDbBlockTableRecord
2
*MODEL_SPACE
0
BLOCK_RECORD
5
1B
100
AcDbSymbolTableRecord
100
AcDbBlockTableRecord
2
*PAPER_SPACE
0
ENDTAB
0
ENDSEC
0
SECTION
2
BLOCKS
0
BLOCK
5
20
100
AcDbEntity
100
AcDbBlockBegin
2
*MODEL_SPACE
0
ENDBLK
5
21
100
AcDbEntity
100
AcDbBlockEnd
0
BLOCK
5
1C
100
AcDbEntity
100
AcDbBlockBegin
2
*PAPER_SPACE
0
ENDBLK
5
1D
100
AcDbEntity
100
AcDbBlockEnd
0
ENDSEC
0
SECTION
2
ENTITIES
0
CIRCLE
5
100
100
AcDbEntity
8
0
100
AcDbCircle
10
10
20
-10
30
0
40
1.4999999999999991
0
ARC
5
101
100
AcDbEntity
8
0
100
AcDbCircle
10
-2.2204460492503131e-15
20
59.642894830671374
30
4.7100915943518795e-15
40
41.999999999999964
100
AcDbArc
50
232.0011819761213
51
307.99881802387864
0
ARC
5
102
100
AcDbEntity
8
0
100
AcDbCircle
10
0
20
-59.642894830671537
30
1.8130423250049812e-15
40
42.000000000000092
100
AcDbArc
50
52.001181976121437
51
127.99881802387856
0
LINE
5
103
100
AcDbEntity
8
0
100
AcDbLine
10
20.623302095257298
20
14.210096367302077
30
0
11
26.139398288998557
21
18.519699919996132
31
0
0
ARC
5
104
100
AcDbEntity
8
0
100
AcDbCircle
10
19.699815619680002
20
15.392116980246634
30
0
40
1.5000000000000027
100
AcDbArc
50
127.99972189142385
51
307.99972189142358
0
CIRCLE
5
105
100
AcDbEntity
8
0
100
AcDbCircle
10
0
20
0
30
0
40
4
0
ARC
5
106
100
AcDbEntity
8
0
100
AcDbCircle
10
40.606254852163921
20
0.00067914445076588947
30
5.1596386872712165e-16
40
19.99999999999994
100
AcDbArc
50
127.99881802387856
51
232.00357751751076
0
CIRCLE
5
107
100
AcDbEntity
8
0
100
AcDbCircle
10
31.520680706432259
20
-24.626138236917789
30
0
40
1.4999999999999991
0
LINE
5
108
100
AcDbEntity
8
0
100
AcDbLine
10
20.623961052564962
20
-14.209252868199036
30
-1.2757005323886319e-15
11
26.14005724630622
21
-18.518856420893087
31
-7.4792631274854816e-16
0
LINE
5
109
100
AcDbEntity
8
0
100
AcDbLine
10
24.293084295151619
20
-20.882897646782197
30
-4.584147607147997e-16
11
18.776988101410364
21
-16.573294094088144
31
-9.8618898035488342e-16
0
LINE
5
110
100
AcDbEntity
8
0
100
AcDbLine
10
28.294009428965303
20
-15.760304728357497
30
6.4082841285654856e-16
11
34.59890680155884
21
-20.686020966165337
31
-4.8252520038921909e-16
0
LINE
5
111
100
AcDbEntity
8
0
100
AcDbLine
10
25.857099199063313
20
26.545909756350831
30
-7.4187274621582168e-16
11
28.441795653998007
21
28.567099006773276
31
0
0
CIRCLE
5
112
100
AcDbEntity
8
0
100
AcDbCircle
10
10
20
10
30
0
40
1.4999999999999991
0
ARC
5
113
100
AcDbEntity
8
0
100
AcDbCircle
10
25.216570770728918
20
-19.700877033837642
30
-6.0317053673167393e-16
40
1.5000000000000009
100
AcDbArc
50
-127.99972189142375
51
52.000278108576154
0
ARC
5
114
100
AcDbEntity
8
0
100
AcDbCircle
10
31.520680706432259
20
-24.626138236917789
30
0
40
5.0000000000000009
100
AcDbArc
50
-127.99881802387873
51
52.00118197612143
0
CIRCLE
5
115
100
AcDbEntity
8
0
100
AcDbCircle
10
31.520021749124595
20
24.626981736020831
30
0
40
1.4999999999999991
0
ARC
5
116
100
AcDbEntity
8
0
100
AcDbCircle
10
25.215911813421258
20
19.701720532940687
30
0
40
1.5000000000000027
100
AcDbArc
50
-52.000278108576254
51
127.99972189142365
0
LINE
5
117
100
AcDbEntity
8
0
100
AcDbLine
10
24.292425337843959
20
20.883741145885246
30
0
11
18.7763291441027
21
16.574137593191189
31
0
0
LINE
5
118
100
AcDbEntity
8
0
100
AcDbLine
10
28.442454611305671
20
-28.566255507670235
30
4.8252520038921899e-16
11
25.857099199063338
21
-26.545909756350852
31
-9.3931990266937639e-16
0
ARC
5
119
100
AcDbEntity
8
0
100
AcDbCircle
10
19.700474576987663
20
-15.391273481143591
30
-1.1309447563717576e-15
40
1.5000000000000009
100
AcDbArc
50
52.000278108576261
51
232.00027810857625
0
ARC
5
120
100
AcDbEntity
8
0
100
AcDbCircle
10
31.520021749124595
20
24.626981736020831
30
0
40
4.9999999999999973
100
AcDbArc
50
-52.00118197612138
51
127.9988180238787
0
LINE
5
121
100
AcDbEntity
8
0
100
AcDbLine
10
34.598247844251176
20
20.686864465268382
30
0
11
28.293350471657639
21
15.761148227460538
31
0
0
CIRCLE
5
122
100
AcDbEntity
8
0
100
AcDbCircle
10
-31.520680706432252
20
-24.626138236917789
30
2.1445896670528662e-15
40
1.4999999999999991
0
CIRCLE
5
123
100
AcDbEntity
8
0
100
AcDbCircle
10
-10
20
10
30
4.7801129413133127e-15
40
1.4999999999999991
0
LINE
5
124
100
AcDbEntity
8
0
100
AcDbLine
10
-20.623961052564962
20
-14.209252868199036
30
4.7547534839729618e-15
11
-26.14005724630622
21
-18.518856420893087
31
3.5514523095874657e-15
0
LINE
5
125
100
AcDbEntity
8
0
100
AcDbLine
10
-34.598247844251176
20
20.686864465268382
30
1.767696392603764e-15
11
-28.293350471657639
21
15.761148227460538
31
2.5398236312336874e-15
0
ARC
5
126
100
AcDbEntity
8
0
100
AcDbCircle
10
-40.606254852163921
20
0.00067914445076588947
30
5.1596386872712165e-16
40
19.99999999999994
100
AcDbArc
50
-52.003577517510742
51
52.001181976121444
0
CIRCLE
5
127
100
AcDbEntity
8
0
100
AcDbCircle
10
-10
20
-10
30
4.7801129413133127e-15
40
1.4999999999999991
0
ARC
5
128
100
AcDbEntity
8
0
100
AcDbCircle
10
-25.216570770728922
20
-19.700877033837642
30
3.5197910092077523e-15
40
1.499999999999998
100
AcDbArc
50
127.99972189142375
51
307.99972189142386
0
ARC
5
129
100
AcDbEntity
8
0
100
AcDbCircle
10
-25.215911813421251
20
19.701720532940687
30
2.9167011714718386e-15
40
1.5000000000000053
100
AcDbArc
50
52.000278108576566
51
232.00027810857605
0
LINE
5
130
100
AcDbEntity
8
0
100
AcDbLine
10
-28.442454611305664
20
-28.566255507670235
30
2.0390384401085106e-15
11
-25.857099199063338
21
-26.545909756350852
31
3.7774982661931914e-15
0
ARC
5
131
100
AcDbEntity
8
0
100
AcDbCircle
10
-31.520021749124602
20
24.626981736020831
30
2.1446703660486266e-15
40
4.9999999999999947
100
AcDbArc
50
52.001181976121309
51
232.0011819761215
0
LINE
5
132
100
AcDbEntity
8
0
100
AcDbLine
10
-24.293084295151619
20
-20.882897646782197
30
3.4881297088280388e-15
11
-18.776988101410367
21
-16.573294094088144
31
4.691430883213535e-15
0
ARC
5
133
100
AcDbEntity
8
0
100
AcDbCircle
10
-19.699815619679999
20
15.392116980246634
30
3.5922281262172518e-15
40
1.5
100
AcDbArc
50
-127.99972189142369
51
52.000278108576367
0
CIRCLE
5
134
100
AcDbEntity
8
0
100
AcDbCircle
10
-31.520021749124602
20
24.626981736020831
30
2.1446703660486266e-15
40
1.4999999999999991
0
ARC
5
135
100
AcDbEntity
8
0
100
AcDbCircle
10
-19.700474576987659
20
-15.391273481143591
30
4.7230921835932492e-15
40
1.499999999999998
100
AcDbArc
50
-52.00027810857646
51
127.99972189142385
0
ARC
5
136
100
AcDbEntity
8
0
100
AcDbCircle
10
-31.520680706432252
20
-24.626138236917789
30
2.1445896670528662e-15
40
5.0000000000000036
100
AcDbArc
50
127.99881802387864
51
307.99881802387864
0
LINE
5
137
100
AcDbEntity
8
0
100
AcDbLine
10
-24.292425337843959
20
20.883741145885246
30
3.029795647109e-15
11
-18.776329144102704
21
16.574137593191189
31
3.7053226018544128e-15
0
LINE
5
138
100
AcDbEntity
8
0
100
AcDbLine
10
-25.857099199063313
20
26.545909756350831
30
3.5800511097396405e-15
11
-28.441795653998014
21
28.567099006773276
31
2.5216443394934903e-15
0
LINE
5
139
100
AcDbEntity
8
0
100
AcDbLine
10
-20.623302095257298
20
14.210096367302077
30
3.4791336505800908e-15
11
-26.139398288998557
21
18.519699919996132
31
2.803606695834678e-15
0
LINE
5
140
100
AcDbEntity
8
0
100
AcDbLine
10
-28.294009428965303
20
-15.760304728357497
30
1.8989145193813787e-15
11
-34.59890680155884
21
-20.686020966165337
31
2.250140893997223e-15
0
ENDSEC
0
SECTION
2
OBJECTS
0
DICTIONARY
5
C
100
AcDbDictionary
3
ACAD_GROUP
350
D
3
ACAD_MLINESTYLE
350
17
0
DICTIONARY
5
D
100
AcDbDictionary
0
DICTIONARY
5
1A
330
C
100
AcDbDictionary
0
DICTIONARY
5
17
100
AcDbDictionary
0
ENDSEC
0
EOF
