0
SECTION
2
HEADER
9
$INSUNITS
70
4
9
$ACADVER
1
AC1014
9
$HANDSEED
5
FFFF
0
ENDSEC
0
SECTION
2
TABLES
0
TABLE
2
VPORT
5
8
100
AcDbSymbolTable
0
ENDTAB
0
TABLE
2
LTYPE
5
5
100
AcDbSymbolTable
0
LTYPE
5
14
100
AcDbSymbolTableRecord
100
AcDbLinetypeTableRecord
2
BYBLOCK
70
0
0
LTYPE
5
15
100
AcDbSymbolTableRecord
100
AcDbLinetypeTableRecord
2
BYLAYER
70
0
0
ENDTAB
0
TABLE
2
LAYER
5
2
100
AcDbSymbolTable
70
2
0
LAYER
5
50
100
AcDbSymbolTableRecord
100
AcDbLayerTableRecord
2
0
70
0
6
CONTINUOUS
0
ENDTAB
0
TABLE
2
STYLE
5
3
100
AcDbSymbolTable
70
1
0
STYLE
5
11
100
AcDbSymbolTableRecord
100
AcDbTextStyleTableRecord
2
STANDARD
70
0
0
ENDTAB
0
TABLE
2
VIEW
5
6
100
AcDbSymbolTable
70
0
0
ENDTAB
0
TABLE
2
UCS
5
7
100
AcDbSymbolTable
70
0
0
ENDTAB
0
TABLE
2
APPID
5
9
100
AcDbSymbolTable
70
2
0
APPID
5
12
100
AcDbSymbolTableRecord
100
AcDbRegAppTableRecord
2
ACAD
70
0
0
ENDTAB
0
TABLE
2
DIMSTYLE
5
A
100
AcDbSymbolTable
70
1
0
ENDTAB
0
TABLE
2
BLOCK_RECORD
5
1
100
AcDbSymbolTable
70
1
0
BLOCK_RECORD
5
1F
100
AcDbSymbolTableRecord
100
AcDbBlockTableRecord
2
*MODEL_SPACE
0
BLOCK_RECORD
5
1B
100
AcDbSymbolTableRecord
100
AcDbBlockTableRecord
2
*PAPER_SPACE
0
ENDTAB
0
ENDSEC
0
SECTION
2
BLOCKS
0
BLOCK
5
20
100
AcDbEntity
100
AcDbBlockBegin
2
*MODEL_SPACE
0
ENDBLK
5
21
100
AcDbEntity
100
AcDbBlockEnd
0
BLOCK
5
1C
100
AcDbEntity
100
AcDbBlockBegin
2
*PAPER_SPACE
0
ENDBLK
5
1D
100
AcDbEntity
100
AcDbBlockEnd
0
ENDSEC
0
SECTION
2
ENTITIES
0
CIRCLE
5
100
100
AcDbEntity
8
0
100
AcDbCircle
10
12.5
20
26.500000000000004
30
0
40
1.4999999999999991
0
CIRCLE
5
101
100
AcDbEntity
8
0
100
AcDbCircle
10
-11.5
20
74.5
30
0
40
1.4999999999999991
0
CIRCLE
5
102
100
AcDbEntity
8
0
100
AcDbCircle
10
-12.500000000000004
20
26.500000000000004
30
0
40
1.4999999999999991
0
CIRCLE
5
103
100
AcDbEntity
8
0
100
AcDbCircle
10
11.499999923062532
20
74.500000004676025
30
0
40
1.4999999999999991
0
CIRCLE
5
104
100
AcDbEntity
8
0
100
AcDbCircle
10
-12.49999982863665
20
-26.500000000000004
30
0
40
1.5000000000000002
0
ARC
5
105
100
AcDbEntity
8
0
100
AcDbCircle
10
-12.49999982863665
20
-26.500000000000004
30
0
40
3.5000000000000031
100
AcDbArc
50
144.94396544860587
51
215.61166633848109
0
ARC
5
106
100
AcDbEntity
8
0
100
AcDbCircle
10
-17.002248690177495
20
-23.340924947274324
30
0
40
1.9999999999999618
100
AcDbArc
50
-35.056034551394596
51
0
0
ARC
5
107
100
AcDbEntity
8
0
100
AcDbCircle
10
-16.971402009108374
20
-29.702586851355118
30
0
40
1.9999999999999933
100
AcDbArc
50
2.4803942256149489
51
35.611666338480994
0
ARC
5
108
100
AcDbEntity
8
0
100
AcDbCircle
10
-10.999999999999998
20
65.000000000000014
30
0
40
0.49999999999999822
100
AcDbArc
50
-90
51
90
0
LINE
5
109
100
AcDbEntity
8
0
100
AcDbLine
10
-12.499999999999998
20
65.500000000000014
30
0
11
-10.999999999999998
21
65.500000000000014
31
0
0
ARC
5
110
100
AcDbEntity
8
0
100
AcDbCircle
10
-12.499999999999998
20
65.000000000000014
30
0
40
0.49999999999999822
100
AcDbArc
50
90
51
270
0
ARC
5
111
100
AcDbEntity
8
0
100
AcDbCircle
10
-11.500086606041293
20
74.499994737336735
30
0
40
3.5023354559657123
100
AcDbArc
50
8.3604451980117593e-05
51
179.99991708719315
0
ARC
5
112
100
AcDbEntity
8
0
100
AcDbCircle
10
11.499999923062532
20
74.500000004676025
30
0
40
3.4977443596585536
100
AcDbArc
50
-1.0756689994333863
51
179.99999914622637
0
LWPOLYLINE
5
113
100
AcDbEntity
8
0
100
AcDbPolyline
90
8
70
1
43
0.0
10
5.4975273268096201
20
-30.312121326805585
10
2.9975273268096272
20
-28.868745653831525
42
-0.26794919243112092
10
1.9975273268096272
20
-27.136694846262642
10
1.9975273268096394
20
-23.02344619221078
42
-0.57735026918962173
10
3.4975273268096414
20
-22.157420788426339
10
5.997527326809637
20
-23.6007964614004
42
-0.26794919243112192
10
6.9975273268096387
20
-25.332847268969282
10
6.9975273268096227
20
-29.446095923021144
42
-0.57735026918962207
0
LWPOLYLINE
5
114
100
AcDbEntity
8
0
100
AcDbPolyline
90
8
70
1
43
0.0
10
5.9995842151728098
20
-58.604913516121556
42
-0.2747015980645599
10
6.9989513477310803
20
-60.387274056801374
10
6.9977437657451986
20
-64.270537202223196
42
-0.57694879993641124
10
5.4988354640590842
20
-65.136514662869558
10
2.9990755666714621
20
-63.696254612622113
42
-0.26818865854964424
10
1.9975273269418135
20
-61.963310850576434
10
1.9975273269418112
20
-58.026375701958074
42
-0.57735026918962529
10
3.4975273269418157
20
-57.160350298173633
0
LWPOLYLINE
5
115
100
AcDbEntity
8
0
100
AcDbPolyline
90
8
70
1
43
0.0
10
-2.0024726730582074
20
-23.021660281830933
10
-2.0024726730581879
20
-27.13669484626265
42
-0.26794919243112381
10
-3.0024726730581874
20
-28.868745653831532
10
-5.5024726730581932
20
-30.312121326805599
42
-0.57735026918962684
10
-7.0024726730581888
20
-29.446095923021165
10
-7.0024726730582056
20
-25.328084534065475
42
-0.2681886585496483
10
-6.0009244333285512
20
-23.595140772019789
10
-3.5016985531933802
20
-22.1551884008081
42
-0.57705242553366298
0
LWPOLYLINE
5
116
100
AcDbEntity
8
0
100
AcDbPolyline
90
8
70
1
43
0.0
10
-6.0009244333285441
20
-58.5980702817671
10
-3.5011645359409145
20
-57.157810231519647
42
-0.57694955143090254
10
-2.0013211619712914
20
-58.024330175482284
10
-2.0001072279095009
20
-61.956537613913191
42
-0.26803191425435102
10
-3.0001307841215259
20
-63.689246833033508
10
-5.5024726730581826
20
-65.13397459621558
42
-0.57735026918962939
10
-7.0024726730581799
20
-64.267949192431132
10
-7.0024726730581834
20
-60.331014043812779
42
-0.26818865854964447
0
ARC
5
117
100
AcDbEntity
8
0
100
AcDbCircle
10
-9.4999998286366747
20
-68.5
30
0
40
3.4999999999999964
100
AcDbArc
50
270
51
299.99999999999994
0
ARC
5
118
100
AcDbEntity
8
0
100
AcDbCircle
10
9.5000001713633271
20
-68.5
30
0
40
3.5000000000000009
100
AcDbArc
50
-119.99999999999997
51
0.092441305193877429
0
CIRCLE
5
119
100
AcDbEntity
8
0
100
AcDbCircle
10
-9.4999998286366747
20
-68.5
30
0
40
1.5000000000000002
0
LINE
5
120
100
AcDbEntity
8
0
100
AcDbLine
10
7.750000171363328
20
-71.53108891324554
30
0
11
1.9982986209094966
21
-68.21034247479264
31
0
0
CIRCLE
5
121
100
AcDbEntity
8
0
100
AcDbCircle
10
9.5000001713633271
20
-68.5
30
0
40
1.4999999999999991
0
ARC
5
122
100
AcDbEntity
8
0
100
AcDbCircle
10
-9.4999998286366747
20
-68.5
30
0
40
3.4999999999999982
100
AcDbArc
50
180.24569980117082
51
270
0
LINE
5
123
100
AcDbEntity
8
0
100
AcDbLine
10
-7.7499998286366765
20
-71.53108891324554
30
0
11
-2.0025892787564947
21
-68.210855255647346
31
0
0
ARC
5
124
100
AcDbEntity
8
0
100
AcDbCircle
10
-0.0017013790905074941
20
-71.674444089930404
30
0
40
4.000000000000016
100
AcDbArc
50
60.000000000000021
51
120.0146868292066
0
LWPOLYLINE
5
125
100
AcDbEntity
8
0
100
AcDbPolyline
90
8
70
1
43
0.0
10
-8.0024726730582749
20
-36.75549699977968
10
-3.5024726730582967
20
-34.157420788426364
42
-0.57735026918962207
10
-2.0024726730582949
20
-35.023446192210798
10
-2.0024726730582354
20
-50.136694846262642
42
-0.26794919243112669
10
-3.0024726730582523
20
-51.868745653831553
10
-7.5024726730582811
20
-54.466821865184833
42
-0.57735026918962262
10
-9.0024726730582767
20
-53.600796461400392
10
-9.0024726730582643
20
-38.487547807348562
42
-0.26794919243111953
0
LWPOLYLINE
5
126
100
AcDbEntity
8
0
100
AcDbPolyline
90
8
70
1
43
0.0
10
1.9975273269417879
20
-50.136694846262664
10
1.9975273269417175
20
-35.023446192210791
42
-0.5773502691896274
10
3.4975273269417189
20
-34.15742078842635
10
7.9975273269417038
20
-36.755496999779659
42
-0.26794919243112336
10
8.9975273269417055
20
-38.487547807348534
10
8.9975273269417002
20
-53.600796461400364
42
-0.57735026918963339
10
7.4975273269417011
20
-54.466821865184798
10
2.9975273269417895
20
-51.868745653831532
42
-0.26794919243112214
0
LWPOLYLINE
5
127
100
AcDbEntity
8
0
100
AcDbPolyline
90
8
70
1
43
0.0
10
-6.9999987452683872
20
25.309202505855886
10
-6.9999987452683872
20
32.422451159907759
42
-0.57735026918962584
10
-5.4999987452683801
20
33.288476563692207
10
-2.9999987452683752
20
31.845100890718136
42
-0.26794919243112203
10
-1.9999987452683878
20
30.113050083149275
10
-1.9999987452683856
20
22.999801429097403
42
-0.57735026918962229
10
-3.4999987452683983
20
22.133776025312962
10
-5.9999987452683987
20
23.577151698287029
42
-0.26794919243112236
0
LWPOLYLINE
5
128
100
AcDbEntity
8
0
100
AcDbPolyline
90
8
70
1
43
0.0
10
-7.9999990531734619
20
39.731654567952347
42
-0.26794919299508135
10
-8.9999990531734504
20
41.463705379730662
10
-8.9999990192594943
20
61.576954010882417
42
-0.57735026848804605
10
-7.4999990192746804
20
62.442979412588464
10
-2.999998747342711
20
59.844903044340477
42
-0.2679491924311268
10
-1.9999987473123122
20
58.112852236789145
10
-1.9999987452683894
20
37.999603582614412
42
-0.57735026918962584
10
-3.4999987452683969
20
37.133578178829964
0
LWPOLYLINE
5
129
100
AcDbEntity
8
0
100
AcDbPolyline
90
8
70
1
43
0.0
10
8.0000010062964098
20
39.731654521428624
10
3.5000012844665451
20
37.133578264667314
42
-0.57735028063460214
10
2.0000012547316128
20
37.999603651284282
10
2.0000012526876851
20
58.112852275695481
42
-0.2679491846265426
10
3.0000012022076774
20
59.844903054154798
10
7.5000009555005098
20
62.442979297939502
42
-0.57735027960022411
10
9.0000009807405092
20
61.576953906640206
10
9.0000009468265514
20
41.463705290453099
42
-0.26794918266714524
0
LWPOLYLINE
5
130
100
AcDbEntity
8
0
100
AcDbPolyline
90
8
70
1
43
0.0
10
7.0000012547316111
20
32.422451159907759
10
7.0000012547316164
20
25.309202505855886
42
-0.2679491924311202
10
6.0000012547316235
20
23.577151698287025
10
3.5000012547316222
20
22.133776025312958
42
-0.57735026918962207
10
2.0000012547316128
20
22.999801429097406
10
2.0000012547316111
20
30.113050083149275
42
-0.26794919243112175
10
3.0000012547316017
20
31.845100890718136
10
5.5000012547316048
20
33.288476563692207
42
-0.57735026918962584
0
ARC
5
131
100
AcDbEntity
8
0
100
AcDbCircle
10
-11.000000000000004
20
39.000000000000007
30
0
40
0.49999999999999822
100
AcDbArc
50
-90
51
90
0
LINE
5
132
100
AcDbEntity
8
0
100
AcDbLine
10
-12.500000000000002
20
38.500000000000007
30
0
11
-11.000000000000004
21
38.500000000000007
31
0
0
ARC
5
133
100
AcDbEntity
8
0
100
AcDbCircle
10
-12.500000000000002
20
39.000000000000007
30
0
40
0.49999999999999822
100
AcDbArc
50
90
51
270
0
LINE
5
134
100
AcDbEntity
8
0
100
AcDbLine
10
-6.6336328669061642
20
66.942782780063411
30
0
11
-3.9988757381457991
21
65.42160504252432
31
0
0
LINE
5
135
100
AcDbEntity
8
0
100
AcDbLine
10
3.9994376320795082
20
65.420631540064718
30
0
11
6.6376799970994504
21
66.94296530767096
31
0
0
LINE
5
136
100
AcDbEntity
8
0
100
AcDbLine
10
-7.629950609768775
20
68.553526252603007
30
0
11
-8.0041993999407026
21
74.712424227607642
31
0
0
LINE
5
137
100
AcDbEntity
8
0
100
AcDbLine
10
7.6344180302496403
20
68.553929659049018
30
0
11
8.008697751451793
21
74.712190372104402
31
0
0
ARC
5
138
100
AcDbEntity
8
0
100
AcDbCircle
10
-5.6336328669061517
20
68.674833587632293
30
0
40
2.0000000000000067
100
AcDbArc
50
183.47733349531418
51
239.99999999999972
0
ARC
5
139
100
AcDbEntity
8
0
100
AcDbCircle
10
5.638101654543143
20
68.675259490854728
30
0
40
1.99999999999998
100
AcDbArc
50
299.98605266399932
51
356.52202083052521
0
ARC
5
140
100
AcDbEntity
8
0
100
AcDbCircle
10
0.0011242618542009473
20
72.34980827279982
30
0
40
7.9999999999999902
100
AcDbArc
50
239.99999999999994
51
299.98605266399977
0
LINE
5
141
100
AcDbEntity
8
0
100
AcDbLine
10
-12.500000000000002
20
39.500000000000007
30
0
11
-12.499999999999998
21
64.500000000000014
31
0
0
LINE
5
142
100
AcDbEntity
8
0
100
AcDbLine
10
-11.000000000000004
20
39.500000000000007
30
0
11
-10.999999999999998
21
64.500000000000014
31
0
0
LINE
5
143
100
AcDbEntity
8
0
100
AcDbLine
10
11
20
38.500000000000007
30
0
11
12.5
21
38.500000000000007
31
0
0
LINE
5
144
100
AcDbEntity
8
0
100
AcDbLine
10
11
20
39.500000000000007
30
0
11
11
21
64.500000000000014
31
0
0
ARC
5
145
100
AcDbEntity
8
0
100
AcDbCircle
10
12.5
20
39.000000000000007
30
0
40
0.49999999999999822
100
AcDbArc
50
-90
51
90
0
ARC
5
146
100
AcDbEntity
8
0
100
AcDbCircle
10
11
20
39.000000000000007
30
0
40
0.49999999999999822
100
AcDbArc
50
90
51
270
0
LINE
5
147
100
AcDbEntity
8
0
100
AcDbLine
10
12.5
20
39.500000000000007
30
0
11
12.5
21
64.500000000000014
31
0
0
ARC
5
148
100
AcDbEntity
8
0
100
AcDbCircle
10
11
20
65.000000000000014
30
0
40
0.49999999999999822
100
AcDbArc
50
90
51
270
0
LINE
5
149
100
AcDbEntity
8
0
100
AcDbLine
10
11
20
65.5
30
0
11
12.5
21
65.5
31
0
0
ARC
5
150
100
AcDbEntity
8
0
100
AcDbCircle
10
12.5
20
65.000000000000014
30
0
40
0.49999999999999822
100
AcDbArc
50
-90
51
90
0
LINE
5
151
100
AcDbEntity
8
0
100
AcDbLine
10
14.852614897265424
20
40.580437909276263
30
0
11
14.145548556752496
21
41.287706291546193
31
0
0
LINE
5
152
100
AcDbEntity
8
0
100
AcDbLine
10
13.999152449861718
20
41.641205749871574
30
0
11
13.999011538863225
21
62.226887679790451
31
0
0
LINE
5
153
100
AcDbEntity
8
0
100
AcDbLine
10
-14.854466018744896
20
40.646421911831268
30
-4.3297198307675061e-17
11
-14.147383685356886
21
41.353706291546189
31
4.3295413324051974e-17
0
LINE
5
154
100
AcDbEntity
8
0
100
AcDbLine
10
-14.000987578466106
20
41.707205749871569
30
6.1223765695194692e-17
11
-14.000846667467615
21
62.292887679790461
31
6.1241022315521326e-17
0
LINE
5
155
100
AcDbEntity
8
0
100
AcDbLine
10
-15.002422062003337
20
74.499999805787397
30
0
11
-15.000870027613608
21
63.707063198173827
31
-6.0070416999963007e-17
0
LINE
5
156
100
AcDbEntity
8
0
100
AcDbLine
10
14.997127890210187
20
74.434337329456909
30
0
11
14.998969771598279
21
63.641155298841255
31
0
0
LINE
5
157
100
AcDbEntity
8
0
100
AcDbLine
10
-14.147291509788287
20
62.646442725849276
30
4.3306701575556175e-17
11
-14.854425190450902
21
63.353583475131138
31
-4.3292198283719438e-17
0
LINE
5
158
100
AcDbEntity
8
0
100
AcDbLine
10
14.145456381183891
20
62.580442725849267
30
0
11
14.85252493654645
21
63.287518349180075
31
0
0
ARC
5
159
100
AcDbEntity
8
0
100
AcDbCircle
10
12.5
20
26.500000000000004
30
0
40
3.5000000000000027
100
AcDbArc
50
-35.114716379372162
51
35.114716379372148
0
LINE
5
160
100
AcDbEntity
8
0
100
AcDbLine
10
14.999011004167912
20
40.226935028402167
30
0
11
14.999011004167912
21
29.663684558292132
31
0
0
ARC
5
161
100
AcDbEntity
8
0
100
AcDbCircle
10
-12.500000000000004
20
26.500000000000004
30
0
40
3.5000000000000013
100
AcDbArc
50
144.93371104481889
51
215.05603765938923
0
LINE
5
162
100
AcDbEntity
8
0
100
AcDbLine
10
-15.00086212415599
20
40.292957649592218
30
-6.0126330945647797e-17
11
-15.001683405919422
21
29.659726309062297
31
-3.7734468980227394e-18
0
LINE
5
163
100
AcDbEntity
8
0
100
AcDbLine
10
-15.002248690177657
20
23.340924703050977
30
5.3455294201843913e-50
11
-15.002248690177534
21
-23.340924947274321
31
0
0
ARC
5
164
100
AcDbEntity
8
0
100
AcDbCircle
10
-17.001683399953794
20
29.659880783602475
30
-3.6471968192340194e-17
40
1.9999999999999702
100
AcDbArc
50
324.93371104481849
51
359.99557463051951
0
ARC
5
165
100
AcDbEntity
8
0
100
AcDbCircle
10
-17.002248690177652
20
23.340924703050973
30
-4.1979328348051171e-34
40
1.9999999999999929
100
AcDbArc
50
0
51
35.056037659389112
0
ARC
5
166
100
AcDbEntity
8
0
100
AcDbCircle
10
16.999011004167876
20
23.336315441707889
30
0
40
1.9999999999999623
100
AcDbArc
50
144.88528362062752
51
180
0
ARC
5
167
100
AcDbEntity
8
0
100
AcDbCircle
10
16.999011004167851
20
29.663684558292115
30
0
40
1.9999999999999374
100
AcDbArc
50
180
51
215.11471637937279
0
ARC
5
168
100
AcDbEntity
8
0
100
AcDbCircle
10
-14.500870032783284
20
63.707135098641238
30
3.9544163428836582e-18
40
0.50000000000000189
100
AcDbArc
50
180.00823918668468
51
224.99971363262907
0
ARC
5
169
100
AcDbEntity
8
0
100
AcDbCircle
10
-14.500846667455871
20
62.292891102339183
30
8.6823595932535247e-21
40
0.49999999999997036
100
AcDbArc
50
-0.00039219540073338009
51
44.99971363263122
0
ARC
5
170
100
AcDbEntity
8
0
100
AcDbCircle
10
14.498969778878832
20
63.641069972690161
30
0
40
0.49999999999999517
100
AcDbArc
50
-44.999713632627909
51
0.0097776566844512813
0
ARC
5
171
100
AcDbEntity
8
0
100
AcDbCircle
10
14.499011538851512
20
62.226891102339181
30
0
40
0.49999999999999678
100
AcDbArc
50
135.00028636737241
51
180.00039219540074
0
ARC
5
172
100
AcDbEntity
8
0
100
AcDbCircle
10
-14.500987578454378
20
41.707209172420285
30
-8.5742607356627082e-21
40
0.49999999999998668
100
AcDbArc
50
315.00818486578476
51
359.99960780459924
0
ARC
5
173
100
AcDbEntity
8
0
100
AcDbCircle
10
-14.500862125647352
20
40.292919030957165
30
3.7617545402730188e-18
40
0.50000000000003542
100
AcDbArc
50
135.00818486578839
51
179.99557463051954
0
ARC
5
174
100
AcDbEntity
8
0
100
AcDbCircle
10
14.499152449849991
20
41.64120917242029
30
0
40
0.49999999999998596
100
AcDbArc
50
180.00039219540074
51
224.99181513421502
0
ARC
5
175
100
AcDbEntity
8
0
100
AcDbCircle
10
14.49901100416789
20
40.22693502840216
30
0
40
0.50000000000002265
100
AcDbArc
50
0
51
44.991815134212473
0
ARC
5
176
100
AcDbEntity
8
0
100
AcDbCircle
10
17.002313395229166
20
-23.340924947274324
30
4.901380668234765e-16
40
1.9999999999999616
100
AcDbArc
50
180
51
215.05603455139459
0
ARC
5
177
100
AcDbEntity
8
0
100
AcDbCircle
10
12.500064533688317
20
-26.500000000000004
30
-6.122839890160482e-17
40
3.5000000000000031
100
AcDbArc
50
-35.611666338481086
51
35.056034551394127
0
ARC
5
178
100
AcDbEntity
8
0
100
AcDbCircle
10
16.971466714160041
20
-29.702586851355118
30
4.8636043789991451e-16
40
1.9999999999999933
100
AcDbArc
50
144.388333661519
51
177.51960577438504
0
CIRCLE
5
179
100
AcDbEntity
8
0
100
AcDbCircle
10
12.500064533688317
20
-26.500000000000004
30
-6.122839890160482e-17
40
1.5000000000000002
0
LINE
5
180
100
AcDbEntity
8
0
100
AcDbLine
10
14.999011004167912
20
23.336315441707882
30
0
11
15.002313395229203
21
-23.340924947274321
31
2.4520870699401064e-16
0
LINE
5
181
100
AcDbEntity
8
0
100
AcDbLine
10
9.5000001713633271
20
-68.5
30
0
11
12.999995615981055
21
-68.494353084458169
31
0
0
SPLINE
5
182
100
AcDbEntity
8
0
100
AcDbSpline
70
12
71
2
41
1
41
1
41
1
72
6
73
3
74
0
42
0.000000001
43
0.0000000001
44
0.0000000001
40
0
40
0
40
0
40
3.8951723478834173
40
3.8951723478834173
40
3.8951723478834173
10
12.999995615981055
20
-68.494353084458169
30
0
10
12.958890539292403
20
-43.015042089969896
30
0
10
14.973340536148612
20
-29.616031800980174
30
2.4166055508049129e-16
0
SPLINE
5
183
100
AcDbEntity
8
0
100
AcDbSpline
70
12
71
2
41
1
41
1
41
1
72
6
73
3
74
0
42
0.000000001
43
0.0000000001
44
0.0000000001
40
0
40
0
40
0
40
3.8970936230685584
40
3.8970936230685584
40
3.8970936230685584
10
-12.999967647474167
20
-68.515008900756229
30
0
10
-12.999967647474106
20
-43.015008900756229
30
0
10
-14.973275831096943
20
-29.616031800980174
30
0
0
LWPOLYLINE
5
184
100
AcDbEntity
8
0
100
AcDbPolyline
90
9
70
1
43
0.0
10
2
20
12.267949192431125
10
2
20
0
10
2
20
-12.267949192431125
42
0.57735026918962173
10
3.5
20
-13.133974596215563
10
8.9431394714252725
20
-9.9913765571515061
42
0.26794919243112231
10
9.9431394714252725
20
-8.2593257495826293
10
9.9431394714252725
20
8.2593257495826258
42
0.26794919243112275
10
8.9431394714252725
20
9.9913765571515043
10
3.5
20
13.133974596215563
42
0.57735026918962173
0
LWPOLYLINE
5
185
100
AcDbEntity
8
0
100
AcDbPolyline
90
9
70
1
43
0.0
10
-2
20
12.267949192431125
10
-2
20
0
10
-1.9999999999999991
20
-12.267949192431125
42
-0.57735026918962173
10
-3.5000000000000009
20
-13.133974596215563
10
-9
20
-9.9585481156726221
42
-0.26794919243112275
10
-10
20
-8.2264973081037436
10
-10
20
8.2264973081037436
42
-0.26794919243112275
10
-9
20
9.9585481156726221
10
-3.5
20
13.133974596215563
42
-0.57735026918962173
0
ENDSEC
0
SECTION
2
OBJECTS
0
DICTIONARY
5
C
100
AcDbDictionary
3
ACAD_GROUP
350
D
3
ACAD_MLINESTYLE
350
17
0
DICTIONARY
5
D
100
AcDbDictionary
0
DICTIONARY
5
1A
330
C
100
AcDbDictionary
0
DICTIONARY
5
17
100
AcDbDictionary
0
ENDSEC
0
EOF
