0
SECTION
2
HEADER
9
$INSUNITS
70
4
9
$ACADVER
1
AC1014
9
$HANDSEED
5
FFFF
0
ENDSEC
0
SECTION
2
TABLES
0
TABLE
2
VPORT
5
8
100
AcDbSymbolTable
0
ENDTAB
0
TABLE
2
LTYPE
5
5
100
AcDbSymbolTable
0
LTYPE
5
14
100
AcDbSymbolTableRecord
100
AcDbLinetypeTableRecord
2
BYBLOCK
70
0
0
LTYPE
5
15
100
AcDbSymbolTableRecord
100
AcDbLinetypeTableRecord
2
BYLAYER
70
0
0
ENDTAB
0
TABLE
2
LAYER
5
2
100
AcDbSymbolTable
70
2
0
LAYER
5
50
100
AcDbSymbolTableRecord
100
AcDbLayerTableRecord
2
0
70
0
6
CONTINUOUS
0
ENDTAB
0
TABLE
2
STYLE
5
3
100
AcDbSymbolTable
70
1
0
STYLE
5
11
100
AcDbSymbolTableRecord
100
AcDbTextStyleTableRecord
2
STANDARD
70
0
0
ENDTAB
0
TABLE
2
VIEW
5
6
100
AcDbSymbolTable
70
0
0
ENDTAB
0
TABLE
2
UCS
5
7
100
AcDbSymbolTable
70
0
0
ENDTAB
0
TABLE
2
APPID
5
9
100
AcDbSymbolTable
70
2
0
APPID
5
12
100
AcDbSymbolTableRecord
100
AcDbRegAppTableRecord
2
ACAD
70
0
0
ENDTAB
0
TABLE
2
DIMSTYLE
5
A
100
AcDbSymbolTable
70
1
0
ENDTAB
0
TABLE
2
BLOCK_RECORD
5
1
100
AcDbSymbolTable
70
1
0
BLOCK_RECORD
5
1F
100
AcDbSymbolTableRecord
100
AcDbBlockTableRecord
2
*MODEL_SPACE
0
BLOCK_RECORD
5
1B
100
AcDbSymbolTableRecord
100
AcDbBlockTableRecord
2
*PAPER_SPACE
0
ENDTAB
0
ENDSEC
0
SECTION
2
BLOCKS
0
BLOCK
5
20
100
AcDbEntity
100
AcDbBlockBegin
2
*MODEL_SPACE
0
ENDBLK
5
21
100
AcDbEntity
100
AcDbBlockEnd
0
BLOCK
5
1C
100
AcDbEntity
100
AcDbBlockBegin
2
*PAPER_SPACE
0
ENDBLK
5
1D
100
AcDbEntity
100
AcDbBlockEnd
0
ENDSEC
0
SECTION
2
ENTITIES
0
LWPOLYLINE
5
100
100
AcDbEntity
8
0
100
AcDbPolyline
90
46
70
1
43
0.0
10
-14.999999999999998
20
24.836310473455573
10
-15
20
0
10
-15
20
-24.836310712292669
42
-0.15685996326923521
10
-15.749999914318318
20
-27.168155356146336
42
0.32163376962237772
10
-15.749999665432719
20
-31.831844990737036
42
-0.15685998687694372
10
-14.999999502228805
20
-34.163689923193346
10
-14.999999001977553
20
-68.497594462012586
42
0.35790710122871916
10
-12.183941218177253
20
-71.932524461045148
10
-10.363643435250541
20
-72.29522456971489
42
0.25915948104719744
10
-6.6638473163580914
20
-71.108103986902876
10
-2.9181486451969891
20
-67.11269207099771
42
-0.43323201246632853
10
2.9181489879237059
20
-67.112692070997724
10
6.6638476590848121
20
-71.10810398690289
42
0.25915948104719105
10
10.363643777977273
20
-72.295224569714861
10
12.183941560903889
20
-71.932524461045162
42
0.35790663438195891
10
14.999999348681449
20
-68.497600255708775
10
14.99999967514915
20
-34.163779883531511
42
-0.15686353254212401
10
15.750032104418732
20
-31.83188996078302
42
0.32164141407878233
10
15.75003226684416
20
-27.168110265590187
42
-0.15686351713579844
10
15
20
-24.83622053118037
10
15
20
0
10
14.999999999999996
20
24.836310473455594
42
-0.15685997268130161
10
15.75
20
27.168155236727802
42
0.32163376045133824
10
15.75
20
31.831844763272205
42
-0.15685997268129889
10
14.999999999999998
20
34.16368952654441
10
14.999999999999996
20
54.009696593335164
42
-0.031098768375550902
10
15.308884931453317
20
58.971085976903474
10
15.691115068546742
20
62.028927073650863
42
0.031098768375548175
10
15.999999999999996
20
66.990316457219222
10
15.999999999999998
20
72.500006525276902
42
0.93792521140318752
10
9.0286697410413677
20
72.947070539975257
10
8.2604037395214185
20
66.981694373868365
42
-0.23391001095603281
10
7.2767864486879112
20
65.505108717555657
10
4.0000000000000204
20
63.613255179328789
42
-0.26794919243112275
10
-3.9999999999999774
20
63.61325517932876
10
-7.2767864486879139
20
65.505108717555657
42
-0.23391001095603234
10
-8.2604037395214185
20
66.981694373868365
10
-9.0286697410413641
20
72.947070539975215
42
0.93792521140319418
10
-16
20
72.500006525276902
10
-16
20
66.990316457219208
42
0.031098768375545045
10
-15.691115068546749
20
62.028927073650863
10
-15.308884931453326
20
58.971085976903524
42
-0.031098768375548674
10
-15
20
54.009696593335178
10
-15.000000000000004
20
34.163689526544424
42
-0.15685997268130039
10
-15.750000000000009
20
31.831844763272208
42
0.32163376045133918
10
-15.750000000000009
20
27.168155236727788
42
-0.15685997268130084
0
LWPOLYLINE
5
101
100
AcDbEntity
8
0
100
AcDbPolyline
90
9
70
1
43
0.0
10
8.4431394714252743
20
15.719948308253686
42
-0.57735026918962562
10
9.9431394714252725
20
14.853922904469247
10
9.9431394714252725
20
-10.259325749582629
42
-0.26794919243112236
10
8.9431394714252725
20
-11.991376557151504
10
3.5000000000000004
20
-15.133974596215563
42
-0.57735026918962273
10
2
20
-14.267949192431125
10
2
20
-2.0000000000000018
10
1.9999999999999982
20
10.845299461620748
42
-0.26794919243112392
10
3.0000000000000004
20
12.57735026918963
0
LWPOLYLINE
5
102
100
AcDbEntity
8
0
100
AcDbPolyline
90
8
70
1
43
0.0
10
2.0000012547316111
20
30.113050083149275
42
-0.26794919243112175
10
3.0000012547316017
20
31.845100890718136
10
5.5000012547316048
20
33.288476563692207
42
-0.57735026918962584
10
7.0000012547316111
20
32.422451159907759
10
7.0000012547316164
20
25.309202505855886
42
-0.2679491924311202
10
6.0000012547316235
20
23.577151698287025
10
3.5000012547316222
20
22.133776025312958
42
-0.57735026918962207
10
2.0000012547316128
20
22.999801429097406
0
LWPOLYLINE
5
103
100
AcDbEntity
8
0
100
AcDbPolyline
90
8
70
1
43
0.0
10
-1.9999987452683856
20
22.999801429097403
42
-0.57735026918962229
10
-3.4999987452683983
20
22.133776025312962
10
-5.9999987452683987
20
23.577151698287029
42
-0.26794919243112236
10
-6.9999987452683872
20
25.309202505855886
10
-6.9999987452683872
20
32.422451159907759
42
-0.57735026918962584
10
-5.4999987452683801
20
33.288476563692207
10
-2.9999987452683752
20
31.845100890718136
42
-0.26794919243112203
10
-1.9999987452683878
20
30.113050083149275
0
LWPOLYLINE
5
104
100
AcDbEntity
8
0
100
AcDbPolyline
90
9
70
1
43
0.0
10
-2.9999999999999991
20
12.577350269189626
42
-0.26794919243112353
10
-1.9999999999999998
20
10.845299461620748
10
-2
20
-2.0000000000000018
10
-2.0000000000000013
20
-14.267949192431125
42
-0.57735026918962273
10
-3.5000000000000009
20
-15.133974596215563
10
-8.9999999999999982
20
-11.958548115672622
42
-0.26794919243112286
10
-10
20
-10.226497308103744
10
-9.9999999999999982
20
14.886751345948127
42
-0.57735026918962595
10
-8.4999999999999982
20
15.752776749732567
0
LWPOLYLINE
5
105
100
AcDbEntity
8
0
100
AcDbPolyline
90
8
70
1
43
0.0
10
9.0000009465907134
20
41.463705290526718
42
-0.26794918266714562
10
8.0000010060768663
20
39.731654521492828
10
3.5000012842714527
20
37.133578264689177
42
-0.57735028063460414
10
2.0000012545283696
20
37.999603651292034
10
2.0000012526876851
20
56.112852275695474
42
-0.2679491846265426
10
3.0000012022076774
20
57.844903054154798
10
7.5000009555005098
20
60.442979297939495
42
-0.57735027960022411
10
9.0000009807405092
20
59.576953906640206
0
ARC
5
106
100
AcDbEntity
8
0
100
AcDbCircle
10
-12.500000000000002
20
38.500000000000007
30
0
40
0.49999999999998934
210
0
220
-0
230
1
100
AcDbArc
50
90
51
270
0
LWPOLYLINE
5
107
100
AcDbEntity
8
0
100
AcDbPolyline
90
8
70
1
43
0.0
10
5.4975273268096201
20
-30.312121326805585
10
2.9975273268096272
20
-28.868745653831525
42
-0.26794919243112092
10
1.9975273268096272
20
-27.136694846262642
10
1.9975273268096394
20
-23.02344619221078
42
-0.57735026918962173
10
3.4975273268096414
20
-22.157420788426339
10
5.997527326809637
20
-23.6007964614004
42
-0.26794919243112192
10
6.9975273268096387
20
-25.332847268969282
10
6.9975273268096227
20
-29.446095923021144
42
-0.57735026918962207
0
LWPOLYLINE
5
108
100
AcDbEntity
8
0
100
AcDbPolyline
90
8
70
1
43
0.0
10
-7.5024726730582847
20
-53.466821865184841
42
-0.57735026918962262
10
-9.0024726730582785
20
-52.600796461400392
10
-9.0024726730582643
20
-38.487547807348562
42
-0.26794919243111953
10
-8.0024726730582749
20
-36.75549699977968
10
-3.5024726730582967
20
-34.157420788426364
42
-0.57735026918962207
10
-2.0024726730582949
20
-35.023446192210798
10
-2.002472673058239
20
-49.13669484626265
42
-0.26794919243112669
10
-3.0024726730582563
20
-50.868745653831553
0
LWPOLYLINE
5
109
100
AcDbEntity
8
0
100
AcDbPolyline
90
8
70
1
43
0.0
10
6.997743765745196
20
-63.270537202223196
42
-0.57694879993641124
10
5.4988354640590806
20
-64.136514662869558
10
2.9990755666714581
20
-62.69625461262212
42
-0.26818865854964424
10
1.9975273269418095
20
-60.963310850576434
10
1.9975273269418072
20
-57.026375701958081
42
-0.57735026918962529
10
3.4975273269418117
20
-56.16035029817364
10
5.9995842151728063
20
-57.604913516121563
42
-0.27470159806455979
10
6.9989513477310776
20
-59.387274056801374
0
LINE
5
110
100
AcDbEntity
8
0
100
AcDbLine
10
11
20
64
30
0
11
12.5
21
64
31
0
0
CIRCLE
5
111
100
AcDbEntity
8
0
100
AcDbCircle
10
-12.499999828636634
20
-29.5
30
0
40
1.5000000000000002
210
0
220
0
230
1
0
LWPOLYLINE
5
112
100
AcDbEntity
8
0
100
AcDbPolyline
90
8
70
1
43
0.0
10
-8.9999990192594943
20
59.576954010882417
42
-0.57735026848804605
10
-7.4999990192746804
20
60.442979412588464
10
-2.999998747342711
20
57.844903044340477
42
-0.2679491924311268
10
-1.9999987473123122
20
56.112852236789138
10
-1.9999987454716295
20
37.999603582584513
42
-0.57735026918962384
10
-3.4999987454634884
20
37.133578178785953
10
-7.999999053393009
20
39.731654567865981
42
-0.26794919299508191
10
-8.9999990534092902
20
41.463705379634888
0
ARC
5
113
100
AcDbEntity
8
0
100
AcDbCircle
10
12.5
20
63.500000000000007
30
0
40
0.49999999999999822
210
0
220
0
230
1
100
AcDbArc
50
-90
51
90
0
LWPOLYLINE
5
114
100
AcDbEntity
8
0
100
AcDbPolyline
90
8
70
1
43
0.0
10
1.9975273269417175
20
-35.023446192210791
42
-0.5773502691896274
10
3.4975273269417189
20
-34.15742078842635
10
7.9975273269417038
20
-36.755496999779659
42
-0.26794919243112336
10
8.9975273269417055
20
-38.487547807348534
10
8.9975273269416984
20
-52.600796461400364
42
-0.57735026918963339
10
7.4975273269416975
20
-53.466821865184798
10
2.9975273269417855
20
-50.868745653831539
42
-0.26794919243112214
10
1.9975273269417839
20
-49.136694846262671
0
CIRCLE
5
115
100
AcDbEntity
8
0
100
AcDbCircle
10
10.500000171363356
20
-67.500000000000014
30
0
40
1.5000000000000002
210
0
220
0
230
1
0
LWPOLYLINE
5
116
100
AcDbEntity
8
0
100
AcDbPolyline
90
8
70
1
43
0.0
10
-3.5016985531933802
20
-22.1551884008081
42
-0.57705242553366298
10
-2.0024726730582074
20
-23.021660281830933
10
-2.0024726730581879
20
-27.13669484626265
42
-0.26794919243112381
10
-3.0024726730581874
20
-28.868745653831532
10
-5.5024726730581932
20
-30.312121326805599
42
-0.57735026918962684
10
-7.0024726730581888
20
-29.446095923021165
10
-7.0024726730582056
20
-25.328084534065475
42
-0.2681886585496483
10
-6.0009244333285512
20
-23.595140772019789
0
CIRCLE
5
117
100
AcDbEntity
8
0
100
AcDbCircle
10
12.500064533688317
20
-29.5
30
-6.122839890160482e-17
40
1.4999999999999991
210
0
220
0
230
1
0
LWPOLYLINE
5
118
100
AcDbEntity
8
0
100
AcDbPolyline
90
8
70
1
43
0.0
10
-6.0009244333285476
20
-57.5980702817671
10
-3.5011645359409185
20
-56.157810231519647
42
-0.57694955143090254
10
-2.0013211619712954
20
-57.024330175482291
10
-2.0001072279095045
20
-60.956537613913191
42
-0.26803191425435102
10
-3.0001307841215299
20
-62.689246833033508
10
-5.5024726730581861
20
-64.13397459621558
42
-0.57735026918962939
10
-7.0024726730581834
20
-63.267949192431132
10
-7.0024726730581861
20
-59.331014043812786
42
-0.26818865854964447
0
ARC
5
119
100
AcDbEntity
8
0
100
AcDbCircle
10
11
20
63.500000000000007
30
0
40
0.49999999999999822
210
0
220
-0
230
1
100
AcDbArc
50
90
51
270
0
CIRCLE
5
120
100
AcDbEntity
8
0
100
AcDbCircle
10
-10.49999982863665
20
-67.500000000000014
30
0
40
1.5000000000000002
210
0
220
0
230
1
0
LINE
5
121
100
AcDbEntity
8
0
100
AcDbLine
10
12.5
20
39
30
0
11
12.5
21
63.000000000000007
31
0
0
ARC
5
122
100
AcDbEntity
8
0
100
AcDbCircle
10
-10.999999999999998
20
63.500000000000014
30
0
40
0.49999999999999822
210
0
220
0
230
1
100
AcDbArc
50
-90
51
90
0
LINE
5
123
100
AcDbEntity
8
0
100
AcDbLine
10
-11.000000000000004
20
39
30
0
11
-10.999999999999998
21
63.000000000000014
31
0
0
ARC
5
124
100
AcDbEntity
8
0
100
AcDbCircle
10
-12.499999999999998
20
63.500000000000014
30
0
40
0.49999999999999822
210
0
220
-0
230
1
100
AcDbArc
50
90
51
270
0
CIRCLE
5
125
100
AcDbEntity
8
0
100
AcDbCircle
10
12.499999999999998
20
72.500006525276902
30
0
40
1.4999999999999991
210
0
220
0
230
1
0
CIRCLE
5
126
100
AcDbEntity
8
0
100
AcDbCircle
10
-12.5
20
72.500006525276902
30
0
40
1.4999999999999991
210
0
220
0
230
1
0
LINE
5
127
100
AcDbEntity
8
0
100
AcDbLine
10
-12.499999999999998
20
64.000000000000014
30
0
11
-10.999999999999998
21
64.000000000000014
31
0
0
ARC
5
128
100
AcDbEntity
8
0
100
AcDbCircle
10
-11.000000000000004
20
38.500000000000007
30
0
40
0.50000000000000711
210
0
220
0
230
1
100
AcDbArc
50
-90
51
90
0
LINE
5
129
100
AcDbEntity
8
0
100
AcDbLine
10
11
20
39
30
0
11
11
21
63.000000000000007
31
0
0
ARC
5
130
100
AcDbEntity
8
0
100
AcDbCircle
10
12.5
20
38.500000000000007
30
0
40
0.50000000000000711
210
0
220
0
230
1
100
AcDbArc
50
-90
51
90
0
ARC
5
131
100
AcDbEntity
8
0
100
AcDbCircle
10
11
20
38.500000000000007
30
0
40
0.49999999999998934
210
0
220
-0
230
1
100
AcDbArc
50
90
51
270
0
LINE
5
132
100
AcDbEntity
8
0
100
AcDbLine
10
-12.500000000000002
20
39
30
0
11
-12.499999999999998
21
63.000000000000014
31
0
0
LINE
5
133
100
AcDbEntity
8
0
100
AcDbLine
10
-12.500000000000002
20
38
30
0
11
-11.000000000000004
21
38
31
0
0
LINE
5
134
100
AcDbEntity
8
0
100
AcDbLine
10
11
20
38
30
0
11
12.5
21
38
31
0
0
CIRCLE
5
135
100
AcDbEntity
8
0
100
AcDbCircle
10
-12.500000000000009
20
29.5
30
0
40
1.4999999999999991
210
0
220
0
230
1
0
CIRCLE
5
136
100
AcDbEntity
8
0
100
AcDbCircle
10
12.5
20
29.5
30
0
40
1.4999999999999991
210
0
220
0
230
1
0
ENDSEC
0
SECTION
2
OBJECTS
0
DICTIONARY
5
C
100
AcDbDictionary
3
ACAD_GROUP
350
D
3
ACAD_MLINESTYLE
350
17
0
DICTIONARY
5
D
100
AcDbDictionary
0
DICTIONARY
5
1A
330
C
100
AcDbDictionary
0
DICTIONARY
5
17
100
AcDbDictionary
0
ENDSEC
0
EOF
