0
SECTION
2
HEADER
9
$INSUNITS
70
4
9
$ACADVER
1
AC1014
9
$HANDSEED
5
FFFF
0
ENDSEC
0
SECTION
2
TABLES
0
TABLE
2
VPORT
5
8
100
AcDbSymbolTable
0
ENDTAB
0
TABLE
2
LTYPE
5
5
100
AcDbSymbolTable
0
LTYPE
5
14
100
AcDbSymbolTableRecord
100
AcDbLinetypeTableRecord
2
BYBLOCK
70
0
0
LTYPE
5
15
100
AcDbSymbolTableRecord
100
AcDbLinetypeTableRecord
2
BYLAYER
70
0
0
ENDTAB
0
TABLE
2
LAYER
5
2
100
AcDbSymbolTable
70
2
0
LAYER
5
50
100
AcDbSymbolTableRecord
100
AcDbLayerTableRecord
2
0
70
0
6
CONTINUOUS
0
ENDTAB
0
TABLE
2
STYLE
5
3
100
AcDbSymbolTable
70
1
0
STYLE
5
11
100
AcDbSymbolTableRecord
100
AcDbTextStyleTableRecord
2
STANDARD
70
0
0
ENDTAB
0
TABLE
2
VIEW
5
6
100
AcDbSymbolTable
70
0
0
ENDTAB
0
TABLE
2
UCS
5
7
100
AcDbSymbolTable
70
0
0
ENDTAB
0
TABLE
2
APPID
5
9
100
AcDbSymbolTable
70
2
0
APPID
5
12
100
AcDbSymbolTableRecord
100
AcDbRegAppTableRecord
2
ACAD
70
0
0
ENDTAB
0
TABLE
2
DIMSTYLE
5
A
100
AcDbSymbolTable
70
1
0
ENDTAB
0
TABLE
2
BLOCK_RECORD
5
1
100
AcDbSymbolTable
70
1
0
BLOCK_RECORD
5
1F
100
AcDbSymbolTableRecord
100
AcDbBlockTableRecord
2
*MODEL_SPACE
0
BLOCK_RECORD
5
1B
100
AcDbSymbolTableRecord
100
AcDbBlockTableRecord
2
*PAPER_SPACE
0
ENDTAB
0
ENDSEC
0
SECTION
2
BLOCKS
0
BLOCK
5
20
100
AcDbEntity
100
AcDbBlockBegin
2
*MODEL_SPACE
0
ENDBLK
5
21
100
AcDbEntity
100
AcDbBlockEnd
0
BLOCK
5
1C
100
AcDbEntity
100
AcDbBlockBegin
2
*PAPER_SPACE
0
ENDBLK
5
1D
100
AcDbEntity
100
AcDbBlockEnd
0
ENDSEC
0
SECTION
2
ENTITIES
0
ARC
5
100
100
AcDbEntity
8
0
100
AcDbCircle
10
-7.0000001551442192
20
54.767949206559827
30
0
40
1.0000000000000091
210
0
220
-0
230
1
100
AcDbArc
50
60.000000018644243
51
180.00013284619169
0
CIRCLE
5
101
100
AcDbEntity
8
0
100
AcDbCircle
10
12.5
20
68.500006525276902
30
0
40
1.4999999999999991
210
0
220
0
230
1
0
ARC
5
102
100
AcDbEntity
8
0
100
AcDbCircle
10
6.00000003124042
20
6.3452994482221374
30
0
40
2.0000000104888649
210
0
220
-0
230
1
100
AcDbArc
50
0
51
60.000000035353914
0
ARC
5
103
100
AcDbEntity
8
0
100
AcDbCircle
10
5.9999999038076268
20
-6.3452994597074674
30
0
40
1.9999999857797759
210
-0
220
0
230
1
100
AcDbArc
50
-60.000000021716147
51
0
0
LINE
5
104
100
AcDbEntity
8
0
100
AcDbLine
10
3.4999999015324512
20
-10.098076192165326
30
0
11
6.9999998960410359
21
-8.0773502553402885
31
0
0
LWPOLYLINE
5
105
100
AcDbEntity
8
0
100
AcDbPolyline
90
46
70
1
43
0.0
10
-12.183941247317627
20
-69.932524461045148
10
-10.363643464390897
20
-70.295224569714875
42
0.25915948104719688
10
-6.663847345498457
20
-69.108103986902861
10
-2.9181486743373459
20
-65.11269207099771
42
-0.43323201246632859
10
2.9181489587833376
20
-65.11269207099771
10
6.6638476299444527
20
-69.10810398690289
42
0.25915948104719078
10
10.36364374883691
20
-70.295224569714861
10
12.183941531763516
20
-69.932524461045148
42
0.35790663438195913
10
14.999999319541075
20
-66.497600255708761
10
14.999999675149144
20
-32.163779880136552
42
-0.15686353232471792
10
15.750032104418725
20
-29.831889960783016
42
0.32164141407878233
10
15.750032266844158
20
-25.168110265590187
42
-0.15686351713579808
10
15
20
-22.83622053118037
10
15
20
0
10
14.999999999999993
20
22.83631047345559
42
-0.1568599726813012
10
15.749999999999993
20
25.168155236727799
42
0.32163376045133879
10
15.75
20
29.831844763272208
42
-0.1568599726812987
10
15
20
32.16368952654441
10
14.999999999999996
20
50.009696593335164
42
-0.031098768375550902
10
15.308884931453317
20
54.971085976903467
10
15.691115068546733
20
58.028927073650856
42
0.031098768375548175
10
15.999999999999996
20
62.990316457219215
10
15.999999999999996
20
68.500006525276902
42
0.93792521140318752
10
9.028669741041373
20
68.947070539975257
10
8.2604037395214149
20
62.981694373868358
42
-0.23391001095603373
10
7.2767864486879041
20
61.505108717555657
10
4.0000000000000204
20
59.613255179328782
42
-0.26794919243112264
10
-3.999999999999968
20
59.61325517932876
10
-7.2767864486879006
20
61.505108717555657
42
-0.23391001095603373
10
-8.2604037395214114
20
62.981694373868358
10
-9.0286697410413552
20
68.947070539975215
42
0.93792521140319418
10
-15.999999999999996
20
68.500006525276902
10
-15.999999999999996
20
62.990316457219208
42
0.031098768375545045
10
-15.69111506854675
20
58.028927073650856
10
-15.308884931453326
20
54.971085976903524
42
-0.031098768375548674
10
-15
20
50.009696593335171
10
-15.000000000000007
20
32.163689526544417
42
-0.15685997268130039
10
-15.750000000000011
20
29.831844763272208
42
0.32163376045133835
10
-15.750000000000011
20
25.168155236727788
42
-0.15685997268130084
10
-15
20
22.836310473455569
10
-15
20
0
10
-14.999999999999993
20
-22.836310712292665
42
-0.15685996326923532
10
-15.749999914318309
20
-25.168155356146332
42
0.32163376962237777
10
-15.749999665432721
20
-29.831844990737039
42
-0.15685998709434915
10
-14.999999502228807
20
-32.163689926588297
10
-14.999999031117923
20
-66.497594462012572
42
0.35790710122871899
0
LWPOLYLINE
5
106
100
AcDbEntity
8
0
100
AcDbPolyline
90
8
70
1
43
0.0
10
2.9999998516617588
20
53.613248679602052
10
6.4999998445113381
20
55.633974619300602
42
-0.57735026855883098
10
7.9999998449810228
20
54.767949217788143
10
7.9999964116401507
20
36.654701560879957
42
-0.26794919312692644
10
6.9999965281165366
20
34.92265069728996
10
3.4999966621407816
20
32.901924537839506
42
-0.57735026834697978
10
1.9999966053256557
20
33.767949845612982
10
1.9999998566803843
20
51.881197875777083
42
-0.26794919291972952
0
ARC
5
107
100
AcDbEntity
8
0
100
AcDbCircle
10
-6.0000501645554305
20
36.654620002310367
30
0
40
1.9999074128693928
210
0
220
0
230
1
100
AcDbArc
50
180.00013284619169
51
240.00000361679668
0
ARC
5
108
100
AcDbEntity
8
0
100
AcDbCircle
10
-3.000014745372539
20
33.767929863060147
30
0
40
0.99997729433713345
210
0
220
0
230
1
100
AcDbArc
50
240.00000361679636
51
359.99990310891559
0
ARC
5
109
100
AcDbEntity
8
0
100
AcDbCircle
10
3.0000001087285533
20
-45.767949209536532
30
0
40
1.0000000000000129
210
0
220
-0
230
1
100
AcDbArc
50
59.999999993688931
51
180
0
CIRCLE
5
110
100
AcDbEntity
8
0
100
AcDbCircle
10
12.500064533688313
20
-27.5
30
-6.122839890160482e-17
40
1.4999999999999991
210
0
220
0
230
1
0
LINE
5
111
100
AcDbEntity
8
0
100
AcDbLine
10
3.5000000267479958
20
10.098076207527553
30
0
11
7.0000000349283553
21
8.0773502646468742
31
0
0
LINE
5
112
100
AcDbEntity
8
0
100
AcDbLine
10
-3.0000029099101599
20
53.613250260163895
30
0
11
-6.5000001554260223
21
55.633974610506975
31
0
0
LINE
5
113
100
AcDbEntity
8
0
100
AcDbLine
10
3.5000001088239507
20
-44.901923805807158
30
0
11
7.0000001150316393
21
-46.922649752068885
31
0
0
LWPOLYLINE
5
114
100
AcDbEntity
8
0
100
AcDbPolyline
90
8
70
1
43
0.0
10
-6.999999884968382
20
-46.922649747556768
10
-3.4999998911259818
20
-44.901923809577866
42
-0.57735026862328698
10
-1.9999998913716155
20
-45.767949211741765
10
-2.028257227591634
20
-59.226707775692887
42
-0.5773502677575163
10
-3.5294086197545038
20
-60.090735837724324
10
-7.0267158313755278
20
-58.065353024313218
42
-0.26794919363278408
10
-8.0244094998858984
20
-56.331972703029003
10
-7.9999998851591663
20
-48.654700558418611
42
-0.26794919288705515
0
LINE
5
115
100
AcDbEntity
8
0
100
AcDbLine
10
-7.9999575774194476
20
36.654615365269308
30
0
11
-8.0000001551516053
21
54.767946887927145
31
0
0
CIRCLE
5
116
100
AcDbEntity
8
0
100
AcDbCircle
10
10.500000142222987
20
-65.5
30
0
40
1.5000000000000002
210
0
220
0
230
1
0
LWPOLYLINE
5
117
100
AcDbEntity
8
0
100
AcDbPolyline
90
8
70
1
43
0.0
10
-6.9999999655568246
20
8.0773502580485399
10
-3.4999999733863376
20
10.098076198923289
42
-0.57557069527227445
10
-2.0000142421759204
20
9.2373936042512881
10
-2.0000307222636184
20
-9.2320693638881135
42
-0.57734997189631687
10
-3.5000000983200241
20
-10.098076194252155
10
-7.0000001039387403
20
-8.0773502469116245
42
-0.26794878340361794
10
-7.9999561751650816
20
-6.3453785774622604
10
-7.9999755575271791
20
6.3551792040360979
42
-0.26662598918700015
0
CIRCLE
5
118
100
AcDbEntity
8
0
100
AcDbCircle
10
-10.499999857777009
20
-65.5
30
0
40
3.1000000000000005
210
0
220
0
230
1
0
CIRCLE
5
119
100
AcDbEntity
8
0
100
AcDbCircle
10
-12.5
20
27.5
30
0
40
1.4999999999999991
210
0
220
0
230
1
0
CIRCLE
5
120
100
AcDbEntity
8
0
100
AcDbCircle
10
-12.499999828636632
20
-27.5
30
0
40
1.5000000000000002
210
0
220
0
230
1
0
CIRCLE
5
121
100
AcDbEntity
8
0
100
AcDbCircle
10
12.500064533688313
20
-27.5
30
-6.122839890160482e-17
40
3.1000000000000005
210
0
220
0
230
1
0
ARC
5
122
100
AcDbEntity
8
0
100
AcDbCircle
10
6.0000001148408533
20
-48.654700559527612
30
0
40
1.9999999999999929
210
0
220
-0
230
1
100
AcDbArc
50
0
51
59.999999993688846
0
CIRCLE
5
123
100
AcDbEntity
8
0
100
AcDbCircle
10
-12.499999828636632
20
-27.5
30
0
40
3.1000000000000005
210
0
220
0
230
1
0
LINE
5
124
100
AcDbEntity
8
0
100
AcDbLine
10
-3.5000033378744888
20
32.901924091394775
30
0
11
-7.0000034718546811
21
34.922649816383249
31
0
0
LINE
5
125
100
AcDbEntity
8
0
100
AcDbLine
10
-2.0000001433411718
20
51.881191279172363
30
0
11
-2.0000341127372856
21
33.767928172006293
31
0
0
ARC
5
126
100
AcDbEntity
8
0
100
AcDbCircle
10
2.999999901322985
20
-9.2320507872600555
30
0
40
1.0000000007294663
210
0
220
0
230
1
100
AcDbArc
50
180
51
299.99999997828417
0
ARC
5
127
100
AcDbEntity
8
0
100
AcDbCircle
10
3.0000000272901151
20
9.2320508034301252
30
0
40
0.99999999999999711
210
0
220
-0
230
1
100
AcDbArc
50
60.000000035866222
51
180
0
CIRCLE
5
128
100
AcDbEntity
8
0
100
AcDbCircle
10
-12.5
20
68.500006525276902
30
0
40
1.4999999999999991
210
0
220
0
230
1
0
ARC
5
129
100
AcDbEntity
8
0
100
AcDbCircle
10
-4.0000056753735791
20
51.881194661370394
30
0
40
2.0000055320352672
210
-0
220
0
230
1
100
AcDbArc
50
-9.6887322771060377e-05
51
60.000000018642204
0
CIRCLE
5
130
100
AcDbEntity
8
0
100
AcDbCircle
10
12.5
20
27.5
30
0
40
1.4999999999999991
210
0
220
0
230
1
0
CIRCLE
5
131
100
AcDbEntity
8
0
100
AcDbCircle
10
10.500000142222987
20
-65.5
30
0
40
3.1000000000000005
210
0
220
0
230
1
0
CIRCLE
5
132
100
AcDbEntity
8
0
100
AcDbCircle
10
-10.499999857777009
20
-65.5
30
0
40
1.5000000000000002
210
0
220
0
230
1
0
LINE
5
133
100
AcDbEntity
8
0
100
AcDbLine
10
8.0000000417292849
20
6.3452994564120342
30
0
11
7.9999998906962766
21
-6.3452994552719444
31
0
0
LINE
5
134
100
AcDbEntity
8
0
100
AcDbLine
10
2.000000028255684
20
9.2320507992286629
30
0
11
1.9999999005935187
21
-9.2320507815771151
31
0
0
LWPOLYLINE
5
135
100
AcDbEntity
8
0
100
AcDbPolyline
90
8
70
1
43
0.0
10
-1.9999998790174056
20
16.118802128628253
42
-0.26794919344259199
10
-2.9999998747014089
20
14.386751321306264
10
-6.4999998684333722
20
12.366025383136027
42
-0.5773502678685587
10
-7.9999998683638562
20
13.232050783077689
10
-7.9999998914484047
20
18.345299447756481
42
-0.2679491936327843
10
-6.9999998948612152
20
20.077350255976544
10
-3.499999900344152
20
22.098076192786881
42
-0.57735026775751852
10
-1.9999999000594126
20
21.232050791930899
0
ARC
5
136
100
AcDbEntity
8
0
100
AcDbCircle
10
7.0000001316361526
20
13.232050790291776
30
0
40
1.0000000000000142
210
0
220
0
230
1
100
AcDbArc
50
-120.00000000459926
51
0
0
LINE
5
137
100
AcDbEntity
8
0
100
AcDbLine
10
3.0000028868705098
20
14.386749738310378
30
0
11
6.5000001315666278
21
12.366025386547461
31
0
0
LINE
5
138
100
AcDbEntity
8
0
100
AcDbLine
10
8.0000001098463791
20
18.345299438130262
30
0
11
8.000000131636158
21
13.232050794262037
31
0
0
ARC
5
139
100
AcDbEntity
8
0
100
AcDbCircle
10
4.0000056530365669
20
16.118805336698205
30
0
40
2.0000055320539722
210
0
220
0
230
1
100
AcDbArc
50
180
51
239.99999999539912
0
ARC
5
140
100
AcDbEntity
8
0
100
AcDbCircle
10
3.0000000994033638
20
21.232050789080898
30
0
40
0.99999999999999412
210
0
220
-0
230
1
100
AcDbArc
50
59.999999965522889
51
180
0
LINE
5
141
100
AcDbEntity
8
0
100
AcDbLine
10
2.0000001209825946
20
16.118805329165127
30
0
11
2.0000001005633905
21
21.232050785314371
31
0
0
LINE
5
142
100
AcDbEntity
8
0
100
AcDbLine
10
3.5000000999244829
20
22.098076192564463
30
0
11
7.0000001051513916
21
20.077350244498145
31
0
0
ARC
5
143
100
AcDbEntity
8
0
100
AcDbCircle
10
6.0000000998095526
20
18.345299430189744
30
0
40
2.0000000100368265
210
0
220
-0
230
1
100
AcDbArc
50
0
51
59.999999964006612
0
ARC
5
144
100
AcDbEntity
8
0
100
AcDbCircle
10
2.9717383429221744
20
-21.233363010937364
30
0
40
0.9999999988399727
210
0
220
0
230
1
100
AcDbArc
50
179.92373635077524
51
299.92373660106085
0
LWPOLYLINE
5
145
100
AcDbEntity
8
0
100
AcDbPolyline
90
8
70
1
43
0.0
10
-2.028257227591634
20
-21.226707775692894
42
-0.57735026775751486
10
-3.5294086197545038
20
-22.090735837724317
10
-7.0267158313755278
20
-20.065353024313218
42
-0.26794919363278408
10
-8.0244094998858984
20
-18.331972703028999
10
-8.0176034995983532
20
-13.218728567922637
42
-0.57735026786855814
10
-6.5164521073877157
20
-12.354700506572968
10
-3.0191448965592849
20
-14.380083321352735
42
-0.26794919344259199
10
-2.0214512288225617
20
-16.113463641960664
0
ARC
5
146
100
AcDbEntity
8
0
100
AcDbCircle
10
3.9785489838907573
20
-16.121453143104986
30
0
40
2.0000055320539394
210
0
220
0
230
1
100
AcDbArc
50
119.92373657118398
51
179.92373635078002
0
LINE
5
147
100
AcDbEntity
8
0
100
AcDbLine
10
1.9785452235402623
20
-16.118791032970559
30
0
11
1.9717392299314884
21
-21.23203195955341
31
0
0
LINE
5
148
100
AcDbEntity
8
0
100
AcDbLine
10
7.9755763276560376
20
-18.353269455307597
30
0
11
7.9823823268783922
21
-13.240025341010409
31
0
0
ARC
5
149
100
AcDbEntity
8
0
100
AcDbCircle
10
5.9755780893183363
20
-18.350607352115805
30
0
40
2.0000000085075116
210
-0
220
0
230
1
100
AcDbArc
50
299.92373660257681
51
359.92373633910967
0
LINE
5
150
100
AcDbEntity
8
0
100
AcDbLine
10
3.4705851794698894
20
-22.100053171067447
30
0
11
6.9732717667035882
21
-20.083987679722973
31
0
0
ARC
5
151
100
AcDbEntity
8
0
100
AcDbCircle
10
6.9823832127279495
20
-13.238694289421193
30
0
40
1.0000000000000018
210
0
220
0
230
1
100
AcDbArc
50
-0.076263660890309171
51
119.92373657118263
0
LINE
5
152
100
AcDbEntity
8
0
100
AcDbLine
10
2.9808525520515783
20
-14.388068027747831
30
0
11
6.4835363766321752
21
-12.372004129030948
31
0
0
LWPOLYLINE
5
153
100
AcDbEntity
8
0
100
AcDbPolyline
90
8
70
1
43
0.0
10
7.0000001058986951
20
-34.922649754167423
42
-0.26794919112363147
10
8.0000001098463791
20
-36.654700561287385
10
8.0000001316361669
20
-41.767949205446797
42
-0.57735027063686173
10
6.5000001315666278
20
-42.633974613452551
10
3.0000028868704964
20
-40.613250261689657
42
-0.26794919133958062
10
2.0000001209825946
20
-38.881194671288604
10
2.0000000994033695
20
-33.767949214912498
42
-0.57735027072133516
10
3.5000000999244829
20
-32.901923807435544
0
LWPOLYLINE
5
154
100
AcDbEntity
8
0
100
AcDbPolyline
90
8
70
1
43
0.0
10
-3.4999999004017024
20
-32.901923807246355
42
-0.57735026763946784
10
-1.9999999000594126
20
-33.767949207648506
10
-1.9999998790174054
20
-38.881197870530535
42
-0.26794919355529367
10
-2.9999998747014089
20
-40.613248678693743
10
-6.4999998684333722
20
-42.633974616863981
42
-0.57735026767475228
10
-7.9999998683638562
20
-41.767949217503741
10
-7.9999998914484038
20
-36.654700553406371
42
-0.26794919377076565
10
-6.9999998949763409
20
-34.922649744089931
0
ARC
5
155
100
AcDbEntity
8
0
100
AcDbCircle
10
5.9755780893183363
20
-56.350607352115809
30
0
40
2.0000000085075116
210
-0
220
0
230
1
100
AcDbArc
50
299.92373660257681
51
359.92373633910967
0
LINE
5
156
100
AcDbEntity
8
0
100
AcDbLine
10
3.4705851794698894
20
-60.100053171067451
30
0
11
6.9732717667035882
21
-58.083987679722981
31
0
0
ARC
5
157
100
AcDbEntity
8
0
100
AcDbCircle
10
2.9717383429221744
20
-59.233363010937367
30
0
40
0.9999999988399727
210
0
220
0
230
1
100
AcDbArc
50
179.92373635077524
51
299.92373660106085
0
LINE
5
158
100
AcDbEntity
8
0
100
AcDbLine
10
8.0000001148408462
20
-48.654700555292891
30
0
11
7.9755763276560376
21
-56.353269455307604
31
0
0
LINE
5
159
100
AcDbEntity
8
0
100
AcDbLine
10
2.0000001087285568
20
-45.767949211653871
30
0
11
1.9717392299314884
21
-59.232031959553417
31
0
0
ENDSEC
0
SECTION
2
OBJECTS
0
DICTIONARY
5
C
100
AcDbDictionary
3
ACAD_GROUP
350
D
3
ACAD_MLINESTYLE
350
17
0
DICTIONARY
5
D
100
AcDbDictionary
0
DICTIONARY
5
1A
330
C
100
AcDbDictionary
0
DICTIONARY
5
17
100
AcDbDictionary
0
ENDSEC
0
EOF
