0
SECTION
2
HEADER
9
$INSUNITS
70
4
9
$ACADVER
1
AC1014
9
$HANDSEED
5
FFFF
0
ENDSEC
0
SECTION
2
TABLES
0
TABLE
2
VPORT
5
8
100
AcDbSymbolTable
0
ENDTAB
0
TABLE
2
LTYPE
5
5
100
AcDbSymbolTable
0
LTYPE
5
14
100
AcDbSymbolTableRecord
100
AcDbLinetypeTableRecord
2
BYBLOCK
70
0
0
LTYPE
5
15
100
AcDbSymbolTableRecord
100
AcDbLinetypeTableRecord
2
BYLAYER
70
0
0
ENDTAB
0
TABLE
2
LAYER
5
2
100
AcDbSymbolTable
70
2
0
LAYER
5
50
100
AcDbSymbolTableRecord
100
AcDbLayerTableRecord
2
0
70
0
6
CONTINUOUS
0
ENDTAB
0
TABLE
2
STYLE
5
3
100
AcDbSymbolTable
70
1
0
STYLE
5
11
100
AcDbSymbolTableRecord
100
AcDbTextStyleTableRecord
2
STANDARD
70
0
0
ENDTAB
0
TABLE
2
VIEW
5
6
100
AcDbSymbolTable
70
0
0
ENDTAB
0
TABLE
2
UCS
5
7
100
AcDbSymbolTable
70
0
0
ENDTAB
0
TABLE
2
APPID
5
9
100
AcDbSymbolTable
70
2
0
APPID
5
12
100
AcDbSymbolTableRecord
100
AcDbRegAppTableRecord
2
ACAD
70
0
0
ENDTAB
0
TABLE
2
DIMSTYLE
5
A
100
AcDbSymbolTable
70
1
0
ENDTAB
0
TABLE
2
BLOCK_RECORD
5
1
100
AcDbSymbolTable
70
1
0
BLOCK_RECORD
5
1F
100
AcDbSymbolTableRecord
100
AcDbBlockTableRecord
2
*MODEL_SPACE
0
BLOCK_RECORD
5
1B
100
AcDbSymbolTableRecord
100
AcDbBlockTableRecord
2
*PAPER_SPACE
0
ENDTAB
0
ENDSEC
0
SECTION
2
BLOCKS
0
BLOCK
5
20
100
AcDbEntity
100
AcDbBlockBegin
2
*MODEL_SPACE
0
ENDBLK
5
21
100
AcDbEntity
100
AcDbBlockEnd
0
BLOCK
5
1C
100
AcDbEntity
100
AcDbBlockBegin
2
*PAPER_SPACE
0
ENDBLK
5
1D
100
AcDbEntity
100
AcDbBlockEnd
0
ENDSEC
0
SECTION
2
ENTITIES
0
LWPOLYLINE
5
100
100
AcDbEntity
8
0
100
AcDbPolyline
90
9
70
1
43
0.0
10
-9.9999999999999982
20
14.886751345948127
42
-0.57735026918962595
10
-8.4999999999999982
20
15.752776749732567
10
-2.9999999999999991
20
12.577350269189626
42
-0.26794919243112353
10
-1.9999999999999998
20
10.845299461620748
10
-2
20
-2.0000000000000018
10
-2.0000000000000013
20
-14.267949192431125
42
-0.57735026918962273
10
-3.5000000000000009
20
-15.133974596215563
10
-8.9999999999999982
20
-11.958548115672622
42
-0.26794919243112286
10
-10
20
-10.226497308103744
0
LWPOLYLINE
5
101
100
AcDbEntity
8
0
100
AcDbPolyline
90
8
70
1
43
0.0
10
2.0000012547316142
20
20.999801429097403
10
2.0000012547316111
20
28.113050083149275
42
-0.26794919243112175
10
3.0000012547316017
20
29.845100890718133
10
5.5000012547316048
20
31.288476563692203
42
-0.57735026918962584
10
7.0000012547316111
20
30.422451159907759
10
7.0000012547316182
20
23.309202505855886
42
-0.2679491924311202
10
6.0000012547316262
20
21.577151698287022
10
3.5000012547316239
20
20.133776025312958
42
-0.57735026918962185
0
LWPOLYLINE
5
102
100
AcDbEntity
8
0
100
AcDbPolyline
90
9
70
1
43
0.0
10
8.4431394714252743
20
15.719948308253686
10
3.0000000000000009
20
12.57735026918963
42
0.26794919243112392
10
2
20
10.845299461620748
10
2
20
-2.0000000000000018
10
2
20
-14.267949192431125
42
0.57735026918962273
10
3.5
20
-15.133974596215563
10
8.9431394714252725
20
-11.991376557151504
42
0.26794919243112242
10
9.9431394714252725
20
-10.259325749582629
10
9.9431394714252725
20
14.853922904469247
42
0.57735026918962562
0
LWPOLYLINE
5
103
100
AcDbEntity
8
0
100
AcDbPolyline
90
8
70
1
43
0.0
10
-6.9999987452683872
20
30.422451159907759
42
-0.57735026918962584
10
-5.4999987452683801
20
31.288476563692203
10
-2.9999987452683752
20
29.845100890718133
42
-0.26794919243112203
10
-1.9999987452683881
20
28.113050083149275
10
-1.9999987452683841
20
20.999801429097399
42
-0.57735026918962229
10
-3.4999987452683969
20
20.133776025312962
10
-5.9999987452683969
20
21.577151698287025
42
-0.26794919243112253
10
-6.9999987452683854
20
23.309202505855886
0
CIRCLE
5
104
100
AcDbEntity
8
0
100
AcDbCircle
10
12.5
20
27.5
30
0
40
1.4999999999999991
210
0
220
0
230
1
0
LWPOLYLINE
5
105
100
AcDbEntity
8
0
100
AcDbPolyline
90
46
70
1
43
0.0
10
-15.750000000000009
20
25.168155236727788
42
-0.15685997268130084
10
-14.999999999999998
20
22.836310473455569
10
-15
20
0
10
-15
20
-22.836310712292665
42
-0.15685996326923521
10
-15.749999914318318
20
-25.168155356146332
42
0.32163376962237772
10
-15.749999665432718
20
-29.831844990737039
42
-0.15685998709434892
10
-14.999999502228805
20
-32.163689926588297
10
-14.99999903111792
20
-66.497594462012572
42
0.35790710122871916
10
-12.183941247317618
20
-69.932524461045148
10
-10.363643464390906
20
-70.295224569714875
42
0.25915948104719744
10
-6.663847345498457
20
-69.108103986902861
10
-2.9181486743373544
20
-65.112692070997696
42
-0.43323201246632853
10
2.9181489587833411
20
-65.11269207099771
10
6.6638476299444456
20
-69.10810398690289
42
0.25915948104719105
10
10.363643748836909
20
-70.295224569714861
10
12.183941531763525
20
-69.932524461045148
42
0.35790663438195891
10
14.999999319541084
20
-66.497600255708761
10
14.999999675149152
20
-32.163779880136552
42
-0.15686353232471836
10
15.750032104418732
20
-29.831889960783016
42
0.32164141407878233
10
15.75003226684416
20
-25.168110265590187
42
-0.15686351713579844
10
15
20
-22.83622053118037
10
15
20
0
10
14.999999999999996
20
22.83631047345559
42
-0.15685997268130161
10
15.75
20
25.168155236727799
42
0.32163376045133824
10
15.75
20
29.831844763272205
42
-0.15685997268129889
10
14.999999999999998
20
32.16368952654441
10
14.999999999999996
20
50.009696593335164
42
-0.031098768375550902
10
15.308884931453317
20
54.971085976903467
10
15.691115068546742
20
58.028927073650856
42
0.031098768375548175
10
15.999999999999996
20
62.990316457219215
10
15.999999999999998
20
68.500006525276902
42
0.93792521140318752
10
9.0286697410413694
20
68.947070539975257
10
8.2604037395214203
20
62.981694373868358
42
-0.23391001095603281
10
7.2767864486879121
20
61.505108717555657
10
4.0000000000000204
20
59.613255179328775
42
-0.26794919243112264
10
-3.9999999999999747
20
59.61325517932876
10
-7.2767864486879112
20
61.505108717555657
42
-0.23391001095603234
10
-8.2604037395214149
20
62.981694373868358
10
-9.0286697410413606
20
68.947070539975215
42
0.93792521140319418
10
-15.999999999999996
20
68.500006525276902
10
-15.999999999999993
20
62.990316457219208
42
0.031098768375545045
10
-15.691115068546743
20
58.028927073650856
10
-15.308884931453314
20
54.971085976903488
42
-0.031098768375548452
10
-14.999999999999996
20
50.009696593335171
10
-15.000000000000004
20
32.163689526544424
42
-0.15685997268130039
10
-15.750000000000009
20
29.831844763272208
42
0.32163376045133918
0
CIRCLE
5
106
100
AcDbEntity
8
0
100
AcDbCircle
10
-12.500000000000009
20
27.5
30
0
40
1.4999999999999991
210
0
220
0
230
1
0
LWPOLYLINE
5
107
100
AcDbEntity
8
0
100
AcDbPolyline
90
8
70
1
43
0.0
10
-3.5016985531933873
20
-20.1551884008081
42
-0.57705242553366298
10
-2.0024726730582154
20
-21.021660281830933
10
-2.0024726730581879
20
-25.136694846262646
42
-0.26794919243112381
10
-3.0024726730581874
20
-26.868745653831532
10
-5.5024726730581932
20
-28.312121326805595
42
-0.57735026918962684
10
-7.0024726730581888
20
-27.446095923021161
10
-7.0024726730582119
20
-23.328084534065475
42
-0.2681886585496483
10
-6.0009244333285583
20
-21.595140772019789
0
LWPOLYLINE
5
108
100
AcDbEntity
8
0
100
AcDbPolyline
90
8
70
1
43
0.0
10
5.9975273268096281
20
-21.6007964614004
42
-0.26794919243112192
10
6.9975273268096299
20
-23.332847268969278
10
6.9975273268096227
20
-27.44609592302114
42
-0.57735026918962207
10
5.4975273268096201
20
-28.312121326805585
10
2.9975273268096272
20
-26.868745653831525
42
-0.26794919243112092
10
1.9975273268096272
20
-25.136694846262642
10
1.9975273268096312
20
-21.02344619221078
42
-0.57735026918962173
10
3.497527326809633
20
-20.157420788426336
0
LWPOLYLINE
5
109
100
AcDbEntity
8
0
100
AcDbPolyline
90
8
70
1
43
0.0
10
-1.9999987454716319
20
35.999603582584506
10
-1.9999987473123095
20
52.112852236789138
42
0.2679491924311268
10
-2.999998747342707
20
53.844903044340469
10
-7.4999990192746768
20
56.442979412588457
42
0.57735026848804605
10
-8.9999990192594819
20
55.576954010882417
10
-8.9999990534092902
20
39.463705379634888
42
0.26794919299508191
10
-7.9999990533930019
20
37.731654567865988
10
-3.4999987454634884
20
35.133578178785953
42
0.57735026918962384
0
LWPOLYLINE
5
110
100
AcDbEntity
8
0
100
AcDbPolyline
90
8
70
1
43
0.0
10
9.0000009465907063
20
39.463705290526718
10
9.000000980740511
20
55.576953906640199
42
0.57735027960022411
10
7.5000009555005036
20
56.442979297939509
10
3.0000012022076787
20
53.844903054154791
42
0.2679491846265426
10
2.0000012526876891
20
52.112852275695474
10
2.0000012545283692
20
35.999603651292034
42
0.57735028063460414
10
3.500001284271451
20
35.133578264689177
10
8.0000010060768663
20
37.731654521492828
42
0.26794918266714551
0
CIRCLE
5
111
100
AcDbEntity
8
0
100
AcDbCircle
10
-12.499999999999996
20
68.500006525276902
30
0
40
1.4999999999999991
210
0
220
0
230
1
0
CIRCLE
5
112
100
AcDbEntity
8
0
100
AcDbCircle
10
12.500064533688317
20
-27.5
30
-6.122839890160482e-17
40
1.4999999999999991
210
0
220
0
230
1
0
LWPOLYLINE
5
113
100
AcDbEntity
8
0
100
AcDbPolyline
90
8
70
1
43
0.0
10
1.9975273269417215
20
-33.023446192210791
42
-0.57735026918962995
10
3.4975273269417189
20
-32.15742078842635
10
7.997527326941702
20
-34.755496999779666
42
-0.26794919243112336
10
8.9975273269417038
20
-36.487547807348534
10
8.9975272978013319
20
-50.600796461400357
42
-0.57735026918963339
10
7.4975272978013319
20
-51.466821865184791
10
2.9975272978014207
20
-48.868745653831525
42
-0.26794919243112214
10
1.9975272978014189
20
-47.136694846262657
0
CIRCLE
5
114
100
AcDbEntity
8
0
100
AcDbCircle
10
12.499999999999998
20
68.500006525276902
30
0
40
1.4999999999999991
210
0
220
0
230
1
0
LWPOLYLINE
5
115
100
AcDbEntity
8
0
100
AcDbPolyline
90
8
70
1
43
0.0
10
-9.0024726730582607
20
-36.487547803219059
10
-9.002472702198645
20
-50.600796461400385
42
0.57735026918962262
10
-7.5024727021986513
20
-51.466821865184826
10
-3.0024727021986211
20
-48.868745653831539
42
0.26794919243112669
10
-2.002472702198606
20
-47.13669484626265
10
-2.0024726730582949
20
-33.02344619427555
42
0.57735026987787585
10
-3.5024726730582967
20
-32.157420788426364
10
-8.0024726730582749
20
-34.755496999779687
42
0.26794919187787047
0
LWPOLYLINE
5
116
100
AcDbEntity
8
0
100
AcDbPolyline
90
8
70
1
43
0.0
10
3.4963369199516752
20
-54.161081371021609
10
5.9983938081826693
20
-55.60564458896954
42
-0.2747015980645599
10
6.9977609407409407
20
-57.388005129649351
10
6.996496743394446
20
-61.449404206999603
42
-0.57694869981998886
10
5.4976450570689437
20
-62.315348658431617
10
2.9978851596813216
20
-60.875088608184171
42
-0.26818865854964424
10
1.9963369199516732
20
-59.142144846138493
10
1.996336919951671
20
-55.027106774806057
42
-0.57735026918962529
0
LWPOLYLINE
5
117
100
AcDbEntity
8
0
100
AcDbPolyline
90
8
70
1
43
0.0
10
-3.5023549429310545
20
-54.158541304367624
42
-0.57694955143090254
10
-2.0025115689614319
20
-55.02506124833026
10
-2.001242681131048
20
-59.135276392816721
42
-0.26803191425435169
10
-3.001321191111666
20
-60.868080828595559
10
-5.5036630800483231
20
-62.312808591777639
42
-0.57735026918962939
10
-7.0036630800483204
20
-61.446783187993184
10
-7.0036630800483231
20
-57.331745116660755
42
-0.26818865854964447
10
-6.0021148403186846
20
-55.598801354615077
0
CIRCLE
5
118
100
AcDbEntity
8
0
100
AcDbCircle
10
-12.499999828636634
20
-27.5
30
0
40
1.5000000000000002
210
0
220
0
230
1
0
CIRCLE
5
119
100
AcDbEntity
8
0
100
AcDbCircle
10
10.500000142222989
20
-65.5
30
0
40
1.5000000000000002
210
0
220
0
230
1
0
CIRCLE
5
120
100
AcDbEntity
8
0
100
AcDbCircle
10
-10.499999857777016
20
-65.5
30
0
40
1.5000000000000002
210
0
220
0
230
1
0
LWPOLYLINE
5
121
100
AcDbEntity
8
0
100
AcDbPolyline
90
8
70
1
43
0.0
10
-11.000000000000004
20
38.000000000000007
10
-12.500000000000002
20
38.000000000000007
42
0.99999999999999989
10
-12.500000000000002
20
37.000000000000014
10
-12.500000000000002
20
34
42
0.99999999999999989
10
-12.500000000000002
20
33.000000000000007
10
-11.000000000000004
20
33.000000000000007
42
0.99999999999999989
10
-11.000000000000004
20
34
10
-11.000000000000004
20
37.000000000000014
42
0.99999999999999989
0
LWPOLYLINE
5
122
100
AcDbEntity
8
0
100
AcDbPolyline
90
8
70
1
43
0.0
10
-12.499999999999998
20
62.000000000000014
42
-0.99999999999999989
10
-12.499999999999998
20
63.000000000000007
10
-10.999999999999998
20
63.000000000000007
42
-0.99999999999999989
10
-10.999999999999998
20
62.000000000000014
10
-10.999999999999998
20
59
42
-0.99999999999999989
10
-10.999999999999998
20
58.000000000000007
10
-12.499999999999998
20
58.000000000000007
42
-0.99999999999999989
10
-12.499999999999998
20
59
0
LWPOLYLINE
5
123
100
AcDbEntity
8
0
100
AcDbPolyline
90
8
70
1
43
0.0
10
12.499999999999998
20
37.000000000000014
10
12.499999999999998
20
34
42
-0.99999999999999989
10
12.499999999999998
20
33.000000000000007
10
10.999999999999998
20
33.000000000000007
42
-0.99999999999999989
10
10.999999999999998
20
34
10
10.999999999999998
20
37.000000000000014
42
-0.99999999999999989
10
10.999999999999998
20
38.000000000000007
10
12.499999999999998
20
38.000000000000007
42
-0.99999999999999989
0
LWPOLYLINE
5
124
100
AcDbEntity
8
0
100
AcDbPolyline
90
8
70
1
43
0.0
10
12.499999999999998
20
59
42
-0.99999999999999989
10
12.499999999999998
20
58.000000000000007
10
10.999999999999998
20
58.000000000000007
42
-0.99999999999999989
10
10.999999999999998
20
59
10
10.999999999999998
20
62.000000000000014
42
-0.99999999999999989
10
10.999999999999998
20
63.000000000000007
10
12.499999999999998
20
63.000000000000007
42
-0.99999999999999989
10
12.499999999999998
20
62.000000000000014
0
CIRCLE
5
125
100
AcDbEntity
8
0
100
AcDbCircle
10
-12.499999828636634
20
-27.5
30
0
40
3.0000000000000004
210
0
220
0
230
1
0
CIRCLE
5
126
100
AcDbEntity
8
0
100
AcDbCircle
10
12.500064533688317
20
-27.5
30
-6.122839890160482e-17
40
3
210
0
220
0
230
1
0
CIRCLE
5
127
100
AcDbEntity
8
0
100
AcDbCircle
10
-10.499999857777016
20
-65.5
30
0
40
3.0000000000000004
210
0
220
0
230
1
0
CIRCLE
5
128
100
AcDbEntity
8
0
100
AcDbCircle
10
10.500000142222989
20
-65.5
30
0
40
3.0000000000000004
210
0
220
0
230
1
0
ENDSEC
0
SECTION
2
OBJECTS
0
DICTIONARY
5
C
100
AcDbDictionary
3
ACAD_GROUP
350
D
3
ACAD_MLINESTYLE
350
17
0
DICTIONARY
5
D
100
AcDbDictionary
0
DICTIONARY
5
1A
330
C
100
AcDbDictionary
0
DICTIONARY
5
17
100
AcDbDictionary
0
ENDSEC
0
EOF
