0
SECTION
2
HEADER
9
$INSUNITS
70
4
9
$ACADVER
1
AC1014
9
$HANDSEED
5
FFFF
0
ENDSEC
0
SECTION
2
TABLES
0
TABLE
2
VPORT
5
8
100
AcDbSymbolTable
0
ENDTAB
0
TABLE
2
LTYPE
5
5
100
AcDbSymbolTable
0
LTYPE
5
14
100
AcDbSymbolTableRecord
100
AcDbLinetypeTableRecord
2
BYBLOCK
70
0
0
LTYPE
5
15
100
AcDbSymbolTableRecord
100
AcDbLinetypeTableRecord
2
BYLAYER
70
0
0
ENDTAB
0
TABLE
2
LAYER
5
2
100
AcDbSymbolTable
70
2
0
LAYER
5
50
100
AcDbSymbolTableRecord
100
AcDbLayerTableRecord
2
0
70
0
6
CONTINUOUS
0
ENDTAB
0
TABLE
2
STYLE
5
3
100
AcDbSymbolTable
70
1
0
STYLE
5
11
100
AcDbSymbolTableRecord
100
AcDbTextStyleTableRecord
2
STANDARD
70
0
0
ENDTAB
0
TABLE
2
VIEW
5
6
100
AcDbSymbolTable
70
0
0
ENDTAB
0
TABLE
2
UCS
5
7
100
AcDbSymbolTable
70
0
0
ENDTAB
0
TABLE
2
APPID
5
9
100
AcDbSymbolTable
70
2
0
APPID
5
12
100
AcDbSymbolTableRecord
100
AcDbRegAppTableRecord
2
ACAD
70
0
0
ENDTAB
0
TABLE
2
DIMSTYLE
5
A
100
AcDbSymbolTable
70
1
0
ENDTAB
0
TABLE
2
BLOCK_RECORD
5
1
100
AcDbSymbolTable
70
1
0
BLOCK_RECORD
5
1F
100
AcDbSymbolTableRecord
100
AcDbBlockTableRecord
2
*MODEL_SPACE
0
BLOCK_RECORD
5
1B
100
AcDbSymbolTableRecord
100
AcDbBlockTableRecord
2
*PAPER_SPACE
0
ENDTAB
0
ENDSEC
0
SECTION
2
BLOCKS
0
BLOCK
5
20
100
AcDbEntity
100
AcDbBlockBegin
2
*MODEL_SPACE
0
ENDBLK
5
21
100
AcDbEntity
100
AcDbBlockEnd
0
BLOCK
5
1C
100
AcDbEntity
100
AcDbBlockBegin
2
*PAPER_SPACE
0
ENDBLK
5
1D
100
AcDbEntity
100
AcDbBlockEnd
0
ENDSEC
0
SECTION
2
ENTITIES
0
LWPOLYLINE
5
100
100
AcDbEntity
8
0
100
AcDbPolyline
90
9
70
1
43
0.0
10
2
20
-12.267949192431125
10
2
20
0
10
1.9999999999999984
20
12.267949192431125
42
-0.57735026918962173
10
3.5
20
13.133974596215563
10
8.9431394714252725
20
9.9913765571515043
42
-0.26794919243112275
10
9.9431394714252725
20
8.2593257495826258
10
9.9431394714252725
20
-8.2593257495826293
42
-0.26794919243112236
10
8.9431394714252725
20
-9.9913765571515043
10
3.4999999999999991
20
-13.133974596215563
42
-0.57735026918962173
0
LWPOLYLINE
5
101
100
AcDbEntity
8
0
100
AcDbPolyline
90
9
70
1
43
0.0
10
-10
20
8.2264973081037436
42
-0.26794919243112275
10
-9
20
9.9585481156726221
10
-3.5
20
13.133974596215563
42
-0.57735026918962173
10
-2
20
12.267949192431125
10
-2
20
0
10
-1.9999999999999991
20
-12.267949192431125
42
-0.57735026918962173
10
-3.5000000000000009
20
-13.133974596215563
10
-9
20
-9.9585481156726221
42
-0.26794919243112275
10
-10
20
-8.2264973081037436
0
LINE
5
102
100
AcDbEntity
8
0
100
AcDbLine
10
-15.002248690177657
20
23.340924703050977
30
5.3455294201843913e-50
11
-15.002248690177534
21
-23.340924947274321
31
0
0
LWPOLYLINE
5
103
100
AcDbEntity
8
0
100
AcDbPolyline
90
8
70
1
43
0.0
10
7.5000009555005018
20
64.442979297939516
10
3.0000012022076774
20
61.844903054154798
42
0.2679491846265426
10
2.0000012526876869
20
60.112852275695481
10
2.0000012549348529
20
37.99960365127415
42
0.5773502806346027
10
3.5000012846675901
20
37.13357826465338
10
8.0000010065040392
20
39.731654521403279
42
0.26794918266714501
10
9.0000009470385685
20
41.463705290425217
10
9.0000009807405092
20
63.576953906640206
42
0.57735027960022411
0
ARC
5
104
100
AcDbEntity
8
0
100
AcDbCircle
10
12.5
20
26.500000000000004
30
0
40
3.5000000000000027
210
0
220
0
230
1
100
AcDbArc
50
-35.114716379372162
51
35.114716379372148
0
ARC
5
105
100
AcDbEntity
8
0
100
AcDbCircle
10
-15.50098757845438
20
43.707209172420285
30
-8.5742607356627082e-21
40
0.49999999999998668
210
-1.22464679914733e-16
220
-1.1832913578315174e-30
230
1
100
AcDbArc
50
315.00818486578493
51
359.99960780459924
0
LINE
5
106
100
AcDbEntity
8
0
100
AcDbLine
10
-15.000987578466107
20
43.707205749871569
30
6.1223765695194692e-17
11
-15.000846667467616
21
64.292887679790468
31
6.1241022315521326e-17
0
LWPOLYLINE
5
107
100
AcDbEntity
8
0
100
AcDbPolyline
90
8
70
1
43
0.0
10
-2.0024726730582074
20
-23.021660281830933
10
-2.0024726730581879
20
-27.13669484626265
42
-0.26794919243112381
10
-3.0024726730581874
20
-28.868745653831532
10
-5.5024726730581932
20
-30.312121326805599
42
-0.57735026918962684
10
-7.0024726730581888
20
-29.446095923021165
10
-7.0024726730582056
20
-25.328084534065475
42
-0.2681886585496483
10
-6.0009244333285512
20
-23.595140772019789
10
-3.5016985531933802
20
-22.1551884008081
42
-0.57705242553366298
0
ARC
5
108
100
AcDbEntity
8
0
100
AcDbCircle
10
-12.500064533688317
20
-26.500000000000004
30
1.5920448009332807e-15
40
3.5000000000000031
210
1.2246467991473532e-16
220
-3.6977854932234928e-32
230
-1
100
AcDbArc
50
144.94396544860587
51
215.61166633848109
0
ARC
5
109
100
AcDbEntity
8
0
100
AcDbCircle
10
16.999011004167876
20
23.336315441707889
30
0
40
1.9999999999999623
210
0
220
0
230
1
100
AcDbArc
50
144.88528362062752
51
180
0
ARC
5
110
100
AcDbEntity
8
0
100
AcDbCircle
10
11
20
41.000000000000014
30
0
40
0.49999999999998934
210
0
220
-0
230
1
100
AcDbArc
50
90
51
270
0
LWPOLYLINE
5
111
100
AcDbEntity
8
0
100
AcDbPolyline
90
8
70
1
43
0.0
10
-8.9999990192594943
20
63.576954010882424
42
-0.57735026848804605
10
-7.4999990192746804
20
64.442979412588471
10
-2.999998747342711
20
61.844903044340484
42
-0.2679491924311268
10
-1.9999987473123122
20
60.112852236789145
10
-1.9999987450651457
20
37.999603582614412
42
-0.57735026918962529
10
-3.4999987450673498
20
37.133578178833766
10
-7.9999990529658334
20
39.731654567967546
42
-0.26794919299508135
10
-8.9999990529614298
20
41.463705379748397
0
LWPOLYLINE
5
112
100
AcDbEntity
8
0
100
AcDbPolyline
90
8
70
1
43
0.0
10
5.5000012547316048
20
33.288476563692207
42
-0.57735026918962584
10
7.0000012547316111
20
32.422451159907759
10
7.0000012547316164
20
25.309202505855886
42
-0.2679491924311202
10
6.0000012547316235
20
23.577151698287025
10
3.5000012547316222
20
22.133776025312958
42
-0.57735026918962207
10
2.0000012547316128
20
22.999801429097406
10
2.0000012547316111
20
30.113050083149275
42
-0.26794919243112175
10
3.0000012547316017
20
31.845100890718136
0
LINE
5
113
100
AcDbEntity
8
0
100
AcDbLine
10
-15.147291509788287
20
64.646442725849283
30
4.3306701575556175e-17
11
-15.854425190450902
21
65.353583475131131
31
-4.3292198283719438e-17
0
LWPOLYLINE
5
114
100
AcDbEntity
8
0
100
AcDbPolyline
90
8
70
1
43
0.0
10
7.9975273269417038
20
-36.755496999779659
42
-0.26794919243112336
10
8.9975273269417055
20
-38.487547807348534
10
8.9975273269417002
20
-53.600796461400364
42
-0.57735026918963339
10
7.4975273269417011
20
-54.466821865184798
10
2.9975273269417895
20
-51.868745653831532
42
-0.26794919243112214
10
1.9975273269417879
20
-50.136694846262664
10
1.9975273269417175
20
-35.023446192210791
42
-0.5773502691896274
10
3.4975273269417189
20
-34.15742078842635
0
LWPOLYLINE
5
115
100
AcDbEntity
8
0
100
AcDbPolyline
90
8
70
1
43
0.0
10
5.997527326809637
20
-23.6007964614004
42
-0.26794919243112192
10
6.9975273268096387
20
-25.332847268969282
10
6.9975273268096227
20
-29.446095923021144
42
-0.57735026918962207
10
5.4975273268096201
20
-30.312121326805585
10
2.9975273268096272
20
-28.868745653831525
42
-0.26794919243112092
10
1.9975273268096272
20
-27.136694846262642
10
1.9975273268096394
20
-23.02344619221078
42
-0.57735026918962173
10
3.4975273268096414
20
-22.157420788426339
0
LWPOLYLINE
5
116
100
AcDbEntity
8
0
100
AcDbPolyline
90
8
70
1
43
0.0
10
-3.4999987452683983
20
22.133776025312962
10
-5.9999987452683987
20
23.577151698287029
42
-0.26794919243112236
10
-6.9999987452683872
20
25.309202505855886
10
-6.9999987452683872
20
32.422451159907759
42
-0.57735026918962584
10
-5.4999987452683801
20
33.288476563692207
10
-2.9999987452683752
20
31.845100890718136
42
-0.26794919243112203
10
-1.9999987452683878
20
30.113050083149275
10
-1.9999987452683854
20
22.999801429097403
42
-0.57735026918962229
0
LINE
5
117
100
AcDbEntity
8
0
100
AcDbLine
10
14.999011004167912
20
23.336315441707882
30
0
11
15.002313395229203
21
-23.340924947274321
31
2.4520870699401064e-16
0
LINE
5
118
100
AcDbEntity
8
0
100
AcDbLine
10
11
20
41.5
30
0
11
11
21
66.500000000000014
31
0
0
LWPOLYLINE
5
119
100
AcDbEntity
8
0
100
AcDbPolyline
90
8
70
1
43
0.0
10
-8.0024726730582749
20
-36.75549699977968
10
-3.5024726730582967
20
-34.157420788426364
42
-0.57735026918962207
10
-2.0024726730582949
20
-35.023446192210798
10
-2.002472673058235
20
-50.136694846262642
42
-0.26794919243112669
10
-3.0024726730582523
20
-51.868745653831553
10
-7.5024726730582811
20
-54.466821865184833
42
-0.57735026918962262
10
-9.0024726730582767
20
-53.600796461400392
10
-9.0024726730582643
20
-38.487547807348562
42
-0.26794919243111953
0
ARC
5
120
100
AcDbEntity
8
0
100
AcDbCircle
10
12.5
20
41.000000000000014
30
0
40
0.50000000000000711
210
0
220
0
230
1
100
AcDbArc
50
-90
51
90
0
ARC
5
121
100
AcDbEntity
8
0
100
AcDbCircle
10
-10.999999999999998
20
67.000000000000014
30
0
40
0.49999999999999822
210
0
220
0
230
1
100
AcDbArc
50
-90
51
90
0
ARC
5
122
100
AcDbEntity
8
0
100
AcDbCircle
10
15.499011538851512
20
64.226891102339181
30
0
40
0.49999999999999678
210
0
220
0
230
1
100
AcDbArc
50
135.00028636737224
51
180.00039219540074
0
LINE
5
123
100
AcDbEntity
8
0
100
AcDbLine
10
-12.499999999999998
20
67.500000000000014
30
0
11
-10.999999999999998
21
67.500000000000014
31
0
0
ARC
5
124
100
AcDbEntity
8
0
100
AcDbCircle
10
-12.499999999999998
20
67.000000000000014
30
0
40
0.49999999999999822
210
0
220
-0
230
1
100
AcDbArc
50
90
51
270
0
LINE
5
125
100
AcDbEntity
8
0
100
AcDbLine
10
15.145456381183893
20
64.580442725849267
30
0
11
15.85252493654645
21
65.287518349180075
31
0
0
ARC
5
126
100
AcDbEntity
8
0
100
AcDbCircle
10
15.499152449849991
20
43.64120917242029
30
0
40
0.49999999999998596
210
0
220
0
230
1
100
AcDbArc
50
180.00039219540074
51
224.99181513421516
0
ARC
5
127
100
AcDbEntity
8
0
100
AcDbCircle
10
15.498969778878832
20
65.641069972690161
30
0
40
0.49999999999999517
210
-0
220
0
230
1
100
AcDbArc
50
-44.999713632627909
51
0.0097776566844512813
0
LINE
5
128
100
AcDbEntity
8
0
100
AcDbLine
10
14.999152449861718
20
43.641205749871574
30
0
11
14.999011538863227
21
64.226887679790451
31
0
0
LINE
5
129
100
AcDbEntity
8
0
100
AcDbLine
10
-11.000000000000004
20
41.5
30
0
11
-10.999999999999998
21
66.500000000000028
31
0
0
LINE
5
130
100
AcDbEntity
8
0
100
AcDbLine
10
15.852614897265425
20
42.580437909276263
30
0
11
15.145548556752498
21
43.287706291546193
31
0
0
ARC
5
131
100
AcDbEntity
8
0
100
AcDbCircle
10
-12.49999982863665
20
-26.500000000000004
30
0
40
3.5000000000000031
210
0
220
0
230
1
100
AcDbArc
50
144.94396544860587
51
215.61166633848109
0
LINE
5
132
100
AcDbEntity
8
0
100
AcDbLine
10
-15.854466018744898
20
42.646421911831276
30
-4.3297198307675061e-17
11
-15.147383685356886
21
43.353706291546189
31
4.3295413324051974e-17
0
LINE
5
133
100
AcDbEntity
8
0
100
AcDbLine
10
-12.500000000000002
20
41.5
30
0
11
-12.499999999999998
21
66.500000000000028
31
0
0
ARC
5
134
100
AcDbEntity
8
0
100
AcDbCircle
10
-17.002248690177495
20
-23.340924947274324
30
0
40
1.9999999999999618
210
-0
220
0
230
1
100
AcDbArc
50
-35.056034551394596
51
0
0
ARC
5
135
100
AcDbEntity
8
0
100
AcDbCircle
10
-11.000000000000004
20
41.000000000000014
30
0
40
0.50000000000000711
210
0
220
0
230
1
100
AcDbArc
50
-90
51
90
0
CIRCLE
5
136
100
AcDbEntity
8
0
100
AcDbCircle
10
-12.500064533688317
20
-26.500000000000004
30
1.5920448009332797e-15
40
1.5000000000000002
210
1.2246467991473532e-16
220
0
230
-1
0
LWPOLYLINE
5
137
100
AcDbEntity
8
0
100
AcDbPolyline
90
8
70
1
43
0.0
10
6.9977437657451986
20
-64.270537202223196
42
-0.57694879993641124
10
5.4988354640590842
20
-65.136514662869558
10
2.9990755666714621
20
-63.696254612622113
42
-0.26818865854964424
10
1.9975273269418135
20
-61.963310850576434
10
1.9975273269418112
20
-58.026375701958074
42
-0.57735026918962529
10
3.4975273269418157
20
-57.160350298173633
10
5.9995842151728098
20
-58.604913516121556
42
-0.2747015980645599
10
6.9989513477310803
20
-60.387274056801374
0
LINE
5
138
100
AcDbEntity
8
0
100
AcDbLine
10
12.5
20
41.5
30
0
11
12.5
21
66.500000000000014
31
0
0
LINE
5
139
100
AcDbEntity
8
0
100
AcDbLine
10
11
20
67.500000000000014
30
0
11
12.5
21
67.500000000000014
31
0
0
ARC
5
140
100
AcDbEntity
8
0
100
AcDbCircle
10
11
20
67.000000000000014
30
0
40
0.49999999999999822
210
0
220
-0
230
1
100
AcDbArc
50
90
51
270
0
ARC
5
141
100
AcDbEntity
8
0
100
AcDbCircle
10
-15.500846667455871
20
64.292891102339183
30
8.6823595932535247e-21
40
0.49999999999997036
210
-1.2246467991473249e-16
220
1.3222906495902632e-30
230
1
100
AcDbArc
50
-0.00039219540073338009
51
44.999713632631789
0
ARC
5
142
100
AcDbEntity
8
0
100
AcDbCircle
10
15.49901100416789
20
42.22693502840216
30
0
40
0.50000000000002265
210
0
220
-0
230
1
100
AcDbArc
50
0
51
44.991815134212317
0
LWPOLYLINE
5
143
100
AcDbEntity
8
0
100
AcDbPolyline
90
8
70
1
43
0.0
10
-6.0009244333285441
20
-58.5980702817671
10
-3.5011645359409145
20
-57.157810231519647
42
-0.57694955143090254
10
-2.0013211619712914
20
-58.024330175482284
10
-2.0001072279095009
20
-61.956537613913191
42
-0.26803191425435102
10
-3.0001307841215259
20
-63.689246833033508
10
-5.5024726730581826
20
-65.13397459621558
42
-0.57735026918962939
10
-7.0024726730581799
20
-64.267949192431132
10
-7.0024726730581834
20
-60.331014043812779
42
-0.26818865854964447
0
CIRCLE
5
144
100
AcDbEntity
8
0
100
AcDbCircle
10
-12.500000000000004
20
26.500000000000004
30
0
40
1.4999999999999991
210
0
220
0
230
1
0
ARC
5
145
100
AcDbEntity
8
0
100
AcDbCircle
10
-12.500000000000004
20
26.500000000000004
30
0
40
3.5000000000000013
210
9.0077162183085741e-34
220
-6.3228145681390235e-34
230
1
100
AcDbArc
50
144.93371104481889
51
215.05603765938923
0
ARC
5
146
100
AcDbEntity
8
0
100
AcDbCircle
10
-17.002313395229166
20
-23.340924947274324
30
1.5920448009332797e-15
40
1.9999999999999618
210
1.2246467991473535e-16
220
2.4651903288156608e-32
230
-1
100
AcDbArc
50
-35.056034551394546
51
0
0
ARC
5
147
100
AcDbEntity
8
0
100
AcDbCircle
10
-15.500870032783284
20
65.707135098641231
30
3.9544163428836582e-18
40
0.50000000000000189
210
-1.2804886500662595e-16
220
-5.5841292720570996e-18
230
1
100
AcDbArc
50
180.00823918668468
51
224.99971363262907
0
ARC
5
148
100
AcDbEntity
8
0
100
AcDbCircle
10
12.5
20
67.000000000000014
30
0
40
0.49999999999999822
210
0
220
0
230
1
100
AcDbArc
50
-90
51
90
0
CIRCLE
5
149
100
AcDbEntity
8
0
100
AcDbCircle
10
12.5
20
26.500000000000004
30
0
40
1.4999999999999991
210
0
220
0
230
1
0
CIRCLE
5
150
100
AcDbEntity
8
0
100
AcDbCircle
10
-12.49999982863665
20
-26.500000000000004
30
0
40
1.5000000000000002
210
0
220
0
230
1
0
ARC
5
151
100
AcDbEntity
8
0
100
AcDbCircle
10
-12.500000000000002
20
41.000000000000014
30
0
40
0.49999999999998934
210
0
220
-0
230
1
100
AcDbArc
50
90
51
270
0
LINE
5
152
100
AcDbEntity
8
0
100
AcDbLine
10
11
20
40.500000000000007
30
0
11
12.5
21
40.500000000000007
31
0
0
ARC
5
153
100
AcDbEntity
8
0
100
AcDbCircle
10
-15.500862125647352
20
42.292919030957165
30
3.7617545402730188e-18
40
0.50000000000003542
210
-1.2777576125672124e-16
220
5.3095641524274055e-18
230
1
100
AcDbArc
50
135.00818486578797
51
179.99557463051954
0
LINE
5
154
100
AcDbEntity
8
0
100
AcDbLine
10
-12.500000000000002
20
40.500000000000007
30
0
11
-11.000000000000004
21
40.500000000000007
31
0
0
ARC
5
155
100
AcDbEntity
8
0
100
AcDbCircle
10
0.0011242618542009473
20
74.34980827279982
30
0
40
7.9999999999999902
210
0
220
0
230
1
100
AcDbArc
50
239.99999999999994
51
299.98605266399977
0
ARC
5
156
100
AcDbEntity
8
0
100
AcDbCircle
10
-17.002248690177652
20
23.340924703050973
30
-4.1979328348051171e-34
40
1.9999999999999929
210
-2.0989664174025393e-34
220
-1.2061853031214203e-33
230
1
100
AcDbArc
50
0
51
35.056037659389112
0
LINE
5
157
100
AcDbEntity
8
0
100
AcDbLine
10
-12.500000000000004
20
26.500000000000004
30
0
11
-15.999999985994773
21
26.500313108011873
31
3.152898636182373e-33
0
LINE
5
158
100
AcDbEntity
8
0
100
AcDbLine
10
15.999011004167913
20
42.226935028402167
30
0
11
16.000000000000004
21
26.500000000000004
31
0
0
LINE
5
159
100
AcDbEntity
8
0
100
AcDbLine
10
-15.999999985994773
20
26.500313108011873
30
3.152898636182373e-33
11
-16.00086212415599
21
42.292957649592218
31
-6.0126330945647797e-17
0
LINE
5
160
100
AcDbEntity
8
0
100
AcDbLine
10
-16.000870027613608
20
65.707063198173827
30
-6.0070416999963007e-17
11
-16.002421989583819
21
76.499496196497461
31
1.0809488250294835e-24
0
CIRCLE
5
161
100
AcDbEntity
8
0
100
AcDbCircle
10
12.501124261854201
20
76.500000004676025
30
0
40
1.5000000000000013
210
0
220
0
230
1
0
CIRCLE
5
162
100
AcDbEntity
8
0
100
AcDbCircle
10
-12.498875702642632
20
76.500000009733924
30
0
40
1.5000000000000013
210
0
220
0
230
1
0
ARC
5
163
100
AcDbEntity
8
0
100
AcDbCircle
10
-12.498875702642632
20
76.500000009733924
30
0
40
3.5035462880237955
210
-3.0852991117157514e-25
220
-4.1178045605124348e-34
230
1
100
AcDbArc
50
0
51
180.00823918668468
0
ARC
5
164
100
AcDbEntity
8
0
100
AcDbCircle
10
12.501124261854201
20
76.500000004676025
30
0
40
3.4999999996428581
210
0
220
0
230
1
100
AcDbArc
50
-0.00081846662261524778
51
180
0
LINE
5
165
100
AcDbEntity
8
0
100
AcDbLine
10
16.001124261139957
20
76.499950007397402
30
0
11
16.001124261854201
21
76.500000007310916
31
0
0
LINE
5
166
100
AcDbEntity
8
0
100
AcDbLine
10
16.001124261854201
20
76.500000007310916
30
0
11
15.998969771598279
21
65.641155298841255
31
0
0
LINE
5
167
100
AcDbEntity
8
0
100
AcDbLine
10
-8.1325793831973332
20
70.692364379124072
30
1.4190738543381374e-25
11
-9.0303508443007434
21
76.994137540579032
31
1.070143666644099e-24
0
LINE
5
168
100
AcDbEntity
8
0
100
AcDbLine
10
-7.152571372343659
20
69.242392065870618
30
2.8698592549372254e-41
11
-3.9988757381457991
21
67.42160504252432
31
0
0
ARC
5
169
100
AcDbEntity
8
0
100
AcDbCircle
10
-6.1525713723436208
20
70.9744428734395
30
3.7065624863947883e-25
40
2.0000000000000346
210
-9.2664062159868514e-26
220
-1.6049886369661171e-25
230
1
100
AcDbArc
50
188.10798745366677
51
239.99999999999912
0
LINE
5
170
100
AcDbEntity
8
0
100
AcDbLine
10
3.9994376320795082
20
67.420631540064718
30
0
11
7.1580076283013501
21
69.243207746993335
31
0
0
LINE
5
171
100
AcDbEntity
8
0
100
AcDbLine
10
8.1384318716655653
20
70.693385358972989
30
0
11
9.0361197364932586
21
76.993704004283288
31
0
0
ARC
5
172
100
AcDbEntity
8
0
100
AcDbCircle
10
6.1584292857449903
20
70.975501930177131
30
0
40
2.0000000000000369
210
0
220
0
230
1
100
AcDbArc
50
299.98605266400028
51
351.89091070836236
0
CIRCLE
5
173
100
AcDbEntity
8
0
100
AcDbCircle
10
11.000000171363356
20
-68.5
30
0
40
3.4999999999999982
210
0
220
0
230
1
0
ARC
5
174
100
AcDbEntity
8
0
100
AcDbCircle
10
3.1931844945987109e-08
20
-71.455797848315143
30
0
40
4.0000000000000036
210
0
220
-0
230
1
100
AcDbArc
50
63.858032380741953
51
116.14196844046097
0
CIRCLE
5
175
100
AcDbEntity
8
0
100
AcDbCircle
10
11.000000171363356
20
-68.5
30
0
40
1.4999999999999991
210
0
220
0
230
1
0
LINE
5
176
100
AcDbEntity
8
0
100
AcDbLine
10
1.762387363346591
20
-67.864977483263601
30
0
11
9.4579112563754553
21
-71.641967819420088
31
0
0
LINE
5
177
100
AcDbEntity
8
0
100
AcDbLine
10
11.000000171363356
20
-68.5
30
0
11
14.500000171363354
21
-68.5
31
0
0
LINE
5
178
100
AcDbEntity
8
0
100
AcDbLine
10
-1.7623873509490309
20
-67.864977508523367
30
0
11
-9.4579108686158833
21
-71.641967797317804
31
0
0
CIRCLE
5
179
100
AcDbEntity
8
0
100
AcDbCircle
10
-10.99999982863665
20
-68.5
30
0
40
3.5000000000000009
210
0
220
0
230
1
0
LINE
5
180
100
AcDbEntity
8
0
100
AcDbLine
10
-10.99999982863665
20
-68.5
30
0
11
-14.499999828636652
21
-68.5
31
0
0
CIRCLE
5
181
100
AcDbEntity
8
0
100
AcDbCircle
10
-10.99999982863665
20
-68.5
30
0
40
1.5000000000000002
210
0
220
0
230
1
0
LWPOLYLINE
5
182
100
AcDbEntity
8
0
100
AcDbPolyline
90
8
70
1
43
0.0
10
-8.0024726730582749
20
-36.75549699977968
10
-3.5024726730582967
20
-34.157420788426364
42
-0.57735026918962207
10
-2.0024726730582949
20
-35.023446192210798
10
-2.0024726730582354
20
-50.136694846262642
42
-0.26794919243112669
10
-3.0024726730582523
20
-51.868745653831553
10
-7.5024726730582811
20
-54.466821865184833
42
-0.57735026918962262
10
-9.0024726730582767
20
-53.600796461400392
10
-9.0024726730582643
20
-38.487547807348562
42
-0.26794919243111953
0
LWPOLYLINE
5
183
100
AcDbEntity
8
0
100
AcDbPolyline
90
8
70
1
43
0.0
10
1.9975273269417175
20
-35.023446192210791
42
-0.5773502691896274
10
3.4975273269417189
20
-34.15742078842635
10
7.9975273269417038
20
-36.755496999779659
42
-0.26794919243112336
10
8.9975273269417055
20
-38.487547807348534
10
8.9975273269417002
20
-53.600796461400364
42
-0.57735026918963339
10
7.4975273269417011
20
-54.466821865184798
10
2.9975273269417895
20
-51.868745653831532
42
-0.26794919243112214
10
1.9975273269417879
20
-50.136694846262664
0
LWPOLYLINE
5
184
100
AcDbEntity
8
0
100
AcDbPolyline
90
8
70
1
43
0.0
10
6.9977437657451986
20
-64.270537202223196
42
-0.57694879993641124
10
5.4988354640590842
20
-65.136514662869558
10
2.9990755666714621
20
-63.696254612622113
42
-0.26818865854964424
10
1.9975273269418135
20
-61.963310850576434
10
1.9975273269418112
20
-58.026375701958074
42
-0.57735026918962529
10
3.4975273269418157
20
-57.160350298173633
10
5.9995842151728098
20
-58.604913516121556
42
-0.2747015980645599
10
6.9989513477310803
20
-60.387274056801374
0
LWPOLYLINE
5
185
100
AcDbEntity
8
0
100
AcDbPolyline
90
8
70
1
43
0.0
10
-3.5011645359409145
20
-57.157810231519647
42
-0.57694955143090254
10
-2.0013211619712914
20
-58.024330175482284
10
-2.0001072279095009
20
-61.956537613913191
42
-0.26803191425435102
10
-3.0001307841215259
20
-63.689246833033508
10
-5.5024726730581826
20
-65.13397459621558
42
-0.57735026918962939
10
-7.0024726730581799
20
-64.267949192431132
10
-7.0024726730581834
20
-60.331014043812779
42
-0.26818865854964447
10
-6.0009244333285441
20
-58.5980702817671
0
LWPOLYLINE
5
186
100
AcDbEntity
8
0
100
AcDbPolyline
90
8
70
1
43
0.0
10
-8.0024726730582749
20
-36.75549699977968
10
-3.5024726730582967
20
-34.157420788426364
42
-0.57735026918962207
10
-2.0024726730582949
20
-35.023446192210798
10
-2.0024726730582354
20
-50.136694846262642
42
-0.26794919243112669
10
-3.0024726730582523
20
-51.868745653831553
10
-7.5024726730582811
20
-54.466821865184833
42
-0.57735026918962262
10
-9.0024726730582767
20
-53.600796461400392
10
-9.0024726730582643
20
-38.487547807348562
42
-0.26794919243111953
0
LWPOLYLINE
5
187
100
AcDbEntity
8
0
100
AcDbPolyline
90
8
70
1
43
0.0
10
1.9975273269417175
20
-35.023446192210791
42
-0.5773502691896274
10
3.4975273269417189
20
-34.15742078842635
10
7.9975273269417038
20
-36.755496999779659
42
-0.26794919243112336
10
8.9975273269417055
20
-38.487547807348534
10
8.9975273269417002
20
-53.600796461400364
42
-0.57735026918963339
10
7.4975273269417011
20
-54.466821865184798
10
2.9975273269417895
20
-51.868745653831532
42
-0.26794919243112214
10
1.9975273269417879
20
-50.136694846262664
0
LWPOLYLINE
5
188
100
AcDbEntity
8
0
100
AcDbPolyline
90
8
70
1
43
0.0
10
6.9977437657451986
20
-64.270537202223196
42
-0.57694879993641124
10
5.4988354640590842
20
-65.136514662869558
10
2.9990755666714621
20
-63.696254612622113
42
-0.26818865854964424
10
1.9975273269418135
20
-61.963310850576434
10
1.9975273269418112
20
-58.026375701958074
42
-0.57735026918962529
10
3.4975273269418157
20
-57.160350298173633
10
5.9995842151728098
20
-58.604913516121556
42
-0.2747015980645599
10
6.9989513477310803
20
-60.387274056801374
0
LWPOLYLINE
5
189
100
AcDbEntity
8
0
100
AcDbPolyline
90
8
70
1
43
0.0
10
-3.5011645359409145
20
-57.157810231519647
42
-0.57694955143090254
10
-2.0013211619712914
20
-58.024330175482284
10
-2.0001072279095009
20
-61.956537613913191
42
-0.26803191425435102
10
-3.0001307841215259
20
-63.689246833033508
10
-5.5024726730581826
20
-65.13397459621558
42
-0.57735026918962939
10
-7.0024726730581799
20
-64.267949192431132
10
-7.0024726730581834
20
-60.331014043812779
42
-0.26818865854964447
10
-6.0009244333285441
20
-58.5980702817671
0
SPLINE
5
190
100
AcDbEntity
8
0
100
AcDbSpline
70
12
71
2
41
1
41
2.561805690327025
41
1.5859776417795208
41
1.3498395538586301
41
1.1177678426891671
41
1
72
9
73
6
74
0
42
0.000000001
43
0.0000000001
44
0.0000000001
40
0
40
0
40
0
40
3.1243227159378288
40
3.4746898765704342
40
3.7653215903724737
40
4.0009109139353258
40
4.0009109139353258
40
4.0009109139353258
10
-15.345437579845932
20
-28.538009814498718
30
0
10
-14.572305470934472
20
-29.523834507882931
30
0
10
-14.515361223006654
20
-46.223972548961399
30
0
10
-14.504850541142931
20
-53.154309669882821
30
0
10
-14.499999828636652
20
-62.354786913118218
30
0
10
-14.499999828636652
20
-68.5
30
0
0
SPLINE
5
191
100
AcDbEntity
8
0
100
AcDbSpline
70
12
71
2
41
1
41
1.7205091708413951
41
2.2794908291585942
41
1
72
7
73
4
74
0
42
0.000000001
43
0.0000000001
44
0.0000000001
40
0
40
0
40
0
40
1.4413467600362133
40
4.0009116285169055
40
4.0009116285169055
40
4.0009116285169055
10
14.500000171363354
20
-68.5
30
0
10
14.500000171363354
20
-44.07444956332494
30
0
10
14.633624755190276
20
-29.445659383225092
30
4.5395456701247697e-17
10
15.345502284897599
20
-28.538009814498718
30
2.8723722451754398e-16
0
ENDSEC
0
SECTION
2
OBJECTS
0
DICTIONARY
5
C
100
AcDbDictionary
3
ACAD_GROUP
350
D
3
ACAD_MLINESTYLE
350
17
0
DICTIONARY
5
D
100
AcDbDictionary
0
DICTIONARY
5
1A
330
C
100
AcDbDictionary
0
DICTIONARY
5
17
100
AcDbDictionary
0
ENDSEC
0
EOF
