0
SECTION
2
HEADER
9
$INSUNITS
70
4
9
$ACADVER
1
AC1014
9
$HANDSEED
5
FFFF
0
ENDSEC
0
SECTION
2
TABLES
0
TABLE
2
VPORT
5
8
100
AcDbSymbolTable
0
ENDTAB
0
TABLE
2
LTYPE
5
5
100
AcDbSymbolTable
0
LTYPE
5
14
100
AcDbSymbolTableRecord
100
AcDbLinetypeTableRecord
2
BYBLOCK
70
0
0
LTYPE
5
15
100
AcDbSymbolTableRecord
100
AcDbLinetypeTableRecord
2
BYLAYER
70
0
0
ENDTAB
0
TABLE
2
LAYER
5
2
100
AcDbSymbolTable
70
2
0
LAYER
5
50
100
AcDbSymbolTableRecord
100
AcDbLayerTableRecord
2
0
70
0
6
CONTINUOUS
0
ENDTAB
0
TABLE
2
STYLE
5
3
100
AcDbSymbolTable
70
1
0
STYLE
5
11
100
AcDbSymbolTableRecord
100
AcDbTextStyleTableRecord
2
STANDARD
70
0
0
ENDTAB
0
TABLE
2
VIEW
5
6
100
AcDbSymbolTable
70
0
0
ENDTAB
0
TABLE
2
UCS
5
7
100
AcDbSymbolTable
70
0
0
ENDTAB
0
TABLE
2
APPID
5
9
100
AcDbSymbolTable
70
2
0
APPID
5
12
100
AcDbSymbolTableRecord
100
AcDbRegAppTableRecord
2
ACAD
70
0
0
ENDTAB
0
TABLE
2
DIMSTYLE
5
A
100
AcDbSymbolTable
70
1
0
ENDTAB
0
TABLE
2
BLOCK_RECORD
5
1
100
AcDbSymbolTable
70
1
0
BLOCK_RECORD
5
1F
100
AcDbSymbolTableRecord
100
AcDbBlockTableRecord
2
*MODEL_SPACE
0
BLOCK_RECORD
5
1B
100
AcDbSymbolTableRecord
100
AcDbBlockTableRecord
2
*PAPER_SPACE
0
ENDTAB
0
ENDSEC
0
SECTION
2
BLOCKS
0
BLOCK
5
20
100
AcDbEntity
100
AcDbBlockBegin
2
*MODEL_SPACE
0
ENDBLK
5
21
100
AcDbEntity
100
AcDbBlockEnd
0
BLOCK
5
1C
100
AcDbEntity
100
AcDbBlockBegin
2
*PAPER_SPACE
0
ENDBLK
5
1D
100
AcDbEntity
100
AcDbBlockEnd
0
ENDSEC
0
SECTION
2
ENTITIES
0
LWPOLYLINE
5
100
100
AcDbEntity
8
0
100
AcDbPolyline
90
46
70
1
43
0.0
10
15.750032266844151
20
-25.168110265590187
42
-0.32164141407878233
10
15.750032104418725
20
-29.831889960783016
42
0.15686353232471797
10
14.999999675149152
20
-32.163779880136552
10
14.999999319541075
20
-66.497600255708761
42
-0.35790663438195913
10
12.183941531763516
20
-69.932524461045148
10
10.363643748836912
20
-70.295224569714861
42
-0.25915948104719083
10
6.6638476299444527
20
-69.10810398690289
10
2.9181489587833376
20
-65.11269207099771
42
0.43323201246632859
10
-2.9181486743373597
20
-65.112692070997696
10
-6.6638473454984624
20
-69.108103986902861
42
-0.25915948104719688
10
-10.363643464390897
20
-70.295224569714875
10
-12.183941247317627
20
-69.932524461045148
42
-0.35790710122871899
10
-14.999999031117923
20
-66.497594462012572
10
-14.999999502228807
20
-32.163689926588297
42
0.1568599870943492
10
-15.749999665432712
20
-29.831844990737032
42
-0.32163376962237777
10
-15.749999914318309
20
-25.168155356146332
42
0.15685996326923529
10
-15
20
-22.836310712292665
10
-15
20
0
10
-15
20
22.836310473455569
42
0.15685997268130086
10
-15.750000000000009
20
25.168155236727788
42
-0.32163376045133835
10
-15.750000000000011
20
29.831844763272208
42
0.15685997268130031
10
-15
20
32.163689526544417
10
-15
20
50.009696593335171
42
0.031098768375548622
10
-15.308884931453317
20
54.97108597690351
10
-15.691115068546749
20
58.028927073650898
42
-0.031098768375545011
10
-15.999999999999996
20
62.990316457219208
10
-16.000000000000007
20
68.500006525276902
42
-0.93792521140319418
10
-9.0286697410413552
20
68.947070539975215
10
-8.2604037395214114
20
62.981694373868358
42
0.23391001095603367
10
-7.2767864486879041
20
61.505108717555657
10
-3.9999999999999685
20
59.61325517932876
42
0.26794919243112264
10
4.0000000000000213
20
59.613255179328782
10
7.2767864486879041
20
61.505108717555657
42
0.23391001095603367
10
8.2604037395214114
20
62.981694373868358
10
9.0286697410413748
20
68.947070539975257
42
-0.93792521140318752
10
15.999999999999996
20
68.500006525276902
10
15.999999999999989
20
62.990316457219258
42
-0.03109876837554823
10
15.691115068546733
20
58.028927073650856
10
15.308884931453317
20
54.971085976903467
42
0.031098768375550867
10
15
20
50.009696593335136
10
15
20
32.16368952654441
42
0.1568599726812987
10
15.749999999999993
20
29.831844763272205
42
-0.32163376045133879
10
15.749999999999993
20
25.168155236727799
42
0.1568599726813012
10
15
20
22.83631047345559
10
15
20
0
10
15
20
-22.83622053118037
42
0.1568635171357981
0
CIRCLE
5
101
100
AcDbEntity
8
0
100
AcDbCircle
10
12.5
20
27.5
30
0
40
1.4999999999999991
210
0
220
0
230
1
0
CIRCLE
5
102
100
AcDbEntity
8
0
100
AcDbCircle
10
12.500064533688313
20
-27.5
30
-6.122839890160482e-17
40
3.1000000000000005
210
0
220
0
230
1
0
LWPOLYLINE
5
103
100
AcDbEntity
8
0
100
AcDbPolyline
90
8
70
1
43
0.0
10
10.999999999999996
20
59
10
10.999999999999996
20
62.000000000000014
42
-0.99999999999999989
10
10.999999999999996
20
63.000000000000007
10
12.5
20
63.000000000000007
42
-0.99999999999999989
10
12.5
20
62.000000000000014
10
12.5
20
59
42
-0.99999999999999989
10
12.5
20
58.000000000000007
10
10.999999999999996
20
58.000000000000007
42
-0.99999999999999989
0
LWPOLYLINE
5
104
100
AcDbEntity
8
0
100
AcDbPolyline
90
8
70
1
43
0.0
10
-10.999999999999996
20
33.000000000000007
10
-12.5
20
33.000000000000007
42
-0.99999999999999989
10
-12.5
20
34
10
-12.5
20
37.000000000000014
42
-0.99999999999999989
10
-12.5
20
38.000000000000007
10
-10.999999999999996
20
38.000000000000007
42
-0.99999999999999989
10
-10.999999999999996
20
37.000000000000014
10
-10.999999999999996
20
34
42
-0.99999999999999989
0
CIRCLE
5
105
100
AcDbEntity
8
0
100
AcDbCircle
10
12.5
20
68.500006525276902
30
0
40
1.4999999999999991
210
0
220
0
230
1
0
CIRCLE
5
106
100
AcDbEntity
8
0
100
AcDbCircle
10
12.500064533688313
20
-27.5
30
-6.122839890160482e-17
40
1.4999999999999991
210
0
220
0
230
1
0
CIRCLE
5
107
100
AcDbEntity
8
0
100
AcDbCircle
10
10.500000142222987
20
-65.5
30
0
40
3.1000000000000005
210
0
220
0
230
1
0
LWPOLYLINE
5
108
100
AcDbEntity
8
0
100
AcDbPolyline
90
8
70
1
43
0.0
10
-10.999999999999996
20
59
42
-0.99999999999999989
10
-10.999999999999996
20
58.000000000000007
10
-12.5
20
58.000000000000007
42
-0.99999999999999989
10
-12.5
20
59
10
-12.5
20
62.000000000000014
42
-0.99999999999999989
10
-12.5
20
63.000000000000007
10
-10.999999999999996
20
63.000000000000007
42
-0.99999999999999989
10
-10.999999999999996
20
62.000000000000014
0
LWPOLYLINE
5
109
100
AcDbEntity
8
0
100
AcDbPolyline
90
8
70
1
43
0.0
10
10.999999999999996
20
33.000000000000007
42
-0.99999999999999989
10
10.999999999999996
20
34
10
10.999999999999996
20
37.000000000000014
42
-0.99999999999999989
10
10.999999999999996
20
38.000000000000007
10
12.5
20
38.000000000000007
42
-0.99999999999999989
10
12.5
20
37.000000000000014
10
12.5
20
34
42
-0.99999999999999989
10
12.5
20
33.000000000000007
0
CIRCLE
5
110
100
AcDbEntity
8
0
100
AcDbCircle
10
-12.5
20
68.500006525276902
30
0
40
1.4999999999999991
210
0
220
0
230
1
0
CIRCLE
5
111
100
AcDbEntity
8
0
100
AcDbCircle
10
-12.499999828636632
20
-27.5
30
0
40
1.5000000000000002
210
0
220
0
230
1
0
CIRCLE
5
112
100
AcDbEntity
8
0
100
AcDbCircle
10
-12.5
20
27.5
30
0
40
1.4999999999999991
210
0
220
0
230
1
0
CIRCLE
5
113
100
AcDbEntity
8
0
100
AcDbCircle
10
-10.499999857777009
20
-65.5
30
0
40
3.1000000000000005
210
0
220
0
230
1
0
CIRCLE
5
114
100
AcDbEntity
8
0
100
AcDbCircle
10
-12.499999828636632
20
-27.5
30
0
40
3.1000000000000005
210
0
220
0
230
1
0
CIRCLE
5
115
100
AcDbEntity
8
0
100
AcDbCircle
10
10.500000142222987
20
-65.5
30
0
40
1.5000000000000002
210
0
220
0
230
1
0
CIRCLE
5
116
100
AcDbEntity
8
0
100
AcDbCircle
10
-10.499999857777009
20
-65.5
30
0
40
1.5000000000000002
210
0
220
0
230
1
0
LWPOLYLINE
5
117
100
AcDbEntity
8
0
100
AcDbPolyline
90
8
70
1
43
0.0
10
6.9999998924718065
20
22.922649744881738
10
3.4999998980223719
20
20.901923807954219
42
-0.57735026822431046
10
1.9999998983993827
20
21.767949209495736
10
1.9999998808965076
20
28.881197864812798
42
-0.26794919313590559
10
2.999999881190401
20
30.613248677472555
10
6.4999998751030299
20
32.633974615329855
42
-0.57735026827692537
10
7.9999998749560843
20
31.767949214028977
10
7.9999998932258194
20
24.654700558022761
42
-0.26794919323597338
0
LWPOLYLINE
5
118
100
AcDbEntity
8
0
100
AcDbPolyline
90
8
70
1
43
0.0
10
-3.0000001188095964
20
30.613248666610609
42
-0.26794919183426169
10
-2.0000001191034955
20
28.881197863327067
10
-2.0000001016006177
20
21.76794921234082
42
-0.57735027007723716
10
-3.500000101977625
20
20.901923806546534
10
-7.0000001078249676
20
22.922649753432374
42
-0.26794919171761661
10
-8.0000001073677183
20
24.654700556624917
10
-8.0000001250439361
20
31.767949207323273
42
-0.5773502699321309
10
-6.5000001248969763
20
32.63397461308071
0
LWPOLYLINE
5
119
100
AcDbEntity
8
0
100
AcDbPolyline
90
8
70
1
43
0.0
10
7.9999998449810183
20
55.767949217788136
10
7.999999883059389
20
38.654700550265119
42
-0.26794919302797982
10
6.999999887220544
20
36.922649746127313
10
3.4999998933079097
20
34.90192380827002
42
-0.57735026844711435
10
1.9999998934548646
20
35.767949210081483
10
1.9999998566803832
20
52.881197875777076
42
-0.26794919291972952
10
2.9999998516617579
20
54.613248679602044
10
6.4999998445113407
20
56.633974619300595
42
-0.57735026855883353
0
LWPOLYLINE
5
120
100
AcDbEntity
8
0
100
AcDbPolyline
90
8
70
1
43
0.0
10
-2.0000001065451389
20
35.767949210760207
10
-2.0000001433196055
20
52.881194666476134
42
0.26794919183426841
10
-3.0000029099101635
20
54.613250260163895
10
-6.5000001554260214
20
56.633974610506968
42
0.5773502699501204
10
-8.0000001551442317
20
55.767949203952938
10
-8.0000001166299697
20
38.654700561734387
42
0.26794919177433479
10
-7.0000001127794675
20
36.922649751472868
10
-3.5000001066920872
20
34.901923805002774
42
0.57735026993213001
0
LWPOLYLINE
5
121
100
AcDbEntity
8
0
100
AcDbPolyline
90
8
70
1
43
0.0
10
3.0000001188095999
20
-30.613248666610605
42
-0.26794919183426186
10
2.0000001191034973
20
-28.88119786332706
10
2.0000001016006168
20
-21.767949212340817
42
-0.5773502700772376
10
3.5000001019776263
20
-20.901923806546531
10
7.0000001078249685
20
-22.922649753432371
42
-0.26794919171761677
10
8.0000001073677183
20
-24.654700556624913
10
8.0000001250439379
20
-31.767949207323269
42
-0.5773502699321309
10
6.5000001248969781
20
-32.63397461308071
0
LWPOLYLINE
5
122
100
AcDbEntity
8
0
100
AcDbPolyline
90
8
70
1
43
0.0
10
-7.9999998672838952
20
-59.767949215819954
10
-7.9999998786736901
20
-52.654700560283061
42
-0.26794919302798165
10
-6.9999998786736946
20
-50.922649748259175
10
-3.4999998851039487
20
-48.901923809807997
42
-0.57735026844711623
10
-1.9999998851039509
20
-49.767949211364936
10
-1.9999998737141522
20
-56.881197866901807
42
-0.26794919302798392
10
-2.999999873714148
20
-58.613248678925707
10
-6.4999998672838943
20
-60.633974617376879
42
-0.57735026844711768
0
LWPOLYLINE
5
123
100
AcDbEntity
8
0
100
AcDbPolyline
90
8
70
1
43
0.0
10
-7.9999998672838952
20
-45.767949215819939
10
-7.9999998830593864
20
-38.654700550265119
42
-0.26794919302797982
10
-6.9999998872205413
20
-36.922649746127306
10
-3.4999998933079075
20
-34.901923808270013
42
-0.57735026844711435
10
-1.9999998934548624
20
-35.767949210081476
10
-1.9999998781691746
20
-42.881197874618131
42
-0.26794919302798065
10
-2.999999873714148
20
-44.6132486789257
10
-6.4999998672838943
20
-46.633974617376893
42
-0.57735026844712356
0
LWPOLYLINE
5
124
100
AcDbEntity
8
0
100
AcDbPolyline
90
8
70
1
43
0.0
10
8.0000001327161154
20
-45.767949206855945
10
8.0000001166299715
20
-38.65470056173438
42
0.26794919177433479
10
7.0000001127794711
20
-36.922649751472861
10
3.5000001066920898
20
-34.901923805002767
42
0.57735026993213012
10
2.0000001065451407
20
-35.767949210760207
10
2.0000001218308223
20
-42.881194667426755
42
0.26794919183426935
10
3.0000028878577778
20
-44.613250261439923
10
6.5000001327161039
20
-46.633974612921882
42
0.57735026995011818
0
LWPOLYLINE
5
125
100
AcDbEntity
8
0
100
AcDbPolyline
90
8
70
1
43
0.0
10
8.0000001327161065
20
-59.767949206909925
10
8.0000001213263054
20
-52.654700554343052
42
0.26794919183426424
10
7.000000121326309
20
-50.922649751229194
10
3.5000001148960487
20
-48.901923805352979
42
0.57735026993212235
10
2.0000001148960496
20
-49.767949211364936
10
2.0000001262858467
20
-56.88119786393181
42
0.2679491918342608
10
3.0000001262858449
20
-58.613248667045667
10
6.5000001327161039
20
-60.633974612921875
42
0.57735026993213256
0
LWPOLYLINE
5
126
100
AcDbEntity
8
0
100
AcDbPolyline
90
8
70
1
43
0.0
10
-3.4999998980223705
20
-20.901923807954216
42
-0.57735026844711734
10
-1.9999998983993823
20
-21.767949210164154
10
-1.999999880896506
20
-28.88119786561834
42
-0.26794919302798281
10
-2.9999998811903996
20
-30.613248677472548
10
-6.4999998751030263
20
-32.633974615329848
42
-0.57735026844712112
10
-7.9999998749560817
20
-31.767949213518385
10
-7.9999998932258194
20
-24.654700557554584
42
-0.26794919317325006
10
-6.9999998924718057
20
-22.922649744881735
0
LWPOLYLINE
5
127
100
AcDbEntity
8
0
100
AcDbPolyline
90
10
70
1
43
0.0
10
1.9999998530432332
20
9.8811859011263472
10
1.9999998523822433
20
9.8812963064613495
10
2.000020026019774
20
-9.809390118101101
42
0.26794891790999026
10
3.000020026018726
20
-11.541438876616219
10
8.4999998496053291
20
-14.716853708301452
42
0.57735026918962595
10
9.9999998496053291
20
-13.850828304517012
10
9.9999998496053273
20
-9.1905989260845686
10
9.9999998496053291
20
13.922649757370845
42
0.57735026918962595
10
8.4999998496053291
20
14.788675161155282
10
2.9999998530074503
20
11.613248682576558
42
0.26795079662768284
0
LWPOLYLINE
5
128
100
AcDbEntity
8
0
100
AcDbPolyline
90
10
70
1
43
0.0
10
-2.0000200260197745
20
-9.809390118101101
10
-1.9999998523822433
20
9.8812963064613495
10
-1.9999998530432328
20
9.8811859011263472
42
0.26795079662768284
10
-2.9999998530074512
20
11.613248682576558
10
-8.4999998496053291
20
14.788675161155282
42
0.57735026918962595
10
-9.9999998496053291
20
13.922649757370845
10
-9.9999998496053273
20
-9.1905989260845651
10
-9.9999998496053291
20
-13.850828304517012
42
0.57735026918962595
10
-8.4999998496053291
20
-14.716853708301452
10
-3.0000200260187255
20
-11.541438876616219
42
0.26794891790999026
0
ENDSEC
0
SECTION
2
OBJECTS
0
DICTIONARY
5
C
100
AcDbDictionary
3
ACAD_GROUP
350
D
3
ACAD_MLINESTYLE
350
17
0
DICTIONARY
5
D
100
AcDbDictionary
0
DICTIONARY
5
1A
330
C
100
AcDbDictionary
0
DICTIONARY
5
17
100
AcDbDictionary
0
ENDSEC
0
EOF
