<?xml version="1.0" encoding="UTF-8"?>
<svg width="927px" height="648px" viewBox="0 0 927 648" version="1.1" xmlns="http://www.w3.org/2000/svg" xmlns:xlink="http://www.w3.org/1999/xlink">
    <title>alpaca_blueprint</title>
    <g id="alpaca_blueprint" stroke="none" stroke-width="1" fill="none" fill-rule="evenodd">
        <rect fill="#0065FF" x="0" y="0" width="927" height="648"></rect>
        <g id="arm" transform="translate(315.000000, 277.000000)" stroke="#FFFFFF">
            <line x1="109.4813" y1="246.53936" x2="116.21806" y2="243.65796" id="path42"></line>
            <line x1="303.19191" y1="28.25984" x2="318.81961" y2="26.46751" id="path44"></line>
            <path d="M376.166132,55.42194 C376.167604,53.3955155 375.087366,51.522391 373.332676,50.508753 C371.577986,49.4951149 369.415694,49.4951149 367.661004,50.508753 C365.906314,51.522391 364.826076,53.3955155 364.827548,55.42194 C364.826076,57.4483645 365.906314,59.321489 367.661004,60.335127 C369.415694,61.3487651 371.577986,61.3487651 373.332676,60.335127 C375.087366,59.321489 376.167604,57.4483645 376.166132,55.42194 L376.166132,55.42194 Z" id="path46"></path>
            <line x1="130.38736" y1="232.19426" x2="124.49105" y2="238.07126" id="path48"></line>
            <path d="M341.44397,80.37849 C341.44397,77.2474248 338.90574,74.709195 335.774675,74.709195 C332.64361,74.709195 330.10538,77.2474248 330.10538,80.37849 C330.10538,83.5095552 332.64361,86.047785 335.774675,86.047785 C338.90574,86.047785 341.44397,83.5095552 341.44397,80.37849 Z" id="path50"></path>
            <line x1="349.83305" y1="93.15186" x2="356.51304" y2="78.91054" id="path52"></line>
            <line x1="402.03817" y1="6.4217596" x2="400.04406" y2="3.6473396" id="path54"></line>
            <line x1="324.80192" y1="22.16773" x2="331.48993" y2="7.9093096" id="path56"></line>
            <path d="M365.684,37.56674 L373.40175,40.63697 C375.341288,41.4085411 377.539077,40.4617177 378.31065,38.52218 L384.50848,22.94243 C384.985023,21.7445319 384.818101,20.3863522 384.065674,19.3394963 C383.313247,18.2926404 382.079112,17.7015193 380.7918,17.77139 L364.04916,18.68011 C361.964855,18.7932364 360.366898,20.5746046 360.48002,22.65891 L360.93017,30.95272 C361.089898,33.8956168 362.945507,36.4773318 365.684,37.56674 L365.684,37.56674 Z" id="path58"></path>
            <line x1="337.9179" y1="3.5717396" x2="393.49035" y2="0.51145957" id="path60"></line>
            <line x1="81.195476" y1="207.18516" x2="86.073793" y2="201.71816" id="path62"></line>
            <path d="M316.487411,45.65633 C316.488613,43.6300857 315.408316,41.7572437 313.653737,40.743774 C311.899159,39.7303043 309.737081,39.7303043 307.982503,40.743774 C306.227924,41.7572437 305.147627,43.6300857 305.148829,45.65633 C305.147627,47.6825743 306.227924,49.5554163 307.982503,50.568886 C309.737081,51.5823557 311.899159,51.5823557 313.653737,50.568886 C315.408316,49.5554163 316.488613,47.6825743 316.487411,45.65633 L316.487411,45.65633 Z" id="path64"></path>
            <path d="M351.20958,20.69978 C351.20958,17.5687148 348.67135,15.030485 345.540285,15.030485 C342.40922,15.030485 339.87099,17.5687148 339.87099,20.69978 C339.87099,23.8308452 342.40922,26.369075 345.540285,26.369075 C348.67135,26.369075 351.20958,23.8308452 351.20958,20.69978 Z" id="path66"></path>
            <path d="M355.775591,50.53913 C355.777555,45.1366398 352.896489,40.1436921 348.218123,37.4418796 C343.539756,34.7400671 337.775204,34.7400671 333.096837,37.4418796 C328.418471,40.1436921 325.537405,45.1366398 325.539369,50.53913 C325.537405,55.9416202 328.418471,60.9345679 333.096837,63.6363804 C337.775204,66.3381929 343.539756,66.3381929 348.218123,63.6363804 C352.896489,60.9345679 355.777555,55.9416202 355.775591,50.53913 Z" id="path68"></path>
            <path d="M43.964629,267.86196 C43.964629,264.730897 41.4264007,262.192669 38.2953375,262.192669 C35.1642743,262.192669 32.626046,264.730897 32.626046,267.86196 C32.626046,270.993023 35.1642743,273.531251 38.2953375,273.531251 C41.4264007,273.531251 43.964629,270.993023 43.964629,267.86196 Z" id="path70"></path>
            <line x1="32.061491" y1="251.39726" x2="0.5" y2="274.08206" id="path72"></line>
            <line x1="101.45591" y1="191.94176" x2="94.006079" y2="195.65736" id="path74"></line>
            <line x1="0.5" y1="274.08206" x2="0.5" y2="305.65726" id="path76"></line>
            <path d="M111.483391,219.33286 C111.484593,217.306616 110.404296,215.433774 108.649717,214.420304 C106.895139,213.406834 104.733061,213.406834 102.978483,214.420304 C101.223904,215.433774 100.143607,217.306616 100.144809,219.33286 C100.143607,221.359104 101.223904,223.231946 102.978483,224.245416 C104.733061,225.258886 106.895139,225.258886 108.649717,224.245416 C110.404296,223.231946 111.484593,221.359104 111.483391,219.33286 L111.483391,219.33286 Z" id="path78"></path>
            <line x1="362.49535" y1="74.61076" x2="378.1418" y2="72.81627" id="path80"></line>
            <line x1="402.03817" y1="6.4217596" x2="404.03228" y2="9.1961796" id="path82"></line>
            <line x1="384.30199" y1="68.10612" x2="404.9157" y2="16.40759" id="path84"></line>
            <line x1="294.67408" y1="38.94655" x2="297.02148" y2="32.99584" id="path86"></line>
            <line x1="336.98878" y1="97.81917" x2="343.37732" y2="97.49092" id="path88"></line>
            <line x1="204.35016" y1="169.45528" x2="272.60709" y2="120.39562" id="path90"></line>
            <line x1="184.49734" y1="141.83397" x2="252.75427" y2="92.77431" id="path92"></line>
            <path d="M337.9179,3.5717396 C335.140344,3.72469408 332.671242,5.39083497 331.48993,7.9093096" id="path94"></path>
            <path d="M400.04406,3.6473396 C398.537968,1.55190813 396.066978,0.369566269 393.49035,0.51145957" id="path96"></path>
            <path d="M404.9157,16.40759 C405.871457,14.0105758 405.538376,11.2916093 404.03228,9.1961796" id="path98"></path>
            <path d="M378.1418,72.81627 C380.905452,72.4993128 383.271696,70.6900563 384.30199,68.10612" id="path100"></path>
            <path d="M343.37732,97.49092 C346.165384,97.3476671 348.647506,95.6793703 349.83305,93.15186" id="path102"></path>
            <path d="M303.19191,28.25984 C300.418349,28.5779384 298.045921,30.3988522 297.02148,32.99584" id="path104"></path>
            <path d="M318.81961,26.46751 C321.424473,26.1687609 323.688481,24.5415072 324.80192,22.16773" id="path106"></path>
            <path d="M362.49535,74.61076 C359.890487,74.9095091 357.626479,76.5367628 356.51304,78.91054" id="path108"></path>
            <path d="M252.75427,92.77431 C271.603595,79.2263574 286.155945,60.5401941 294.67408,38.94655" id="path110"></path>
            <path d="M336.98878,97.81917 C313.806346,99.0103118 291.456414,106.847666 272.60709,120.39562" id="path112"></path>
            <path d="M32.061491,251.39726 C50.0059329,238.499694 66.4823493,223.673765 81.195476,207.18516" id="path114"></path>
            <path d="M109.4813,246.53936 C89.1630611,255.22954 69.8587497,266.121 51.914307,279.01856" id="path116"></path>
            <path d="M101.45591,191.94176 C130.433315,177.489432 158.203082,160.732957 184.49734,141.83397" id="path118"></path>
            <path d="M204.35016,169.45528 C178.0559,188.354282 153.322105,209.334735 130.38736,232.19426" id="path120"></path>
            <path d="M94.006079,195.65736 C91.0013404,197.155965 88.3093328,199.212839 86.073793,201.71816" id="path122"></path>
            <path d="M116.21806,243.65796 C119.305251,242.337575 122.112884,240.441597 124.49105,238.07126" id="path124"></path>
            <line x1="23.177165" y1="305.65726" x2="23.260805" y2="305.54016" id="path126"></line>
            <path d="M44.125389,284.61686 C36.073673,290.40402 29.0253167,297.472212 23.260807,305.54016" id="path128"></path>
            <line x1="0.5" y1="305.65726" x2="23.177165" y2="305.65726" id="path130"></line>
            <line x1="44.125389" y1="284.61686" x2="51.914307" y2="279.01856" id="path132"></line>
        </g>
        <g id="center_plate" transform="translate(345.000000, 64.000000)" stroke="#FFFFFF">
            <path d="M39.242179,60.978776 C48.7928594,65.0636263 56.6519368,72.3031049 61.505596,81.486976 C72.0166769,101.375658 72.0166769,125.174398 61.505596,145.06308 C56.6519548,154.246989 48.7928754,161.486504 39.242179,165.57138 L16.556056,175.27428 C6.58337017,179.539666 0.224396271,189.460028 0.512745233,200.30276 C0.801094195,211.145492 7.67834644,220.713853 17.8636412,224.443163 C28.0489361,228.172473 39.4787297,225.307172 46.700327,217.21418 L51.578644,211.74718 C54.9393483,207.980913 58.3938378,204.299392 61.938864,200.70608 C68.4483198,194.10799 76.3873476,189.094503 85.142708,186.05288 C115.668845,175.448056 148.879393,175.448056 179.40553,186.05288 C188.160893,189.094502 196.099922,194.107989 202.60938,200.70608 C206.154406,204.299392 209.608896,207.980913 212.9696,211.74718 L217.84791,217.21418 C225.069507,225.307172 236.499301,228.172473 246.684596,224.443164 C256.869891,220.713854 263.747144,211.145492 264.035492,200.30276 C264.323841,189.460028 257.964866,179.539666 247.99218,175.27428 L225.30606,165.57138 C215.755363,161.486505 207.896282,154.246989 203.04264,145.06308 C192.531559,125.174398 192.531559,101.375658 203.04264,81.486976 C207.8963,72.3031044 215.755379,65.0636257 225.30606,60.978776 L247.99218,51.275776 C257.964934,47.0104319 264.323975,37.0900448 264.035638,26.2472665 C263.747302,15.4044883 256.870005,5.83608841 246.684654,2.10679855 C236.499303,-1.62249131 225.069471,1.24289078 217.84791,9.3359764 L212.9696,14.802976 C209.608894,18.5692096 206.154405,22.2506968 202.60938,25.843976 C196.099922,32.4420668 188.160893,37.4555535 179.40553,40.497176 C148.879393,51.1020005 115.668845,51.1020005 85.142708,40.497176 C76.3873476,37.4555527 68.4483198,32.4420661 61.938864,25.843976 C58.393839,22.2506968 54.9393496,18.5692096 51.578644,14.802976 L46.700327,9.3359764 C39.4787659,1.24289127 28.048934,-1.6224905 17.8635833,2.10679926 C7.67823257,5.83608902 0.800936334,15.4044885 0.512599485,26.2472664 C0.224262636,37.0900443 6.58330282,47.0104313 16.556056,51.275776 L39.242179,60.978776 Z" id="path202"></path>
            <path d="M102.98272,75.479776 C102.98272,70.783181 99.1753775,66.9758385 94.4787825,66.9758385 C89.7821875,66.9758385 85.974845,70.783181 85.974845,75.479776 C85.974845,80.176371 89.7821875,83.9837135 94.4787825,83.9837135 C99.1753775,83.9837135 102.98272,80.176371 102.98272,75.479776 Z" id="path204"></path>
            <path d="M178.5734,75.479776 C178.5734,70.7831796 174.766056,66.975836 170.06946,66.975836 C165.372864,66.975836 161.56552,70.7831796 161.56552,75.479776 C161.56552,80.1763724 165.372864,83.983716 170.06946,83.983716 C174.766056,83.983716 178.5734,80.1763724 178.5734,75.479776 L178.5734,75.479776 Z" id="path206"></path>
            <path d="M102.98272,151.07038 C102.98272,146.373785 99.1753775,142.566442 94.4787825,142.566442 C89.7821875,142.566442 85.974845,146.373785 85.974845,151.07038 C85.974845,155.766975 89.7821875,159.574317 94.4787825,159.574317 C99.1753775,159.574317 102.98272,155.766975 102.98272,151.07038 L102.98272,151.07038 Z" id="path208"></path>
            <path d="M178.5734,151.07038 C178.5734,146.373784 174.766056,142.56644 170.06946,142.56644 C165.372864,142.56644 161.56552,146.373784 161.56552,151.07038 C161.56552,155.766976 165.372864,159.57432 170.06946,159.57432 C174.766056,159.57432 178.5734,155.766976 178.5734,151.07038 Z" id="path210"></path>
            <path d="M246.092152,199.59948 C246.094235,196.559927 244.47385,193.750373 241.841867,192.229994 C239.209884,190.709616 235.966546,190.709616 233.334563,192.229994 C230.70258,193.750373 229.082195,196.559927 229.084278,199.59948 C229.082195,202.639033 230.70258,205.448587 233.334563,206.968966 C235.966546,208.489344 239.209884,208.489344 241.841867,206.968966 C244.47385,205.448587 246.094235,202.639033 246.092152,199.59948 L246.092152,199.59948 Z" id="path212"></path>
            <path d="M246.092152,26.950676 C246.094235,23.9111235 244.47385,21.1015688 241.841867,19.5811905 C239.209884,18.0608121 235.966546,18.0608121 233.334563,19.5811905 C230.70258,21.1015688 229.082195,23.9111235 229.084278,26.950676 C229.082195,29.9902285 230.70258,32.7997832 233.334563,34.3201615 C235.966546,35.8405399 239.209884,35.8405399 241.841867,34.3201615 C244.47385,32.7997832 246.094235,29.9902285 246.092152,26.950676 L246.092152,26.950676 Z" id="path214"></path>
            <path d="M35.463961,26.950676 C35.463961,22.2540813 31.6566187,18.446739 26.960024,18.446739 C22.2634293,18.446739 18.456087,22.2540813 18.456087,26.950676 C18.456087,31.6472707 22.2634293,35.454613 26.960024,35.454613 C31.6566187,35.454613 35.463961,31.6472707 35.463961,26.950676 L35.463961,26.950676 Z" id="path216"></path>
            <path d="M35.463961,199.59948 C35.463961,194.902885 31.6566187,191.095543 26.960024,191.095543 C22.2634293,191.095543 18.456087,194.902885 18.456087,199.59948 C18.456087,204.296075 22.2634293,208.103417 26.960024,208.103417 C31.6566187,208.103417 35.463961,204.296075 35.463961,199.59948 L35.463961,199.59948 Z" id="path218"></path>
            <path d="M129.36531,78.917776 L118.25002,65.519776 C117.28158,64.3524629 117.104768,62.7192828 117.800945,61.3717543 C118.497121,60.0242258 119.931421,59.2233976 121.44384,59.337776 C128.653736,59.883014 135.894514,59.883014 143.10441,59.337776 C144.616828,59.223402 146.051123,60.0242319 146.747297,61.3717594 C147.443471,62.7192869 147.266658,64.3524643 146.29822,65.519776 L135.18293,78.917776 C134.464883,79.7832829 133.398706,80.2840787 132.27412,80.2840787 C131.149534,80.2840787 130.083357,79.7832829 129.36531,78.917776 L129.36531,78.917776 Z" id="path220"></path>
            <path d="M135.18293,147.63238 C134.464883,146.766873 133.398706,146.266077 132.27412,146.266077 C131.149534,146.266077 130.083357,146.766873 129.36531,147.63238 L118.25002,161.03028 C117.28158,162.197593 117.104768,163.830773 117.800945,165.178302 C118.497121,166.52583 119.931421,167.326658 121.44384,167.21228 C128.653736,166.667042 135.894514,166.667042 143.10441,167.21228 C144.616828,167.326654 146.051123,166.525824 146.747297,165.178297 C147.443471,163.830769 147.266658,162.197592 146.29822,161.03028 L135.18293,147.63238 Z" id="path222"></path>
        </g>
        <g id="top_plate" transform="translate(761.000000, 69.000000)" stroke="#FFFFFF">
            <path d="M38.294448,62.356229 C37.1250561,61.6810807 35.6843058,61.6810822 34.5149152,62.3562329 C33.3455247,63.0313836 32.625157,64.2791117 32.625157,65.629409" id="path292"></path>
            <path d="M115.774762,13.728709 C115.776234,11.7022845 114.695996,9.82916 112.941306,8.81552197 C111.186616,7.80188393 109.024324,7.80188393 107.269634,8.81552197 C105.514944,9.82916 104.434706,11.7022845 104.436178,13.728709 C104.434706,15.7551335 105.514944,17.628258 107.269634,18.641896 C109.024324,19.6555341 111.186616,19.6555341 112.941306,18.641896 C114.695996,17.628258 115.776234,15.7551335 115.774762,13.728709 Z" id="path294"></path>
            <path d="M93.097599,248.64419 C93.097599,245.943576 91.6568715,243.448097 89.318071,242.09779" id="path296"></path>
            <path d="M89.318071,303.15499 C91.6568711,301.804683 93.097598,299.309204 93.097598,296.60859" id="path298"></path>
            <line x1="76.089724" y1="310.79229" x2="89.318071" y2="303.15499" id="path300"></line>
            <path d="M16.811836,536.93829 L23.691702,538.30909 C28.8149822,539.329935 34.1022619,537.633474 37.675183,533.82239 L51.832155,518.72159 C54.690195,515.673014 58.6825979,513.943377 62.8613785,513.943377 C67.0401591,513.943377 71.032562,515.673014 73.890602,518.72159 L88.047574,533.82239 C91.6204941,537.633472 96.9077714,539.329934 102.03105,538.30909 L108.91092,536.93829 C115.101908,535.704717 119.558623,530.268577 119.55429,523.95589 L119.55429,394.19029 C119.554278,391.028297 120.545704,387.945884 122.38906,385.37679 C126.168711,380.109033 126.168711,373.017747 122.38906,367.74999 C120.545704,365.180896 119.554278,362.098483 119.55429,358.93649 L119.55429,272.62639 L119.55429,186.31589 C119.554285,183.153978 120.545667,180.071643 122.38894,177.50259 C126.168447,172.234897 126.168447,165.143783 122.38894,159.87609 C120.545667,157.307037 119.554285,154.224702 119.55429,151.06279 L119.55429,83.613349 C119.55429,77.3446202 119.94419,71.0819599 120.72173,64.861639 L122.16638,53.304449 C122.94392,47.0841281 123.33382,40.8214678 123.33382,34.552739 L123.33382,13.728709 C123.333828,6.75157395 117.914887,0.973983729 110.952054,0.527464898 C103.989222,0.0809460667 97.8766829,5.11903505 96.985484,12.039019 L94.081802,34.585329 C93.7806682,36.9235338 92.4058622,38.9873613 90.364193,40.166119 L77.979488,47.316429 C68.624369,52.7176095 57.098387,52.7176095 47.743268,47.316429 L35.358563,40.166119 C33.3168938,38.9873613 31.9420878,36.9235338 31.640954,34.585329 L28.737272,12.039019 C27.8460701,5.11903786 21.7335324,0.0809524206 14.7707024,0.527471112 C7.80787245,0.973989802 2.38893196,6.75157636 2.3889368,13.728709 L2.3889368,34.552739 C2.38893667,40.8214678 2.77883572,47.0841281 3.5563758,53.304449 L5.0010258,64.861639 C5.77856588,71.0819599 6.16846493,77.3446202 6.1684648,83.613349 L6.1684648,151.06279 C6.16847067,154.224702 5.17709064,157.307037 3.3338188,159.87609 C-0.445688219,165.143783 -0.445688219,172.234897 3.3338188,177.50259 C5.17709064,180.071643 6.16847067,183.153978 6.1684648,186.31589 L6.1684648,272.62639 L6.1684648,358.93689 C6.16844976,362.098767 5.17707073,365.181065 3.3338188,367.75009 C-0.445735753,373.017805 -0.445735351,380.108976 3.3338198,385.37669 C5.17707173,387.945715 6.16845076,391.028013 6.1684658,394.18989 L6.1684678,523.95589 C6.16413496,530.268576 10.620849,535.704716 16.811836,536.93829 L16.811836,536.93829 Z" id="path302"></path>
            <path d="M74.19996,69.993619 L87.428307,62.356229 C88.5976974,61.6810816 90.0384455,61.6810822 91.2078354,62.3562304 C92.3772253,63.0313787 93.097598,64.2791035 93.097598,65.629399 L93.097598,134.08892 C93.097598,136.789509 91.6568364,139.284955 89.318058,140.63525 L76.089712,148.27265 C74.9203215,148.947798 73.479573,148.947798 72.3101828,148.272649 C71.1407926,147.597501 70.42042,146.349776 70.42042,144.99948 L70.42042,76.539959 C70.42042,73.8393666 71.8611785,71.3439154 74.19996,69.993619 L74.19996,69.993619 Z" id="path304"></path>
            <path d="M32.625318,134.08925 C32.625318,136.789708 34.0660057,139.285031 36.404671,140.63526" id="path306"></path>
            <path d="M49.633019,148.27265 C50.8023819,148.947782 52.2430961,148.947782 53.412459,148.27265 C54.581822,147.597518 55.302181,146.349824 55.302181,144.99956" id="path308"></path>
            <path d="M76.089725,442.33439 C74.92033,441.65924 73.4795754,441.659243 72.3101836,442.334399 C71.1407917,443.009554 70.420434,444.257289 70.420434,445.60759" id="path310"></path>
            <path d="M115.77501,376.56339 C115.77501,373.432325 113.23678,370.894095 110.105715,370.894095 C106.97465,370.894095 104.43642,373.432325 104.43642,376.56339 C104.43642,379.694455 106.97465,382.232685 110.105715,382.232685 C113.23678,382.232685 115.77501,379.694455 115.77501,376.56339 Z" id="path312"></path>
            <line x1="76.089725" y1="234.46039" x2="89.318071" y2="242.09779" id="path314"></line>
            <line x1="51.522784" y1="69.993619" x2="38.294448" y2="62.356229" id="path316"></line>
            <line x1="76.089725" y1="442.33439" x2="89.318071" y2="449.97179" id="path318"></line>
            <path d="M36.404686,449.97179 L49.633032,442.33439 C50.802427,441.65924 52.2431816,441.659243 53.4125734,442.334399 C54.5819653,443.009554 55.302323,444.257289 55.302323,445.60759 L55.195524,496.47539 C55.19372,497.825681 54.4716834,499.072439 53.3013972,499.746025 C52.131111,500.419611 50.6903685,500.417692 49.521881,499.74099 L36.303712,492.08599 C33.9667187,490.732576 32.5292917,488.235193 32.5328942,485.53459 L32.625161,456.51819 C32.6251374,453.817576 34.0658885,451.322097 36.404689,449.97179 L36.404686,449.97179 Z" id="path320"></path>
            <line x1="32.625318" y1="134.08925" x2="32.625157" y2="65.629409" id="path322"></line>
            <path d="M108.21571,520.18539 C108.21571,517.054327 105.677482,514.516098 102.546419,514.516098 C99.4153553,514.516098 96.877127,517.054327 96.877127,520.18539 C96.877127,523.316453 99.4153553,525.854681 102.546419,525.854681 C105.677482,525.854681 108.21571,523.316453 108.21571,520.18539 Z" id="path324"></path>
            <path d="M36.404685,242.09779 L49.633032,234.46039 C50.7993026,233.787044 52.235757,233.785128 53.4038197,234.455361 C54.5718823,235.125593 55.2950829,236.366716 55.302269,237.71339 L55.302269,307.51919 C55.302269,308.869458 54.5818481,310.117157 53.4124819,310.792291 C52.2431156,311.467425 50.802397,311.467424 49.633031,310.79229 L36.404685,303.15499 C34.0659911,301.804745 32.62525,299.309381 32.62525,296.60889 L32.62525,248.60679 C32.6385221,245.919566 34.0774527,243.441418 36.404685,242.09779 L36.404685,242.09779 Z" id="path326"></path>
            <path d="M34.8928755,520.18539 C34.8928755,513.714526 29.6472034,508.468855 23.1763395,508.468855 C16.7054756,508.468855 11.4598035,513.714526 11.4598035,520.18539 C11.4585809,524.37212 13.6914724,528.241342 17.3170834,530.33506 C20.9426944,532.428779 25.4099846,532.428779 29.0355956,530.33506 C32.6612066,528.241342 34.8940981,524.37212 34.8928755,520.18539 Z" id="path328"></path>
            <path d="M21.286575,168.68939 C21.286575,165.558327 18.7483467,163.020098 15.6172834,163.020098 C12.4862201,163.020098 9.9479918,165.558327 9.9479918,168.68939 C9.9479918,171.820453 12.4862201,174.358682 15.6172834,174.358682 C18.7483467,174.358682 21.286575,171.820453 21.286575,168.68939 Z" id="path330"></path>
            <path d="M21.286575,376.56339 C21.286575,373.432327 18.7483469,370.894099 15.6172839,370.894099 C12.4862209,370.894099 9.9479928,373.432327 9.9479928,376.56339 C9.9479928,379.694453 12.4862209,382.232681 15.6172839,382.232681 C18.7483469,382.232681 21.286575,379.694453 21.286575,376.56339 Z" id="path332"></path>
            <path d="M121.822251,376.56339 C121.823473,372.37666 119.590582,368.507439 115.964971,366.413721 C112.33936,364.320003 107.872071,364.320003 104.24646,366.413721 C100.620849,368.507439 98.3879579,372.37666 98.3891805,376.56339 C98.3879579,380.75012 100.620849,384.619341 104.24646,386.713059 C107.872071,388.806777 112.33936,388.806777 115.964971,386.713059 C119.590582,384.619341 121.823473,380.75012 121.822251,376.56339 L121.822251,376.56339 Z" id="path334"></path>
            <path d="M93.097599,456.51819 C93.097599,453.817576 91.6568715,451.322097 89.318071,449.97179" id="path336"></path>
            <path d="M27.3338204,376.56339 C27.334914,372.376746 25.1019942,368.507659 21.4764362,366.414021 C17.8508782,364.320383 13.3836906,364.320383 9.75813262,366.414021 C6.1325746,368.507659 3.89965481,372.376746 3.9007484,376.56339 C3.89965481,380.750034 6.1325746,384.619121 9.75813262,386.712759 C13.3836906,388.806397 17.8508782,388.806397 21.4764362,386.712759 C25.1019942,384.619121 27.334914,380.750034 27.3338204,376.56339 L27.3338204,376.56339 Z" id="path338"></path>
            <line x1="49.633019" y1="148.27265" x2="36.404672" y2="140.63526" id="path340"></line>
            <line x1="55.302322" y1="76.539979" x2="55.302194" y2="144.99956" id="path342"></line>
            <path d="M70.420433,307.51919 C70.420433,308.869473 71.1408406,310.117175 72.3102259,310.792306 C73.4796112,311.467437 74.9203444,311.467431 76.089724,310.79229" id="path344"></path>
            <path d="M76.089725,234.46039 C74.9203299,233.785239 73.479575,233.785243 72.3101828,234.460398 C71.1407907,235.135554 70.420433,236.383289 70.420433,237.73359" id="path346"></path>
            <path d="M21.286575,13.728709 C21.286575,10.5976457 18.7483467,8.0594174 15.6172834,8.0594174 C12.4862201,8.0594174 9.9479918,10.5976457 9.9479918,13.728709 C9.9479918,16.8597723 12.4862201,19.3980006 15.6172834,19.3980006 C18.7483467,19.3980006 21.286575,16.8597723 21.286575,13.728709 Z" id="path348"></path>
            <path d="M55.302322,76.539979 C55.302322,73.8393783 53.8615728,71.3439193 51.522784,69.993619" id="path350"></path>
            <path d="M115.774762,168.68939 C115.776234,166.662965 114.695996,164.789841 112.941306,163.776203 C111.186616,162.762565 109.024324,162.762565 107.269634,163.776203 C105.514944,164.789841 104.434706,166.662965 104.436178,168.68939 C104.434706,170.715815 105.514944,172.588939 107.269634,173.602577 C109.024324,174.616215 111.186616,174.616215 112.941306,173.602577 C114.695996,172.588939 115.776234,170.715815 115.774762,168.68939 Z" id="path352"></path>
            <path d="M114.262952,520.18539 C114.26468,515.998323 112.0319,512.128572 108.406081,510.034539 C104.780262,507.940506 100.31257,507.940506 96.6867511,510.034539 C93.0609324,512.128572 90.8281521,515.998323 90.82988,520.18539 C90.8274352,524.372935 93.0600588,528.243433 96.6861719,530.337913 C100.312285,532.432392 104.780547,532.432392 108.40666,530.337913 C112.032773,528.243433 114.265397,524.372935 114.262952,520.18539 L114.262952,520.18539 Z" id="path354"></path>
            <path d="M28.845631,520.18539 C28.845631,517.054327 26.3074027,514.516098 23.1763395,514.516098 C20.0452763,514.516098 17.507048,517.054327 17.507048,520.18539 C17.507048,523.316453 20.0452763,525.854681 23.1763395,525.854681 C26.3074027,525.854681 28.845631,523.316453 28.845631,520.18539 Z" id="path356"></path>
            <line x1="93.097599" y1="248.64419" x2="93.097598" y2="296.60859" id="path358"></line>
            <line x1="70.420433" y1="237.73359" x2="70.420433" y2="307.51919" id="path360"></line>
            <path d="M55.302323,211.70489 C55.302323,214.405504 53.8615961,216.900983 51.522796,218.25129 L38.294449,225.88869 C37.125054,226.56384 35.6842994,226.563837 34.5149076,225.888681 C33.3455157,225.213526 32.625158,223.965791 32.625158,222.61549 L32.625158,203.28979 C32.625158,200.589212 34.0659159,198.093779 36.404685,196.74349 L49.633032,189.10609 C50.802427,188.43094 52.2431816,188.430943 53.4125734,189.106099 C54.5819653,189.781254 55.302323,191.028989 55.302323,192.37929 L55.302323,211.70489 Z" id="path362"></path>
            <path d="M87.428308,225.88869 C88.597703,226.56384 90.0384576,226.563837 91.2078494,225.888681 C92.3772413,225.213526 93.097599,223.965791 93.097599,222.61549" id="path364"></path>
            <line x1="74.199972" y1="218.25129" x2="87.428308" y2="225.88869" id="path366"></line>
            <line x1="93.097599" y1="203.28979" x2="93.097599" y2="222.61549" id="path368"></line>
            <path d="M70.420434,211.70489 C70.420434,214.405505 71.8611708,216.900983 74.199972,218.25129" id="path370"></path>
            <path d="M76.089725,189.10609 C74.9203299,188.430939 73.479575,188.430943 72.3101828,189.106098 C71.1407907,189.781254 70.420433,191.028989 70.420433,192.37929" id="path372"></path>
            <line x1="70.420434" y1="211.70489" x2="70.420433" y2="192.37929" id="path374"></line>
            <line x1="76.089725" y1="189.10609" x2="89.318071" y2="196.74349" id="path376"></line>
            <path d="M93.097599,203.28979 C93.097599,200.589212 91.6568405,198.093779 89.318071,196.74349" id="path378"></path>
            <path d="M70.3136177,352.87339 C70.3118277,354.223682 71.0305415,355.47236 72.1990308,356.149061 C73.3675201,356.825762 74.808264,356.827679 75.97855,356.15409" id="path380"></path>
            <path d="M55.195524,352.85329 C55.19372,354.203581 54.4716834,355.450339 53.3013972,356.123925 C52.131111,356.797511 50.6903685,356.795592 49.521881,356.11889 L36.303712,348.46389 C33.9667496,347.110494 32.5293274,344.613157 32.5328944,341.91259 L32.558621,322.58689 C32.560425,321.236599 33.2824616,319.989841 34.4527478,319.316255 C35.623034,318.642669 37.0637765,318.644588 38.232264,319.32129 L51.450433,326.97629 C53.7874259,328.329705 55.2248526,330.827088 55.2212498,333.52769 L55.195524,352.85329 Z" id="path382"></path>
            <path d="M74.127592,327.00649 C71.7870153,328.353672 70.3429441,330.8472 70.339344,333.54779" id="path384"></path>
            <line x1="70.339344" y1="333.54779" x2="70.313624" y2="352.87339" id="path386"></line>
            <line x1="93.005289" y1="341.99309" x2="93.031009" y2="322.66739" id="path388"></line>
            <path d="M89.217051,348.53439 C91.557627,347.187209 93.0016953,344.693679 93.005289,341.99309" id="path390"></path>
            <line x1="75.97855" y1="356.15409" x2="89.217051" y2="348.53439" id="path392"></line>
            <path d="M93.0310153,322.66739 C93.0328055,321.317098 92.3140915,320.068419 91.1456019,319.391718 C89.9771124,318.715017 88.536368,318.713101 87.366082,319.38669" id="path394"></path>
            <line x1="74.127592" y1="327.00649" x2="87.366082" y2="319.38669" id="path396"></line>
            <path d="M89.318071,404.61749 C91.6568405,405.967779 93.097599,408.463212 93.097599,411.16379 L93.097599,430.48949 C93.097599,431.839791 92.3772413,433.087526 91.2078494,433.762681 C90.0384576,434.437837 88.597703,434.43784 87.428308,433.76269 L74.199972,426.12529 C71.8611708,424.774983 70.420433,422.279505 70.420433,419.57889 L70.420433,400.25329 C70.420433,398.902989 71.1407907,397.655254 72.3101828,396.980098 C73.479575,396.304943 74.9203299,396.304939 76.089725,396.98009 L89.318071,404.61749 Z" id="path398"></path>
            <path d="M49.633032,396.98009 C50.802427,396.30494 52.2431816,396.304943 53.4125734,396.980099 C54.5819653,397.655254 55.302323,398.902989 55.302323,400.25329 L55.302323,419.57889 C55.302323,422.279504 53.8615961,424.774983 51.522796,426.12529 L38.294449,433.76269 C37.125054,434.43784 35.6842994,434.437837 34.5149076,433.762681 C33.3455157,433.087526 32.625158,431.839791 32.625158,430.48949 L32.625158,411.16379 C32.625158,408.463212 34.0659159,405.967779 36.404685,404.61749 L49.633032,396.98009 Z" id="path400"></path>
            <path d="M89.217051,492.15639 C91.557627,490.809209 93.0016953,488.315679 93.005289,485.61509" id="path402"></path>
            <line x1="75.97855" y1="499.77619" x2="89.217051" y2="492.15639" id="path404"></line>
            <path d="M70.3136177,496.49549 C70.3118277,497.845782 71.0305415,499.09446 72.1990308,499.771161 C73.3675201,500.447862 74.808264,500.449779 75.97855,499.77619" id="path406"></path>
            <line x1="93.097599" y1="456.51819" x2="93.005289" y2="485.61509" id="path408"></line>
            <line x1="70.420434" y1="445.60759" x2="70.313621" y2="496.49549" id="path410"></line>
        </g>
        <path d="M121.866699,50.0966797 C123.214844,50.0966797 124.095703,49.1245117 124.095703,47.6259766 L124.095703,46.5410156 C124.095703,45.0478516 123.214844,44.0756836 121.866699,44.0756836 C121.023438,44.0756836 120.405762,44.4355469 120.147949,45.074707 L120.05127,45.074707 L120.05127,41.8842773 L119.12207,41.8842773 L119.12207,50 L120.019043,50 L120.019043,49.1083984 L120.121094,49.1083984 C120.421875,49.7529297 121.03418,50.0966797 121.866699,50.0966797 Z M121.598145,49.2641602 C120.64209,49.2641602 120.029785,48.5766602 120.029785,47.4970703 L120.029785,46.6591797 C120.029785,45.5849609 120.64209,44.8974609 121.598145,44.8974609 C122.564941,44.8974609 123.177246,45.5849609 123.177246,46.6591797 L123.177246,47.4970703 C123.177246,48.5712891 122.564941,49.2641602 121.598145,49.2641602 Z M128.30127,50.1074219 C129.842773,50.1074219 130.825684,49.1030273 130.825684,47.5292969 L130.825684,46.6484375 C130.825684,45.074707 129.842773,44.0703125 128.30127,44.0703125 C126.759766,44.0703125 125.776855,45.074707 125.776855,46.6484375 L125.776855,47.5292969 C125.776855,49.1030273 126.759766,50.1074219 128.30127,50.1074219 Z M128.30127,49.2963867 C127.302246,49.2963867 126.679199,48.5927734 126.679199,47.4433594 L126.679199,46.7290039 C126.679199,45.5849609 127.302246,44.8759766 128.30127,44.8759766 C129.300293,44.8759766 129.92334,45.5849609 129.92334,46.7290039 L129.92334,47.4433594 C129.92334,48.5927734 129.300293,49.2963867 128.30127,49.2963867 Z M136.223633,50.0268555 C136.50293,50.0268555 137.211914,50 137.356934,49.9731445 L137.356934,49.199707 C137.201172,49.2158203 136.615723,49.2319336 136.288086,49.2319336 C135.466309,49.2319336 135.020508,48.8881836 135.020508,48.2543945 L135.020508,44.9672852 L137.373047,44.9672852 L137.373047,44.1884766 L135.009766,44.1884766 L135.009766,42.609375 L134.107422,42.609375 L134.107422,44.1884766 L132.555176,44.1884766 L132.555176,44.9672852 L134.107422,44.9672852 L134.107422,48.2651367 C134.107422,49.4790039 134.778809,50.0268555 136.223633,50.0268555 Z M143.023438,50.0268555 C143.302734,50.0268555 144.011719,50 144.156738,49.9731445 L144.156738,49.199707 C144.000977,49.2158203 143.415527,49.2319336 143.087891,49.2319336 C142.266113,49.2319336 141.820312,48.8881836 141.820312,48.2543945 L141.820312,44.9672852 L144.172852,44.9672852 L144.172852,44.1884766 L141.80957,44.1884766 L141.80957,42.609375 L140.907227,42.609375 L140.907227,44.1884766 L139.35498,44.1884766 L139.35498,44.9672852 L140.907227,44.9672852 L140.907227,48.2651367 C140.907227,49.4790039 141.578613,50.0268555 143.023438,50.0268555 Z M148.700684,50.1074219 C150.242188,50.1074219 151.225098,49.1030273 151.225098,47.5292969 L151.225098,46.6484375 C151.225098,45.074707 150.242188,44.0703125 148.700684,44.0703125 C147.15918,44.0703125 146.17627,45.074707 146.17627,46.6484375 L146.17627,47.5292969 C146.17627,49.1030273 147.15918,50.1074219 148.700684,50.1074219 Z M148.700684,49.2963867 C147.70166,49.2963867 147.078613,48.5927734 147.078613,47.4433594 L147.078613,46.7290039 C147.078613,45.5849609 147.70166,44.8759766 148.700684,44.8759766 C149.699707,44.8759766 150.322754,45.5849609 150.322754,46.7290039 L150.322754,47.4433594 C150.322754,48.5927734 149.699707,49.2963867 148.700684,49.2963867 Z M153.513184,50 L153.513184,46.0683594 C153.513184,45.3432617 153.835449,44.8974609 154.351074,44.8974609 C154.845215,44.8974609 155.103027,45.2680664 155.103027,45.9716797 L155.103027,50 L155.919434,50 L155.919434,46.0683594 C155.919434,45.3432617 156.230957,44.8974609 156.741211,44.8974609 C157.22998,44.8974609 157.487793,45.2680664 157.487793,45.9770508 L157.487793,50 L158.30957,50 L158.30957,45.7084961 C158.30957,44.6289062 157.885254,44.0649414 157.074219,44.0649414 C156.48877,44.0649414 156.021484,44.4194336 155.871094,44.9780273 L155.774414,44.9780273 C155.650879,44.4033203 155.26416,44.0649414 154.716309,44.0649414 C154.168457,44.0649414 153.749512,44.4086914 153.604492,44.9941406 L153.507812,44.9941406 L153.507812,44.1723633 L152.691406,44.1723633 L152.691406,50 L153.513184,50 Z M165.087891,51.6757812 L165.087891,50.8862305 L159.512695,50.8862305 L159.512695,51.6757812 L165.087891,51.6757812 Z M167.649902,51.9658203 L167.649902,49.0976562 L167.751953,49.0976562 C168.004395,49.7368164 168.62207,50.0966797 169.465332,50.0966797 C170.813477,50.0966797 171.694336,49.1245117 171.694336,47.6313477 L171.694336,46.5463867 C171.694336,45.0478516 170.813477,44.0756836 169.465332,44.0756836 C168.632812,44.0756836 168.025879,44.4194336 167.719727,45.0639648 L167.623047,45.0639648 L167.623047,44.1723633 L166.720703,44.1723633 L166.720703,51.9658203 L167.649902,51.9658203 Z M169.202148,49.2802734 C168.240723,49.2802734 167.628418,48.5927734 167.628418,47.5131836 L167.628418,46.675293 C167.628418,45.6010742 168.240723,44.9135742 169.202148,44.9135742 C170.163574,44.9135742 170.775879,45.6010742 170.775879,46.675293 L170.775879,47.5131836 C170.775879,48.5874023 170.163574,49.2802734 169.202148,49.2802734 Z M178.445801,50 L178.445801,49.2426758 L176.522949,49.2426758 L176.522949,41.8842773 L173.633301,41.8842773 L173.633301,42.6416016 L175.609863,42.6416016 L175.609863,49.2426758 L173.617188,49.2426758 L173.617188,50 L178.445801,50 Z M182.108887,50.1020508 C182.95752,50.1020508 183.591309,49.7529297 183.870605,49.1298828 L183.961914,49.1298828 L183.961914,50.0053711 L184.832031,50.0053711 L184.832031,46.0146484 C184.832031,44.8007812 184.047852,44.1025391 182.678223,44.1025391 C181.48584,44.1025391 180.583496,44.7416992 180.476074,45.6762695 L181.373047,45.6762695 C181.523438,45.1767578 181.996094,44.8920898 182.66748,44.8920898 C183.478516,44.8920898 183.924316,45.2949219 183.924316,46.0253906 L183.924316,46.5517578 L182.32373,46.6323242 C180.99707,46.7021484 180.255859,47.3144531 180.255859,48.3457031 C180.255859,49.4038086 180.99707,50.1020508 182.108887,50.1020508 Z M182.37207,49.3017578 C181.63623,49.3017578 181.179688,48.9257812 181.179688,48.3134766 C181.179688,47.706543 181.609375,47.3574219 182.425781,47.3198242 L183.924316,47.25 L183.924316,47.9375 C183.924316,48.7163086 183.25293,49.3017578 182.37207,49.3017578 Z M190.62207,50.0268555 C190.901367,50.0268555 191.610352,50 191.755371,49.9731445 L191.755371,49.199707 C191.599609,49.2158203 191.01416,49.2319336 190.686523,49.2319336 C189.864746,49.2319336 189.418945,48.8881836 189.418945,48.2543945 L189.418945,44.9672852 L191.771484,44.9672852 L191.771484,44.1884766 L189.408203,44.1884766 L189.408203,42.609375 L188.505859,42.609375 L188.505859,44.1884766 L186.953613,44.1884766 L186.953613,44.9672852 L188.505859,44.9672852 L188.505859,48.2651367 C188.505859,49.4790039 189.177246,50.0268555 190.62207,50.0268555 Z M196.433594,50.1074219 C197.658203,50.1074219 198.582031,49.4575195 198.759277,48.4960938 L197.873047,48.4960938 C197.711914,49.0063477 197.169434,49.3178711 196.433594,49.3178711 C195.439941,49.3178711 194.806152,48.6303711 194.806152,47.5615234 L194.806152,47.3251953 L198.775391,47.3251953 L198.775391,46.7558594 C198.775391,45.0693359 197.883789,44.0649414 196.369141,44.0649414 C194.886719,44.0649414 193.903809,45.074707 193.903809,46.6108398 L193.903809,47.4863281 C193.903809,49.1459961 194.833008,50.1074219 196.433594,50.1074219 Z M197.873047,46.6323242 L194.806152,46.6323242 C194.806152,45.5151367 195.391602,44.8491211 196.36377,44.8491211 C197.303711,44.8491211 197.873047,45.5205078 197.873047,46.6323242 Z M203.099121,50.0322266 C203.630859,50.0322266 204.071289,49.5864258 204.071289,49.0385742 C204.071289,48.4960938 203.630859,48.050293 203.099121,48.050293 C202.567383,48.050293 202.126953,48.4960938 202.126953,49.0385742 C202.126953,49.5864258 202.567383,50.0322266 203.099121,50.0322266 Z M209.533691,50.0966797 C210.366211,50.0966797 210.978516,49.7529297 211.279297,49.1083984 L211.381348,49.1083984 L211.381348,50 L212.27832,50 L212.27832,41.8842773 L211.349121,41.8842773 L211.349121,45.074707 L211.252441,45.074707 C211,44.4355469 210.376953,44.0756836 209.533691,44.0756836 C208.185547,44.0756836 207.304688,45.0478516 207.304688,46.5410156 L207.304688,47.6259766 C207.304688,49.1245117 208.185547,50.0966797 209.533691,50.0966797 Z M209.802246,49.2641602 C208.84082,49.2641602 208.223145,48.5712891 208.223145,47.4970703 L208.223145,46.6591797 C208.223145,45.5849609 208.84082,44.8974609 209.802246,44.8974609 C210.758301,44.8974609 211.375977,45.5849609 211.375977,46.6591797 L211.375977,47.4970703 C211.375977,48.5766602 210.758301,49.2641602 209.802246,49.2641602 Z M215.178711,50 L216.650391,47.7548828 L216.720215,47.7548828 L218.186523,50 L219.244629,50 L217.23584,47.0458984 L219.228516,44.1723633 L218.202637,44.1723633 L216.757812,46.3798828 L216.682617,46.3798828 L215.232422,44.1723633 L214.152832,44.1723633 L216.166992,47.0834961 L214.168945,50 L215.178711,50 Z M223.552246,50 L223.552246,44.9672852 L226.114258,44.9672852 L226.114258,44.1884766 L223.541504,44.1884766 L223.541504,43.5869141 C223.541504,43.0014648 223.971191,42.7006836 224.782227,42.7006836 C225.109863,42.7006836 225.861816,42.722168 226.114258,42.7490234 L226.114258,42.0024414 C225.920898,41.9755859 225.109863,41.9487305 224.771484,41.9487305 C223.337402,41.9487305 222.63916,42.4750977 222.63916,43.6030273 L222.63916,44.1884766 L221.076172,44.1884766 L221.076172,44.9672852 L222.63916,44.9672852 L222.63916,50 L223.552246,50 Z" id="bottom_plate.dxf" fill="#FFFFFF" fill-rule="nonzero"></path>
        <path d="M426.608887,50.1074219 C427.897949,50.1074219 428.78418,49.3823242 428.929199,48.1953125 L428.026855,48.1953125 C427.914062,48.8613281 427.344727,49.2856445 426.592773,49.2856445 C425.577637,49.2856445 425.013672,48.5981445 425.013672,47.3466797 L425.013672,46.8203125 C425.013672,45.5688477 425.577637,44.8759766 426.592773,44.8759766 C427.344727,44.8759766 427.914062,45.3056641 428.026855,45.987793 L428.929199,45.987793 C428.778809,44.7900391 427.897949,44.0595703 426.608887,44.0595703 C425.024414,44.0595703 424.100586,45.0317383 424.100586,46.7021484 L424.100586,47.4648438 C424.100586,49.1352539 425.024414,50.1074219 426.608887,50.1074219 Z M433.435547,50.1074219 C434.660156,50.1074219 435.583984,49.4575195 435.76123,48.4960938 L434.875,48.4960938 C434.713867,49.0063477 434.171387,49.3178711 433.435547,49.3178711 C432.441895,49.3178711 431.808105,48.6303711 431.808105,47.5615234 L431.808105,47.3251953 L435.777344,47.3251953 L435.777344,46.7558594 C435.777344,45.0693359 434.885742,44.0649414 433.371094,44.0649414 C431.888672,44.0649414 430.905762,45.074707 430.905762,46.6108398 L430.905762,47.4863281 C430.905762,49.1459961 431.834961,50.1074219 433.435547,50.1074219 Z M434.875,46.6323242 L431.808105,46.6323242 C431.808105,45.5151367 432.393555,44.8491211 433.365723,44.8491211 C434.305664,44.8491211 434.875,45.5205078 434.875,46.6323242 Z M438.629395,50 L438.629395,46.5678711 C438.629395,45.5742188 439.273926,44.902832 440.235352,44.902832 C441.143066,44.902832 441.572754,45.3969727 441.572754,46.449707 L441.572754,50 L442.48584,50 L442.48584,46.21875 C442.48584,44.8222656 441.79834,44.0649414 440.530762,44.0649414 C439.644531,44.0649414 438.978516,44.4731445 438.666992,45.1982422 L438.591797,45.1982422 L438.591797,44.1723633 L437.716309,44.1723633 L437.716309,50 L438.629395,50 Z M448.023438,50.0268555 C448.302734,50.0268555 449.011719,50 449.156738,49.9731445 L449.156738,49.199707 C449.000977,49.2158203 448.415527,49.2319336 448.087891,49.2319336 C447.266113,49.2319336 446.820312,48.8881836 446.820312,48.2543945 L446.820312,44.9672852 L449.172852,44.9672852 L449.172852,44.1884766 L446.80957,44.1884766 L446.80957,42.609375 L445.907227,42.609375 L445.907227,44.1884766 L444.35498,44.1884766 L444.35498,44.9672852 L445.907227,44.9672852 L445.907227,48.2651367 C445.907227,49.4790039 446.578613,50.0268555 448.023438,50.0268555 Z M453.834961,50.1074219 C455.05957,50.1074219 455.983398,49.4575195 456.160645,48.4960938 L455.274414,48.4960938 C455.113281,49.0063477 454.570801,49.3178711 453.834961,49.3178711 C452.841309,49.3178711 452.20752,48.6303711 452.20752,47.5615234 L452.20752,47.3251953 L456.176758,47.3251953 L456.176758,46.7558594 C456.176758,45.0693359 455.285156,44.0649414 453.770508,44.0649414 C452.288086,44.0649414 451.305176,45.074707 451.305176,46.6108398 L451.305176,47.4863281 C451.305176,49.1459961 452.234375,50.1074219 453.834961,50.1074219 Z M455.274414,46.6323242 L452.20752,46.6323242 C452.20752,45.5151367 452.792969,44.8491211 453.765137,44.8491211 C454.705078,44.8491211 455.274414,45.5205078 455.274414,46.6323242 Z M462.074219,50 L462.074219,49.2695312 L460.269531,49.2695312 L460.269531,47.3896484 C460.269531,45.9072266 461.032227,45.015625 462.321289,45.015625 C462.638184,45.015625 463.01416,45.0800781 463.282715,45.1767578 L463.282715,44.1508789 C463.089355,44.0703125 462.772461,44.0219727 462.439453,44.0219727 C461.316895,44.0219727 460.591797,44.5805664 460.376953,45.6601562 L460.258789,45.6601562 L460.258789,44.1723633 L458.083496,44.1723633 L458.083496,44.902832 L459.37793,44.902832 L459.37793,49.2695312 L458.20166,49.2695312 L458.20166,50 L462.074219,50 Z M470.087891,51.6757812 L470.087891,50.8862305 L464.512695,50.8862305 L464.512695,51.6757812 L470.087891,51.6757812 Z M472.649902,51.9658203 L472.649902,49.0976562 L472.751953,49.0976562 C473.004395,49.7368164 473.62207,50.0966797 474.465332,50.0966797 C475.813477,50.0966797 476.694336,49.1245117 476.694336,47.6313477 L476.694336,46.5463867 C476.694336,45.0478516 475.813477,44.0756836 474.465332,44.0756836 C473.632812,44.0756836 473.025879,44.4194336 472.719727,45.0639648 L472.623047,45.0639648 L472.623047,44.1723633 L471.720703,44.1723633 L471.720703,51.9658203 L472.649902,51.9658203 Z M474.202148,49.2802734 C473.240723,49.2802734 472.628418,48.5927734 472.628418,47.5131836 L472.628418,46.675293 C472.628418,45.6010742 473.240723,44.9135742 474.202148,44.9135742 C475.163574,44.9135742 475.775879,45.6010742 475.775879,46.675293 L475.775879,47.5131836 C475.775879,48.5874023 475.163574,49.2802734 474.202148,49.2802734 Z M483.445801,50 L483.445801,49.2426758 L481.522949,49.2426758 L481.522949,41.8842773 L478.633301,41.8842773 L478.633301,42.6416016 L480.609863,42.6416016 L480.609863,49.2426758 L478.617188,49.2426758 L478.617188,50 L483.445801,50 Z M487.108887,50.1020508 C487.95752,50.1020508 488.591309,49.7529297 488.870605,49.1298828 L488.961914,49.1298828 L488.961914,50.0053711 L489.832031,50.0053711 L489.832031,46.0146484 C489.832031,44.8007812 489.047852,44.1025391 487.678223,44.1025391 C486.48584,44.1025391 485.583496,44.7416992 485.476074,45.6762695 L486.373047,45.6762695 C486.523438,45.1767578 486.996094,44.8920898 487.66748,44.8920898 C488.478516,44.8920898 488.924316,45.2949219 488.924316,46.0253906 L488.924316,46.5517578 L487.32373,46.6323242 C485.99707,46.7021484 485.255859,47.3144531 485.255859,48.3457031 C485.255859,49.4038086 485.99707,50.1020508 487.108887,50.1020508 Z M487.37207,49.3017578 C486.63623,49.3017578 486.179688,48.9257812 486.179688,48.3134766 C486.179688,47.706543 486.609375,47.3574219 487.425781,47.3198242 L488.924316,47.25 L488.924316,47.9375 C488.924316,48.7163086 488.25293,49.3017578 487.37207,49.3017578 Z M495.62207,50.0268555 C495.901367,50.0268555 496.610352,50 496.755371,49.9731445 L496.755371,49.199707 C496.599609,49.2158203 496.01416,49.2319336 495.686523,49.2319336 C494.864746,49.2319336 494.418945,48.8881836 494.418945,48.2543945 L494.418945,44.9672852 L496.771484,44.9672852 L496.771484,44.1884766 L494.408203,44.1884766 L494.408203,42.609375 L493.505859,42.609375 L493.505859,44.1884766 L491.953613,44.1884766 L491.953613,44.9672852 L493.505859,44.9672852 L493.505859,48.2651367 C493.505859,49.4790039 494.177246,50.0268555 495.62207,50.0268555 Z M501.433594,50.1074219 C502.658203,50.1074219 503.582031,49.4575195 503.759277,48.4960938 L502.873047,48.4960938 C502.711914,49.0063477 502.169434,49.3178711 501.433594,49.3178711 C500.439941,49.3178711 499.806152,48.6303711 499.806152,47.5615234 L499.806152,47.3251953 L503.775391,47.3251953 L503.775391,46.7558594 C503.775391,45.0693359 502.883789,44.0649414 501.369141,44.0649414 C499.886719,44.0649414 498.903809,45.074707 498.903809,46.6108398 L498.903809,47.4863281 C498.903809,49.1459961 499.833008,50.1074219 501.433594,50.1074219 Z M502.873047,46.6323242 L499.806152,46.6323242 C499.806152,45.5151367 500.391602,44.8491211 501.36377,44.8491211 C502.303711,44.8491211 502.873047,45.5205078 502.873047,46.6323242 Z M508.099121,50.0322266 C508.630859,50.0322266 509.071289,49.5864258 509.071289,49.0385742 C509.071289,48.4960938 508.630859,48.050293 508.099121,48.050293 C507.567383,48.050293 507.126953,48.4960938 507.126953,49.0385742 C507.126953,49.5864258 507.567383,50.0322266 508.099121,50.0322266 Z M514.533691,50.0966797 C515.366211,50.0966797 515.978516,49.7529297 516.279297,49.1083984 L516.381348,49.1083984 L516.381348,50 L517.27832,50 L517.27832,41.8842773 L516.349121,41.8842773 L516.349121,45.074707 L516.252441,45.074707 C516,44.4355469 515.376953,44.0756836 514.533691,44.0756836 C513.185547,44.0756836 512.304688,45.0478516 512.304688,46.5410156 L512.304688,47.6259766 C512.304688,49.1245117 513.185547,50.0966797 514.533691,50.0966797 Z M514.802246,49.2641602 C513.84082,49.2641602 513.223145,48.5712891 513.223145,47.4970703 L513.223145,46.6591797 C513.223145,45.5849609 513.84082,44.8974609 514.802246,44.8974609 C515.758301,44.8974609 516.375977,45.5849609 516.375977,46.6591797 L516.375977,47.4970703 C516.375977,48.5766602 515.758301,49.2641602 514.802246,49.2641602 Z M520.178711,50 L521.650391,47.7548828 L521.720215,47.7548828 L523.186523,50 L524.244629,50 L522.23584,47.0458984 L524.228516,44.1723633 L523.202637,44.1723633 L521.757812,46.3798828 L521.682617,46.3798828 L520.232422,44.1723633 L519.152832,44.1723633 L521.166992,47.0834961 L519.168945,50 L520.178711,50 Z M528.552246,50 L528.552246,44.9672852 L531.114258,44.9672852 L531.114258,44.1884766 L528.541504,44.1884766 L528.541504,43.5869141 C528.541504,43.0014648 528.971191,42.7006836 529.782227,42.7006836 C530.109863,42.7006836 530.861816,42.722168 531.114258,42.7490234 L531.114258,42.0024414 C530.920898,41.9755859 530.109863,41.9487305 529.771484,41.9487305 C528.337402,41.9487305 527.63916,42.4750977 527.63916,43.6030273 L527.63916,44.1884766 L526.076172,44.1884766 L526.076172,44.9672852 L527.63916,44.9672852 L527.63916,50 L528.552246,50 Z" id="center_plate.dxf" fill="#FFFFFF" fill-rule="nonzero"></path>
        <path d="M535.009766,467.102051 C535.858398,467.102051 536.492188,466.75293 536.771484,466.129883 L536.862793,466.129883 L536.862793,467.005371 L537.73291,467.005371 L537.73291,463.014648 C537.73291,461.800781 536.94873,461.102539 535.579102,461.102539 C534.386719,461.102539 533.484375,461.741699 533.376953,462.67627 L534.273926,462.67627 C534.424316,462.176758 534.896973,461.89209 535.568359,461.89209 C536.379395,461.89209 536.825195,462.294922 536.825195,463.025391 L536.825195,463.551758 L535.224609,463.632324 C533.897949,463.702148 533.156738,464.314453 533.156738,465.345703 C533.156738,466.403809 533.897949,467.102051 535.009766,467.102051 Z M535.272949,466.301758 C534.537109,466.301758 534.080566,465.925781 534.080566,465.313477 C534.080566,464.706543 534.510254,464.357422 535.32666,464.319824 L536.825195,464.25 L536.825195,464.9375 C536.825195,465.716309 536.153809,466.301758 535.272949,466.301758 Z M543.974121,467 L543.974121,466.269531 L542.169434,466.269531 L542.169434,464.389648 C542.169434,462.907227 542.932129,462.015625 544.221191,462.015625 C544.538086,462.015625 544.914062,462.080078 545.182617,462.176758 L545.182617,461.150879 C544.989258,461.070312 544.672363,461.021973 544.339355,461.021973 C543.216797,461.021973 542.491699,461.580566 542.276855,462.660156 L542.158691,462.660156 L542.158691,461.172363 L539.983398,461.172363 L539.983398,461.902832 L541.277832,461.902832 L541.277832,466.269531 L540.101562,466.269531 L540.101562,467 L543.974121,467 Z M547.212891,467 L547.212891,463.068359 C547.212891,462.343262 547.535156,461.897461 548.050781,461.897461 C548.544922,461.897461 548.802734,462.268066 548.802734,462.97168 L548.802734,467 L549.619141,467 L549.619141,463.068359 C549.619141,462.343262 549.930664,461.897461 550.440918,461.897461 C550.929688,461.897461 551.1875,462.268066 551.1875,462.977051 L551.1875,467 L552.009277,467 L552.009277,462.708496 C552.009277,461.628906 551.584961,461.064941 550.773926,461.064941 C550.188477,461.064941 549.721191,461.419434 549.570801,461.978027 L549.474121,461.978027 C549.350586,461.40332 548.963867,461.064941 548.416016,461.064941 C547.868164,461.064941 547.449219,461.408691 547.304199,461.994141 L547.20752,461.994141 L547.20752,461.172363 L546.391113,461.172363 L546.391113,467 L547.212891,467 Z M556,467.032227 C556.531738,467.032227 556.972168,466.586426 556.972168,466.038574 C556.972168,465.496094 556.531738,465.050293 556,465.050293 C555.468262,465.050293 555.027832,465.496094 555.027832,466.038574 C555.027832,466.586426 555.468262,467.032227 556,467.032227 Z M562.43457,467.09668 C563.26709,467.09668 563.879395,466.75293 564.180176,466.108398 L564.282227,466.108398 L564.282227,467 L565.179199,467 L565.179199,458.884277 L564.25,458.884277 L564.25,462.074707 L564.15332,462.074707 C563.900879,461.435547 563.277832,461.075684 562.43457,461.075684 C561.086426,461.075684 560.205566,462.047852 560.205566,463.541016 L560.205566,464.625977 C560.205566,466.124512 561.086426,467.09668 562.43457,467.09668 Z M562.703125,466.26416 C561.741699,466.26416 561.124023,465.571289 561.124023,464.49707 L561.124023,463.65918 C561.124023,462.584961 561.741699,461.897461 562.703125,461.897461 C563.65918,461.897461 564.276855,462.584961 564.276855,463.65918 L564.276855,464.49707 C564.276855,465.57666 563.65918,466.26416 562.703125,466.26416 Z M568.07959,467 L569.55127,464.754883 L569.621094,464.754883 L571.087402,467 L572.145508,467 L570.136719,464.045898 L572.129395,461.172363 L571.103516,461.172363 L569.658691,463.379883 L569.583496,463.379883 L568.133301,461.172363 L567.053711,461.172363 L569.067871,464.083496 L567.069824,467 L568.07959,467 Z M576.453125,467 L576.453125,461.967285 L579.015137,461.967285 L579.015137,461.188477 L576.442383,461.188477 L576.442383,460.586914 C576.442383,460.001465 576.87207,459.700684 577.683105,459.700684 C578.010742,459.700684 578.762695,459.722168 579.015137,459.749023 L579.015137,459.002441 C578.821777,458.975586 578.010742,458.94873 577.672363,458.94873 C576.238281,458.94873 575.540039,459.475098 575.540039,460.603027 L575.540039,461.188477 L573.977051,461.188477 L573.977051,461.967285 L575.540039,461.967285 L575.540039,467 L576.453125,467 Z" id="arm.dxf" fill="#FFFFFF" fill-rule="nonzero"></path>
        <path d="M784.82373,50.0268555 C785.103027,50.0268555 785.812012,50 785.957031,49.9731445 L785.957031,49.199707 C785.80127,49.2158203 785.21582,49.2319336 784.888184,49.2319336 C784.066406,49.2319336 783.620605,48.8881836 783.620605,48.2543945 L783.620605,44.9672852 L785.973145,44.9672852 L785.973145,44.1884766 L783.609863,44.1884766 L783.609863,42.609375 L782.70752,42.609375 L782.70752,44.1884766 L781.155273,44.1884766 L781.155273,44.9672852 L782.70752,44.9672852 L782.70752,48.2651367 C782.70752,49.4790039 783.378906,50.0268555 784.82373,50.0268555 Z M790.500977,50.1074219 C792.04248,50.1074219 793.025391,49.1030273 793.025391,47.5292969 L793.025391,46.6484375 C793.025391,45.074707 792.04248,44.0703125 790.500977,44.0703125 C788.959473,44.0703125 787.976562,45.074707 787.976562,46.6484375 L787.976562,47.5292969 C787.976562,49.1030273 788.959473,50.1074219 790.500977,50.1074219 Z M790.500977,49.2963867 C789.501953,49.2963867 788.878906,48.5927734 788.878906,47.4433594 L788.878906,46.7290039 C788.878906,45.5849609 789.501953,44.8759766 790.500977,44.8759766 C791.5,44.8759766 792.123047,45.5849609 792.123047,46.7290039 L792.123047,47.4433594 C792.123047,48.5927734 791.5,49.2963867 790.500977,49.2963867 Z M795.850586,51.9658203 L795.850586,49.0976562 L795.952637,49.0976562 C796.205078,49.7368164 796.822754,50.0966797 797.666016,50.0966797 C799.01416,50.0966797 799.89502,49.1245117 799.89502,47.6313477 L799.89502,46.5463867 C799.89502,45.0478516 799.01416,44.0756836 797.666016,44.0756836 C796.833496,44.0756836 796.226562,44.4194336 795.92041,45.0639648 L795.82373,45.0639648 L795.82373,44.1723633 L794.921387,44.1723633 L794.921387,51.9658203 L795.850586,51.9658203 Z M797.402832,49.2802734 C796.441406,49.2802734 795.829102,48.5927734 795.829102,47.5131836 L795.829102,46.675293 C795.829102,45.6010742 796.441406,44.9135742 797.402832,44.9135742 C798.364258,44.9135742 798.976562,45.6010742 798.976562,46.675293 L798.976562,47.5131836 C798.976562,48.5874023 798.364258,49.2802734 797.402832,49.2802734 Z M806.888184,51.6757812 L806.888184,50.8862305 L801.312988,50.8862305 L801.312988,51.6757812 L806.888184,51.6757812 Z M809.450195,51.9658203 L809.450195,49.0976562 L809.552246,49.0976562 C809.804688,49.7368164 810.422363,50.0966797 811.265625,50.0966797 C812.61377,50.0966797 813.494629,49.1245117 813.494629,47.6313477 L813.494629,46.5463867 C813.494629,45.0478516 812.61377,44.0756836 811.265625,44.0756836 C810.433105,44.0756836 809.826172,44.4194336 809.52002,45.0639648 L809.42334,45.0639648 L809.42334,44.1723633 L808.520996,44.1723633 L808.520996,51.9658203 L809.450195,51.9658203 Z M811.002441,49.2802734 C810.041016,49.2802734 809.428711,48.5927734 809.428711,47.5131836 L809.428711,46.675293 C809.428711,45.6010742 810.041016,44.9135742 811.002441,44.9135742 C811.963867,44.9135742 812.576172,45.6010742 812.576172,46.675293 L812.576172,47.5131836 C812.576172,48.5874023 811.963867,49.2802734 811.002441,49.2802734 Z M820.246094,50 L820.246094,49.2426758 L818.323242,49.2426758 L818.323242,41.8842773 L815.433594,41.8842773 L815.433594,42.6416016 L817.410156,42.6416016 L817.410156,49.2426758 L815.41748,49.2426758 L815.41748,50 L820.246094,50 Z M823.90918,50.1020508 C824.757812,50.1020508 825.391602,49.7529297 825.670898,49.1298828 L825.762207,49.1298828 L825.762207,50.0053711 L826.632324,50.0053711 L826.632324,46.0146484 C826.632324,44.8007812 825.848145,44.1025391 824.478516,44.1025391 C823.286133,44.1025391 822.383789,44.7416992 822.276367,45.6762695 L823.17334,45.6762695 C823.32373,45.1767578 823.796387,44.8920898 824.467773,44.8920898 C825.278809,44.8920898 825.724609,45.2949219 825.724609,46.0253906 L825.724609,46.5517578 L824.124023,46.6323242 C822.797363,46.7021484 822.056152,47.3144531 822.056152,48.3457031 C822.056152,49.4038086 822.797363,50.1020508 823.90918,50.1020508 Z M824.172363,49.3017578 C823.436523,49.3017578 822.97998,48.9257812 822.97998,48.3134766 C822.97998,47.706543 823.409668,47.3574219 824.226074,47.3198242 L825.724609,47.25 L825.724609,47.9375 C825.724609,48.7163086 825.053223,49.3017578 824.172363,49.3017578 Z M832.422363,50.0268555 C832.70166,50.0268555 833.410645,50 833.555664,49.9731445 L833.555664,49.199707 C833.399902,49.2158203 832.814453,49.2319336 832.486816,49.2319336 C831.665039,49.2319336 831.219238,48.8881836 831.219238,48.2543945 L831.219238,44.9672852 L833.571777,44.9672852 L833.571777,44.1884766 L831.208496,44.1884766 L831.208496,42.609375 L830.306152,42.609375 L830.306152,44.1884766 L828.753906,44.1884766 L828.753906,44.9672852 L830.306152,44.9672852 L830.306152,48.2651367 C830.306152,49.4790039 830.977539,50.0268555 832.422363,50.0268555 Z M838.233887,50.1074219 C839.458496,50.1074219 840.382324,49.4575195 840.55957,48.4960938 L839.67334,48.4960938 C839.512207,49.0063477 838.969727,49.3178711 838.233887,49.3178711 C837.240234,49.3178711 836.606445,48.6303711 836.606445,47.5615234 L836.606445,47.3251953 L840.575684,47.3251953 L840.575684,46.7558594 C840.575684,45.0693359 839.684082,44.0649414 838.169434,44.0649414 C836.687012,44.0649414 835.704102,45.074707 835.704102,46.6108398 L835.704102,47.4863281 C835.704102,49.1459961 836.633301,50.1074219 838.233887,50.1074219 Z M839.67334,46.6323242 L836.606445,46.6323242 C836.606445,45.5151367 837.191895,44.8491211 838.164062,44.8491211 C839.104004,44.8491211 839.67334,45.5205078 839.67334,46.6323242 Z M844.899414,50.0322266 C845.431152,50.0322266 845.871582,49.5864258 845.871582,49.0385742 C845.871582,48.4960938 845.431152,48.050293 844.899414,48.050293 C844.367676,48.050293 843.927246,48.4960938 843.927246,49.0385742 C843.927246,49.5864258 844.367676,50.0322266 844.899414,50.0322266 Z M851.333984,50.0966797 C852.166504,50.0966797 852.778809,49.7529297 853.07959,49.1083984 L853.181641,49.1083984 L853.181641,50 L854.078613,50 L854.078613,41.8842773 L853.149414,41.8842773 L853.149414,45.074707 L853.052734,45.074707 C852.800293,44.4355469 852.177246,44.0756836 851.333984,44.0756836 C849.98584,44.0756836 849.10498,45.0478516 849.10498,46.5410156 L849.10498,47.6259766 C849.10498,49.1245117 849.98584,50.0966797 851.333984,50.0966797 Z M851.602539,49.2641602 C850.641113,49.2641602 850.023438,48.5712891 850.023438,47.4970703 L850.023438,46.6591797 C850.023438,45.5849609 850.641113,44.8974609 851.602539,44.8974609 C852.558594,44.8974609 853.17627,45.5849609 853.17627,46.6591797 L853.17627,47.4970703 C853.17627,48.5766602 852.558594,49.2641602 851.602539,49.2641602 Z M856.979004,50 L858.450684,47.7548828 L858.520508,47.7548828 L859.986816,50 L861.044922,50 L859.036133,47.0458984 L861.028809,44.1723633 L860.00293,44.1723633 L858.558105,46.3798828 L858.48291,46.3798828 L857.032715,44.1723633 L855.953125,44.1723633 L857.967285,47.0834961 L855.969238,50 L856.979004,50 Z M865.352539,50 L865.352539,44.9672852 L867.914551,44.9672852 L867.914551,44.1884766 L865.341797,44.1884766 L865.341797,43.5869141 C865.341797,43.0014648 865.771484,42.7006836 866.58252,42.7006836 C866.910156,42.7006836 867.662109,42.722168 867.914551,42.7490234 L867.914551,42.0024414 C867.721191,41.9755859 866.910156,41.9487305 866.571777,41.9487305 C865.137695,41.9487305 864.439453,42.4750977 864.439453,43.6030273 L864.439453,44.1884766 L862.876465,44.1884766 L862.876465,44.9672852 L864.439453,44.9672852 L864.439453,50 L865.352539,50 Z" id="top_plate.dxf" fill="#FFFFFF" fill-rule="nonzero"></path>
        <g id="bottom_plate" transform="translate(40.000000, 64.000000)" stroke="#FFFFFF">
            <path d="M175.737742,315.40114 C175.739442,313.374564 174.659254,311.501201 172.904471,310.487421 C171.149687,309.473641 168.987213,309.473641 167.232429,310.487421 C165.477646,311.501201 164.397458,313.374564 164.399158,315.40114 C164.397458,317.427716 165.477646,319.301079 167.232429,320.314859 C168.987213,321.328639 171.149687,321.328639 172.904471,320.314859 C174.659254,319.301079 175.739442,317.427716 175.737742,315.40114 Z" id="path24"></path>
            <path d="M203.04164,309.39384 C192.530561,289.50516 192.530561,265.70642 203.04164,245.81774 C207.895297,236.63387 215.754372,229.394392 225.30505,225.30954 L247.99118,215.60654 C259.543628,210.665428 266.02723,198.280491 263.505391,185.971389 C260.983552,173.662288 250.151988,164.824813 237.58721,164.82474 L234.29924,164.82474 C209.258969,164.824737 188.956559,144.531758 188.94492,119.49149 L188.93062,88.704974 C188.92619,82.3660437 189.320445,76.0331096 190.11105,69.743674 L191.55053,58.292274 C192.332379,52.0724955 192.726617,45.8101091 192.73096,39.541384 L192.74536,18.717354 C192.749876,12.1982949 188.004275,6.6478527 181.5637,5.6393145 L165.01697,3.0482245 C143.319641,-0.349412068 121.225697,-0.349412068 99.528368,3.0482245 L82.982528,5.6391845 C76.5418614,6.64774085 71.7962059,12.1982813 71.800758,18.717434 L71.815358,39.541244 C71.8197012,45.8099691 72.2139389,52.0723555 72.995788,58.292134 L74.435268,69.743534 C75.2258735,76.0329696 75.6201284,82.3659037 75.615698,88.704834 L75.601398,119.49149 C75.5897591,144.531758 55.2873487,164.824737 30.247078,164.82474 L26.959108,164.82474 C14.3943299,164.824813 3.56276579,173.662288 1.04092684,185.971389 C-1.48091211,198.280491 5.00268998,210.665428 16.555138,215.60654 L39.241258,225.30954 C48.7919395,229.39439 56.651018,236.633868 61.504678,245.81774 C72.0157575,265.70642 72.0157575,289.50516 61.504678,309.39384 C56.6510361,318.577749 48.7919555,325.817265 39.241258,329.90214 L16.555138,339.60504 C5.0025582,344.546077 -1.4811616,356.931088 1.04069098,369.240281 C3.56254356,381.549473 14.3942383,390.386978 26.959108,390.38694 L30.225958,390.38694 C55.2744509,390.386941 75.5802709,410.692747 75.580288,435.74124 L75.580288,528.94444 C75.5802976,535.253705 80.0360272,540.684835 86.223658,541.91774 L93.103528,543.28854 C98.2268085,544.309386 103.514089,542.612924 107.08701,538.80184 L121.24398,523.70104 C124.10202,520.652463 128.094424,518.922826 132.273205,518.922826 C136.451986,518.922826 140.44439,520.652463 143.30243,523.70104 L157.4594,538.80184 C161.032321,542.612923 166.3196,544.309385 171.44288,543.28854 L178.32275,541.91774 C184.510381,540.684835 188.96611,535.253705 188.96612,528.94444 L188.96612,435.74124 C188.966137,410.692747 209.271957,390.386941 234.32045,390.38694 L237.5873,390.38694 C250.15217,390.386978 260.983864,381.549473 263.505717,369.240281 C266.02757,356.931088 259.54385,344.546077 247.99127,339.60504 L225.30514,329.90214 C215.754446,325.817263 207.895369,318.577747 203.04173,309.39384 L203.04164,309.39384 Z" id="path26"></path>
            <path d="M175.737742,239.81054 C175.739442,237.783964 174.659254,235.910601 172.904471,234.896821 C171.149687,233.883041 168.987213,233.883041 167.232429,234.896821 C165.477646,235.910601 164.397458,237.783964 164.399158,239.81054 C164.397458,241.837116 165.477646,243.710479 167.232429,244.724259 C168.987213,245.738039 171.149687,245.738039 172.904471,244.724259 C174.659254,243.710479 175.739442,241.837116 175.737742,239.81054 Z" id="path28"></path>
            <path d="M158.72981,432.72314 C161.06858,434.073428 162.50934,436.568861 162.50934,439.26944 L162.50934,468.33624 C162.50934,471.036854 161.068611,473.532334 158.72981,474.88264 L137.94241,486.88424 C134.434238,488.909685 130.111992,488.909685 126.60382,486.88424 L105.81642,474.88264 C103.477623,473.532331 102.0369,471.036852 102.0369,468.33624 L102.0369,439.26944 C102.0369,436.568863 103.477654,434.073431 105.81642,432.72314 L126.60382,420.72154 C130.111992,418.696095 134.434238,418.696095 137.94241,420.72154 L158.72981,432.72314 Z" id="path30"></path>
            <path d="M185.186501,381.54284 C185.187703,379.516596 184.107406,377.643754 182.352827,376.630284 C180.598249,375.616814 178.436171,375.616814 176.681593,376.630284 C174.927014,377.643754 173.846717,379.516596 173.847919,381.54284 C173.846717,383.569084 174.927014,385.441926 176.681593,386.455396 C178.436171,387.468866 180.598249,387.468866 182.352827,386.455396 C184.107406,385.441926 185.187703,383.569084 185.186501,381.54284 L185.186501,381.54284 Z" id="path32"></path>
            <path d="M173.84792,415.55854 C173.84792,413.471163 172.155767,411.77901 170.06839,411.77901 C167.981013,411.77901 166.28886,413.471163 166.28886,415.55854 C166.28886,417.645917 167.981013,419.33807 170.06839,419.33807 C172.155767,419.33807 173.84792,417.645917 173.84792,415.55854 L173.84792,415.55854 Z" id="path34"></path>
            <path d="M90.698309,381.54284 C90.6995115,379.516596 89.6192142,377.643754 87.8646355,376.630284 C86.1100568,375.616814 83.9479792,375.616814 82.1934005,376.630284 C80.4388218,377.643754 79.3585245,379.516596 79.359727,381.54284 C79.3585245,383.569084 80.4388218,385.441926 82.1934005,386.455396 C83.9479792,387.468866 86.1100568,387.468866 87.8646355,386.455396 C89.6192142,385.441926 90.6995115,383.569084 90.698309,381.54284 L90.698309,381.54284 Z" id="path36"></path>
            <path d="M173.84792,491.14914 C173.84792,489.061763 172.155767,487.36961 170.06839,487.36961 C167.981013,487.36961 166.28886,489.061763 166.28886,491.14914 C166.28886,493.236517 167.981013,494.92867 170.06839,494.92867 C172.155767,494.92867 173.84792,493.236517 173.84792,491.14914 Z" id="path38"></path>
            <path d="M124.71406,51.711214 C124.71406,53.0615092 123.993687,54.3092337 122.824298,54.9843819 C121.654908,55.6595301 120.21416,55.6595309 119.04477,54.984384 L105.81642,47.346994 C103.47764,45.9967002 102.03689,43.5012535 102.03689,40.800664 L102.03689,25.909574 C102.03689,23.9498684 103.534762,22.3152238 105.48701,22.144424 L120.60512,20.821764 C121.660753,20.7294068 122.706672,21.0844471 123.48794,21.8003457 C124.269209,22.5162444 124.71406,23.5272385 124.71406,24.586904 L124.71406,51.711214 Z" id="path40"></path>
            <path d="M98.257368,415.55854 C98.257368,413.471163 96.5652148,411.77901 94.477838,411.77901 C92.3904612,411.77901 90.698308,413.471163 90.698308,415.55854 C90.698308,417.645917 92.3904612,419.33807 94.477838,419.33807 C96.5652148,419.33807 98.257368,417.645917 98.257368,415.55854 L98.257368,415.55854 Z" id="path42"></path>
            <path d="M185.186502,173.66884 C185.187974,171.642415 184.107736,169.769291 182.353046,168.755653 C180.598356,167.742015 178.436064,167.742015 176.681374,168.755653 C174.926684,169.769291 173.846446,171.642415 173.847918,173.66884 C173.846446,175.695265 174.926684,177.568389 176.681374,178.582027 C178.436064,179.595665 180.598356,179.595665 182.353046,178.582027 C184.107736,177.568389 185.187974,175.695265 185.186502,173.66884 L185.186502,173.66884 Z" id="path44"></path>
            <path d="M98.257368,491.14914 C98.257368,489.061763 96.5652148,487.36961 94.477838,487.36961 C92.3904612,487.36961 90.698308,489.061763 90.698308,491.14914 C90.698308,493.236517 92.3904612,494.92867 94.477838,494.92867 C96.5652148,494.92867 98.257368,493.236517 98.257368,491.14914 L98.257368,491.14914 Z" id="path46"></path>
            <path d="M90.6983095,173.66884 C90.6997821,171.642415 89.619544,169.769291 87.8648542,168.755653 C86.1101643,167.742015 83.9478717,167.742015 82.1931818,168.755653 C80.438492,169.769291 79.3582539,171.642415 79.3597265,173.66884 C79.3582539,175.695265 80.438492,177.568389 82.1931818,178.582027 C83.9478717,179.595665 86.1101643,179.595665 87.8648542,178.582027 C89.619544,177.568389 90.6997821,175.695265 90.6983095,173.66884 L90.6983095,173.66884 Z" id="path48"></path>
            <path d="M98.2573695,525.16484 C98.2588421,523.138415 97.178604,521.265291 95.4239142,520.251653 C93.6692243,519.238015 91.5069317,519.238015 89.7522418,520.251653 C87.997552,521.265291 86.9173139,523.138415 86.9187865,525.16484 C86.9173139,527.191265 87.997552,529.064389 89.7522418,530.078027 C91.5069317,531.091665 93.6692243,531.091665 95.4239142,530.078027 C97.178604,529.064389 98.2588421,527.191265 98.2573695,525.16484 L98.2573695,525.16484 Z" id="path50"></path>
            <path d="M32.628309,363.93024 C32.6295115,361.903996 31.5492142,360.031154 29.7946355,359.017684 C28.0400568,358.004214 25.8779792,358.004214 24.1234005,359.017684 C22.3688218,360.031154 21.2885245,361.903996 21.289727,363.93024 C21.2885245,365.956484 22.3688218,367.829326 24.1234005,368.842796 C25.8779792,369.856266 28.0400568,369.856266 29.7946355,368.842796 C31.5492142,367.829326 32.6295115,365.956484 32.628309,363.93024 L32.628309,363.93024 Z" id="path52"></path>
            <path d="M32.628309,191.28144 C32.6295115,189.255196 31.5492142,187.382354 29.7946355,186.368884 C28.0400568,185.355414 25.8779792,185.355414 24.1234005,186.368884 C22.3688218,187.382354 21.2885245,189.255196 21.289727,191.28144 C21.2885245,193.307684 22.3688218,195.180526 24.1234005,196.193996 C25.8779792,197.207466 28.0400568,197.207466 29.7946355,196.193996 C31.5492142,195.180526 32.6295115,193.307684 32.628309,191.28144 L32.628309,191.28144 Z" id="path54"></path>
            <path d="M158.72981,47.346994 C161.06859,45.9967002 162.50934,43.5012535 162.50934,40.800664" id="path56"></path>
            <line x1="139.83217" y1="51.711214" x2="139.83217" y2="24.586904" id="path58"></line>
            <line x1="143.94111" y1="20.821764" x2="159.05922" y2="22.144424" id="path60"></line>
            <line x1="162.50934" y1="40.800664" x2="162.50934" y2="25.909574" id="path62"></line>
            <path d="M185.186512,18.708194 C185.187984,16.6817695 184.107746,14.808645 182.353056,13.795007 C180.598366,12.7813689 178.436074,12.7813689 176.681384,13.795007 C174.926694,14.808645 173.846456,16.6817695 173.847928,18.708194 C173.846456,20.7346185 174.926694,22.607743 176.681384,23.621381 C178.436074,24.6350191 180.598366,24.6350191 182.353056,23.621381 C184.107746,22.607743 185.187984,20.7346185 185.186512,18.708194 L185.186512,18.708194 Z" id="path64"></path>
            <line x1="145.50146" y1="54.984384" x2="158.72981" y2="47.346994" id="path66"></line>
            <path d="M90.6983195,18.708194 C90.6997921,16.6817695 89.619554,14.808645 87.8648642,13.795007 C86.1101743,12.7813689 83.9478817,12.7813689 82.1931918,13.795007 C80.438502,14.808645 79.3582639,16.6817695 79.3597365,18.708194 C79.3582639,20.7346185 80.438502,22.607743 82.1931918,23.621381 C83.9478817,24.6350191 86.1101743,24.6350191 87.8648642,23.621381 C89.619554,22.607743 90.6997921,20.7346185 90.6983195,18.708194 L90.6983195,18.708194 Z" id="path68"></path>
            <path d="M162.50934,25.909574 C162.50934,23.9498684 161.011468,22.3152238 159.05922,22.144424" id="path70"></path>
            <path d="M139.83217,51.711214 C139.83217,53.0615092 140.552543,54.3092337 141.721932,54.9843819 C142.891322,55.6595301 144.33207,55.6595309 145.50146,54.984384" id="path72"></path>
            <path d="M143.94111,20.821764 C142.885477,20.7294068 141.839558,21.0844471 141.05829,21.8003457 C140.277021,22.5162444 139.83217,23.5272385 139.83217,24.586904" id="path74"></path>
            <path d="M243.256501,363.93024 C243.257703,361.903996 242.177406,360.031154 240.422827,359.017684 C238.668249,358.004214 236.506171,358.004214 234.751593,359.017684 C232.997014,360.031154 231.916717,361.903996 231.917919,363.93024 C231.916717,365.956484 232.997014,367.829326 234.751593,368.842796 C236.506171,369.856266 238.668249,369.856266 240.422827,368.842796 C242.177406,367.829326 243.257703,365.956484 243.256501,363.93024 L243.256501,363.93024 Z" id="path76"></path>
            <path d="M243.256501,191.28144 C243.257703,189.255196 242.177406,187.382354 240.422827,186.368884 C238.668249,185.355414 236.506171,185.355414 234.751593,186.368884 C232.997014,187.382354 231.916717,189.255196 231.917919,191.28144 C231.916717,193.307684 232.997014,195.180526 234.751593,196.193996 C236.506171,197.207466 238.668249,197.207466 240.422827,196.193996 C242.177406,195.180526 243.257703,193.307684 243.256501,191.28144 L243.256501,191.28144 Z" id="path78"></path>
            <path d="M177.627443,525.16484 C177.629525,523.138009 176.549421,521.264246 174.79448,520.250228 C173.039539,519.23621 170.876761,519.23621 169.12182,520.250228 C167.366879,521.264246 166.286775,523.138009 166.288857,525.16484 C166.286775,527.191671 167.366879,529.065434 169.12182,530.079452 C170.876761,531.09347 173.039539,531.09347 174.79448,530.079452 C176.549421,529.065434 177.629525,527.191671 177.627443,525.16484 L177.627443,525.16484 Z" id="path80"></path>
            <path d="M100.147071,239.81054 C100.147921,237.78453 99.0675463,235.912056 97.3131121,234.898805 C95.5586779,233.885555 93.3968801,233.885555 91.6424459,234.898805 C89.8880117,235.912056 88.8076371,237.78453 88.8084875,239.81054 C88.8076371,241.83655 89.8880117,243.709024 91.6424459,244.722275 C93.3968801,245.735525 95.5586779,245.735525 97.3131121,244.722275 C99.0675463,243.709024 100.147921,241.83655 100.147071,239.81054 Z" id="path82"></path>
            <path d="M100.147071,315.40114 C100.147921,313.37513 99.0675463,311.502656 97.3131121,310.489405 C95.5586779,309.476155 93.3968801,309.476155 91.6424459,310.489405 C89.8880117,311.502656 88.8076371,313.37513 88.8084875,315.40114 C88.8076371,317.42715 89.8880117,319.299624 91.6424459,320.312875 C93.3968801,321.326125 95.5586779,321.326125 97.3131121,320.312875 C99.0675463,319.299624 100.147921,317.42715 100.147071,315.40114 Z" id="path84"></path>
            <path d="M162.50934,139.06837 C162.50934,141.768963 161.068593,144.264414 158.72981,145.61471 L145.50146,153.2521 C144.33207,153.927247 142.891322,153.927246 141.721932,153.252098 C140.552543,152.57695 139.83217,151.329225 139.83217,149.97893 L139.83217,81.519414 C139.83217,78.818821 141.272917,76.3233696 143.6117,74.973074 L156.84004,67.335684 C158.009431,66.660532 159.450182,66.6605301 160.619575,67.3356789 C161.788968,68.0108278 162.50934,69.2585557 162.50934,70.608854 L162.50934,139.06837 Z" id="path86"></path>
            <path d="M105.81642,145.61471 L119.04477,153.2521 C120.214133,153.927231 121.654846,153.92723 122.824209,153.252099 C123.993571,152.576967 124.71406,151.329273 124.71406,149.97901 L124.71406,81.519434 C124.71406,78.8188329 123.27331,76.3233738 120.93452,74.973074 L107.70619,67.335684 C106.536798,66.6605311 105.096044,66.6605301 103.92665,67.3356814 C102.757257,68.0108327 102.03689,69.2585639 102.03689,70.608864 L102.03689,139.0687 C102.03689,141.769157 103.477756,144.264481 105.81642,145.61471 L105.81642,145.61471 Z" id="path88"></path>
            <line x1="139.87836" y1="209.94924" x2="139.89406" y2="229.68124" id="path90"></line>
            <line x1="145.56904" y1="232.94804" x2="158.78405" y2="225.28764" id="path92"></line>
            <path d="M162.51686,199.11034 C162.51443,197.759469 161.792139,196.512316 160.62164,195.837933 C159.451142,195.16355 158.009929,195.164201 156.84004,195.83964" id="path94"></path>
            <line x1="162.55216" y1="218.73434" x2="162.51686" y2="199.11034" id="path96"></line>
            <path d="M107.70619,195.83964 L120.93452,203.47704 C123.286249,204.834812 124.736864,207.342301 124.7416,210.05784 L124.775806,229.71124 C124.778165,231.061508 124.059987,232.310468 122.8918,232.987645 C121.723613,233.664822 120.282893,233.667336 119.11235,232.99424 L105.87071,225.37984 C103.529701,224.03369 102.084677,221.540888 102.07996,218.84044 L102.045554,199.11434 C102.043224,197.764939 102.761576,196.51698 103.929609,195.841268 C105.097643,195.165557 106.537584,195.164936 107.7062,195.83964 L107.70619,195.83964 Z" id="path98"></path>
            <path d="M158.78405,225.28764 C161.120592,223.933201 162.557006,221.435065 162.552172,218.73434" id="path100"></path>
            <line x1="156.84004" y1="195.83964" x2="143.6117" y2="203.47704" id="path102"></line>
            <path d="M143.6117,203.47704 C141.299686,204.811881 139.876264,207.279557 139.878358,209.94924" id="path104"></path>
            <path d="M139.89404,229.68124 C139.895135,231.032166 140.617189,232.279788 141.787987,232.953755 C142.958786,233.627723 144.400284,233.625544 145.56904,232.94804" id="path106"></path>
            <path d="M102.07999,336.37114 C102.084707,333.670692 103.529731,331.17789 105.87074,329.83174 L119.11238,322.21744 C120.282923,321.544344 121.723643,321.546858 122.89183,322.224035 C124.060017,322.901212 124.778195,324.150172 124.775836,325.50044 L124.74163,345.15384 C124.736894,347.869379 123.286279,350.376868 120.93455,351.73464 L107.70622,359.37204 C106.537589,360.046753 105.097626,360.046123 103.929586,359.370387 C102.761546,358.694651 102.043208,357.446659 102.045574,356.09724 L102.07999,336.37114 Z" id="path108"></path>
            <line x1="139.87836" y1="345.26234" x2="139.89406" y2="325.53044" id="path110"></line>
            <line x1="156.84004" y1="359.37204" x2="143.6117" y2="351.73464" id="path112"></line>
            <path d="M139.878358,345.26234 C139.876228,347.932059 141.299655,350.399781 143.6117,351.73464" id="path114"></path>
            <line x1="162.55216" y1="336.47734" x2="162.51686" y2="356.10134" id="path116"></line>
            <path d="M156.84004,359.37204 C158.009929,360.047479 159.451142,360.04813 160.62164,359.373747 C161.792139,358.699364 162.51443,357.452211 162.51686,356.10134" id="path118"></path>
            <path d="M162.552172,336.47734 C162.557006,333.776615 161.120592,331.278479 158.78405,329.92404" id="path120"></path>
            <path d="M145.56904,322.26354 C144.400269,321.586027 142.958749,321.583858 141.787944,322.25785 C140.617139,322.931842 139.8951,324.179496 139.89404,325.53044" id="path122"></path>
            <line x1="145.56904" y1="322.26354" x2="158.78405" y2="329.92404" id="path124"></line>
        </g>
    </g>
</svg>